<svg width="224" height="166" viewBox="0 0 224 166" fill="none" xmlns="http://www.w3.org/2000/svg">
<path d="M223.5 145.878H0.5V145.99H223.5V145.878Z" fill="#EBEBEB"/>
<path d="M201.155 153.047H186.384V153.159H201.155V153.047Z" fill="#EBEBEB"/>
<path d="M148.224 154.259H144.348V154.371H148.224V154.259Z" fill="#EBEBEB"/>
<path d="M185.938 148.912H177.379V149.024H185.938V148.912Z" fill="#EBEBEB"/>
<path d="M43.1602 149.661H23.8975V149.773H43.1602V149.661Z" fill="#EBEBEB"/>
<path d="M49.957 149.661H47.1338V149.773H49.957V149.661Z" fill="#EBEBEB"/>
<path d="M100.917 151.541H59.1357V151.653H100.917V151.541Z" fill="#EBEBEB"/>
<path d="M106.202 126.006H20.0837C19.4091 126.005 18.7625 125.736 18.2858 125.259C17.8092 124.782 17.5415 124.136 17.5415 123.462V2.5219C17.5474 1.85178 17.8177 1.21104 18.2937 0.738845C18.7697 0.266652 19.4129 0.00114795 20.0837 0H106.202C106.877 0 107.525 0.268047 108.003 0.745173C108.48 1.2223 108.749 1.86942 108.749 2.54418V123.462C108.749 124.137 108.48 124.784 108.003 125.261C107.525 125.738 106.877 126.006 106.202 126.006ZM20.0837 0.0891135C19.4386 0.0902938 18.8204 0.347125 18.3647 0.803233C17.909 1.25934 17.653 1.87746 17.653 2.5219V123.462C17.653 124.106 17.909 124.724 18.3647 125.18C18.8204 125.637 19.4386 125.893 20.0837 125.895H106.202C106.847 125.893 107.466 125.637 107.922 125.181C108.379 124.725 108.636 124.107 108.637 123.462V2.5219C108.636 1.87705 108.379 1.25894 107.922 0.802961C107.466 0.34698 106.847 0.0902913 106.202 0.0891135H20.0837Z" fill="#EBEBEB"/>
<path d="M202.676 126.006H116.554C115.879 126.005 115.232 125.736 114.754 125.259C114.277 124.783 114.008 124.136 114.007 123.462V2.5219C114.014 1.85138 114.285 1.21064 114.762 0.738566C115.239 0.266497 115.883 0.00113543 116.554 0H202.676C203.346 0.00231894 203.988 0.268341 204.464 0.740409C204.939 1.21248 205.208 1.85255 205.214 2.5219V123.462C205.214 124.135 204.947 124.781 204.471 125.258C203.996 125.734 203.35 126.004 202.676 126.006ZM116.554 0.0891135C115.908 0.0902913 115.29 0.34698 114.833 0.802961C114.377 1.25894 114.12 1.87705 114.119 2.5219V123.462C114.12 124.107 114.377 124.725 114.833 125.181C115.29 125.637 115.908 125.893 116.554 125.895H202.676C203.322 125.893 203.941 125.637 204.397 125.181C204.853 124.725 205.11 124.107 205.111 123.462V2.5219C205.11 1.87705 204.853 1.25894 204.397 0.802961C203.941 0.34698 203.322 0.0902913 202.676 0.0891135H116.554Z" fill="#EBEBEB"/>
<path d="M74.8752 17.5508H43.0977V125.248H74.8752V17.5508Z" fill="#FAFAFA"/>
<path d="M70.143 17.5508H68.2877L57.2046 125.248H59.06L70.143 17.5508Z" fill="#F5F5F5"/>
<path d="M74.3128 17.9652H42.8921V18.9143H74.3128V17.9652Z" fill="#E0E0E0"/>
<path d="M74.3128 124.304H42.8921V126.336H74.3128V124.304Z" fill="#EBEBEB"/>
<path d="M73.7915 126.247H44.1013V126.336H73.7915V126.247Z" fill="#EBEBEB"/>
<path d="M44.1011 17.9652H73.7913V126.247H75.5664V16.6375H42.3215V126.247H44.1011V17.9652Z" fill="#EBEBEB"/>
<path d="M110.234 17.5508H78.4565V125.248H110.234V17.5508Z" fill="#FAFAFA"/>
<path d="M101.421 17.5508H91.2921L80.209 125.248H90.3376L101.421 17.5508Z" fill="#F5F5F5"/>
<path d="M110.568 17.9652H78.2556V18.9143H110.568V17.9652Z" fill="#E0E0E0"/>
<path d="M110.568 124.304H78.2556V126.336H110.568V124.304Z" fill="#EBEBEB"/>
<path d="M109.155 126.247H79.4646V126.336H109.155V126.247Z" fill="#EBEBEB"/>
<path d="M79.4644 17.9652H109.155V126.247H110.93V16.6375H77.6848V126.247H79.4644V17.9652Z" fill="#EBEBEB"/>
<path d="M144.705 17.5508H113.82V125.248H144.705V17.5508Z" fill="#FAFAFA"/>
<path d="M131.321 17.5508H129.465L118.382 125.248H120.237L131.321 17.5508Z" fill="#F5F5F5"/>
<path d="M145.039 17.9652H113.619V18.9143H145.039V17.9652Z" fill="#E0E0E0"/>
<path d="M145.039 124.304H113.619V126.336H145.039V124.304Z" fill="#EBEBEB"/>
<path d="M144.518 126.247H114.828V126.336H144.518V126.247Z" fill="#EBEBEB"/>
<path d="M114.823 17.9652H144.514V126.247H146.293V16.6375H113.048V126.247H114.823V17.9652Z" fill="#EBEBEB"/>
<path d="M180.961 17.5508H149.183V125.248H180.961V17.5508Z" fill="#FAFAFA"/>
<path d="M177.852 17.5508H167.723L156.636 125.248H166.769L177.852 17.5508Z" fill="#F5F5F5"/>
<path d="M180.398 17.9652H148.978V18.9143H180.398V17.9652Z" fill="#E0E0E0"/>
<path d="M180.398 124.304H148.978V126.336H180.398V124.304Z" fill="#EBEBEB"/>
<path d="M150.187 17.9652H179.877V126.247H181.656V16.6375H148.412V126.247H150.187V17.9652Z" fill="#EBEBEB"/>
<path d="M179.877 126.247H150.187V126.336H179.877V126.247Z" fill="#EBEBEB"/>
<path d="M67.2706 100.475H53.4758V124.308H67.2706V100.475Z" fill="#EBEBEB"/>
<path d="M64.6213 97.1466V103.122H63.5375H57.2132H56.125V97.1466H64.6213Z" fill="#EBEBEB"/>
<path d="M64.6259 103.122H66.3921V101.357H64.6259V103.122Z" fill="#FAFAFA"/>
<path d="M61.2053 103.122H62.9714V101.357H61.2053V103.122Z" fill="#FAFAFA"/>
<path d="M57.7844 103.122H59.5505V101.357H57.7844V103.122Z" fill="#FAFAFA"/>
<path d="M54.3588 103.122H56.125V101.357H54.3588V103.122Z" fill="#F0F0F0"/>
<path d="M64.6259 106.33H66.3921V104.565H64.6259V106.33Z" fill="#F0F0F0"/>
<path d="M61.2053 106.33H62.9714V104.565H61.2053V106.33Z" fill="#F0F0F0"/>
<path d="M57.7844 106.33H59.5505V104.565H57.7844V106.33Z" fill="#FAFAFA"/>
<path d="M54.3588 106.33H56.125V104.565H54.3588V106.33Z" fill="#FAFAFA"/>
<path d="M64.6259 109.538H66.3921V107.773H64.6259V109.538Z" fill="#F0F0F0"/>
<path d="M61.2053 109.538H62.9714V107.773H61.2053V109.538Z" fill="#FAFAFA"/>
<path d="M57.7844 109.538H59.5505V107.773H57.7844V109.538Z" fill="#FAFAFA"/>
<path d="M61.2053 100.35H62.9714V98.5858H61.2053V100.35Z" fill="#FAFAFA"/>
<path d="M57.7844 100.35H59.5505V98.5858H57.7844V100.35Z" fill="#F0F0F0"/>
<path d="M54.3588 109.538H56.125V107.773H54.3588V109.538Z" fill="#F0F0F0"/>
<path d="M64.6259 112.741H66.3921V110.977H64.6259V112.741Z" fill="#FAFAFA"/>
<path d="M61.2053 112.741H62.9714V110.977H61.2053V112.741Z" fill="#F0F0F0"/>
<path d="M57.7844 112.741H59.5505V110.977H57.7844V112.741Z" fill="#F0F0F0"/>
<path d="M54.3588 112.741H56.125V110.977H54.3588V112.741Z" fill="#FAFAFA"/>
<path d="M64.6259 115.949H66.3921V114.185H64.6259V115.949Z" fill="#F0F0F0"/>
<path d="M61.2053 115.949H62.9714V114.185H61.2053V115.949Z" fill="#FAFAFA"/>
<path d="M57.7844 115.949H59.5505V114.185H57.7844V115.949Z" fill="#FAFAFA"/>
<path d="M54.3588 115.949H56.125V114.185H54.3588V115.949Z" fill="#F0F0F0"/>
<path d="M64.6259 119.153H66.3921V117.389H64.6259V119.153Z" fill="#F0F0F0"/>
<path d="M61.2053 119.153H62.9714V117.389H61.2053V119.153Z" fill="#FAFAFA"/>
<path d="M57.7844 119.153H59.5505V117.389H57.7844V119.153Z" fill="#F0F0F0"/>
<path d="M54.3588 119.153H56.125V117.389H54.3588V119.153Z" fill="#FAFAFA"/>
<path d="M64.6259 122.357H66.3921V120.592H64.6259V122.357Z" fill="#FAFAFA"/>
<path d="M61.2053 122.357H62.9714V120.592H61.2053V122.357Z" fill="#FAFAFA"/>
<path d="M57.7844 122.357H59.5505V120.592H57.7844V122.357Z" fill="#F0F0F0"/>
<path d="M54.3588 122.357H56.125V120.592H54.3588V122.357Z" fill="#F0F0F0"/>
<path d="M164.45 109.159H152.091V124.308H164.45V109.159Z" fill="#F0F0F0"/>
<path d="M153.17 110.839H156.042H156.836H157.626V112.421H156.836H156.042H153.17V110.839Z" fill="#E6E6E6"/>
<path d="M153.17 113.9H156.042H156.836H157.626V115.482H156.836H156.042H153.17V113.9Z" fill="#FAFAFA"/>
<path d="M153.17 116.961H156.042H156.836H157.626V118.543H156.836H156.042H153.17V116.961Z" fill="#E6E6E6"/>
<path d="M153.17 120.022H156.042H157.264H157.626V121.604H157.264H156.042H153.17V120.022Z" fill="#FAFAFA"/>
<path d="M158.919 110.839H161.791H162.585H163.375V112.421H162.585H161.791H158.919V110.839Z" fill="#FAFAFA"/>
<path d="M158.919 113.9H161.791H162.906H163.375V115.482H162.906H161.791H158.919V113.9Z" fill="#FAFAFA"/>
<path d="M158.919 116.961H161.791H162.585H163.375V118.543H162.585H161.791H158.919V116.961Z" fill="#E6E6E6"/>
<path d="M158.919 120.022H161.791H162.585H163.375V121.604H162.585H161.791H158.919V120.022Z" fill="#FAFAFA"/>
<path d="M104.9 114.893H93.6694V124.308H104.9V114.893Z" fill="#F0F0F0"/>
<path d="M102.746 117.5H104.182V116.065H102.746V117.5Z" fill="#FAFAFA"/>
<path d="M99.9582 117.5H101.394V116.065H99.9582V117.5Z" fill="#FAFAFA"/>
<path d="M97.175 117.5H98.6111V116.065H97.175V117.5Z" fill="#FAFAFA"/>
<path d="M94.392 117.5H95.8281V116.065H94.392V117.5Z" fill="#FAFAFA"/>
<path d="M102.746 120.115H104.182V118.681H102.746V120.115Z" fill="#FAFAFA"/>
<path d="M99.9582 120.115H101.394V118.681H99.9582V120.115Z" fill="#FAFAFA"/>
<path d="M97.175 120.115H98.6111V118.681H97.175V120.115Z" fill="#FAFAFA"/>
<path d="M94.392 120.115H95.8281V118.681H94.392V120.115Z" fill="#E6E6E6"/>
<path d="M102.746 122.722H104.182V121.287H102.746V122.722Z" fill="#E6E6E6"/>
<path d="M99.9582 122.722H101.394V121.287H99.9582V122.722Z" fill="#E6E6E6"/>
<path d="M97.175 122.722H98.6111V121.287H97.175V122.722Z" fill="#FAFAFA"/>
<path d="M94.392 122.722H95.8281V121.287H94.392V122.722Z" fill="#E6E6E6"/>
<path d="M92.1485 107.934H80.9182V124.308H92.1485V107.934Z" fill="#F0F0F0"/>
<path d="M91.4307 108.651H87.207V112.697H91.4307V108.651Z" fill="#FAFAFA"/>
<path d="M85.8601 108.651H81.6365V112.697H85.8601V108.651Z" fill="#FAFAFA"/>
<path d="M91.4307 113.869H87.207V117.915H91.4307V113.869Z" fill="#FAFAFA"/>
<path d="M85.8601 113.869H81.6365V117.915H85.8601V113.869Z" fill="#FAFAFA"/>
<path d="M91.4307 119.091H87.207V123.136H91.4307V119.091Z" fill="#FAFAFA"/>
<path d="M85.8601 119.091H81.6365V123.136H85.8601V119.091Z" fill="#FAFAFA"/>
<path d="M112 166C159.759 166 198.475 163.742 198.475 160.956C198.475 158.171 159.759 155.912 112 155.912C64.2413 155.912 25.5251 158.171 25.5251 160.956C25.5251 163.742 64.2413 166 112 166Z" fill="#F5F5F5"/>
<path d="M184.653 147.803C184.653 147.656 184.163 133.26 181.826 130.992C179.573 128.804 176.973 130.912 176.866 130.992L176.581 130.649C176.607 130.627 179.596 128.194 182.138 130.649C184.6 133.042 185.081 147.166 185.099 147.767L184.653 147.803Z" fill="#05F29B"/>
<path d="M184.854 150.637C184.787 149.933 183.248 133.318 189.523 126.131L189.858 126.425C183.712 133.474 185.282 150.432 185.3 150.601L184.854 150.637Z" fill="#05F29B"/>
<path d="M184.698 148.819L184.252 148.792C184.252 148.596 185.479 129.334 180.898 125.124L181.202 124.794C185.943 129.152 184.756 148.021 184.698 148.819Z" fill="#05F29B"/>
<path d="M185.3 148.819H184.854C184.854 148.289 185.006 135.773 188.578 133.728C188.921 133.506 189.311 133.37 189.717 133.331C190.123 133.292 190.533 133.352 190.911 133.505C193.078 134.396 194.149 138.232 194.193 138.406L193.747 138.522C193.747 138.486 192.69 134.735 190.728 133.924C190.413 133.797 190.071 133.749 189.733 133.784C189.395 133.819 189.071 133.936 188.788 134.124C185.447 136.022 185.3 148.685 185.3 148.819Z" fill="#05F29B"/>
<path d="M183.918 148.819L183.472 148.792C183.472 148.694 184.007 138.932 181.375 135.501C180.747 134.677 180.037 134.289 179.342 134.338C177.633 134.454 176.193 136.967 176.179 137.011L175.778 136.789C175.841 136.677 177.348 134.044 179.297 133.91C180.189 133.852 180.987 134.298 181.719 135.247C184.462 138.798 183.94 148.413 183.918 148.819Z" fill="#05F29B"/>
<path d="M184.417 150.156C184.346 149.207 182.691 126.875 185.608 122.932L185.969 123.194C183.146 127.008 184.845 149.893 184.863 150.124L184.417 150.156Z" fill="#05F29B"/>
<path d="M191.687 135.786C191.687 135.786 189.943 136.432 190.46 137.947C190.978 139.462 196.504 141.957 196.504 141.957C196.504 141.957 198.814 139.841 196.691 136.396C194.568 132.952 191.736 134.699 191.687 135.786Z" fill="#05F29B"/>
<path opacity="0.5" d="M191.687 135.786C191.687 135.786 189.943 136.432 190.46 137.947C190.978 139.462 196.504 141.957 196.504 141.957C196.504 141.957 198.814 139.841 196.691 136.396C194.568 132.952 191.736 134.699 191.687 135.786Z" fill="white"/>
<path d="M184.096 132.899C184.096 132.899 185.956 132.819 186.063 134.418C186.17 136.018 182.049 140.451 182.049 140.451C182.049 140.451 179.096 139.386 179.729 135.39C180.363 131.393 183.636 131.914 184.096 132.899Z" fill="#05F29B"/>
<path opacity="0.5" d="M184.096 132.899C184.096 132.899 185.956 132.819 186.063 134.418C186.17 136.018 182.049 140.451 182.049 140.451C182.049 140.451 179.096 139.386 179.729 135.39C180.363 131.393 183.636 131.914 184.096 132.899Z" fill="white"/>
<path d="M182.521 125.235C182.521 125.235 183.761 125.101 183.663 124.344C183.565 123.586 178.842 121.648 176.059 124.79C176.059 124.79 177.843 127.851 180.421 127.908C182.999 127.966 182.521 125.235 182.521 125.235Z" fill="#05F29B"/>
<path opacity="0.5" d="M182.521 125.235C182.521 125.235 183.761 125.101 183.663 124.344C183.565 123.586 178.842 121.648 176.059 124.79C176.059 124.79 177.843 127.851 180.421 127.908C182.999 127.966 182.521 125.235 182.521 125.235Z" fill="white"/>
<path d="M184.832 123.422C184.832 123.422 183.712 123.961 183.396 123.27C183.079 122.58 186.072 118.436 190.086 119.63C190.086 119.63 190.188 123.168 188.025 124.562C185.862 125.957 184.832 123.422 184.832 123.422Z" fill="#05F29B"/>
<path opacity="0.5" d="M184.832 123.422C184.832 123.422 183.712 123.961 183.396 123.27C183.079 122.58 186.072 118.436 190.086 119.63C190.086 119.63 190.188 123.168 188.025 124.562C185.862 125.957 184.832 123.422 184.832 123.422Z" fill="white"/>
<path d="M178.963 135.176C178.963 135.176 179.819 134.485 178.896 134.151C177.972 133.817 173.441 133.91 173.396 138.393C173.396 138.393 178.673 139.284 179.324 137.559C179.975 135.835 178.963 135.176 178.963 135.176Z" fill="#05F29B"/>
<path opacity="0.5" d="M178.963 135.176C178.963 135.176 179.819 134.485 178.896 134.151C177.972 133.817 173.441 133.91 173.396 138.393C173.396 138.393 178.673 139.284 179.324 137.559C179.975 135.835 178.963 135.176 178.963 135.176Z" fill="white"/>
<path d="M189.724 125.124C189.724 125.124 188.868 124.433 189.791 124.094C190.715 123.756 195.246 123.854 195.291 128.336C195.291 128.336 190.014 129.227 189.363 127.507C188.712 125.788 189.724 125.124 189.724 125.124Z" fill="#05F29B"/>
<path opacity="0.5" d="M189.724 125.124C189.724 125.124 188.868 124.433 189.791 124.094C190.715 123.756 195.246 123.854 195.291 128.336C195.291 128.336 190.014 129.227 189.363 127.507C188.712 125.788 189.724 125.124 189.724 125.124Z" fill="white"/>
<path d="M186.928 128.733C186.928 128.733 186.852 127.895 187.53 128.225C188.208 128.555 190.572 131.099 188.123 133.514C188.123 133.514 184.827 131.077 185.421 129.807C186.014 128.537 186.928 128.733 186.928 128.733Z" fill="#05F29B"/>
<path opacity="0.5" d="M186.928 128.733C186.928 128.733 186.852 127.895 187.53 128.225C188.208 128.555 190.572 131.099 188.123 133.514C188.123 133.514 184.827 131.077 185.421 129.807C186.014 128.537 186.928 128.733 186.928 128.733Z" fill="white"/>
<path d="M178.2 129.927C178.2 129.927 178.713 129.259 177.964 129.178C177.214 129.098 173.856 129.989 174.636 133.335C174.636 133.335 178.726 133.028 178.905 131.638C179.083 130.248 178.2 129.927 178.2 129.927Z" fill="#05F29B"/>
<path opacity="0.5" d="M178.2 129.927C178.2 129.927 178.713 129.259 177.964 129.178C177.214 129.098 173.856 129.989 174.636 133.335C174.636 133.335 178.726 133.028 178.905 131.638C179.083 130.248 178.2 129.927 178.2 129.927Z" fill="white"/>
<path d="M192.013 161.237H177.981L176.469 145.892H193.529L192.013 161.237Z" fill="#EEEEEE"/>
<path opacity="0.2" d="M192.013 161.237H177.981L176.469 145.892H193.529L192.013 161.237Z" fill="white"/>
<path d="M194.278 144.198H175.72V147.585H194.278V144.198Z" fill="#EEEEEE"/>
<path opacity="0.4" d="M194.278 144.198H175.72V147.585H194.278V144.198Z" fill="white"/>
<path d="M45.7471 152.227C45.8236 152.069 45.8604 151.893 45.854 151.717C45.8477 151.541 45.7985 151.369 45.7107 151.215C45.6229 151.062 45.4991 150.933 45.35 150.838C45.201 150.744 45.0311 150.687 44.8551 150.672C45.0051 150.227 45.0155 149.746 44.8848 149.295C44.7541 148.844 44.4885 148.443 44.1236 148.146C44.0361 148.063 43.9227 148.013 43.8025 148.004C43.6753 148.018 43.5555 148.071 43.4591 148.155L41.4342 149.608C41.27 149.707 41.1323 149.845 41.0328 150.009C40.6181 150.811 42.1122 151.835 41.4788 152.499C41.3004 152.691 41.0328 152.727 40.7965 152.865C40.3148 153.168 40.2568 153.827 40.0338 154.353C39.8108 154.879 39.0214 155.28 38.7226 154.798C38.9456 154.299 38.2766 153.867 37.728 153.805C37.1794 153.742 36.6174 153.711 36.3142 153.199C35.5426 153.876 33.8121 151.991 33.8522 151.234C33.5473 151.29 33.2672 151.439 33.0507 151.661C32.8342 151.883 32.692 152.167 32.6436 152.473C32.5558 153.098 32.5349 153.732 32.5811 154.362C32.5811 155.592 32.1619 156.795 32.1842 158.024C32.1842 158.978 32.5722 160.043 33.4464 160.426C33.8828 160.578 34.3455 160.64 34.8067 160.609L44.7882 160.546C45.0489 160.563 45.3096 160.514 45.5464 160.404C45.9924 160.172 46.0905 159.579 46.1306 159.067C46.309 156.901 46.4889 154.735 46.6703 152.566L45.7471 152.227Z" fill="#05F29B"/>
<path opacity="0.3" d="M45.7471 152.227C45.8236 152.069 45.8604 151.893 45.854 151.717C45.8477 151.541 45.7985 151.369 45.7107 151.215C45.6229 151.062 45.4991 150.933 45.35 150.838C45.201 150.744 45.0311 150.687 44.8551 150.672C45.0051 150.227 45.0155 149.746 44.8848 149.295C44.7541 148.844 44.4885 148.443 44.1236 148.146C44.0361 148.063 43.9227 148.013 43.8025 148.004C43.6753 148.018 43.5555 148.071 43.4591 148.155L41.4342 149.608C41.27 149.707 41.1323 149.845 41.0328 150.009C40.6181 150.811 42.1122 151.835 41.4788 152.499C41.3004 152.691 41.0328 152.727 40.7965 152.865C40.3148 153.168 40.2568 153.827 40.0338 154.353C39.8108 154.879 39.0214 155.28 38.7226 154.798C38.9456 154.299 38.2766 153.867 37.728 153.805C37.1794 153.742 36.6174 153.711 36.3142 153.199C35.5426 153.876 33.8121 151.991 33.8522 151.234C33.5473 151.29 33.2672 151.439 33.0507 151.661C32.8342 151.883 32.692 152.167 32.6436 152.473C32.5558 153.098 32.5349 153.732 32.5811 154.362C32.5811 155.592 32.1619 156.795 32.1842 158.024C32.1842 158.978 32.5722 160.043 33.4464 160.426C33.8828 160.578 34.3455 160.64 34.8067 160.609L44.7882 160.546C45.0489 160.563 45.3096 160.514 45.5464 160.404C45.9924 160.172 46.0905 159.579 46.1306 159.067C46.309 156.901 46.4889 154.735 46.6703 152.566L45.7471 152.227Z" fill="white"/>
<path d="M46.3313 141.69H30.8284L30.9577 143.254L31.0469 144.368L31.2833 147.273L31.4171 148.939L31.5955 151.167L31.6758 152.116V152.401L31.7694 153.52L31.8898 155.052L31.9701 156.006L32.046 156.973L32.1664 158.087L32.2333 158.933L32.3091 159.887L32.3448 160.301H46.5543L46.5855 159.887L46.6614 158.938L46.7327 158.087L46.8219 156.964L46.9022 156.001L46.978 155.048L47.1029 153.511L47.1921 152.397V152.112L47.2679 151.162L47.4508 148.935L47.5846 147.273L47.8165 144.363L47.9102 143.249L48.035 141.685L46.3313 141.69ZM47.2635 142.715L46.9646 142.416H47.2858L47.2635 142.715ZM47.1832 143.664L47.1564 144.042L45.7694 145.428L44.1816 143.837L45.6043 142.416H45.9388L47.1832 143.664ZM46.7862 148.614L45.7694 149.625L44.1816 148.039L45.7694 146.453L46.8665 147.553L46.7862 148.614ZM32.0682 147.553L33.1699 146.453L34.7576 148.039L33.1699 149.625L32.1575 148.614L32.0682 147.553ZM45.2743 145.94L43.6865 147.527L42.0943 145.94L43.6687 144.363L45.2743 145.94ZM42.7767 142.416H44.5964L43.7044 143.307L42.7767 142.416ZM43.1692 148.039L41.5814 149.625L39.9937 148.039L41.5814 146.453L43.1692 148.039ZM37.8707 150.156L39.4629 148.574L41.0462 150.156L39.4629 151.746L37.8707 150.156ZM38.9456 152.259L37.3533 153.845L35.77 152.263L37.3578 150.672L38.9456 152.259ZM41.5636 150.672L43.1513 152.263L41.5636 153.845L39.9758 152.259L41.5636 150.672ZM39.4629 147.553L37.8707 145.967L39.4629 144.363L41.0462 145.954L39.4629 147.553ZM38.9456 148.066L37.3578 149.652L35.77 148.066L37.3578 146.48L38.9456 148.066ZM35.2527 147.553L33.6649 145.967L35.2527 144.363L36.8405 145.954L35.2527 147.553ZM35.2527 148.583L36.8405 150.156L35.2527 151.746L33.6649 150.156L35.2527 148.583ZM36.8405 154.375L35.2527 155.948L33.6649 154.362L35.2527 152.775L36.8405 154.375ZM37.3533 154.887L38.9456 156.478L37.3578 158.064L35.77 156.478L37.3533 154.887ZM37.8707 154.375L39.4629 152.789L41.0462 154.375L39.4629 155.948L37.8707 154.375ZM41.5636 154.887L43.1513 156.478L41.5636 158.064L39.9758 156.478L41.5636 154.887ZM43.6687 156.99L45.2565 158.577L44.2084 159.575H43.1067L42.0765 158.546L43.6687 156.99ZM42.0765 154.375L43.6687 152.789L45.2565 154.375L43.6687 155.948L42.0765 154.375ZM42.0765 150.169L43.6687 148.587L45.2565 150.169L43.6687 151.76L42.0765 150.169ZM43.1513 143.869L41.5636 145.459L39.9758 143.869L41.3986 142.447H41.7331L43.1513 143.869ZM39.4629 143.356L38.5709 142.465H40.3861L39.4629 143.356ZM38.9456 143.869L37.3578 145.459L35.77 143.869L37.1928 142.447H37.5184L38.9456 143.869ZM36.1804 142.416L35.2884 143.307L34.3964 142.416H36.1804ZM33.3349 142.416L34.7576 143.837L33.1699 145.428L31.7873 144.042L31.756 143.664L33.0004 142.416H33.3349ZM31.9969 142.416L31.7025 142.71L31.6758 142.416H31.9969ZM31.8988 145.161L32.6793 145.94L31.9746 146.591L31.8988 145.161ZM32.3448 150.485L32.2823 149.732L32.6926 150.138L32.3448 150.485ZM32.4206 151.439L33.2055 150.655L34.7933 152.245L33.2055 153.827L32.5633 153.19L32.4206 151.439ZM32.657 154.379V154.308L32.6971 154.344L32.6614 154.379H32.657ZM32.9335 157.761L32.7328 155.324L33.2055 154.856L34.7933 156.447L33.2055 158.029L32.9335 157.761ZM33.0807 159.575L33.0495 159.209L33.2055 159.058L33.7185 159.575H33.0807ZM33.7185 158.546L35.3062 156.959L36.894 158.546L35.8682 159.575H34.6907L33.7185 158.546ZM36.8984 159.575L37.3578 159.067L37.8752 159.584L36.8984 159.575ZM38.9545 159.575L37.9242 158.546L39.5165 156.959L41.0997 158.546L40.074 159.575H38.9545ZM41.0997 159.575L41.5636 159.067L42.081 159.584L41.0997 159.575ZM45.9478 159.575H45.3055L45.7694 159.067L45.921 159.218L45.9478 159.575ZM46.0949 157.761L45.8229 158.029L44.2351 156.447L45.8229 154.856L46.2689 155.324L46.0949 157.761ZM46.3759 154.304V154.379L46.3447 154.344L46.3848 154.304H46.3759ZM46.4651 153.19L45.8229 153.827L44.2351 152.245L45.8229 150.655L46.6078 151.439L46.4651 153.19ZM46.6837 150.49L46.3358 150.138L46.7461 149.732L46.6837 150.49ZM47.1297 145.143L47.0137 146.591L46.3492 145.927L47.1297 145.143Z" fill="#05F29B"/>
<g opacity="0.6">
<path d="M46.3313 141.69H30.8284L30.9577 143.254L31.0469 144.368L31.2833 147.273L31.4171 148.939L31.5955 151.167L31.6758 152.116V152.401L31.7694 153.52L31.8898 155.052L31.9701 156.006L32.046 156.973L32.1664 158.087L32.2333 158.933L32.3091 159.887L32.3448 160.301H46.5543L46.5855 159.887L46.6614 158.938L46.7327 158.087L46.8219 156.964L46.9022 156.001L46.978 155.048L47.1029 153.511L47.1921 152.397V152.112L47.2679 151.162L47.4508 148.935L47.5846 147.273L47.8165 144.363L47.9102 143.249L48.035 141.685L46.3313 141.69ZM47.2635 142.715L46.9646 142.416H47.2858L47.2635 142.715ZM47.1832 143.664L47.1564 144.042L45.7694 145.428L44.1816 143.837L45.6043 142.416H45.9388L47.1832 143.664ZM46.7862 148.614L45.7694 149.625L44.1816 148.039L45.7694 146.453L46.8665 147.553L46.7862 148.614ZM32.0682 147.553L33.1699 146.453L34.7576 148.039L33.1699 149.625L32.1575 148.614L32.0682 147.553ZM45.2743 145.94L43.6865 147.527L42.0943 145.94L43.6687 144.363L45.2743 145.94ZM42.7767 142.416H44.5964L43.7044 143.307L42.7767 142.416ZM43.1692 148.039L41.5814 149.625L39.9937 148.039L41.5814 146.453L43.1692 148.039ZM37.8707 150.156L39.4629 148.574L41.0462 150.156L39.4629 151.746L37.8707 150.156ZM38.9456 152.259L37.3533 153.845L35.77 152.263L37.3578 150.672L38.9456 152.259ZM41.5636 150.672L43.1513 152.263L41.5636 153.845L39.9758 152.259L41.5636 150.672ZM39.4629 147.553L37.8707 145.967L39.4629 144.363L41.0462 145.954L39.4629 147.553ZM38.9456 148.066L37.3578 149.652L35.77 148.066L37.3578 146.48L38.9456 148.066ZM35.2527 147.553L33.6649 145.967L35.2527 144.363L36.8405 145.954L35.2527 147.553ZM35.2527 148.583L36.8405 150.156L35.2527 151.746L33.6649 150.156L35.2527 148.583ZM36.8405 154.375L35.2527 155.948L33.6649 154.362L35.2527 152.775L36.8405 154.375ZM37.3533 154.887L38.9456 156.478L37.3578 158.064L35.77 156.478L37.3533 154.887ZM37.8707 154.375L39.4629 152.789L41.0462 154.375L39.4629 155.948L37.8707 154.375ZM41.5636 154.887L43.1513 156.478L41.5636 158.064L39.9758 156.478L41.5636 154.887ZM43.6687 156.99L45.2565 158.577L44.2084 159.575H43.1067L42.0765 158.546L43.6687 156.99ZM42.0765 154.375L43.6687 152.789L45.2565 154.375L43.6687 155.948L42.0765 154.375ZM42.0765 150.169L43.6687 148.587L45.2565 150.169L43.6687 151.76L42.0765 150.169ZM43.1513 143.869L41.5636 145.459L39.9758 143.869L41.3986 142.447H41.7331L43.1513 143.869ZM39.4629 143.356L38.5709 142.465H40.3861L39.4629 143.356ZM38.9456 143.869L37.3578 145.459L35.77 143.869L37.1928 142.447H37.5184L38.9456 143.869ZM36.1804 142.416L35.2884 143.307L34.3964 142.416H36.1804ZM33.3349 142.416L34.7576 143.837L33.1699 145.428L31.7873 144.042L31.756 143.664L33.0004 142.416H33.3349ZM31.9969 142.416L31.7025 142.71L31.6758 142.416H31.9969ZM31.8988 145.161L32.6793 145.94L31.9746 146.591L31.8988 145.161ZM32.3448 150.485L32.2823 149.732L32.6926 150.138L32.3448 150.485ZM32.4206 151.439L33.2055 150.655L34.7933 152.245L33.2055 153.827L32.5633 153.19L32.4206 151.439ZM32.657 154.379V154.308L32.6971 154.344L32.6614 154.379H32.657ZM32.9335 157.761L32.7328 155.324L33.2055 154.856L34.7933 156.447L33.2055 158.029L32.9335 157.761ZM33.0807 159.575L33.0495 159.209L33.2055 159.058L33.7185 159.575H33.0807ZM33.7185 158.546L35.3062 156.959L36.894 158.546L35.8682 159.575H34.6907L33.7185 158.546ZM36.8984 159.575L37.3578 159.067L37.8752 159.584L36.8984 159.575ZM38.9545 159.575L37.9242 158.546L39.5165 156.959L41.0997 158.546L40.074 159.575H38.9545ZM41.0997 159.575L41.5636 159.067L42.081 159.584L41.0997 159.575ZM45.9478 159.575H45.3055L45.7694 159.067L45.921 159.218L45.9478 159.575ZM46.0949 157.761L45.8229 158.029L44.2351 156.447L45.8229 154.856L46.2689 155.324L46.0949 157.761ZM46.3759 154.304V154.379L46.3447 154.344L46.3848 154.304H46.3759ZM46.4651 153.19L45.8229 153.827L44.2351 152.245L45.8229 150.655L46.6078 151.439L46.4651 153.19ZM46.6837 150.49L46.3358 150.138L46.7461 149.732L46.6837 150.49ZM47.1297 145.143L47.0137 146.591L46.3492 145.927L47.1297 145.143Z" fill="white"/>
</g>
<path d="M30.5877 143.062H48.334C48.738 143.062 49.0654 142.735 49.0654 142.332V141.77C49.0654 141.367 48.738 141.039 48.334 141.039H30.5877C30.1837 141.039 29.8562 141.367 29.8562 141.77V142.332C29.8562 142.735 30.1837 143.062 30.5877 143.062Z" fill="#05F29B"/>
<path d="M46.951 159.214H31.9744C31.5704 159.214 31.2429 159.541 31.2429 159.945V160.506C31.2429 160.91 31.5704 161.237 31.9744 161.237H46.951C47.355 161.237 47.6825 160.91 47.6825 160.506V159.945C47.6825 159.541 47.355 159.214 46.951 159.214Z" fill="#05F29B"/>
<path d="M151.726 161.237H110.323C109.729 161.247 109.14 161.131 108.594 160.896C108.049 160.662 107.56 160.314 107.159 159.875C106.759 159.437 106.456 158.918 106.272 158.354C106.088 157.79 106.026 157.193 106.091 156.603L116.795 34.4644C116.922 33.2132 117.502 32.0514 118.425 31.1973C119.349 30.3431 120.554 29.8555 121.812 29.8261H163.214C163.809 29.8155 164.399 29.9316 164.945 30.1667C165.491 30.4017 165.98 30.7503 166.381 31.1892C166.781 31.6281 167.083 32.1472 167.267 32.712C167.451 33.2767 167.512 33.8742 167.447 34.4644L156.743 156.603C156.615 157.853 156.035 159.014 155.111 159.867C154.187 160.72 152.983 161.207 151.726 161.237Z" fill="#05F29B"/>
<path opacity="0.4" d="M151.726 161.237H110.323C109.729 161.247 109.14 161.131 108.594 160.896C108.049 160.662 107.56 160.314 107.159 159.875C106.759 159.437 106.456 158.918 106.272 158.354C106.088 157.79 106.026 157.193 106.091 156.603L116.795 34.4644C116.922 33.2132 117.502 32.0514 118.425 31.1973C119.349 30.3431 120.554 29.8555 121.812 29.8261H163.214C163.809 29.8155 164.399 29.9316 164.945 30.1667C165.491 30.4017 165.98 30.7503 166.381 31.1892C166.781 31.6281 167.083 32.1472 167.267 32.712C167.451 33.2767 167.512 33.8742 167.447 34.4644L156.743 156.603C156.615 157.853 156.035 159.014 155.111 159.867C154.187 160.72 152.983 161.207 151.726 161.237Z" fill="#A8A8A8"/>
<path d="M147.265 161.237H105.863C105.269 161.247 104.68 161.131 104.134 160.896C103.589 160.662 103.099 160.314 102.699 159.875C102.298 159.437 101.996 158.918 101.812 158.354C101.628 157.79 101.566 157.193 101.631 156.603L112.335 34.4644C112.461 33.2132 113.041 32.0514 113.965 31.1973C114.889 30.3431 116.094 29.8555 117.352 29.8261H158.754C159.349 29.8155 159.938 29.9316 160.484 30.1667C161.03 30.4017 161.52 30.7503 161.92 31.1892C162.321 31.6281 162.623 32.1472 162.807 32.712C162.991 33.2767 163.052 33.8742 162.987 34.4644L152.283 156.603C152.155 157.853 151.575 159.014 150.651 159.867C149.727 160.72 148.523 161.207 147.265 161.237Z" fill="#EEEEEE"/>
<path d="M147.265 161.237H105.863C105.269 161.247 104.68 161.131 104.134 160.896C103.589 160.662 103.099 160.314 102.699 159.875C102.298 159.437 101.996 158.918 101.812 158.354C101.628 157.79 101.566 157.193 101.631 156.603L112.335 34.4644C112.461 33.2132 113.041 32.0514 113.965 31.1973C114.889 30.3431 116.094 29.8555 117.352 29.8261H158.754C159.349 29.8155 159.938 29.9316 160.484 30.1667C161.03 30.4017 161.52 30.7503 161.92 31.1892C162.321 31.6281 162.623 32.1472 162.807 32.712C162.991 33.2767 163.052 33.8742 162.987 34.4644L152.283 156.603C152.155 157.853 151.575 159.014 150.651 159.867C149.727 160.72 148.523 161.207 147.265 161.237Z" fill="#05F29B"/>
<path opacity="0.4" d="M161.315 34.2283L150.611 156.598C150.521 157.605 149.893 158.381 149.192 158.381H104.311C103.669 158.381 103.245 157.663 103.33 156.737L114.07 34.0724C114.141 33.2703 114.609 32.5708 115.167 32.5708H126.384C126.701 32.5708 126.964 32.8693 127.044 33.3015L127.365 34.9501C127.445 35.3734 127.704 35.6675 128.021 35.6675H147.123C147.309 35.641 147.484 35.5594 147.624 35.4332C147.764 35.307 147.863 35.1418 147.908 34.959L148.514 33.3015C148.56 33.1161 148.66 32.9482 148.8 32.8184C148.94 32.6886 149.115 32.6025 149.304 32.5708H160.36C160.971 32.5797 161.395 33.3461 161.315 34.2283Z" fill="#A8A8A8"/>
<path d="M160.793 40.2256L151.596 145.228H104.338L113.535 40.2256H160.793Z" fill="#05F29B"/>
<path opacity="0.6" d="M118.976 37.5122H119.56L119.658 36.3894H119.078L118.976 37.5122Z" fill="#A8A8A8"/>
<path opacity="0.6" d="M118.025 37.5122H118.61L118.74 36.0151H118.159L118.025 37.5122Z" fill="#A8A8A8"/>
<path opacity="0.6" d="M117.075 37.5122H117.66L117.825 35.6409H117.241L117.075 37.5122Z" fill="#A8A8A8"/>
<path opacity="0.6" d="M116.126 37.5123H116.71L116.907 35.2666H116.322L116.126 37.5123Z" fill="#A8A8A8"/>
<path opacity="0.6" d="M155.717 37.1023H155.369L155.467 35.9795H155.815L155.717 37.1023Z" fill="#A8A8A8"/>
<path opacity="0.6" d="M155.918 37.5122H158.674L158.843 35.5696H156.087L155.918 37.5122Z" fill="#A8A8A8"/>
<path opacity="0.6" d="M137.811 32.7401C137.767 33.257 137.436 33.6758 137.079 33.6758C136.722 33.6758 136.468 33.257 136.512 32.7401C136.557 32.2233 136.883 31.8044 137.244 31.8044C137.606 31.8044 137.869 32.2233 137.811 32.7401Z" fill="#EEEEEE"/>
<path opacity="0.6" d="M139.122 32.7401C139.095 33.0743 138.886 33.3416 138.653 33.3416C138.421 33.3416 138.261 33.0743 138.292 32.7401C138.323 32.4059 138.529 32.1431 138.761 32.1431C138.993 32.1431 139.153 32.4104 139.122 32.7401Z" fill="#EEEEEE"/>
<path d="M160.788 40.2256L159.512 54.7911L159.294 57.3041L158.272 68.9735L158.112 70.7869L156.662 87.3308L156.506 89.1442L155.115 105.029L154.914 107.314L151.596 145.223H104.333L113.53 40.2256H160.788Z" fill="#EEEEEE"/>
<path opacity="0.5" d="M114.11 72.6628C114.157 72.7016 114.218 72.7222 114.279 72.7207C114.326 72.719 114.372 72.7074 114.415 72.6867C114.457 72.666 114.494 72.6366 114.524 72.6004C114.55 72.5721 114.569 72.5392 114.581 72.5034C114.593 72.4676 114.598 72.4298 114.596 72.3921C114.594 72.3543 114.584 72.3175 114.567 72.2836C114.55 72.2498 114.526 72.2196 114.498 72.1949L113.686 71.5622L114.6 70.9251C114.666 70.8837 114.714 70.8181 114.732 70.7423C114.75 70.6665 114.738 70.5866 114.698 70.5196C114.676 70.4888 114.647 70.4628 114.615 70.443C114.582 70.4232 114.546 70.41 114.508 70.4042C114.471 70.3985 114.432 70.4001 114.395 70.4092C114.358 70.4183 114.323 70.4346 114.292 70.4572L113.039 71.3484C113.001 71.3755 112.968 71.4107 112.944 71.4514C112.921 71.4922 112.906 71.5375 112.901 71.5845C112.897 71.6289 112.904 71.6735 112.921 71.7146C112.938 71.7557 112.965 71.7921 112.999 71.8207L114.11 72.6628Z" fill="#A8A8A8"/>
<path opacity="0.5" d="M118.159 71.558L117.245 72.1818C117.179 72.2247 117.133 72.2914 117.116 72.3679C117.098 72.4443 117.111 72.5246 117.151 72.5917C117.176 72.6281 117.209 72.6577 117.248 72.6779C117.287 72.6982 117.331 72.7084 117.374 72.7076C117.439 72.7082 117.501 72.6879 117.553 72.6496L118.806 71.7808C118.846 71.7557 118.879 71.7217 118.903 71.6814C118.927 71.6412 118.941 71.5958 118.944 71.5491C118.949 71.5046 118.943 71.4596 118.926 71.4183C118.909 71.377 118.881 71.3407 118.846 71.3129L117.74 70.4485C117.677 70.4024 117.598 70.3831 117.52 70.3948C117.442 70.4065 117.372 70.4482 117.325 70.5109C117.3 70.5392 117.281 70.5721 117.269 70.6079C117.256 70.6437 117.251 70.6815 117.254 70.7192C117.256 70.757 117.266 70.7938 117.283 70.8277C117.3 70.8615 117.323 70.8917 117.352 70.9164L118.159 71.558Z" fill="#A8A8A8"/>
<path opacity="0.5" d="M115.421 72.703C115.454 72.7076 115.487 72.7076 115.519 72.703C115.582 72.7018 115.642 72.6827 115.694 72.6479C115.745 72.6131 115.785 72.5641 115.809 72.5069L116.573 70.7692C116.589 70.7356 116.599 70.6988 116.6 70.6613C116.602 70.6238 116.596 70.5864 116.582 70.5515C116.568 70.5166 116.547 70.485 116.52 70.4588C116.493 70.4326 116.461 70.4124 116.425 70.3994C116.35 70.3754 116.268 70.3803 116.197 70.4133C116.125 70.4463 116.068 70.5049 116.037 70.5776L115.274 72.3109C115.254 72.3456 115.242 72.3842 115.239 72.4241C115.235 72.464 115.241 72.5041 115.255 72.5415C115.269 72.579 115.291 72.6128 115.32 72.6408C115.349 72.6687 115.383 72.6899 115.421 72.703Z" fill="#A8A8A8"/>
<path opacity="0.5" d="M120.292 72.8143H121.812C121.917 72.8099 122.018 72.7686 122.095 72.6977C122.173 72.6268 122.223 72.5308 122.236 72.4266C122.241 72.3771 122.236 72.3271 122.22 72.2799C122.204 72.2327 122.179 72.1893 122.145 72.1527C122.111 72.1161 122.07 72.087 122.024 72.0674C121.979 72.0478 121.929 72.0381 121.879 72.039H120.336C120.227 72.0381 120.122 72.077 120.04 72.1484C119.957 72.2198 119.904 72.3188 119.89 72.4266C119.884 72.4802 119.89 72.5344 119.909 72.5851C119.927 72.6358 119.957 72.6817 119.995 72.7191C120.034 72.7566 120.081 72.7846 120.132 72.8011C120.184 72.8176 120.238 72.8221 120.292 72.8143Z" fill="#A8A8A8"/>
<path d="M125.737 82.8751C125.742 82.8256 125.737 82.7756 125.721 82.7284C125.705 82.6812 125.68 82.6378 125.646 82.6012C125.612 82.5645 125.571 82.5355 125.525 82.5159C125.479 82.4963 125.43 82.4866 125.38 82.4875H112C111.896 82.4929 111.797 82.5346 111.72 82.6054C111.644 82.6763 111.594 82.7717 111.581 82.8751C111.575 82.9248 111.58 82.9751 111.596 83.0226C111.611 83.0702 111.637 83.1139 111.67 83.1507C111.704 83.1874 111.746 83.2165 111.792 83.2359C111.838 83.2552 111.888 83.2644 111.938 83.2628H125.318C125.422 83.2574 125.521 83.2156 125.598 83.1448C125.674 83.074 125.724 82.9785 125.737 82.8751Z" fill="#A8A8A8"/>
<path opacity="0.5" d="M127.418 83.2674H131.356C131.461 83.262 131.56 83.2203 131.636 83.1494C131.713 83.0786 131.762 82.9832 131.776 82.8798C131.781 82.8303 131.775 82.7802 131.759 82.733C131.744 82.6858 131.718 82.6424 131.684 82.6058C131.651 82.5692 131.61 82.5401 131.564 82.5205C131.518 82.5009 131.469 82.4912 131.419 82.4921H127.485C127.376 82.4912 127.271 82.5301 127.189 82.6015C127.106 82.6729 127.053 82.7719 127.039 82.8798C127.034 82.9312 127.04 82.9833 127.057 83.0321C127.074 83.081 127.101 83.1255 127.137 83.1626C127.174 83.1996 127.218 83.2282 127.266 83.2463C127.315 83.2644 127.367 83.2716 127.418 83.2674Z" fill="#A8A8A8"/>
<path opacity="0.5" d="M112.138 80.8078H117.205C117.31 80.8034 117.41 80.7622 117.488 80.6912C117.565 80.6203 117.615 80.5243 117.629 80.4202C117.634 80.3707 117.628 80.3206 117.612 80.2734C117.597 80.2262 117.571 80.1828 117.537 80.1462C117.504 80.1096 117.463 80.0805 117.417 80.0609C117.371 80.0413 117.322 80.0316 117.272 80.0325H112.205C112.096 80.0316 111.991 80.0705 111.909 80.1419C111.827 80.2133 111.773 80.3123 111.759 80.4202C111.754 80.4716 111.76 80.5237 111.777 80.5725C111.794 80.6214 111.821 80.666 111.858 80.703C111.894 80.74 111.938 80.7686 111.986 80.7867C112.035 80.8048 112.087 80.812 112.138 80.8078Z" fill="#A8A8A8"/>
<path d="M135.883 80.4202C135.888 80.3707 135.883 80.3206 135.867 80.2734C135.851 80.2262 135.826 80.1828 135.792 80.1462C135.758 80.1096 135.717 80.0805 135.671 80.0609C135.626 80.0413 135.576 80.0316 135.526 80.0325H119.787C119.682 80.0369 119.582 80.0782 119.504 80.1491C119.427 80.22 119.377 80.316 119.363 80.4202C119.358 80.4697 119.364 80.5197 119.38 80.5669C119.395 80.6141 119.421 80.6575 119.455 80.6941C119.488 80.7308 119.529 80.7598 119.575 80.7794C119.621 80.799 119.67 80.8087 119.72 80.8078H135.46C135.565 80.8034 135.665 80.7622 135.742 80.6912C135.82 80.6203 135.87 80.5243 135.883 80.4202Z" fill="#A8A8A8"/>
<path d="M112.348 78.3527H121.531C121.636 78.3484 121.736 78.3071 121.814 78.2361C121.891 78.1652 121.941 78.0692 121.955 77.9651C121.96 77.9156 121.954 77.8656 121.939 77.8183C121.923 77.7711 121.897 77.7278 121.864 77.6911C121.83 77.6545 121.789 77.6254 121.743 77.6058C121.697 77.5862 121.648 77.5766 121.598 77.5774H112.415C112.306 77.5765 112.201 77.6154 112.118 77.6868C112.036 77.7582 111.983 77.8572 111.969 77.9651C111.964 78.0166 111.97 78.0686 111.987 78.1175C112.004 78.1663 112.031 78.2109 112.067 78.2479C112.104 78.2849 112.147 78.3135 112.196 78.3316C112.245 78.3497 112.296 78.3569 112.348 78.3527Z" fill="#A8A8A8"/>
<path opacity="0.5" d="M123.289 77.9739C123.284 78.0234 123.289 78.0734 123.305 78.1206C123.321 78.1678 123.346 78.2112 123.38 78.2478C123.414 78.2845 123.455 78.3135 123.5 78.3331C123.546 78.3527 123.596 78.3624 123.645 78.3615H125.92C126.029 78.3624 126.134 78.3235 126.217 78.2521C126.299 78.1807 126.352 78.0817 126.366 77.9739C126.371 77.9244 126.366 77.8744 126.35 77.8271C126.334 77.7799 126.309 77.7366 126.275 77.6999C126.241 77.6633 126.2 77.6342 126.154 77.6146C126.109 77.595 126.059 77.5854 126.009 77.5862H123.735C123.626 77.5853 123.52 77.6242 123.438 77.6956C123.356 77.767 123.303 77.866 123.289 77.9739Z" fill="#A8A8A8"/>
<path opacity="0.5" d="M112.558 75.8931H123.4C123.505 75.8888 123.605 75.8475 123.683 75.7766C123.76 75.7056 123.81 75.6096 123.824 75.5055C123.829 75.456 123.823 75.406 123.807 75.3587C123.792 75.3115 123.766 75.2682 123.732 75.2315C123.699 75.1949 123.658 75.1658 123.612 75.1462C123.566 75.1266 123.517 75.117 123.467 75.1179H112.62C112.515 75.1222 112.415 75.1635 112.337 75.2344C112.26 75.3054 112.21 75.4014 112.196 75.5055C112.191 75.5554 112.197 75.6058 112.213 75.6533C112.229 75.7009 112.255 75.7445 112.289 75.7812C112.323 75.8179 112.365 75.8468 112.411 75.8662C112.458 75.8855 112.507 75.8947 112.558 75.8931Z" fill="#A8A8A8"/>
<path d="M131.459 75.8931H139.777C139.886 75.8941 139.991 75.8551 140.074 75.7837C140.156 75.7123 140.209 75.6134 140.223 75.5055C140.228 75.456 140.223 75.406 140.207 75.3587C140.191 75.3115 140.166 75.2682 140.132 75.2315C140.098 75.1949 140.057 75.1658 140.011 75.1462C139.966 75.1266 139.916 75.117 139.866 75.1179H131.522C131.417 75.1232 131.318 75.165 131.242 75.2358C131.165 75.3067 131.116 75.4021 131.102 75.5055C131.097 75.555 131.103 75.605 131.119 75.6522C131.134 75.6995 131.16 75.7428 131.194 75.7795C131.227 75.8161 131.268 75.8452 131.314 75.8648C131.36 75.8844 131.409 75.894 131.459 75.8931Z" fill="#A8A8A8"/>
<path opacity="0.5" d="M148.867 94.7807H124.738C124.633 94.7851 124.533 94.8264 124.455 94.8973C124.378 94.9682 124.328 95.0642 124.314 95.1683C124.309 95.2178 124.315 95.2679 124.33 95.3151C124.346 95.3623 124.372 95.4057 124.405 95.4423C124.439 95.4789 124.48 95.508 124.526 95.5276C124.572 95.5472 124.621 95.5569 124.671 95.556H148.8C148.905 95.5516 149.005 95.5103 149.082 95.4394C149.16 95.3685 149.21 95.2725 149.223 95.1683C149.228 95.1188 149.223 95.0688 149.207 95.0216C149.192 94.9744 149.166 94.931 149.132 94.8944C149.099 94.8578 149.057 94.8287 149.012 94.8091C148.966 94.7895 148.916 94.7798 148.867 94.7807Z" fill="#A8A8A8"/>
<path d="M154.165 94.7807H151.181C151.073 94.7797 150.967 94.8186 150.885 94.89C150.803 94.9615 150.75 95.0604 150.735 95.1683C150.73 95.2178 150.736 95.2678 150.752 95.315C150.767 95.3623 150.793 95.4056 150.827 95.4423C150.86 95.4789 150.901 95.508 150.947 95.5276C150.993 95.5472 151.042 95.5568 151.092 95.5559H154.076C154.181 95.5516 154.281 95.5103 154.359 95.4393C154.436 95.3684 154.486 95.2724 154.5 95.1683C154.505 95.1206 154.5 95.0725 154.485 95.0268C154.471 94.981 154.447 94.9388 154.416 94.9025C154.385 94.8662 154.346 94.8366 154.303 94.8157C154.26 94.7948 154.213 94.7828 154.165 94.7807Z" fill="#A8A8A8"/>
<path d="M132.155 93.0965H141.882C141.987 93.0921 142.087 93.0508 142.165 92.9799C142.242 92.909 142.292 92.813 142.306 92.7089C142.311 92.6594 142.305 92.6093 142.29 92.5621C142.274 92.5149 142.248 92.4715 142.215 92.4349C142.181 92.3983 142.14 92.3692 142.094 92.3496C142.048 92.33 141.999 92.3203 141.949 92.3212H132.222C132.117 92.3256 132.017 92.3669 131.939 92.4378C131.861 92.5087 131.812 92.6047 131.798 92.7089C131.793 92.7584 131.798 92.8084 131.814 92.8556C131.83 92.9028 131.855 92.9462 131.889 92.9828C131.923 93.0194 131.964 93.0485 132.01 93.0681C132.056 93.0877 132.105 93.0974 132.155 93.0965Z" fill="#A8A8A8"/>
<path opacity="0.5" d="M149.018 93.0966C149.123 93.0922 149.223 93.0509 149.301 92.98C149.378 92.9091 149.428 92.8131 149.442 92.709C149.447 92.6591 149.441 92.6087 149.425 92.5611C149.41 92.5136 149.384 92.47 149.349 92.4333C149.315 92.3966 149.273 92.3676 149.227 92.3483C149.181 92.329 149.131 92.3198 149.081 92.3213H143.564C143.459 92.3257 143.359 92.367 143.281 92.4379C143.204 92.5088 143.154 92.6048 143.14 92.709C143.135 92.7585 143.14 92.8085 143.156 92.8557C143.172 92.9029 143.197 92.9463 143.231 92.9829C143.265 93.0196 143.306 93.0486 143.352 93.0682C143.398 93.0878 143.447 93.0975 143.497 93.0966H149.018Z" fill="#A8A8A8"/>
<path opacity="0.5" d="M154.37 92.3212H151.435C151.33 92.3256 151.23 92.3669 151.153 92.4378C151.075 92.5087 151.025 92.6047 151.012 92.7089C151.007 92.7584 151.012 92.8084 151.028 92.8556C151.043 92.9028 151.069 92.9462 151.103 92.9828C151.136 93.0194 151.178 93.0485 151.223 93.0681C151.269 93.0877 151.319 93.0974 151.368 93.0965H154.303C154.408 93.0921 154.508 93.0508 154.586 92.9799C154.663 92.909 154.713 92.813 154.727 92.7089C154.732 92.6594 154.726 92.6093 154.711 92.5621C154.695 92.5149 154.669 92.4715 154.636 92.4349C154.602 92.3983 154.561 92.3692 154.515 92.3496C154.469 92.33 154.42 92.3203 154.37 92.3212Z" fill="#A8A8A8"/>
<path d="M149.321 89.8662H136.329C136.224 89.8705 136.124 89.9118 136.047 89.9827C135.969 90.0537 135.919 90.1497 135.906 90.2538C135.901 90.3033 135.906 90.3533 135.922 90.4005C135.938 90.4478 135.963 90.4911 135.997 90.5278C136.031 90.5644 136.072 90.5935 136.117 90.6131C136.163 90.6327 136.213 90.6423 136.262 90.6414H149.254C149.363 90.6424 149.469 90.6035 149.551 90.532C149.633 90.4606 149.686 90.3617 149.7 90.2538C149.706 90.2023 149.7 90.1503 149.683 90.1014C149.666 90.0525 149.638 90.008 149.602 89.971C149.566 89.934 149.522 89.9054 149.473 89.8873C149.425 89.8692 149.373 89.8619 149.321 89.8662Z" fill="#A8A8A8"/>
<path d="M154.58 89.866H151.618C151.513 89.8704 151.413 89.9117 151.336 89.9826C151.258 90.0535 151.208 90.1495 151.195 90.2537C151.19 90.3032 151.195 90.3532 151.211 90.4004C151.227 90.4476 151.252 90.491 151.286 90.5276C151.32 90.5643 151.361 90.5933 151.406 90.6129C151.452 90.6325 151.502 90.6422 151.551 90.6413H154.517C154.622 90.6359 154.721 90.5942 154.797 90.5233C154.874 90.4525 154.923 90.3571 154.937 90.2537C154.942 90.2042 154.936 90.1541 154.92 90.1069C154.905 90.0597 154.879 90.0163 154.845 89.9797C154.812 89.9431 154.771 89.914 154.725 89.8944C154.679 89.8748 154.63 89.8651 154.58 89.866Z" fill="#A8A8A8"/>
<path opacity="0.5" d="M142.328 87.7764C142.334 87.7267 142.329 87.6764 142.313 87.6289C142.298 87.5813 142.273 87.5376 142.239 87.5008C142.205 87.464 142.163 87.435 142.117 87.4156C142.071 87.3963 142.021 87.3871 141.971 87.3887H128.739C128.633 87.3931 128.533 87.4344 128.456 87.5053C128.378 87.5762 128.328 87.6722 128.315 87.7764C128.31 87.8259 128.315 87.8759 128.331 87.9231C128.347 87.9703 128.372 88.0137 128.406 88.0503C128.44 88.087 128.481 88.116 128.527 88.1356C128.572 88.1552 128.622 88.1649 128.672 88.164H141.918C142.02 88.1566 142.117 88.114 142.192 88.0433C142.267 87.9727 142.315 87.8784 142.328 87.7764Z" fill="#A8A8A8"/>
<path opacity="0.5" d="M144.384 87.4067C144.279 87.411 144.179 87.4523 144.101 87.5233C144.024 87.5942 143.974 87.6902 143.96 87.7943C143.955 87.8438 143.961 87.8938 143.976 87.9411C143.992 87.9883 144.018 88.0316 144.051 88.0683C144.085 88.1049 144.126 88.134 144.172 88.1536C144.218 88.1732 144.267 88.1828 144.317 88.182H149.464C149.569 88.1776 149.669 88.1363 149.747 88.0654C149.824 87.9944 149.874 87.8984 149.888 87.7943C149.893 87.7448 149.887 87.6948 149.871 87.6476C149.856 87.6003 149.83 87.557 149.796 87.5204C149.763 87.4837 149.722 87.4547 149.676 87.4351C149.63 87.4155 149.581 87.4058 149.531 87.4067H144.384Z" fill="#A8A8A8"/>
<path d="M154.79 87.4067H151.859C151.754 87.411 151.654 87.4523 151.577 87.5233C151.499 87.5942 151.449 87.6902 151.436 87.7943C151.431 87.8438 151.436 87.8938 151.452 87.9411C151.468 87.9883 151.493 88.0316 151.527 88.0683C151.561 88.1049 151.602 88.134 151.647 88.1536C151.693 88.1732 151.743 88.1828 151.792 88.182H154.723C154.828 88.1776 154.928 88.1363 155.005 88.0654C155.083 87.9944 155.133 87.8984 155.146 87.7943C155.151 87.7448 155.146 87.6948 155.13 87.6476C155.114 87.6003 155.089 87.557 155.055 87.5204C155.021 87.4837 154.98 87.4547 154.935 87.4351C154.889 87.4155 154.839 87.4058 154.79 87.4067Z" fill="#A8A8A8"/>
<path d="M145.258 85.7268H147.805C147.914 85.7277 148.019 85.6888 148.101 85.6174C148.184 85.546 148.237 85.4471 148.251 85.3392C148.257 85.2893 148.252 85.2388 148.236 85.1911C148.221 85.1433 148.195 85.0994 148.162 85.0622C148.128 85.0251 148.086 84.9956 148.04 84.9758C147.994 84.9559 147.944 84.9461 147.894 84.9471H145.343C145.237 84.9516 145.137 84.9935 145.059 85.0654C144.981 85.1372 144.932 85.2342 144.919 85.3392C144.914 85.3872 144.919 85.4357 144.934 85.4817C144.949 85.5277 144.973 85.5702 145.004 85.6066C145.036 85.643 145.075 85.6724 145.119 85.6931C145.163 85.7138 145.21 85.7252 145.258 85.7268Z" fill="#A8A8A8"/>
<path opacity="0.5" d="M149.62 85.7268H154.932C155.037 85.7225 155.137 85.6812 155.215 85.6102C155.292 85.5393 155.342 85.4433 155.356 85.3392C155.361 85.2893 155.356 85.2388 155.341 85.1911C155.326 85.1433 155.3 85.0994 155.266 85.0622C155.233 85.0251 155.191 84.9956 155.145 84.9758C155.099 84.9559 155.049 84.9461 154.999 84.9471H149.687C149.581 84.9516 149.481 84.9935 149.403 85.0654C149.325 85.1372 149.276 85.2342 149.263 85.3392C149.258 85.3887 149.264 85.4387 149.279 85.4859C149.295 85.5332 149.321 85.5765 149.354 85.6131C149.388 85.6498 149.429 85.6789 149.475 85.6984C149.521 85.718 149.57 85.7277 149.62 85.7268Z" fill="#A8A8A8"/>
<path d="M116.536 44.004C116.584 44.0429 116.644 44.0634 116.705 44.0619C116.752 44.0617 116.799 44.0512 116.841 44.0312C116.883 44.0112 116.921 43.9821 116.951 43.9461C116.976 43.9175 116.995 43.8841 117.008 43.848C117.02 43.8119 117.025 43.7737 117.023 43.7356C117.02 43.6975 117.01 43.6603 116.993 43.626C116.976 43.5918 116.953 43.5613 116.924 43.5362L116.112 42.9035L117.004 42.2708C117.07 42.2294 117.118 42.1638 117.136 42.088C117.154 42.0122 117.142 41.9323 117.102 41.8653C117.08 41.834 117.052 41.8076 117.02 41.7874C116.987 41.7673 116.951 41.7539 116.913 41.7481C116.875 41.7422 116.836 41.7441 116.799 41.7535C116.762 41.763 116.727 41.7798 116.697 41.8029L115.443 42.6941C115.404 42.7208 115.372 42.7558 115.348 42.7967C115.324 42.8375 115.309 42.8831 115.305 42.9302C115.301 42.9739 115.308 43.0179 115.325 43.0583C115.342 43.0987 115.369 43.1343 115.403 43.1619L116.536 44.004Z" fill="#A8A8A8"/>
<path d="M120.586 42.899L119.672 43.5361C119.606 43.5782 119.56 43.6442 119.542 43.7199C119.525 43.7956 119.538 43.8751 119.578 43.9416C119.601 43.9794 119.634 44.0104 119.673 44.0315C119.712 44.0526 119.756 44.0631 119.801 44.0619C119.865 44.0625 119.928 44.0422 119.979 44.004L121.237 43.1351C121.275 43.1077 121.308 43.0725 121.331 43.0318C121.355 42.9911 121.37 42.9458 121.375 42.899C121.379 42.8549 121.371 42.8106 121.353 42.7702C121.335 42.7298 121.308 42.6944 121.273 42.6673L120.167 41.7984C120.103 41.7534 120.024 41.7348 119.947 41.7464C119.869 41.758 119.8 41.799 119.752 41.8608C119.727 41.8894 119.707 41.9228 119.695 41.9589C119.682 41.995 119.677 42.0332 119.68 42.0713C119.682 42.1094 119.692 42.1466 119.709 42.1809C119.726 42.2151 119.75 42.2456 119.779 42.2707L120.586 42.899Z" fill="#A8A8A8"/>
<path d="M117.847 44.0441C117.88 44.0509 117.913 44.0509 117.946 44.0441C118.008 44.043 118.068 44.0239 118.12 43.9891C118.171 43.9543 118.212 43.9053 118.236 43.8481L118.999 42.1148C119.016 42.0812 119.025 42.0445 119.027 42.0069C119.028 41.9694 119.022 41.932 119.008 41.8971C118.994 41.8622 118.973 41.8307 118.946 41.8045C118.919 41.7783 118.887 41.758 118.852 41.745C118.777 41.7207 118.696 41.7251 118.624 41.7572C118.552 41.7893 118.495 41.8469 118.463 41.9188L117.7 43.6565C117.68 43.6909 117.668 43.7292 117.665 43.7688C117.662 43.8084 117.667 43.8481 117.681 43.8853C117.696 43.9224 117.718 43.9559 117.746 43.9834C117.775 44.0109 117.81 44.0316 117.847 44.0441Z" fill="#A8A8A8"/>
<path opacity="0.5" d="M122.704 44.16H124.243C124.348 44.1556 124.448 44.1143 124.525 44.0434C124.603 43.9725 124.653 43.8765 124.667 43.7723C124.672 43.7228 124.666 43.6728 124.65 43.6256C124.635 43.5784 124.609 43.535 124.575 43.4984C124.542 43.4618 124.501 43.4327 124.455 43.4131C124.409 43.3935 124.36 43.3838 124.31 43.3847H122.767C122.662 43.3901 122.563 43.4318 122.487 43.5027C122.41 43.5735 122.361 43.6689 122.347 43.7723C122.342 43.822 122.346 43.8723 122.362 43.9199C122.377 43.9674 122.403 44.0111 122.437 44.0479C122.471 44.0847 122.512 44.1137 122.558 44.1331C122.604 44.1524 122.654 44.1616 122.704 44.16Z" fill="#A8A8A8"/>
<path opacity="0.5" d="M142.458 47.2298H144.558C144.662 47.2244 144.761 47.1827 144.838 47.1118C144.915 47.041 144.964 46.9456 144.977 46.8422C144.983 46.7925 144.978 46.7422 144.963 46.6947C144.947 46.6471 144.922 46.6034 144.888 46.5666C144.854 46.5299 144.813 46.5008 144.767 46.4814C144.72 46.4621 144.671 46.4529 144.621 46.4545H142.538C142.433 46.4589 142.333 46.5002 142.255 46.5711C142.178 46.642 142.128 46.738 142.114 46.8422C142.109 46.8906 142.114 46.9394 142.129 46.9857C142.144 47.032 142.169 47.0748 142.201 47.1112C142.233 47.1476 142.273 47.1769 142.317 47.1974C142.361 47.2178 142.409 47.2288 142.458 47.2298Z" fill="#A8A8A8"/>
<path d="M119.926 46.8512C119.921 46.9007 119.926 46.9507 119.942 46.9979C119.958 47.0452 119.983 47.0885 120.017 47.1252C120.051 47.1618 120.092 47.1909 120.137 47.2105C120.183 47.2301 120.233 47.2397 120.282 47.2388H139.777C139.886 47.2398 139.991 47.2009 140.074 47.1294C140.156 47.058 140.209 46.9591 140.223 46.8512C140.228 46.8017 140.223 46.7517 140.207 46.7045C140.191 46.6572 140.166 46.6139 140.132 46.5772C140.098 46.5406 140.057 46.5115 140.011 46.4919C139.966 46.4723 139.916 46.4627 139.866 46.4636H120.345C120.241 46.4689 120.142 46.5107 120.065 46.5815C119.988 46.6524 119.939 46.7478 119.926 46.8512Z" fill="#A8A8A8"/>
<path opacity="0.5" d="M114.984 47.2299H117.963C118.068 47.2256 118.168 47.1843 118.246 47.1133C118.323 47.0424 118.373 46.9464 118.387 46.8423C118.392 46.7928 118.386 46.7428 118.37 46.6955C118.355 46.6483 118.329 46.605 118.295 46.5683C118.262 46.5317 118.221 46.5026 118.175 46.483C118.129 46.4634 118.08 46.4538 118.03 46.4546H115.046C114.942 46.46 114.843 46.5018 114.766 46.5726C114.69 46.6435 114.64 46.7389 114.627 46.8423C114.621 46.8919 114.626 46.9423 114.641 46.9898C114.657 47.0374 114.682 47.081 114.716 47.1178C114.75 47.1546 114.792 47.1837 114.838 47.203C114.884 47.2224 114.934 47.2316 114.984 47.2299Z" fill="#A8A8A8"/>
<path d="M134.978 49.6939C135.087 49.6948 135.193 49.6559 135.275 49.5845C135.357 49.5131 135.41 49.4141 135.424 49.3063C135.429 49.2564 135.424 49.206 135.408 49.1584C135.392 49.1109 135.366 49.0673 135.332 49.0306C135.298 48.9939 135.256 48.9649 135.21 48.9456C135.163 48.9263 135.113 48.9171 135.063 48.9186H127.303C127.198 48.923 127.098 48.9643 127.02 49.0352C126.943 49.1061 126.893 49.2021 126.879 49.3063C126.874 49.3558 126.879 49.4058 126.895 49.453C126.911 49.5002 126.936 49.5436 126.97 49.5802C127.004 49.6169 127.045 49.6459 127.091 49.6655C127.137 49.6851 127.186 49.6948 127.236 49.6939H134.978Z" fill="#A8A8A8"/>
<path d="M120.073 49.6939H125.581C125.686 49.6895 125.786 49.6483 125.863 49.5773C125.941 49.5064 125.991 49.4104 126.005 49.3063C126.01 49.2568 126.004 49.2068 125.988 49.1595C125.973 49.1123 125.947 49.069 125.913 49.0323C125.88 48.9957 125.839 48.9666 125.793 48.947C125.747 48.9274 125.698 48.9177 125.648 48.9186H120.14C120.035 48.923 119.934 48.9643 119.857 49.0352C119.779 49.1061 119.73 49.2021 119.716 49.3063C119.711 49.3558 119.716 49.4058 119.732 49.453C119.748 49.5002 119.773 49.5436 119.807 49.5802C119.841 49.6169 119.882 49.6459 119.928 49.6655C119.974 49.6851 120.023 49.6948 120.073 49.6939Z" fill="#A8A8A8"/>
<path opacity="0.5" d="M114.774 49.6939H117.705C117.81 49.6895 117.91 49.6483 117.987 49.5773C118.065 49.5064 118.115 49.4104 118.128 49.3063C118.133 49.2568 118.128 49.2068 118.112 49.1595C118.096 49.1123 118.071 49.069 118.037 49.0323C118.003 48.9957 117.962 48.9666 117.916 48.947C117.871 48.9274 117.821 48.9177 117.771 48.9186H114.841C114.732 48.9177 114.627 48.9566 114.545 49.028C114.463 49.0994 114.409 49.1984 114.395 49.3063C114.39 49.3577 114.396 49.4098 114.413 49.4586C114.43 49.5075 114.457 49.5521 114.494 49.5891C114.53 49.6261 114.574 49.6547 114.622 49.6728C114.671 49.6909 114.723 49.6981 114.774 49.6939Z" fill="#A8A8A8"/>
<path d="M131.294 51.7659C131.299 51.7164 131.294 51.6663 131.278 51.6191C131.262 51.5719 131.237 51.5285 131.203 51.4919C131.169 51.4553 131.128 51.4262 131.082 51.4066C131.036 51.387 130.987 51.3773 130.937 51.3782H119.89C119.786 51.3836 119.687 51.4254 119.61 51.4962C119.533 51.567 119.484 51.6625 119.471 51.7659C119.466 51.8154 119.471 51.8654 119.487 51.9126C119.502 51.9598 119.528 52.0032 119.562 52.0398C119.595 52.0765 119.637 52.1055 119.682 52.1251C119.728 52.1447 119.778 52.1544 119.827 52.1535H130.87C130.975 52.1491 131.075 52.1079 131.153 52.0369C131.231 51.966 131.28 51.87 131.294 51.7659Z" fill="#A8A8A8"/>
<path opacity="0.5" d="M114.565 52.1535H117.531C117.64 52.1544 117.745 52.1155 117.827 52.0441C117.909 51.9727 117.963 51.8737 117.977 51.7659C117.982 51.7164 117.976 51.6663 117.961 51.6191C117.945 51.5719 117.919 51.5285 117.886 51.4919C117.852 51.4553 117.811 51.4262 117.765 51.4066C117.719 51.387 117.67 51.3773 117.62 51.3782H114.632C114.523 51.3773 114.417 51.4162 114.335 51.4876C114.253 51.559 114.2 51.658 114.186 51.7659C114.18 51.8173 114.186 51.8694 114.203 51.9182C114.22 51.9671 114.248 52.0117 114.284 52.0487C114.32 52.0857 114.364 52.1143 114.413 52.1324C114.461 52.1505 114.513 52.1577 114.565 52.1535Z" fill="#A8A8A8"/>
<path d="M127.164 54.6129H138.461C138.566 54.6074 138.666 54.565 138.743 54.4933C138.819 54.4215 138.868 54.325 138.881 54.2208C138.886 54.1712 138.882 54.1209 138.866 54.0733C138.851 54.0258 138.825 53.9821 138.791 53.9453C138.757 53.9085 138.716 53.8794 138.67 53.8601C138.624 53.8407 138.574 53.8316 138.524 53.8332H127.231C127.126 53.8376 127.026 53.8788 126.949 53.9498C126.871 54.0207 126.821 54.1167 126.807 54.2208C126.802 54.2707 126.807 54.3212 126.822 54.369C126.838 54.4167 126.863 54.4606 126.897 54.4978C126.931 54.5349 126.972 54.5644 127.018 54.5843C127.064 54.6041 127.114 54.6139 127.164 54.6129Z" fill="#A8A8A8"/>
<path d="M119.689 53.8332C119.585 53.8386 119.486 53.8803 119.41 53.9512C119.333 54.022 119.284 54.1174 119.27 54.2208C119.264 54.2708 119.268 54.3216 119.283 54.3697C119.298 54.4178 119.324 54.4621 119.358 54.4994C119.392 54.5367 119.433 54.5661 119.48 54.5858C119.526 54.6054 119.577 54.6146 119.627 54.6129H124.765C124.87 54.6074 124.969 54.565 125.046 54.4933C125.123 54.4215 125.172 54.325 125.184 54.2208C125.189 54.1713 125.184 54.1213 125.168 54.0741C125.152 54.0269 125.127 53.9835 125.093 53.9469C125.059 53.9102 125.018 53.8812 124.972 53.8616C124.927 53.842 124.877 53.8323 124.827 53.8332H119.689Z" fill="#A8A8A8"/>
<path opacity="0.5" d="M114.359 54.6129H117.289C117.394 54.6074 117.494 54.565 117.571 54.4933C117.647 54.4215 117.696 54.325 117.709 54.2208C117.714 54.1713 117.708 54.1213 117.692 54.0741C117.677 54.0269 117.651 53.9835 117.617 53.9469C117.584 53.9102 117.543 53.8812 117.497 53.8616C117.451 53.842 117.402 53.8323 117.352 53.8332H114.422C114.317 53.8386 114.218 53.8803 114.142 53.9512C114.065 54.022 114.016 54.1174 114.002 54.2208C113.996 54.2708 114 54.3216 114.015 54.3697C114.031 54.4178 114.056 54.4621 114.09 54.4994C114.124 54.5367 114.166 54.5661 114.212 54.5858C114.259 54.6054 114.309 54.6146 114.359 54.6129Z" fill="#A8A8A8"/>
<path d="M123.891 56.2927H121.366C121.261 56.297 121.161 56.3383 121.084 56.4093C121.006 56.4802 120.956 56.5762 120.942 56.6803C120.937 56.7298 120.943 56.7798 120.959 56.8271C120.974 56.8743 121 56.9176 121.034 56.9543C121.067 56.9909 121.108 57.02 121.154 57.0396C121.2 57.0592 121.249 57.0688 121.299 57.068H123.846C123.951 57.0636 124.051 57.0223 124.129 56.9514C124.206 56.8805 124.256 56.7845 124.27 56.6803C124.275 56.6289 124.269 56.5768 124.252 56.5279C124.235 56.4791 124.207 56.4345 124.171 56.3975C124.135 56.3605 124.091 56.3319 124.043 56.3138C123.994 56.2957 123.942 56.2885 123.891 56.2927Z" fill="#A8A8A8"/>
<path d="M119.529 56.2928H114.23C114.125 56.2972 114.025 56.3384 113.948 56.4094C113.87 56.4803 113.82 56.5763 113.807 56.6804C113.801 56.7299 113.807 56.78 113.823 56.8272C113.838 56.8744 113.864 56.9178 113.898 56.9544C113.931 56.991 113.972 57.0201 114.018 57.0397C114.064 57.0593 114.114 57.069 114.163 57.0681H119.475C119.58 57.0637 119.68 57.0224 119.758 56.9515C119.835 56.8806 119.885 56.7846 119.899 56.6804C119.904 56.6298 119.898 56.5786 119.882 56.5304C119.865 56.4822 119.839 56.4381 119.803 56.4013C119.768 56.3644 119.725 56.3356 119.678 56.3169C119.631 56.2982 119.58 56.2899 119.529 56.2928Z" fill="#A8A8A8"/>
<path d="M136 59.14C135.995 59.1895 136 59.2395 136.016 59.2867C136.032 59.3339 136.057 59.3773 136.091 59.4139C136.125 59.4505 136.166 59.4796 136.211 59.4992C136.257 59.5188 136.307 59.5285 136.356 59.5276H157.149C157.254 59.5232 157.354 59.4819 157.432 59.411C157.509 59.3401 157.559 59.2441 157.573 59.14C157.578 59.0901 157.573 59.0396 157.558 58.9918C157.543 58.9441 157.517 58.9002 157.483 58.863C157.45 58.8259 157.408 58.7964 157.362 58.7765C157.316 58.7567 157.266 58.7469 157.216 58.7479H136.423C136.318 58.7524 136.217 58.7943 136.139 58.8661C136.062 58.938 136.012 59.035 136 59.14Z" fill="#A8A8A8"/>
<path opacity="0.5" d="M130.384 58.7479C130.275 58.7471 130.169 58.7866 130.086 58.8589C130.004 58.9312 129.951 59.0313 129.938 59.14C129.933 59.1895 129.939 59.2395 129.955 59.2867C129.97 59.3339 129.996 59.3773 130.03 59.4139C130.063 59.4505 130.104 59.4796 130.15 59.4992C130.196 59.5188 130.245 59.5285 130.295 59.5276H134.233C134.342 59.5285 134.448 59.4896 134.53 59.4182C134.612 59.3468 134.665 59.2478 134.679 59.14C134.684 59.0899 134.679 59.0393 134.663 58.9915C134.647 58.9437 134.621 58.8999 134.587 58.8629C134.553 58.8258 134.511 58.7964 134.465 58.7766C134.418 58.7568 134.368 58.747 134.318 58.7479H130.384Z" fill="#A8A8A8"/>
<path opacity="0.5" d="M157.006 61.2075H151.944C151.839 61.2118 151.739 61.2531 151.661 61.324C151.584 61.395 151.534 61.491 151.52 61.5951C151.515 61.6446 151.521 61.6946 151.537 61.7418C151.552 61.7891 151.578 61.8324 151.612 61.8691C151.645 61.9057 151.686 61.9348 151.732 61.9544C151.778 61.974 151.827 61.9836 151.877 61.9827H156.944C157.048 61.9773 157.147 61.9356 157.224 61.8648C157.3 61.7939 157.35 61.6985 157.363 61.5951C157.368 61.5456 157.363 61.4956 157.347 61.4483C157.331 61.4011 157.306 61.3578 157.272 61.3211C157.238 61.2845 157.197 61.2554 157.151 61.2358C157.105 61.2162 157.056 61.2066 157.006 61.2075Z" fill="#A8A8A8"/>
<path d="M149.781 61.5951C149.786 61.5456 149.78 61.4956 149.765 61.4483C149.749 61.4011 149.723 61.3578 149.69 61.3211C149.656 61.2845 149.615 61.2554 149.569 61.2358C149.523 61.2162 149.474 61.2066 149.424 61.2075H128.226C128.121 61.2118 128.02 61.2531 127.943 61.324C127.865 61.395 127.815 61.491 127.802 61.5951C127.797 61.6446 127.802 61.6946 127.818 61.7418C127.834 61.7891 127.859 61.8324 127.893 61.8691C127.927 61.9057 127.968 61.9348 128.014 61.9544C128.059 61.974 128.109 61.9836 128.159 61.9827H149.362C149.466 61.9773 149.565 61.9356 149.641 61.8648C149.718 61.7939 149.767 61.6985 149.781 61.5951Z" fill="#A8A8A8"/>
<path d="M156.801 63.6669H147.618C147.513 63.6713 147.413 63.7126 147.335 63.7835C147.258 63.8544 147.208 63.9504 147.194 64.0546C147.189 64.1041 147.195 64.1541 147.21 64.2013C147.226 64.2485 147.252 64.2919 147.285 64.3285C147.319 64.3652 147.36 64.3942 147.406 64.4138C147.452 64.4334 147.501 64.4431 147.551 64.4422H156.734C156.839 64.4378 156.939 64.3966 157.017 64.3256C157.094 64.2547 157.144 64.1587 157.158 64.0546C157.163 64.0051 157.157 63.955 157.142 63.9078C157.126 63.8606 157.1 63.8172 157.067 63.7806C157.033 63.744 156.992 63.7149 156.946 63.6953C156.9 63.6757 156.851 63.666 156.801 63.6669Z" fill="#A8A8A8"/>
<path opacity="0.5" d="M143.22 63.6669C143.115 63.6713 143.015 63.7126 142.938 63.7835C142.86 63.8544 142.81 63.9504 142.796 64.0546C142.791 64.1041 142.797 64.1541 142.813 64.2013C142.828 64.2485 142.854 64.2919 142.888 64.3285C142.921 64.3652 142.962 64.3942 143.008 64.4138C143.054 64.4334 143.103 64.4431 143.153 64.4422H145.45C145.554 64.4368 145.653 64.3951 145.73 64.3242C145.807 64.2534 145.856 64.158 145.869 64.0546C145.874 64.0051 145.869 63.955 145.853 63.9078C145.838 63.8606 145.812 63.8172 145.778 63.7806C145.745 63.744 145.703 63.7149 145.658 63.6953C145.612 63.6757 145.562 63.666 145.513 63.6669H143.22Z" fill="#A8A8A8"/>
<path d="M156.6 66.1218H138.336C138.232 66.1272 138.133 66.169 138.056 66.2398C137.98 66.3106 137.931 66.4061 137.917 66.5095C137.912 66.559 137.918 66.609 137.933 66.6562C137.949 66.7034 137.975 66.7468 138.008 66.7834C138.042 66.8201 138.083 66.8491 138.129 66.8687C138.175 66.8883 138.224 66.898 138.274 66.8971H156.524C156.629 66.8927 156.729 66.8515 156.807 66.7805C156.884 66.7096 156.934 66.6136 156.948 66.5095C156.953 66.4607 156.948 66.4115 156.932 66.3649C156.917 66.3183 156.892 66.2753 156.86 66.2388C156.827 66.2023 156.787 66.1731 156.742 66.1529C156.698 66.1328 156.649 66.1222 156.6 66.1218Z" fill="#A8A8A8"/>
<path d="M130.286 66.1219H123.913C123.808 66.1263 123.708 66.1676 123.63 66.2385C123.553 66.3094 123.503 66.4054 123.489 66.5096C123.484 66.5591 123.49 66.6091 123.505 66.6563C123.521 66.7035 123.547 66.7469 123.58 66.7835C123.614 66.8202 123.655 66.8492 123.701 66.8688C123.747 66.8884 123.796 66.8981 123.846 66.8972H130.215C130.324 66.8981 130.429 66.8592 130.511 66.7878C130.593 66.7164 130.647 66.6174 130.661 66.5096C130.666 66.4585 130.66 66.4069 130.643 66.3584C130.627 66.3098 130.6 66.2655 130.564 66.2286C130.528 66.1917 130.485 66.163 130.437 66.1446C130.389 66.1261 130.337 66.1184 130.286 66.1219Z" fill="#A8A8A8"/>
<path d="M153.924 118.266L151.524 145.223V145.317H104.418V145.223L109.511 87.9324L112.098 88.6096L124.715 91.8934L125.416 92.0761L126.276 92.2989L127.338 92.5752L127.998 92.7489L136.45 94.95H136.503C137.119 95.1104 137.721 95.2931 138.31 95.4981C142.999 97.1337 147.043 100.224 149.851 104.317C152.66 108.411 154.085 113.293 153.92 118.253L153.924 118.266Z" fill="#05F29B"/>
<path opacity="0.8" d="M153.924 118.266L151.524 145.223V145.317H104.418V145.223L109.511 87.9324L112.098 88.6096L124.715 91.8934L125.416 92.0761L126.276 92.2989L127.338 92.5752L127.998 92.7489L136.45 94.95H136.503C137.119 95.1104 137.721 95.2931 138.31 95.4981C142.999 97.1337 147.043 100.224 149.851 104.317C152.66 108.411 154.085 113.293 153.92 118.253L153.924 118.266Z" fill="#A8A8A8"/>
<path opacity="0.6" d="M128.007 92.749H111.742L111.818 91.8936L112.107 88.6097L124.725 91.8936L125.425 92.0762L126.286 92.299L127.347 92.5753L128.007 92.749Z" fill="black"/>
<path opacity="0.5" d="M128.007 92.7489H111.742L111.818 91.8934H124.725L125.425 92.0761L126.286 92.2989L127.347 92.5751L128.007 92.7489Z" fill="black"/>
<path opacity="0.6" d="M126.286 92.2989L126.246 92.7489H111.742L111.818 91.8934H124.725L125.425 92.0761L126.286 92.2989Z" fill="#A8A8A8"/>
<path d="M127.347 92.5751C127.329 92.6352 127.305 92.6934 127.276 92.7489C127.181 92.9311 127.04 93.0844 126.865 93.1927C126.691 93.3009 126.491 93.36 126.285 93.3637C126.09 93.3733 125.896 93.3183 125.735 93.2071C125.574 93.096 125.454 92.935 125.393 92.7489C125.348 92.6205 125.331 92.4835 125.344 92.3479C125.354 92.255 125.375 92.1636 125.407 92.076L126.268 92.2988L127.347 92.5751Z" fill="#A8A8A8"/>
<path opacity="0.4" d="M132.596 99.0313H112C111.897 99.034 111.795 99.0144 111.7 98.9741C111.605 98.9337 111.52 98.8734 111.451 98.7973C111.382 98.7213 111.329 98.6312 111.298 98.5331C111.266 98.4351 111.257 98.3315 111.269 98.2293C111.292 98.0095 111.396 97.8062 111.561 97.6588C111.726 97.5115 111.94 97.4305 112.161 97.4318H132.739C132.842 97.4299 132.943 97.4498 133.037 97.4902C133.131 97.5306 133.216 97.5904 133.285 97.6658C133.354 97.7413 133.406 97.8305 133.438 97.9276C133.47 98.0248 133.481 98.1276 133.471 98.2293C133.449 98.4468 133.348 98.6488 133.186 98.7966C133.025 98.9445 132.815 99.0281 132.596 99.0313Z" fill="#05F29B"/>
<path opacity="0.4" d="M138.314 95.7521C138.291 95.9719 138.187 96.1752 138.022 96.3226C137.857 96.47 137.644 96.5509 137.422 96.5497H112.206C112.103 96.5515 112.002 96.5316 111.908 96.4912C111.814 96.4509 111.729 96.391 111.66 96.3156C111.591 96.2402 111.539 96.1509 111.506 96.0538C111.474 95.9566 111.463 95.8538 111.474 95.7521C111.496 95.5315 111.6 95.3271 111.765 95.1788C111.93 95.0305 112.144 94.949 112.366 94.9501H136.477H136.53C137.146 95.1105 137.748 95.2932 138.337 95.4981C138.342 95.5834 138.335 95.669 138.314 95.7521Z" fill="#05F29B"/>
<path opacity="0.3" d="M152.184 108.633L151.034 121.581H109.177L110.791 103.438H149.218C150.427 105.035 151.424 106.781 152.184 108.633Z" fill="#05F29B"/>
<path opacity="0.5" d="M138.528 106.597H135.246C135.152 106.599 135.06 106.581 134.974 106.544C134.889 106.507 134.812 106.453 134.749 106.384C134.686 106.315 134.638 106.234 134.61 106.146C134.581 106.057 134.571 105.963 134.581 105.871C134.602 105.674 134.694 105.491 134.84 105.357C134.986 105.224 135.177 105.148 135.375 105.145H138.657C138.751 105.143 138.843 105.161 138.928 105.197C139.014 105.234 139.09 105.289 139.153 105.358C139.216 105.426 139.263 105.508 139.291 105.596C139.319 105.685 139.328 105.778 139.318 105.871C139.298 106.067 139.207 106.25 139.061 106.384C138.916 106.518 138.726 106.594 138.528 106.597Z" fill="#A8A8A8"/>
<path opacity="0.5" d="M147.6 108.928H135.036C134.943 108.929 134.851 108.911 134.766 108.875C134.68 108.838 134.603 108.783 134.541 108.714C134.478 108.646 134.431 108.564 134.403 108.476C134.374 108.387 134.365 108.294 134.376 108.201C134.397 108.005 134.489 107.824 134.634 107.691C134.779 107.558 134.969 107.483 135.166 107.479H147.73C147.822 107.478 147.914 107.496 148 107.532C148.085 107.569 148.162 107.623 148.224 107.691C148.287 107.759 148.335 107.84 148.364 107.928C148.393 108.016 148.404 108.109 148.394 108.201C148.373 108.398 148.281 108.581 148.135 108.715C147.989 108.849 147.798 108.924 147.6 108.928Z" fill="#A8A8A8"/>
<path opacity="0.3" d="M130.331 119.875H111.304L112.615 105.145H131.637L130.331 119.875Z" fill="#05F29B"/>
<path opacity="0.5" d="M111.594 116.627L117.2 112.51L120.139 114.836L126.352 110.393L130.799 114.591L130.331 119.875H111.304L111.594 116.627Z" fill="#A8A8A8"/>
<path opacity="0.5" d="M117.963 108.615C117.929 109.031 117.744 109.42 117.444 109.709C117.143 109.999 116.748 110.169 116.331 110.188C116.135 110.185 115.943 110.141 115.766 110.057C115.589 109.974 115.432 109.854 115.305 109.705C115.178 109.556 115.085 109.382 115.031 109.194C114.977 109.006 114.964 108.809 114.993 108.615C115.028 108.2 115.213 107.812 115.513 107.523C115.813 107.233 116.209 107.063 116.625 107.043C116.821 107.045 117.014 107.089 117.191 107.172C117.369 107.255 117.526 107.376 117.653 107.525C117.78 107.674 117.873 107.848 117.926 108.036C117.98 108.225 117.993 108.422 117.963 108.615Z" fill="#A8A8A8"/>
<path opacity="0.3" d="M149.214 142.082H107.353L108.967 123.934H150.829L149.214 142.082Z" fill="#05F29B"/>
<path opacity="0.5" d="M136.704 127.093H133.408C133.315 127.095 133.223 127.077 133.137 127.04C133.052 127.003 132.975 126.949 132.913 126.88C132.85 126.811 132.803 126.73 132.775 126.641C132.746 126.553 132.737 126.459 132.748 126.367C132.769 126.171 132.86 125.989 133.006 125.856C133.151 125.724 133.34 125.648 133.538 125.645H136.82C136.913 125.643 137.005 125.661 137.09 125.698C137.175 125.734 137.251 125.788 137.314 125.857C137.376 125.925 137.423 126.006 137.452 126.094C137.481 126.182 137.49 126.275 137.48 126.367C137.461 126.561 137.371 126.742 137.229 126.876C137.086 127.009 136.9 127.087 136.704 127.093Z" fill="#A8A8A8"/>
<path opacity="0.5" d="M145.776 129.428H133.216C133.123 129.43 133.031 129.412 132.945 129.375C132.859 129.338 132.782 129.284 132.72 129.215C132.657 129.146 132.609 129.065 132.58 128.976C132.551 128.888 132.542 128.794 132.552 128.702C132.572 128.505 132.665 128.322 132.811 128.188C132.957 128.054 133.147 127.979 133.346 127.975H145.896C145.989 127.974 146.082 127.992 146.167 128.028C146.253 128.065 146.33 128.12 146.393 128.188C146.456 128.257 146.503 128.338 146.532 128.427C146.561 128.515 146.571 128.609 146.561 128.702C146.54 128.897 146.449 129.079 146.305 129.212C146.16 129.346 145.972 129.422 145.776 129.428Z" fill="#A8A8A8"/>
<path opacity="0.3" d="M128.507 140.371H109.48L110.792 125.645H129.818L128.507 140.371Z" fill="#05F29B"/>
<path opacity="0.5" d="M109.77 137.123L115.377 133.006L118.32 135.332L124.529 130.889L128.975 135.091L128.507 140.371H109.48L109.77 137.123Z" fill="#A8A8A8"/>
<path opacity="0.5" d="M116.144 129.112C116.109 129.527 115.924 129.915 115.623 130.205C115.323 130.494 114.928 130.664 114.511 130.684C114.316 130.682 114.123 130.638 113.945 130.555C113.768 130.472 113.611 130.352 113.484 130.202C113.357 130.053 113.264 129.879 113.21 129.691C113.157 129.503 113.144 129.305 113.173 129.112C113.208 128.696 113.393 128.308 113.693 128.019C113.994 127.731 114.389 127.561 114.806 127.543C115.001 127.546 115.194 127.59 115.371 127.673C115.548 127.755 115.705 127.875 115.831 128.024C115.958 128.172 116.052 128.346 116.106 128.534C116.159 128.722 116.172 128.919 116.144 129.112Z" fill="#A8A8A8"/>
<path opacity="0.2" d="M145.004 99.6996C132.659 93.5419 113.124 105.661 112.553 105.871C110.586 106.601 108.298 105.621 106.229 104.146L107.835 85.7846L108.771 85.7267C108.771 85.7267 135.259 92.2319 145.004 99.6996Z" fill="black"/>
<path d="M80.5659 80.0325C80.5659 80.0325 83.4203 81.7479 84.9679 82.492C85.8599 82.9064 89.1247 82.3049 91.7739 84.0025C94.3295 85.6377 94.044 87.2818 95.1234 88.7344C98.3925 93.1366 105.381 92.994 105.381 92.994C105.381 92.994 135.13 87.4066 150.387 105.153C150.387 105.153 139.094 83.1381 80.5659 80.0325Z" fill="#05F29B"/>
<path opacity="0.4" d="M80.5659 80.0325C80.5659 80.0325 83.4203 81.7479 84.9679 82.492C85.8599 82.9064 89.1247 82.3049 91.7739 84.0025C94.3295 85.6377 94.044 87.2818 95.1234 88.7344C98.3925 93.1366 105.381 92.994 105.381 92.994C105.381 92.994 135.13 87.4066 150.387 105.153C150.387 105.153 139.094 83.1381 80.5659 80.0325Z" fill="#A8A8A8"/>
<path d="M65.1701 38.0826H44.4534C43.888 38.0826 43.3458 38.307 42.9459 38.7064C42.5461 39.1059 42.3215 39.6476 42.3215 40.2124V51.405C42.3227 51.9691 42.5478 52.5097 42.9475 52.9082C43.3472 53.3066 43.8888 53.5304 44.4534 53.5304H58.8637C59.4212 54.8671 61 57.5048 65.0542 58.7257C65.0542 58.7257 62.6235 56.5291 62.7483 53.5304H65.1701C65.7348 53.5304 66.2763 53.3066 66.676 52.9082C67.0757 52.5097 67.3008 51.9691 67.302 51.405V40.2124C67.302 39.6476 67.0774 39.1059 66.6776 38.7064C66.2778 38.307 65.7355 38.0826 65.1701 38.0826Z" fill="#05F29B"/>
<path opacity="0.6" d="M65.1701 38.0826H44.4534C43.888 38.0826 43.3458 38.307 42.9459 38.7064C42.5461 39.1059 42.3215 39.6476 42.3215 40.2124V51.405C42.3227 51.9691 42.5478 52.5097 42.9475 52.9082C43.3472 53.3066 43.8888 53.5304 44.4534 53.5304H58.8637C59.4212 54.8671 61 57.5048 65.0542 58.7257C65.0542 58.7257 62.6235 56.5291 62.7483 53.5304H65.1701C65.7348 53.5304 66.2763 53.3066 66.676 52.9082C67.0757 52.5097 67.3008 51.9691 67.302 51.405V40.2124C67.302 39.6476 67.0774 39.1059 66.6776 38.7064C66.2778 38.307 65.7355 38.0826 65.1701 38.0826Z" fill="white"/>
<g opacity="0.5">
<path d="M44.8643 41.8119C44.8643 40.9876 45.3103 40.4752 45.899 40.4752C46.4877 40.4752 46.9382 40.9698 46.9382 41.8119C46.9382 42.654 46.4922 43.1486 45.899 43.1486C45.3058 43.1486 44.8643 42.6407 44.8643 41.8119ZM46.6483 41.8119C46.6483 41.1213 46.3361 40.7381 45.8811 40.7381C45.4262 40.7381 45.1185 41.1213 45.1185 41.8119C45.1185 42.5025 45.4307 42.8857 45.8811 42.8857C46.3316 42.8857 46.6661 42.507 46.6661 41.8119H46.6483Z" fill="black"/>
<path d="M48.0314 40.5155V43.1087H47.777V40.7517H47.1521V40.5155H48.0314Z" fill="black"/>
<path d="M48.6682 41.8119C48.6682 40.9876 49.1142 40.4752 49.7029 40.4752C50.2917 40.4752 50.7421 40.9698 50.7421 41.8119C50.7421 42.654 50.2961 43.1486 49.7029 43.1486C49.1098 43.1486 48.6682 42.6407 48.6682 41.8119ZM50.4522 41.8119C50.4522 41.1213 50.14 40.7381 49.6896 40.7381C49.2391 40.7381 48.9269 41.1213 48.9269 41.8119C48.9269 42.5025 49.2346 42.8857 49.6896 42.8857C50.1445 42.8857 50.4522 42.507 50.4522 41.8119Z" fill="black"/>
<path d="M51.1035 41.8119C51.1035 40.9876 51.5495 40.4752 52.1382 40.4752C52.727 40.4752 53.1774 40.9698 53.1774 41.8119C53.1774 42.654 52.7314 43.1486 52.1382 43.1486C51.5451 43.1486 51.1035 42.6407 51.1035 41.8119ZM52.8875 41.8119C52.8875 41.1213 52.5798 40.7381 52.1249 40.7381C51.6699 40.7381 51.3622 41.1213 51.3622 41.8119C51.3622 42.5025 51.6744 42.8857 52.1249 42.8857C52.5753 42.8857 52.9009 42.507 52.9009 41.8119H52.8875Z" fill="black"/>
<path d="M54.2708 40.5155V43.1087H54.0209V40.7517H53.4094V40.5155H54.2708Z" fill="black"/>
<path d="M55.6087 40.5155V43.1087H55.3588V40.7517H54.7473V40.5155H55.6087Z" fill="black"/>
<path d="M56.9469 40.5155V43.1087H56.6969V40.7517H56.0854V40.5155H56.9469Z" fill="black"/>
<path d="M57.5884 41.8119C57.5884 40.9876 58.0344 40.4752 58.6231 40.4752C59.2118 40.4752 59.6623 40.9698 59.6623 41.8119C59.6623 42.654 59.2163 43.1486 58.6231 43.1486C58.0299 43.1486 57.5884 42.6407 57.5884 41.8119ZM59.3724 41.8119C59.3724 41.1213 59.0602 40.7381 58.6097 40.7381C58.1593 40.7381 57.8426 41.1213 57.8426 41.8119C57.8426 42.5025 58.1548 42.8857 58.6097 42.8857C59.0646 42.8857 59.3724 42.507 59.3724 41.8119Z" fill="black"/>
<path d="M60.0188 41.8119C60.0188 40.9876 60.4648 40.4752 61.0535 40.4752C61.6422 40.4752 62.0927 40.9698 62.0927 41.8119C62.0927 42.654 61.6467 43.1486 61.0535 43.1486C60.4603 43.1486 60.0188 42.6407 60.0188 41.8119ZM61.8028 41.8119C61.8028 41.1213 61.4906 40.7381 61.0401 40.7381C60.5897 40.7381 60.2775 41.1213 60.2775 41.8119C60.2775 42.5025 60.5852 42.8857 61.0401 42.8857C61.4951 42.8857 61.8162 42.507 61.8162 41.8119H61.8028Z" fill="black"/>
<path d="M63.186 40.5155V43.1087H62.9406V40.7517H62.3291V40.5155H63.186Z" fill="black"/>
<path d="M64.5242 40.5155V43.1087H64.2787V40.7517H63.6672V40.5155H64.5242Z" fill="black"/>
<path d="M45.5826 44.2715V46.8647H45.3148V44.5076H44.7034V44.2715H45.5826Z" fill="black"/>
<path d="M46.2019 45.568C46.2019 44.7393 46.6479 44.2313 47.2366 44.2313C47.8253 44.2313 48.2713 44.7214 48.2713 45.568C48.2713 46.4146 47.8253 46.9047 47.2366 46.9047C46.6479 46.9047 46.2019 46.3923 46.2019 45.568ZM47.9859 45.568C47.9859 44.8729 47.6737 44.4942 47.2232 44.4942C46.7728 44.4942 46.4561 44.8729 46.4561 45.568C46.4561 46.2631 46.7683 46.6418 47.2232 46.6418C47.6782 46.6418 47.9993 46.2586 47.9993 45.568H47.9859Z" fill="black"/>
<path d="M48.6682 45.568C48.6682 44.7393 49.1142 44.2313 49.7029 44.2313C50.2917 44.2313 50.7421 44.7214 50.7421 45.568C50.7421 46.4146 50.2961 46.9047 49.7029 46.9047C49.1098 46.9047 48.6682 46.3923 48.6682 45.568ZM50.4522 45.568C50.4522 44.8729 50.14 44.4942 49.6896 44.4942C49.2391 44.4942 48.9224 44.8729 48.9224 45.568C48.9224 46.2631 49.2346 46.6418 49.6896 46.6418C50.1445 46.6418 50.4522 46.2586 50.4522 45.568Z" fill="black"/>
<path d="M51.8222 44.2715V46.8647H51.5544V44.5076H50.9385V44.2715H51.8222Z" fill="black"/>
<path d="M53.16 44.2715V46.8647H52.8922V44.5076H52.2808V44.2715H53.16Z" fill="black"/>
<path d="M54.4979 44.2715V46.8647H54.2301V44.5076H53.6187V44.2715H54.4979Z" fill="black"/>
<path d="M55.113 45.568C55.113 44.7393 55.559 44.2313 56.1478 44.2313C56.7365 44.2313 57.1869 44.7214 57.1869 45.568C57.1869 46.4146 56.7409 46.9047 56.1478 46.9047C55.5546 46.9047 55.113 46.3923 55.113 45.568ZM56.897 45.568C56.897 44.8729 56.5848 44.4942 56.1299 44.4942C55.675 44.4942 55.3673 44.8729 55.3673 45.568C55.3673 46.2631 55.6795 46.6418 56.1299 46.6418C56.5804 46.6418 56.9149 46.2586 56.9149 45.568H56.897Z" fill="black"/>
<path d="M57.5884 45.568C57.5884 44.7393 58.0344 44.2313 58.6276 44.2313C59.2207 44.2313 59.6623 44.7214 59.6623 45.568C59.6623 46.4146 59.2163 46.9047 58.6276 46.9047C58.0388 46.9047 57.5884 46.3923 57.5884 45.568ZM59.3724 45.568C59.3724 44.8729 59.0602 44.4942 58.6097 44.4942C58.1593 44.4942 57.8426 44.8729 57.8426 45.568C57.8426 46.2631 58.1548 46.6418 58.6097 46.6418C59.0646 46.6418 59.3724 46.2586 59.3724 45.568Z" fill="black"/>
<path d="M60.7333 44.2715V46.8647H60.4655V44.5076H59.854V44.2715H60.7333Z" fill="black"/>
<path d="M62.0714 44.2715V46.8647H61.8081V44.5076H61.1921V44.2715H62.0714Z" fill="black"/>
<path d="M62.6904 45.568C62.6904 44.7393 63.1364 44.2313 63.7251 44.2313C64.3139 44.2313 64.7643 44.7214 64.7643 45.568C64.7643 46.4146 64.3183 46.9047 63.7251 46.9047C63.132 46.9047 62.6904 46.3923 62.6904 45.568ZM64.4744 45.568C64.4744 44.8729 64.1667 44.4942 63.7118 44.4942C63.2568 44.4942 62.9491 44.8729 62.9491 45.568C62.9491 46.2631 63.2613 46.6418 63.7118 46.6418C64.1622 46.6418 64.4878 46.2586 64.4878 45.568H64.4744Z" fill="black"/>
<path d="M44.8643 49.3197C44.8643 48.4954 45.3103 47.983 45.899 47.983C46.4877 47.983 46.9382 48.4776 46.9382 49.3197C46.9382 50.1618 46.4922 50.6564 45.899 50.6564C45.3058 50.6564 44.8643 50.1485 44.8643 49.3197ZM46.6483 49.3197C46.6483 48.6291 46.3361 48.2459 45.8811 48.2459C45.4262 48.2459 45.1185 48.6291 45.1185 49.3197C45.1185 50.0104 45.4307 50.398 45.8811 50.398C46.3316 50.398 46.6661 50.0148 46.6661 49.3197H46.6483Z" fill="black"/>
<path d="M47.3301 49.3197C47.3301 48.4954 47.7761 47.983 48.3648 47.983C48.9535 47.983 49.3995 48.4776 49.3995 49.3197C49.3995 50.1618 48.9535 50.6564 48.3648 50.6564C47.7761 50.6564 47.3301 50.1485 47.3301 49.3197ZM49.1141 49.3197C49.1141 48.6291 48.8019 48.2459 48.3514 48.2459C47.901 48.2459 47.5843 48.6291 47.5843 49.3197C47.5843 50.0104 47.8965 50.398 48.3514 50.398C48.8063 50.398 49.1141 50.0148 49.1141 49.3197Z" fill="black"/>
<path d="M50.4842 48.0231V50.6163H50.2209V48.2592H49.605V48.0231H50.4842Z" fill="black"/>
<path d="M51.8221 48.0231V50.6163H51.5588V48.2592H50.9429V48.0231H51.8221Z" fill="black"/>
<path d="M52.4414 49.3197C52.4414 48.4954 52.8874 47.983 53.4761 47.983C54.0648 47.983 54.5153 48.4776 54.5153 49.3197C54.5153 50.1618 54.0693 50.6564 53.4761 50.6564C52.8829 50.6564 52.4414 50.1485 52.4414 49.3197ZM54.2254 49.3197C54.2254 48.6291 53.9177 48.2459 53.4627 48.2459C53.0078 48.2459 52.7001 48.6291 52.7001 49.3197C52.7001 50.0104 53.0123 50.398 53.4627 50.398C53.9132 50.398 54.2388 50.0148 54.2388 49.3197H54.2254Z" fill="black"/>
<path d="M54.9124 49.3197C54.9124 48.4954 55.3584 47.983 55.9471 47.983C56.5358 47.983 56.9863 48.4776 56.9863 49.3197C56.9863 50.1618 56.5403 50.6564 55.9471 50.6564C55.3539 50.6564 54.9124 50.1485 54.9124 49.3197ZM56.6964 49.3197C56.6964 48.6291 56.3842 48.2459 55.9292 48.2459C55.4743 48.2459 55.1666 48.6291 55.1666 49.3197C55.1666 50.0104 55.4788 50.398 55.9292 50.398C56.3797 50.398 56.6964 50.0148 56.6964 49.3197Z" fill="black"/>
<path d="M58.0616 48.0231V50.6163H57.7938V48.2592H57.1824V48.0231H58.0616Z" fill="black"/>
<path d="M59.3998 48.0231V50.6163H59.132V48.2592H58.5205V48.0231H59.3998Z" fill="black"/>
<path d="M60.7379 48.0231V50.6163H60.4701V48.2592H59.8586V48.0231H60.7379Z" fill="black"/>
<path d="M61.3569 49.3197C61.3569 48.4954 61.8029 47.983 62.3917 47.983C62.9804 47.983 63.4308 48.4776 63.4308 49.3197C63.4308 50.1618 62.9848 50.6564 62.3917 50.6564C61.7985 50.6564 61.3569 50.1485 61.3569 49.3197ZM63.1409 49.3197C63.1409 48.6291 62.8287 48.2459 62.3783 48.2459C61.9278 48.2459 61.6156 48.6291 61.6156 49.3197C61.6156 50.0104 61.9234 50.398 62.3783 50.398C62.8332 50.398 63.1543 50.0148 63.1543 49.3197H63.1409Z" fill="black"/>
<path d="M64.5242 48.0231V50.6163H64.2787V48.2592H63.6672V48.0231H64.5242Z" fill="black"/>
</g>
</svg>
