<svg width="222" height="166" viewBox="0 0 222 166" fill="none" xmlns="http://www.w3.org/2000/svg">
<path d="M221.581 145.421H0.419189V145.531H221.581V145.421Z" fill="#EBEBEB"/>
<path d="M199.42 152.538H184.771V152.648H199.42V152.538Z" fill="#EBEBEB"/>
<path d="M146.926 153.741H143.082V153.851H146.926V153.741Z" fill="#EBEBEB"/>
<path d="M184.329 148.433H175.84V148.543H184.329V148.433Z" fill="#EBEBEB"/>
<path d="M42.7275 149.176H23.6235V149.286H42.7275V149.176Z" fill="#EBEBEB"/>
<path d="M49.4684 149.176H46.6685V149.286H49.4684V149.176Z" fill="#EBEBEB"/>
<path d="M100.008 151.042H58.5715V151.153H100.008V151.042Z" fill="#EBEBEB"/>
<path d="M105.25 125.693H19.8416C19.1725 125.692 18.5312 125.425 18.0585 124.952C17.5858 124.478 17.3203 123.836 17.3203 123.167V3.10755C17.3261 2.44231 17.5942 1.80623 18.0663 1.33747C18.5383 0.868716 19.1763 0.605144 19.8416 0.604004H105.25C105.92 0.604004 106.562 0.8701 107.036 1.34375C107.509 1.81741 107.775 2.45982 107.775 3.12967V123.167C107.775 123.837 107.509 124.48 107.036 124.953C106.562 125.427 105.92 125.693 105.25 125.693ZM19.8416 0.692469C19.2018 0.693641 18.5887 0.948602 18.1367 1.40139C17.6847 1.85418 17.4309 2.4678 17.4309 3.10755V123.167C17.4309 123.807 17.6847 124.421 18.1367 124.873C18.5887 125.326 19.2018 125.581 19.8416 125.582H105.25C105.89 125.581 106.504 125.326 106.956 124.874C107.409 124.421 107.664 123.808 107.665 123.167V3.10755C107.664 2.46739 107.409 1.85378 106.956 1.40112C106.504 0.948459 105.89 0.693638 105.25 0.692469H19.8416Z" fill="#EBEBEB"/>
<path d="M200.929 125.693H115.516C114.847 125.692 114.205 125.425 113.732 124.952C113.258 124.479 112.992 123.837 112.99 123.167V3.10755C112.997 2.44191 113.267 1.80583 113.739 1.3372C114.212 0.868561 114.85 0.605131 115.516 0.604004H200.929C201.593 0.606306 202.23 0.870393 202.701 1.33902C203.172 1.80766 203.44 2.44307 203.446 3.10755V123.167C203.446 123.836 203.181 124.477 202.709 124.95C202.237 125.424 201.597 125.691 200.929 125.693ZM115.516 0.692469C114.876 0.693638 114.262 0.948459 113.81 1.40112C113.357 1.85378 113.102 2.46739 113.101 3.10755V123.167C113.102 123.808 113.357 124.421 113.81 124.874C114.262 125.326 114.876 125.581 115.516 125.582H200.929C201.569 125.581 202.183 125.326 202.635 124.874C203.088 124.421 203.343 123.808 203.344 123.167V3.10755C203.343 2.46739 203.088 1.85378 202.635 1.40112C202.183 0.948459 201.569 0.693638 200.929 0.692469H115.516Z" fill="#EBEBEB"/>
<path d="M74.1811 18.0271H42.6655V124.941H74.1811V18.0271Z" fill="#FAFAFA"/>
<path d="M69.488 18.0271H67.648L56.6562 124.941H58.4963L69.488 18.0271Z" fill="#F5F5F5"/>
<path d="M73.6236 18.4385H42.4619V19.3806H73.6236V18.4385Z" fill="#E0E0E0"/>
<path d="M73.6236 124.003H42.4619V126.02H73.6236V124.003Z" fill="#EBEBEB"/>
<path d="M73.1063 125.932H43.6609V126.02H73.1063V125.932Z" fill="#EBEBEB"/>
<path d="M43.6609 18.4385H73.1063V125.932H74.8668V17.1204H41.896V125.932H43.6609V18.4385Z" fill="#EBEBEB"/>
<path d="M109.248 18.0271H77.7329V124.941H109.248V18.0271Z" fill="#FAFAFA"/>
<path d="M100.508 18.0271H90.4629L79.4712 124.941H89.5163L100.508 18.0271Z" fill="#F5F5F5"/>
<path d="M109.58 18.4385H77.5339V19.3806H109.58V18.4385Z" fill="#E0E0E0"/>
<path d="M109.58 124.003H77.5339V126.02H109.58V124.003Z" fill="#EBEBEB"/>
<path d="M108.178 125.932H78.7327V126.02H108.178V125.932Z" fill="#EBEBEB"/>
<path d="M78.7326 18.4385H108.178V125.932H109.939V17.1204H76.9678V125.932H78.7326V18.4385Z" fill="#EBEBEB"/>
<path d="M143.436 18.0271H112.805V124.941H143.436V18.0271Z" fill="#FAFAFA"/>
<path d="M130.161 18.0271H128.321L117.33 124.941H119.17L130.161 18.0271Z" fill="#F5F5F5"/>
<path d="M143.767 18.4385H112.605V19.3806H143.767V18.4385Z" fill="#E0E0E0"/>
<path d="M143.767 124.003H112.605V126.02H143.767V124.003Z" fill="#EBEBEB"/>
<path d="M143.25 125.932H113.804V126.02H143.25V125.932Z" fill="#EBEBEB"/>
<path d="M113.8 18.4385H143.245V125.932H145.01V17.1204H112.04V125.932H113.8V18.4385Z" fill="#EBEBEB"/>
<path d="M179.392 18.0271H147.876V124.941H179.392V18.0271Z" fill="#FAFAFA"/>
<path d="M176.309 18.0271H166.264L155.268 124.941H165.317L176.309 18.0271Z" fill="#F5F5F5"/>
<path d="M178.835 18.4385H147.673V19.3806H178.835V18.4385Z" fill="#E0E0E0"/>
<path d="M178.835 124.003H147.673V126.02H178.835V124.003Z" fill="#EBEBEB"/>
<path d="M148.872 18.4385H178.317V125.932H180.082V17.1204H147.111V125.932H148.872V18.4385Z" fill="#EBEBEB"/>
<path d="M178.317 125.932H148.872V126.02H178.317V125.932Z" fill="#EBEBEB"/>
<path d="M66.6393 100.348H52.9583V124.008H66.6393V100.348Z" fill="#EBEBEB"/>
<path d="M64.012 97.0437V102.975H62.9371H56.665H55.5857V97.0437H64.012Z" fill="#EBEBEB"/>
<path d="M64.0165 102.975H65.7681V101.224H64.0165V102.975Z" fill="#FAFAFA"/>
<path d="M60.6239 102.975H62.3755V101.224H60.6239V102.975Z" fill="#FAFAFA"/>
<path d="M57.2313 102.975H58.9829V101.224H57.2313V102.975Z" fill="#FAFAFA"/>
<path d="M53.8341 102.975H55.5857V101.224H53.8341V102.975Z" fill="#F0F0F0"/>
<path d="M64.0165 106.16H65.7681V104.408H64.0165V106.16Z" fill="#F0F0F0"/>
<path d="M60.6239 106.16H62.3755V104.408H60.6239V106.16Z" fill="#F0F0F0"/>
<path d="M57.2313 106.16H58.9829V104.408H57.2313V106.16Z" fill="#FAFAFA"/>
<path d="M53.8341 106.16H55.5857V104.408H53.8341V106.16Z" fill="#FAFAFA"/>
<path d="M64.0165 109.345H65.7681V107.593H64.0165V109.345Z" fill="#F0F0F0"/>
<path d="M60.6239 109.345H62.3755V107.593H60.6239V109.345Z" fill="#FAFAFA"/>
<path d="M57.2313 109.345H58.9829V107.593H57.2313V109.345Z" fill="#FAFAFA"/>
<path d="M60.6239 100.224H62.3755V98.4724H60.6239V100.224Z" fill="#FAFAFA"/>
<path d="M57.2313 100.224H58.9829V98.4724H57.2313V100.224Z" fill="#F0F0F0"/>
<path d="M53.8341 109.345H55.5857V107.593H53.8341V109.345Z" fill="#F0F0F0"/>
<path d="M64.0165 112.525H65.7681V110.773H64.0165V112.525Z" fill="#FAFAFA"/>
<path d="M60.6239 112.525H62.3755V110.773H60.6239V112.525Z" fill="#F0F0F0"/>
<path d="M57.2313 112.525H58.9829V110.773H57.2313V112.525Z" fill="#F0F0F0"/>
<path d="M53.8341 112.525H55.5857V110.773H53.8341V112.525Z" fill="#FAFAFA"/>
<path d="M64.0165 115.71H65.7681V113.958H64.0165V115.71Z" fill="#F0F0F0"/>
<path d="M60.6239 115.71H62.3755V113.958H60.6239V115.71Z" fill="#FAFAFA"/>
<path d="M57.2313 115.71H58.9829V113.958H57.2313V115.71Z" fill="#FAFAFA"/>
<path d="M53.8341 115.71H55.5857V113.958H53.8341V115.71Z" fill="#F0F0F0"/>
<path d="M64.0165 118.89H65.7681V117.139H64.0165V118.89Z" fill="#F0F0F0"/>
<path d="M60.6239 118.89H62.3755V117.139H60.6239V118.89Z" fill="#FAFAFA"/>
<path d="M57.2313 118.89H58.9829V117.139H57.2313V118.89Z" fill="#F0F0F0"/>
<path d="M53.8341 118.89H55.5857V117.139H53.8341V118.89Z" fill="#FAFAFA"/>
<path d="M64.0165 122.07H65.7681V120.319H64.0165V122.07Z" fill="#FAFAFA"/>
<path d="M60.6239 122.07H62.3755V120.319H60.6239V122.07Z" fill="#FAFAFA"/>
<path d="M57.2313 122.07H58.9829V120.319H57.2313V122.07Z" fill="#F0F0F0"/>
<path d="M53.8341 122.07H55.5857V120.319H53.8341V122.07Z" fill="#F0F0F0"/>
<path d="M163.017 108.969H150.76V124.008H163.017V108.969Z" fill="#F0F0F0"/>
<path d="M151.831 110.636H154.679H155.467H156.25V112.207H155.467H154.679H151.831V110.636Z" fill="#E6E6E6"/>
<path d="M151.831 113.675H154.679H155.467H156.25V115.245H155.467H154.679H151.831V113.675Z" fill="#FAFAFA"/>
<path d="M151.831 116.714H154.679H155.467H156.25V118.284H155.467H154.679H151.831V116.714Z" fill="#E6E6E6"/>
<path d="M151.831 119.753H154.679H155.891H156.25V121.323H155.891H154.679H151.831V119.753Z" fill="#FAFAFA"/>
<path d="M157.532 110.636H160.381H161.168H161.951V112.207H161.168H160.381H157.532V110.636Z" fill="#FAFAFA"/>
<path d="M157.532 113.675H160.381H161.487H161.951V115.245H161.487H160.381H157.532V113.675Z" fill="#FAFAFA"/>
<path d="M157.532 116.714H160.381H161.168H161.951V118.284H161.168H160.381H157.532V116.714Z" fill="#E6E6E6"/>
<path d="M157.532 119.753H160.381H161.168H161.951V121.323H161.168H160.381H157.532V119.753Z" fill="#FAFAFA"/>
<path d="M103.958 114.661H92.8206V124.008H103.958V114.661Z" fill="#F0F0F0"/>
<path d="M101.822 117.249H103.246V115.825H101.822V117.249Z" fill="#FAFAFA"/>
<path d="M99.0574 117.249H100.482V115.825H99.0574V117.249Z" fill="#FAFAFA"/>
<path d="M96.2972 117.249H97.7214V115.825H96.2972V117.249Z" fill="#FAFAFA"/>
<path d="M93.5371 117.249H94.9614V115.825H93.5371V117.249Z" fill="#FAFAFA"/>
<path d="M101.822 119.845H103.246V118.421H101.822V119.845Z" fill="#FAFAFA"/>
<path d="M99.0574 119.845H100.482V118.421H99.0574V119.845Z" fill="#FAFAFA"/>
<path d="M96.2972 119.845H97.7214V118.421H96.2972V119.845Z" fill="#FAFAFA"/>
<path d="M93.5371 119.845H94.9614V118.421H93.5371V119.845Z" fill="#E6E6E6"/>
<path d="M101.822 122.433H103.246V121.009H101.822V122.433Z" fill="#E6E6E6"/>
<path d="M99.0574 122.433H100.482V121.009H99.0574V122.433Z" fill="#E6E6E6"/>
<path d="M96.2972 122.433H97.7214V121.009H96.2972V122.433Z" fill="#FAFAFA"/>
<path d="M93.5371 122.433H94.9614V121.009H93.5371V122.433Z" fill="#E6E6E6"/>
<path d="M91.3123 107.752H80.1746V124.008H91.3123V107.752Z" fill="#F0F0F0"/>
<path d="M90.6002 108.464H86.4114V112.481H90.6002V108.464Z" fill="#FAFAFA"/>
<path d="M85.0755 108.464H80.8867V112.481H85.0755V108.464Z" fill="#FAFAFA"/>
<path d="M90.6002 113.644H86.4114V117.66H90.6002V113.644Z" fill="#FAFAFA"/>
<path d="M85.0755 113.644H80.8867V117.66H85.0755V113.644Z" fill="#FAFAFA"/>
<path d="M90.6002 118.828H86.4114V122.844H90.6002V118.828Z" fill="#FAFAFA"/>
<path d="M85.0755 118.828H80.8867V122.844H85.0755V118.828Z" fill="#FAFAFA"/>
<path d="M111 165.396C158.365 165.396 196.762 163.154 196.762 160.389C196.762 157.624 158.365 155.382 111 155.382C63.635 155.382 25.238 157.624 25.238 160.389C25.238 163.154 63.635 165.396 111 165.396Z" fill="#F5F5F5"/>
<path d="M183.054 147.332C183.054 147.186 182.568 132.894 180.25 130.643C178.016 128.471 175.438 130.563 175.331 130.643L175.048 130.302C175.075 130.28 178.038 127.865 180.56 130.302C183.001 132.677 183.479 146.699 183.497 147.296L183.054 147.332Z" fill="#05F29B"/>
<path d="M183.253 150.145C183.187 149.446 181.661 132.952 187.885 125.817L188.216 126.109C182.121 133.106 183.678 149.941 183.696 150.109L183.253 150.145Z" fill="#05F29B"/>
<path d="M183.099 148.34L182.657 148.313C182.657 148.119 183.873 128.997 179.33 124.817L179.631 124.49C184.333 128.816 183.156 147.548 183.099 148.34Z" fill="#05F29B"/>
<path d="M183.696 148.34H183.254C183.254 147.814 183.404 135.389 186.947 133.358C187.287 133.138 187.674 133.003 188.077 132.965C188.479 132.926 188.885 132.986 189.26 133.137C191.41 134.022 192.472 137.83 192.516 138.003L192.074 138.118C192.074 138.082 191.025 134.358 189.079 133.553C188.766 133.427 188.428 133.38 188.092 133.415C187.757 133.449 187.435 133.565 187.155 133.752C183.842 135.636 183.696 148.207 183.696 148.34Z" fill="#05F29B"/>
<path d="M182.325 148.34L181.882 148.313C181.882 148.216 182.413 138.525 179.803 135.119C179.18 134.301 178.476 133.916 177.786 133.965C176.092 134.08 174.664 136.574 174.65 136.618L174.252 136.397C174.314 136.287 175.809 133.673 177.742 133.54C178.627 133.482 179.419 133.925 180.144 134.867C182.864 138.392 182.347 147.937 182.325 148.34Z" fill="#05F29B"/>
<path d="M182.82 149.667C182.749 148.725 181.108 126.556 184.001 122.641L184.359 122.902C181.56 126.688 183.245 149.406 183.262 149.636L182.82 149.667Z" fill="#05F29B"/>
<path d="M190.03 135.402C190.03 135.402 188.301 136.043 188.814 137.547C189.327 139.051 194.807 141.528 194.807 141.528C194.807 141.528 197.098 139.427 194.993 136.008C192.887 132.589 190.079 134.323 190.03 135.402Z" fill="#05F29B"/>
<path opacity="0.5" d="M190.03 135.402C190.03 135.402 188.301 136.043 188.814 137.547C189.327 139.051 194.807 141.528 194.807 141.528C194.807 141.528 197.098 139.427 194.993 136.008C192.887 132.589 190.079 134.323 190.03 135.402Z" fill="white"/>
<path d="M182.501 132.536C182.501 132.536 184.346 132.456 184.452 134.044C184.558 135.632 180.471 140.033 180.471 140.033C180.471 140.033 177.543 138.976 178.171 135.008C178.799 131.041 182.046 131.558 182.501 132.536Z" fill="#05F29B"/>
<path opacity="0.5" d="M182.501 132.536C182.501 132.536 184.346 132.456 184.452 134.044C184.558 135.632 180.471 140.033 180.471 140.033C180.471 140.033 177.543 138.976 178.171 135.008C178.799 131.041 182.046 131.558 182.501 132.536Z" fill="white"/>
<path d="M180.94 124.928C180.94 124.928 182.17 124.795 182.072 124.043C181.975 123.291 177.291 121.367 174.531 124.486C174.531 124.486 176.3 127.524 178.857 127.582C181.413 127.639 180.94 124.928 180.94 124.928Z" fill="#05F29B"/>
<path opacity="0.5" d="M180.94 124.928C180.94 124.928 182.17 124.795 182.072 124.043C181.975 123.291 177.291 121.367 174.531 124.486C174.531 124.486 176.3 127.524 178.857 127.582C181.413 127.639 180.94 124.928 180.94 124.928Z" fill="white"/>
<path d="M183.231 123.128C183.231 123.128 182.121 123.663 181.807 122.977C181.493 122.292 184.461 118.178 188.442 119.363C188.442 119.363 188.544 122.876 186.398 124.26C184.253 125.644 183.231 123.128 183.231 123.128Z" fill="#05F29B"/>
<path opacity="0.5" d="M183.231 123.128C183.231 123.128 182.121 123.663 181.807 122.977C181.493 122.292 184.461 118.178 188.442 119.363C188.442 119.363 188.544 122.876 186.398 124.26C184.253 125.644 183.231 123.128 183.231 123.128Z" fill="white"/>
<path d="M177.411 134.796C177.411 134.796 178.26 134.11 177.344 133.779C176.429 133.447 171.935 133.54 171.89 137.99C171.89 137.99 177.123 138.874 177.769 137.162C178.415 135.451 177.411 134.796 177.411 134.796Z" fill="#05F29B"/>
<path opacity="0.5" d="M177.411 134.796C177.411 134.796 178.26 134.11 177.344 133.779C176.429 133.447 171.935 133.54 171.89 137.99C171.89 137.99 177.123 138.874 177.769 137.162C178.415 135.451 177.411 134.796 177.411 134.796Z" fill="white"/>
<path d="M188.084 124.817C188.084 124.817 187.234 124.132 188.15 123.795C189.066 123.459 193.56 123.557 193.604 128.006C193.604 128.006 188.371 128.891 187.725 127.184C187.08 125.476 188.084 124.817 188.084 124.817Z" fill="#05F29B"/>
<path opacity="0.5" d="M188.084 124.817C188.084 124.817 187.234 124.132 188.15 123.795C189.066 123.459 193.56 123.557 193.604 128.006C193.604 128.006 188.371 128.891 187.725 127.184C187.08 125.476 188.084 124.817 188.084 124.817Z" fill="white"/>
<path d="M185.31 128.4C185.31 128.4 185.235 127.569 185.907 127.896C186.58 128.223 188.924 130.749 186.496 133.146C186.496 133.146 183.227 130.727 183.815 129.466C184.404 128.206 185.31 128.4 185.31 128.4Z" fill="#05F29B"/>
<path opacity="0.5" d="M185.31 128.4C185.31 128.4 185.235 127.569 185.907 127.896C186.58 128.223 188.924 130.749 186.496 133.146C186.496 133.146 183.227 130.727 183.815 129.466C184.404 128.206 185.31 128.4 185.31 128.4Z" fill="white"/>
<path d="M176.654 129.585C176.654 129.585 177.163 128.922 176.419 128.842C175.676 128.763 172.346 129.647 173.12 132.969C173.12 132.969 177.176 132.664 177.353 131.284C177.53 129.904 176.654 129.585 176.654 129.585Z" fill="#05F29B"/>
<path opacity="0.5" d="M176.654 129.585C176.654 129.585 177.163 128.922 176.419 128.842C175.676 128.763 172.346 129.647 173.12 132.969C173.12 132.969 177.176 132.664 177.353 131.284C177.53 129.904 176.654 129.585 176.654 129.585Z" fill="white"/>
<path d="M190.353 160.668H176.437L174.938 145.434H191.857L190.353 160.668Z" fill="#EEEEEE"/>
<path opacity="0.2" d="M190.353 160.668H176.437L174.938 145.434H191.857L190.353 160.668Z" fill="white"/>
<path d="M192.6 143.753H174.195V147.115H192.6V143.753Z" fill="#EEEEEE"/>
<path opacity="0.4" d="M192.6 143.753H174.195V147.115H192.6V143.753Z" fill="white"/>
<path d="M45.293 151.724C45.3689 151.566 45.4053 151.392 45.399 151.217C45.3927 151.042 45.3439 150.871 45.2569 150.719C45.1698 150.567 45.047 150.439 44.8992 150.345C44.7513 150.251 44.5829 150.194 44.4083 150.18C44.5571 149.738 44.5674 149.261 44.4378 148.813C44.3081 148.364 44.0448 147.967 43.6829 147.672C43.5961 147.59 43.4837 147.54 43.3644 147.531C43.2382 147.545 43.1194 147.597 43.0238 147.681L41.0157 149.123C40.8529 149.222 40.7163 149.358 40.6176 149.521C40.2062 150.317 41.688 151.334 41.0599 151.994C40.883 152.184 40.6176 152.219 40.3832 152.356C39.9055 152.657 39.848 153.312 39.6268 153.834C39.4056 154.356 38.6227 154.754 38.3264 154.276C38.5475 153.781 37.8841 153.351 37.34 153.29C36.7959 153.228 36.2386 153.197 35.9378 152.688C35.1726 153.36 33.4564 151.489 33.4962 150.737C33.1937 150.793 32.916 150.941 32.7013 151.162C32.4866 151.382 32.3455 151.663 32.2975 151.967C32.2104 152.588 32.1897 153.217 32.2356 153.842C32.2356 155.063 31.8198 156.258 31.8419 157.478C31.8419 158.425 32.2267 159.482 33.0937 159.862C33.5265 160.014 33.9854 160.075 34.4428 160.044L44.342 159.982C44.6005 159.998 44.8591 159.95 45.0939 159.84C45.5362 159.61 45.6336 159.022 45.6734 158.513C45.8503 156.364 46.0287 154.213 46.2086 152.06L45.293 151.724Z" fill="#05F29B"/>
<path opacity="0.3" d="M45.293 151.724C45.3689 151.566 45.4053 151.392 45.399 151.217C45.3927 151.042 45.3439 150.871 45.2569 150.719C45.1698 150.567 45.047 150.439 44.8992 150.345C44.7513 150.251 44.5829 150.194 44.4083 150.18C44.5571 149.738 44.5674 149.261 44.4378 148.813C44.3081 148.364 44.0448 147.967 43.6829 147.672C43.5961 147.59 43.4837 147.54 43.3644 147.531C43.2382 147.545 43.1194 147.597 43.0238 147.681L41.0157 149.123C40.8529 149.222 40.7163 149.358 40.6176 149.521C40.2062 150.317 41.688 151.334 41.0599 151.994C40.883 152.184 40.6176 152.219 40.3832 152.356C39.9055 152.657 39.848 153.312 39.6268 153.834C39.4056 154.356 38.6227 154.754 38.3264 154.276C38.5475 153.781 37.8841 153.351 37.34 153.29C36.7959 153.228 36.2386 153.197 35.9378 152.688C35.1726 153.36 33.4564 151.489 33.4962 150.737C33.1937 150.793 32.916 150.941 32.7013 151.162C32.4866 151.382 32.3455 151.663 32.2975 151.967C32.2104 152.588 32.1897 153.217 32.2356 153.842C32.2356 155.063 31.8198 156.258 31.8419 157.478C31.8419 158.425 32.2267 159.482 33.0937 159.862C33.5265 160.014 33.9854 160.075 34.4428 160.044L44.342 159.982C44.6005 159.998 44.8591 159.95 45.0939 159.84C45.5362 159.61 45.6336 159.022 45.6734 158.513C45.8503 156.364 46.0287 154.213 46.2086 152.06L45.293 151.724Z" fill="white"/>
<path d="M45.8725 141.263H30.4973L30.6256 142.815L30.7141 143.921L30.9485 146.805L31.0812 148.459L31.2581 150.671L31.3377 151.613V151.896L31.4306 153.006L31.55 154.528L31.6297 155.475L31.7049 156.434L31.8243 157.54L31.8906 158.381L31.9658 159.327L32.0012 159.739H46.0936L46.1246 159.327L46.1998 158.385L46.2706 157.54L46.359 156.426L46.4386 155.47L46.5138 154.524L46.6377 152.998L46.7262 151.892V151.609L46.8013 150.667L46.9827 148.455L47.1154 146.805L47.3454 143.917L47.4383 142.811L47.5621 141.258L45.8725 141.263ZM46.7969 142.28L46.5006 141.984H46.819L46.7969 142.28ZM46.7173 143.222L46.6908 143.598L45.3151 144.974L43.7405 143.395L45.1515 141.984H45.4832L46.7173 143.222ZM46.3236 148.136L45.3151 149.141L43.7405 147.566L45.3151 145.991L46.4033 147.084L46.3236 148.136ZM31.727 147.084L32.8195 145.991L34.3942 147.566L32.8195 149.141L31.8154 148.136L31.727 147.084ZM44.8242 145.482L43.2495 147.057L41.6704 145.482L43.2318 143.917L44.8242 145.482ZM42.3472 141.984H44.1518L43.2672 142.868L42.3472 141.984ZM42.7364 147.566L41.1617 149.141L39.5871 147.566L41.1617 145.991L42.7364 147.566ZM37.4816 149.667L39.0607 148.097L40.6309 149.667L39.0607 151.246L37.4816 149.667ZM38.5476 151.755L36.9685 153.329L35.3983 151.759L36.9729 150.18L38.5476 151.755ZM41.144 150.18L42.7187 151.759L41.144 153.329L39.5694 151.755L41.144 150.18ZM39.0607 147.084L37.4816 145.509L39.0607 143.917L40.6309 145.496L39.0607 147.084ZM38.5476 147.592L36.9729 149.167L35.3983 147.592L36.9729 146.018L38.5476 147.592ZM34.8852 147.084L33.3105 145.509L34.8852 143.917L36.4598 145.496L34.8852 147.084ZM34.8852 148.105L36.4598 149.667L34.8852 151.246L33.3105 149.667L34.8852 148.105ZM36.4598 153.856L34.8852 155.417L33.3105 153.842L34.8852 152.268L36.4598 153.856ZM36.9685 154.364L38.5476 155.943L36.9729 157.518L35.3983 155.943L36.9685 154.364ZM37.4816 153.856L39.0607 152.281L40.6309 153.856L39.0607 155.417L37.4816 153.856ZM41.144 154.364L42.7187 155.943L41.144 157.518L39.5694 155.943L41.144 154.364ZM43.2318 156.452L44.8065 158.027L43.767 159.018H42.6745L41.6527 157.996L43.2318 156.452ZM41.6527 153.856L43.2318 152.281L44.8065 153.856L43.2318 155.417L41.6527 153.856ZM41.6527 149.68L43.2318 148.11L44.8065 149.68L43.2318 151.259L41.6527 149.68ZM42.7187 143.426L41.144 145.005L39.5694 143.426L40.9804 142.015H41.3121L42.7187 143.426ZM39.0607 142.917L38.176 142.032H39.9763L39.0607 142.917ZM38.5476 143.426L36.9729 145.005L35.3983 143.426L36.8093 142.015H37.1322L38.5476 143.426ZM35.8052 141.984L34.9205 142.868L34.0359 141.984H35.8052ZM32.9832 141.984L34.3942 143.395L32.8195 144.974L31.4483 143.598L31.4173 143.222L32.6514 141.984H32.9832ZM31.6562 141.984L31.3643 142.276L31.3377 141.984H31.6562ZM31.5589 144.708L32.333 145.482L31.6341 146.128L31.5589 144.708ZM32.0012 149.994L31.9393 149.247L32.3462 149.649L32.0012 149.994ZM32.0764 150.941L32.8549 150.162L34.4296 151.741L32.8549 153.312L32.218 152.679L32.0764 150.941ZM32.3108 153.86V153.789L32.3506 153.825L32.3153 153.86H32.3108ZM32.5851 157.217L32.386 154.798L32.8549 154.333L34.4296 155.912L32.8549 157.483L32.5851 157.217ZM32.731 159.018L32.7001 158.655L32.8549 158.504L33.3636 159.018H32.731ZM33.3636 157.996L34.9382 156.421L36.5129 157.996L35.4956 159.018H34.3278L33.3636 157.996ZM36.5173 159.018L36.9729 158.513L37.486 159.026L36.5173 159.018ZM38.5564 159.018L37.5347 157.996L39.1138 156.421L40.684 157.996L39.6667 159.018H38.5564ZM40.684 159.018L41.144 158.513L41.6571 159.026L40.684 159.018ZM45.4921 159.018H44.8551L45.3151 158.513L45.4655 158.664L45.4921 159.018ZM45.638 157.217L45.3682 157.483L43.7935 155.912L45.3682 154.333L45.8105 154.798L45.638 157.217ZM45.9167 153.785V153.86L45.8857 153.825L45.9255 153.785H45.9167ZM46.0052 152.679L45.3682 153.312L43.7935 151.741L45.3682 150.162L46.1467 150.941L46.0052 152.679ZM46.2219 149.999L45.8769 149.649L46.2838 149.247L46.2219 149.999ZM46.6642 144.691L46.5492 146.128L45.8902 145.469L46.6642 144.691Z" fill="#05F29B"/>
<g opacity="0.6">
<path d="M45.8725 141.263H30.4973L30.6256 142.815L30.7141 143.921L30.9485 146.805L31.0812 148.459L31.2581 150.671L31.3377 151.613V151.896L31.4306 153.006L31.55 154.528L31.6297 155.475L31.7049 156.434L31.8243 157.54L31.8906 158.381L31.9658 159.327L32.0012 159.739H46.0936L46.1246 159.327L46.1998 158.385L46.2706 157.54L46.359 156.426L46.4386 155.47L46.5138 154.524L46.6377 152.998L46.7262 151.892V151.609L46.8013 150.667L46.9827 148.455L47.1154 146.805L47.3454 143.917L47.4383 142.811L47.5621 141.258L45.8725 141.263ZM46.7969 142.28L46.5006 141.984H46.819L46.7969 142.28ZM46.7173 143.222L46.6908 143.598L45.3151 144.974L43.7405 143.395L45.1515 141.984H45.4832L46.7173 143.222ZM46.3236 148.136L45.3151 149.141L43.7405 147.566L45.3151 145.991L46.4033 147.084L46.3236 148.136ZM31.727 147.084L32.8195 145.991L34.3942 147.566L32.8195 149.141L31.8154 148.136L31.727 147.084ZM44.8242 145.482L43.2495 147.057L41.6704 145.482L43.2318 143.917L44.8242 145.482ZM42.3472 141.984H44.1518L43.2672 142.868L42.3472 141.984ZM42.7364 147.566L41.1617 149.141L39.5871 147.566L41.1617 145.991L42.7364 147.566ZM37.4816 149.667L39.0607 148.097L40.6309 149.667L39.0607 151.246L37.4816 149.667ZM38.5476 151.755L36.9685 153.329L35.3983 151.759L36.9729 150.18L38.5476 151.755ZM41.144 150.18L42.7187 151.759L41.144 153.329L39.5694 151.755L41.144 150.18ZM39.0607 147.084L37.4816 145.509L39.0607 143.917L40.6309 145.496L39.0607 147.084ZM38.5476 147.592L36.9729 149.167L35.3983 147.592L36.9729 146.018L38.5476 147.592ZM34.8852 147.084L33.3105 145.509L34.8852 143.917L36.4598 145.496L34.8852 147.084ZM34.8852 148.105L36.4598 149.667L34.8852 151.246L33.3105 149.667L34.8852 148.105ZM36.4598 153.856L34.8852 155.417L33.3105 153.842L34.8852 152.268L36.4598 153.856ZM36.9685 154.364L38.5476 155.943L36.9729 157.518L35.3983 155.943L36.9685 154.364ZM37.4816 153.856L39.0607 152.281L40.6309 153.856L39.0607 155.417L37.4816 153.856ZM41.144 154.364L42.7187 155.943L41.144 157.518L39.5694 155.943L41.144 154.364ZM43.2318 156.452L44.8065 158.027L43.767 159.018H42.6745L41.6527 157.996L43.2318 156.452ZM41.6527 153.856L43.2318 152.281L44.8065 153.856L43.2318 155.417L41.6527 153.856ZM41.6527 149.68L43.2318 148.11L44.8065 149.68L43.2318 151.259L41.6527 149.68ZM42.7187 143.426L41.144 145.005L39.5694 143.426L40.9804 142.015H41.3121L42.7187 143.426ZM39.0607 142.917L38.176 142.032H39.9763L39.0607 142.917ZM38.5476 143.426L36.9729 145.005L35.3983 143.426L36.8093 142.015H37.1322L38.5476 143.426ZM35.8052 141.984L34.9205 142.868L34.0359 141.984H35.8052ZM32.9832 141.984L34.3942 143.395L32.8195 144.974L31.4483 143.598L31.4173 143.222L32.6514 141.984H32.9832ZM31.6562 141.984L31.3643 142.276L31.3377 141.984H31.6562ZM31.5589 144.708L32.333 145.482L31.6341 146.128L31.5589 144.708ZM32.0012 149.994L31.9393 149.247L32.3462 149.649L32.0012 149.994ZM32.0764 150.941L32.8549 150.162L34.4296 151.741L32.8549 153.312L32.218 152.679L32.0764 150.941ZM32.3108 153.86V153.789L32.3506 153.825L32.3153 153.86H32.3108ZM32.5851 157.217L32.386 154.798L32.8549 154.333L34.4296 155.912L32.8549 157.483L32.5851 157.217ZM32.731 159.018L32.7001 158.655L32.8549 158.504L33.3636 159.018H32.731ZM33.3636 157.996L34.9382 156.421L36.5129 157.996L35.4956 159.018H34.3278L33.3636 157.996ZM36.5173 159.018L36.9729 158.513L37.486 159.026L36.5173 159.018ZM38.5564 159.018L37.5347 157.996L39.1138 156.421L40.684 157.996L39.6667 159.018H38.5564ZM40.684 159.018L41.144 158.513L41.6571 159.026L40.684 159.018ZM45.4921 159.018H44.8551L45.3151 158.513L45.4655 158.664L45.4921 159.018ZM45.638 157.217L45.3682 157.483L43.7935 155.912L45.3682 154.333L45.8105 154.798L45.638 157.217ZM45.9167 153.785V153.86L45.8857 153.825L45.9255 153.785H45.9167ZM46.0052 152.679L45.3682 153.312L43.7935 151.741L45.3682 150.162L46.1467 150.941L46.0052 152.679ZM46.2219 149.999L45.8769 149.649L46.2838 149.247L46.2219 149.999ZM46.6642 144.691L46.5492 146.128L45.8902 145.469L46.6642 144.691Z" fill="white"/>
</g>
<path d="M30.2585 142.625H47.8586C48.2592 142.625 48.584 142.3 48.584 141.9V141.342C48.584 140.942 48.2592 140.617 47.8586 140.617H30.2585C29.8579 140.617 29.5331 140.942 29.5331 141.342V141.9C29.5331 142.3 29.8579 142.625 30.2585 142.625Z" fill="#05F29B"/>
<path d="M46.4871 158.659H31.6339C31.2332 158.659 30.9084 158.984 30.9084 159.385V159.942C30.9084 160.343 31.2332 160.667 31.6339 160.667H46.4871C46.8877 160.667 47.2125 160.343 47.2125 159.942V159.385C47.2125 158.984 46.8877 158.659 46.4871 158.659Z" fill="#05F29B"/>
<path d="M150.398 160.667H109.337C108.748 160.678 108.163 160.563 107.622 160.33C107.081 160.097 106.596 159.751 106.199 159.316C105.802 158.881 105.502 158.366 105.319 157.806C105.137 157.246 105.075 156.653 105.139 156.067L115.755 34.8176C115.881 33.5756 116.456 32.4222 117.372 31.5742C118.289 30.7263 119.483 30.2423 120.731 30.2131H161.792C162.382 30.2026 162.967 30.3178 163.508 30.5512C164.049 30.7845 164.535 31.1305 164.932 31.5662C165.329 32.0019 165.629 32.5173 165.811 33.0779C165.994 33.6386 166.055 34.2317 165.99 34.8176L155.374 156.067C155.247 157.309 154.672 158.461 153.755 159.308C152.839 160.155 151.645 160.638 150.398 160.667Z" fill="#05F29B"/>
<path opacity="0.4" d="M150.398 160.667H109.337C108.748 160.678 108.163 160.563 107.622 160.33C107.081 160.097 106.596 159.751 106.199 159.316C105.802 158.881 105.502 158.366 105.319 157.806C105.137 157.246 105.075 156.653 105.139 156.067L115.755 34.8176C115.881 33.5756 116.456 32.4222 117.372 31.5742C118.289 30.7263 119.483 30.2423 120.731 30.2131H161.792C162.382 30.2026 162.967 30.3178 163.508 30.5512C164.049 30.7845 164.535 31.1305 164.932 31.5662C165.329 32.0019 165.629 32.5173 165.811 33.0779C165.994 33.6386 166.055 34.2317 165.99 34.8176L155.374 156.067C155.247 157.309 154.672 158.461 153.755 159.308C152.839 160.155 151.645 160.638 150.398 160.667Z" fill="#A8A8A8"/>
<path d="M145.975 160.667H104.914C104.325 160.678 103.74 160.563 103.199 160.33C102.658 160.097 102.173 159.751 101.776 159.316C101.378 158.881 101.079 158.366 100.896 157.806C100.713 157.246 100.652 156.653 100.716 156.067L111.332 34.8176C111.458 33.5756 112.033 32.4222 112.949 31.5742C113.865 30.7263 115.06 30.2423 116.308 30.2131H157.369C157.958 30.2026 158.543 30.3178 159.085 30.5512C159.626 30.7845 160.112 31.1305 160.509 31.5662C160.906 32.0019 161.206 32.5173 161.388 33.0779C161.571 33.6386 161.631 34.2317 161.566 34.8176L150.951 156.067C150.824 157.309 150.248 158.461 149.332 159.308C148.416 160.155 147.222 160.638 145.975 160.667Z" fill="#EEEEEE"/>
<path d="M145.975 160.667H104.914C104.325 160.678 103.74 160.563 103.199 160.33C102.658 160.097 102.173 159.751 101.776 159.316C101.378 158.881 101.079 158.366 100.896 157.806C100.713 157.246 100.652 156.653 100.716 156.067L111.332 34.8176C111.458 33.5756 112.033 32.4222 112.949 31.5742C113.865 30.7263 115.06 30.2423 116.308 30.2131H157.369C157.958 30.2026 158.543 30.3178 159.085 30.5512C159.626 30.7845 160.112 31.1305 160.509 31.5662C160.906 32.0019 161.206 32.5173 161.388 33.0779C161.571 33.6386 161.631 34.2317 161.566 34.8176L150.951 156.067C150.824 157.309 150.248 158.461 149.332 159.308C148.416 160.155 147.222 160.638 145.975 160.667Z" fill="#05F29B"/>
<path opacity="0.4" d="M159.908 34.5832L149.292 156.063C149.204 157.062 148.58 157.832 147.886 157.832H103.375C102.738 157.832 102.318 157.12 102.402 156.2L113.053 34.4284C113.123 33.6322 113.588 32.9377 114.141 32.9377H125.265C125.579 32.9377 125.84 33.2341 125.92 33.6632L126.238 35.2997C126.318 35.72 126.575 36.0119 126.889 36.0119H145.833C146.018 35.9856 146.191 35.9046 146.33 35.7793C146.469 35.654 146.567 35.4901 146.612 35.3086L147.213 33.6632C147.259 33.4791 147.357 33.3124 147.496 33.1835C147.636 33.0547 147.809 32.9692 147.996 32.9377H158.961C159.567 32.9466 159.988 33.7074 159.908 34.5832Z" fill="#A8A8A8"/>
<path d="M159.39 40.5369L150.27 144.775H103.401L112.522 40.5369H159.39Z" fill="#05F29B"/>
<path opacity="0.6" d="M117.918 37.8432H118.498L118.595 36.7285H118.02L117.918 37.8432Z" fill="#A8A8A8"/>
<path opacity="0.6" d="M116.976 37.8433H117.555L117.684 36.3571H117.109L116.976 37.8433Z" fill="#A8A8A8"/>
<path opacity="0.6" d="M116.034 37.8432H116.613L116.777 35.9855H116.197L116.034 37.8432Z" fill="#A8A8A8"/>
<path opacity="0.6" d="M115.092 37.8432H115.671L115.866 35.6139H115.286L115.092 37.8432Z" fill="#A8A8A8"/>
<path opacity="0.6" d="M154.357 37.4363H154.012L154.109 36.3217H154.454L154.357 37.4363Z" fill="#A8A8A8"/>
<path opacity="0.6" d="M154.556 37.8432H157.289L157.457 35.9147H154.724L154.556 37.8432Z" fill="#A8A8A8"/>
<path opacity="0.6" d="M136.598 33.1059C136.553 33.619 136.226 34.0348 135.872 34.0348C135.518 34.0348 135.266 33.619 135.31 33.1059C135.355 32.5928 135.678 32.177 136.036 32.177C136.394 32.177 136.655 32.5928 136.598 33.1059Z" fill="#EEEEEE"/>
<path opacity="0.6" d="M137.898 33.1059C137.871 33.4376 137.663 33.703 137.433 33.703C137.203 33.703 137.044 33.4376 137.075 33.1059C137.106 32.7742 137.31 32.5132 137.54 32.5132C137.77 32.5132 137.929 32.7786 137.898 33.1059Z" fill="#EEEEEE"/>
<path d="M159.386 40.5369L158.121 54.9964L157.904 57.4911L156.891 69.0756L156.732 70.8758L155.294 87.2993L155.139 89.0995L153.759 104.868L153.56 107.137L150.269 144.77H103.396L112.517 40.5369H159.386Z" fill="#EEEEEE"/>
<path opacity="0.5" d="M113.092 72.7381C113.14 72.7767 113.199 72.7971 113.26 72.7956C113.307 72.794 113.353 72.7825 113.395 72.7619C113.437 72.7413 113.474 72.7121 113.504 72.6762C113.529 72.6481 113.548 72.6154 113.56 72.5799C113.572 72.5444 113.577 72.5068 113.575 72.4694C113.572 72.4319 113.562 72.3953 113.546 72.3617C113.529 72.3281 113.506 72.2982 113.477 72.2737L112.672 71.6456L113.579 71.013C113.644 70.9719 113.691 70.9068 113.71 70.8316C113.728 70.7564 113.716 70.6771 113.676 70.6105C113.654 70.58 113.626 70.5541 113.593 70.5345C113.561 70.5148 113.525 70.5018 113.488 70.496C113.45 70.4903 113.412 70.4919 113.375 70.501C113.339 70.51 113.304 70.5262 113.274 70.5486L112.031 71.4333C111.992 71.4602 111.96 71.4951 111.937 71.5356C111.913 71.576 111.898 71.6211 111.894 71.6677C111.89 71.7117 111.897 71.756 111.914 71.7968C111.93 71.8377 111.957 71.8738 111.991 71.9021L113.092 72.7381Z" fill="#A8A8A8"/>
<path opacity="0.5" d="M117.108 71.6412L116.202 72.2604C116.137 72.3031 116.091 72.3693 116.073 72.4452C116.056 72.5211 116.069 72.6007 116.109 72.6674C116.133 72.7035 116.166 72.7329 116.205 72.753C116.243 72.7731 116.286 72.7832 116.33 72.7824C116.394 72.783 116.456 72.7628 116.507 72.7249L117.75 71.8623C117.789 71.8375 117.822 71.8037 117.846 71.7637C117.87 71.7238 117.884 71.6787 117.887 71.6323C117.892 71.5882 117.886 71.5435 117.869 71.5025C117.852 71.4615 117.825 71.4255 117.79 71.3979L116.693 70.5398C116.63 70.494 116.551 70.4749 116.474 70.4865C116.397 70.498 116.328 70.5394 116.281 70.6017C116.256 70.6298 116.237 70.6625 116.225 70.698C116.213 70.7335 116.208 70.7711 116.21 70.8085C116.213 70.846 116.223 70.8826 116.239 70.9162C116.256 70.9498 116.279 70.9797 116.308 71.0042L117.108 71.6412Z" fill="#A8A8A8"/>
<path opacity="0.5" d="M114.393 72.7779C114.425 72.7825 114.458 72.7825 114.49 72.7779C114.552 72.7767 114.612 72.7577 114.663 72.7232C114.714 72.6887 114.754 72.64 114.778 72.5833L115.534 70.8582C115.551 70.8248 115.56 70.7883 115.562 70.7511C115.563 70.7139 115.557 70.6767 115.543 70.6421C115.529 70.6074 115.508 70.5761 115.482 70.5501C115.455 70.5241 115.423 70.504 115.388 70.4911C115.313 70.4672 115.233 70.4722 115.161 70.5049C115.09 70.5376 115.034 70.5958 115.003 70.668L114.247 72.3886C114.227 72.4231 114.215 72.4615 114.212 72.501C114.209 72.5406 114.214 72.5804 114.228 72.6176C114.242 72.6548 114.264 72.6884 114.293 72.7161C114.321 72.7438 114.355 72.7649 114.393 72.7779Z" fill="#A8A8A8"/>
<path opacity="0.5" d="M119.223 72.8885H120.731C120.836 72.8841 120.935 72.8431 121.012 72.7727C121.089 72.7023 121.138 72.607 121.152 72.5037C121.157 72.4545 121.151 72.4049 121.136 72.358C121.12 72.3111 121.095 72.2681 121.061 72.2317C121.028 72.1953 120.987 72.1665 120.942 72.147C120.896 72.1276 120.847 72.1179 120.798 72.1188H119.267C119.159 72.1179 119.055 72.1565 118.973 72.2274C118.892 72.2983 118.839 72.3966 118.825 72.5037C118.819 72.5568 118.825 72.6106 118.843 72.661C118.861 72.7113 118.891 72.7568 118.929 72.794C118.968 72.8312 119.014 72.859 119.065 72.8754C119.116 72.8918 119.17 72.8963 119.223 72.8885Z" fill="#A8A8A8"/>
<path d="M124.624 82.8761C124.629 82.8269 124.623 82.7773 124.608 82.7304C124.592 82.6835 124.567 82.6405 124.533 82.6041C124.5 82.5678 124.459 82.5389 124.414 82.5194C124.368 82.5 124.319 82.4904 124.27 82.4913H111C110.897 82.4966 110.799 82.5381 110.723 82.6084C110.647 82.6787 110.598 82.7734 110.584 82.8761C110.579 82.9254 110.584 82.9753 110.599 83.0225C110.614 83.0697 110.639 83.1131 110.673 83.1496C110.707 83.1861 110.748 83.215 110.793 83.2342C110.839 83.2534 110.889 83.2625 110.938 83.2609H124.208C124.311 83.2556 124.41 83.2141 124.485 83.1438C124.561 83.0735 124.61 82.9787 124.624 82.8761Z" fill="#A8A8A8"/>
<path opacity="0.5" d="M126.291 83.2654H130.197C130.3 83.2601 130.399 83.2186 130.475 83.1483C130.55 83.078 130.599 82.9833 130.613 82.8806C130.618 82.8315 130.612 82.7818 130.597 82.7349C130.581 82.688 130.556 82.645 130.522 82.6086C130.489 82.5723 130.448 82.5434 130.403 82.524C130.357 82.5045 130.308 82.4949 130.259 82.4958H126.358C126.25 82.4949 126.145 82.5335 126.063 82.6044C125.982 82.6753 125.929 82.7735 125.915 82.8806C125.91 82.9317 125.916 82.9833 125.933 83.0319C125.95 83.0804 125.977 83.1246 126.013 83.1613C126.049 83.1981 126.092 83.2265 126.14 83.2445C126.189 83.2625 126.24 83.2696 126.291 83.2654Z" fill="#A8A8A8"/>
<path opacity="0.5" d="M111.137 80.8238H116.162C116.266 80.8194 116.365 80.7784 116.442 80.708C116.519 80.6376 116.569 80.5423 116.582 80.439C116.587 80.3898 116.582 80.3402 116.566 80.2933C116.551 80.2464 116.525 80.2034 116.492 80.167C116.458 80.1306 116.418 80.1018 116.372 80.0823C116.327 80.0629 116.278 80.0533 116.228 80.0541H111.204C111.096 80.0532 110.991 80.0918 110.909 80.1627C110.828 80.2336 110.775 80.3319 110.761 80.439C110.756 80.49 110.762 80.5417 110.779 80.5902C110.796 80.6387 110.823 80.683 110.859 80.7197C110.895 80.7564 110.938 80.7848 110.986 80.8028C111.034 80.8208 111.086 80.828 111.137 80.8238Z" fill="#A8A8A8"/>
<path d="M134.686 80.439C134.691 80.3898 134.686 80.3402 134.67 80.2933C134.655 80.2464 134.629 80.2034 134.596 80.167C134.563 80.1306 134.522 80.1018 134.476 80.0823C134.431 80.0629 134.382 80.0533 134.333 80.0541H118.723C118.619 80.0585 118.52 80.0995 118.443 80.1699C118.366 80.2403 118.316 80.3356 118.303 80.439C118.298 80.4881 118.303 80.5378 118.319 80.5846C118.334 80.6315 118.36 80.6746 118.393 80.7109C118.427 80.7473 118.467 80.7761 118.513 80.7956C118.558 80.8151 118.607 80.8247 118.657 80.8238H134.266C134.37 80.8194 134.47 80.7784 134.547 80.708C134.623 80.6376 134.673 80.5423 134.686 80.439Z" fill="#A8A8A8"/>
<path d="M111.345 78.3865H120.453C120.557 78.3822 120.656 78.3412 120.733 78.2708C120.81 78.2004 120.859 78.1051 120.873 78.0017C120.878 77.9525 120.872 77.9029 120.857 77.856C120.841 77.8091 120.816 77.7661 120.782 77.7297C120.749 77.6934 120.708 77.6645 120.663 77.6451C120.617 77.6256 120.568 77.616 120.519 77.6169H111.412C111.304 77.616 111.199 77.6546 111.117 77.7255C111.036 77.7964 110.983 77.8946 110.969 78.0017C110.964 78.0528 110.97 78.1044 110.987 78.153C111.004 78.2015 111.031 78.2457 111.067 78.2824C111.103 78.3192 111.146 78.3476 111.194 78.3656C111.242 78.3835 111.294 78.3907 111.345 78.3865Z" fill="#A8A8A8"/>
<path opacity="0.5" d="M122.195 78.0105C122.19 78.0596 122.196 78.1093 122.211 78.1562C122.227 78.203 122.252 78.2461 122.286 78.2824C122.319 78.3188 122.36 78.3477 122.405 78.3671C122.451 78.3866 122.5 78.3962 122.549 78.3953H124.805C124.913 78.3962 125.018 78.3576 125.099 78.2867C125.181 78.2158 125.233 78.1176 125.247 78.0105C125.252 77.9613 125.247 77.9117 125.231 77.8648C125.216 77.8179 125.19 77.7749 125.157 77.7385C125.124 77.7022 125.083 77.6733 125.037 77.6538C124.992 77.6344 124.943 77.6248 124.894 77.6257H122.638C122.53 77.6247 122.425 77.6634 122.344 77.7343C122.262 77.8052 122.209 77.9034 122.195 78.0105Z" fill="#A8A8A8"/>
<path opacity="0.5" d="M111.553 75.9449H122.306C122.41 75.9405 122.51 75.8995 122.586 75.8291C122.663 75.7587 122.713 75.6634 122.726 75.5601C122.731 75.5109 122.726 75.4612 122.71 75.4144C122.695 75.3675 122.669 75.3244 122.636 75.2881C122.602 75.2517 122.562 75.2229 122.516 75.2034C122.471 75.184 122.422 75.1743 122.372 75.1752H111.615C111.511 75.1796 111.412 75.2206 111.335 75.291C111.258 75.3614 111.208 75.4567 111.195 75.5601C111.19 75.6096 111.195 75.6596 111.211 75.7068C111.227 75.754 111.253 75.7973 111.287 75.8337C111.321 75.8701 111.362 75.8989 111.408 75.9181C111.454 75.9373 111.503 75.9464 111.553 75.9449Z" fill="#A8A8A8"/>
<path d="M130.299 75.9449H138.548C138.656 75.9458 138.761 75.9072 138.842 75.8363C138.924 75.7654 138.976 75.6671 138.99 75.5601C138.995 75.5109 138.99 75.4612 138.974 75.4144C138.959 75.3675 138.933 75.3244 138.9 75.2881C138.867 75.2517 138.826 75.2229 138.78 75.2034C138.735 75.184 138.686 75.1743 138.637 75.1752H130.361C130.257 75.1806 130.159 75.222 130.083 75.2923C130.007 75.3627 129.958 75.4574 129.945 75.5601C129.94 75.6092 129.945 75.6588 129.961 75.7057C129.977 75.7526 130.002 75.7957 130.035 75.832C130.069 75.8684 130.11 75.8972 130.155 75.9167C130.2 75.9361 130.249 75.9458 130.299 75.9449Z" fill="#A8A8A8"/>
<path opacity="0.5" d="M147.563 94.695H123.633C123.529 94.6993 123.43 94.7403 123.353 94.8107C123.276 94.8811 123.226 94.9764 123.213 95.0798C123.208 95.129 123.213 95.1786 123.229 95.2255C123.244 95.2724 123.27 95.3154 123.303 95.3518C123.337 95.3882 123.377 95.417 123.423 95.4365C123.468 95.4559 123.517 95.4655 123.567 95.4646H147.496C147.6 95.4603 147.7 95.4193 147.777 95.3489C147.853 95.2785 147.903 95.1832 147.916 95.0798C147.922 95.0307 147.916 94.981 147.9 94.9341C147.885 94.8873 147.86 94.8442 147.826 94.8079C147.793 94.7715 147.752 94.7426 147.706 94.7232C147.661 94.7037 147.612 94.6941 147.563 94.695Z" fill="#A8A8A8"/>
<path d="M152.818 94.695H149.858C149.75 94.694 149.646 94.7327 149.564 94.8036C149.483 94.8744 149.43 94.9727 149.416 95.0798C149.411 95.1289 149.417 95.1786 149.432 95.2255C149.448 95.2723 149.473 95.3154 149.507 95.3518C149.54 95.3881 149.581 95.417 149.626 95.4364C149.672 95.4559 149.721 95.4655 149.77 95.4646H152.729C152.833 95.4603 152.933 95.4193 153.009 95.3489C153.086 95.2785 153.136 95.1832 153.149 95.0798C153.154 95.0325 153.149 94.9847 153.135 94.9393C153.121 94.8939 153.097 94.8519 153.066 94.8159C153.035 94.7799 152.997 94.7505 152.954 94.7297C152.912 94.709 152.865 94.6971 152.818 94.695Z" fill="#A8A8A8"/>
<path d="M130.989 93.023H140.636C140.74 93.0186 140.839 92.9777 140.916 92.9073C140.993 92.8368 141.043 92.7415 141.056 92.6382C141.061 92.589 141.056 92.5394 141.04 92.4925C141.024 92.4456 140.999 92.4026 140.966 92.3662C140.932 92.3298 140.891 92.301 140.846 92.2815C140.801 92.2621 140.752 92.2525 140.702 92.2534H131.055C130.951 92.2577 130.852 92.2987 130.775 92.3691C130.698 92.4395 130.648 92.5348 130.635 92.6382C130.63 92.6873 130.635 92.737 130.651 92.7838C130.666 92.8307 130.692 92.8738 130.725 92.9101C130.759 92.9465 130.799 92.9754 130.845 92.9948C130.89 93.0143 130.939 93.0239 130.989 93.023Z" fill="#A8A8A8"/>
<path opacity="0.5" d="M147.713 93.0231C147.817 93.0188 147.916 92.9778 147.993 92.9074C148.07 92.837 148.12 92.7417 148.133 92.6383C148.138 92.5888 148.133 92.5387 148.117 92.4915C148.101 92.4443 148.075 92.4011 148.041 92.3646C148.007 92.3282 147.966 92.2994 147.92 92.2802C147.874 92.2611 147.825 92.2519 147.775 92.2535H142.303C142.199 92.2578 142.1 92.2988 142.023 92.3692C141.946 92.4396 141.897 92.5349 141.883 92.6383C141.878 92.6874 141.884 92.7371 141.899 92.784C141.915 92.8308 141.94 92.8739 141.974 92.9102C142.007 92.9466 142.048 92.9755 142.093 92.9949C142.139 93.0144 142.188 93.024 142.237 93.0231H147.713Z" fill="#A8A8A8"/>
<path opacity="0.5" d="M153.021 92.2534H150.11C150.006 92.2577 149.907 92.2987 149.83 92.3691C149.753 92.4395 149.703 92.5348 149.69 92.6382C149.685 92.6873 149.69 92.737 149.706 92.7838C149.722 92.8307 149.747 92.8738 149.78 92.9101C149.814 92.9465 149.855 92.9754 149.9 92.9948C149.945 93.0143 149.994 93.0239 150.044 93.023H152.954C153.059 93.0186 153.158 92.9777 153.235 92.9073C153.312 92.8368 153.361 92.7415 153.375 92.6382C153.38 92.589 153.374 92.5394 153.359 92.4925C153.343 92.4456 153.318 92.4026 153.284 92.3662C153.251 92.3298 153.21 92.301 153.165 92.2815C153.119 92.2621 153.07 92.2525 153.021 92.2534Z" fill="#A8A8A8"/>
<path d="M148.014 89.8161H135.129C135.025 89.8204 134.925 89.8614 134.848 89.9318C134.772 90.0022 134.722 90.0975 134.709 90.2009C134.704 90.2501 134.709 90.2997 134.725 90.3466C134.74 90.3935 134.766 90.4365 134.799 90.4729C134.832 90.5093 134.873 90.5381 134.919 90.5576C134.964 90.577 135.013 90.5866 135.062 90.5857H147.947C148.055 90.5867 148.16 90.548 148.241 90.4771C148.323 90.4063 148.376 90.308 148.39 90.2009C148.395 90.1498 148.389 90.0982 148.372 90.0497C148.355 90.0011 148.328 89.9569 148.292 89.9202C148.256 89.8834 148.213 89.8551 148.164 89.8371C148.116 89.8191 148.065 89.8119 148.014 89.8161Z" fill="#A8A8A8"/>
<path d="M153.229 89.8161H150.292C150.187 89.8204 150.088 89.8614 150.011 89.9318C149.934 90.0022 149.885 90.0975 149.871 90.2009C149.866 90.2501 149.872 90.2997 149.887 90.3466C149.903 90.3935 149.928 90.4365 149.962 90.4729C149.995 90.5092 150.036 90.5381 150.081 90.5576C150.127 90.577 150.176 90.5866 150.225 90.5857H153.167C153.27 90.5804 153.368 90.5389 153.444 90.4686C153.52 90.3983 153.569 90.3036 153.583 90.2009C153.588 90.1518 153.582 90.1021 153.566 90.0552C153.551 90.0084 153.526 89.9653 153.492 89.929C153.459 89.8926 153.418 89.8637 153.372 89.8443C153.327 89.8248 153.278 89.8152 153.229 89.8161Z" fill="#A8A8A8"/>
<path opacity="0.5" d="M141.078 87.7417C141.084 87.6924 141.079 87.6424 141.064 87.5952C141.048 87.548 141.023 87.5047 140.989 87.4682C140.956 87.4316 140.915 87.4028 140.869 87.3836C140.823 87.3644 140.774 87.3553 140.724 87.3569H127.6C127.496 87.3612 127.397 87.4022 127.32 87.4726C127.243 87.543 127.194 87.6383 127.18 87.7417C127.175 87.7908 127.181 87.8405 127.196 87.8874C127.212 87.9342 127.237 87.9773 127.271 88.0137C127.304 88.05 127.345 88.0789 127.39 88.0983C127.436 88.1178 127.485 88.1274 127.534 88.1265H140.671C140.773 88.1192 140.869 88.0769 140.943 88.0067C141.017 87.9366 141.065 87.8429 141.078 87.7417Z" fill="#A8A8A8"/>
<path opacity="0.5" d="M143.117 87.3746C143.013 87.3789 142.914 87.4199 142.837 87.4903C142.76 87.5607 142.71 87.656 142.697 87.7594C142.692 87.8085 142.697 87.8582 142.713 87.9051C142.728 87.9519 142.754 87.995 142.787 88.0314C142.821 88.0677 142.861 88.0966 142.907 88.116C142.952 88.1355 143.001 88.1451 143.051 88.1442H148.155C148.259 88.1399 148.359 88.0989 148.435 88.0285C148.512 87.9581 148.562 87.8628 148.575 87.7594C148.58 87.7102 148.575 87.6606 148.559 87.6137C148.544 87.5668 148.518 87.5238 148.485 87.4874C148.451 87.4511 148.411 87.4222 148.365 87.4027C148.32 87.3833 148.271 87.3737 148.221 87.3746H143.117Z" fill="#A8A8A8"/>
<path d="M153.437 87.3746H150.531C150.426 87.3789 150.327 87.4199 150.25 87.4903C150.173 87.5607 150.124 87.656 150.11 87.7594C150.105 87.8085 150.111 87.8582 150.126 87.9051C150.142 87.9519 150.167 87.995 150.201 88.0314C150.234 88.0677 150.275 88.0966 150.32 88.116C150.366 88.1355 150.415 88.1451 150.464 88.1442H153.37C153.475 88.1399 153.574 88.0989 153.651 88.0285C153.728 87.9581 153.777 87.8628 153.791 87.7594C153.796 87.7102 153.79 87.6606 153.775 87.6137C153.759 87.5668 153.734 87.5238 153.7 87.4874C153.667 87.4511 153.626 87.4222 153.581 87.4027C153.535 87.3833 153.486 87.3737 153.437 87.3746Z" fill="#A8A8A8"/>
<path d="M143.984 85.707H146.51C146.618 85.7079 146.722 85.6693 146.804 85.5984C146.885 85.5275 146.938 85.4293 146.952 85.3222C146.958 85.2727 146.953 85.2225 146.938 85.1751C146.922 85.1277 146.897 85.0841 146.864 85.0472C146.83 85.0104 146.789 84.9811 146.743 84.9614C146.698 84.9417 146.648 84.932 146.598 84.9329H144.068C143.963 84.9374 143.864 84.979 143.787 85.0504C143.71 85.1217 143.661 85.218 143.648 85.3222C143.643 85.3698 143.648 85.418 143.663 85.4637C143.677 85.5094 143.701 85.5515 143.733 85.5876C143.764 85.6237 143.803 85.6529 143.846 85.6735C143.889 85.694 143.936 85.7054 143.984 85.707Z" fill="#A8A8A8"/>
<path opacity="0.5" d="M148.31 85.707H153.578C153.682 85.7027 153.782 85.6617 153.858 85.5913C153.935 85.5208 153.985 85.4255 153.998 85.3222C154.004 85.2727 153.999 85.2225 153.984 85.1751C153.968 85.1277 153.943 85.0841 153.91 85.0472C153.876 85.0104 153.835 84.9811 153.789 84.9614C153.744 84.9417 153.694 84.932 153.644 84.9329H148.376C148.272 84.9374 148.172 84.979 148.095 85.0504C148.018 85.1217 147.969 85.218 147.956 85.3222C147.951 85.3713 147.957 85.421 147.972 85.4678C147.988 85.5147 148.013 85.5578 148.047 85.5941C148.08 85.6305 148.121 85.6594 148.166 85.6788C148.212 85.6983 148.261 85.7079 148.31 85.707Z" fill="#A8A8A8"/>
<path d="M115.499 44.2879C115.546 44.3264 115.606 44.3468 115.667 44.3454C115.713 44.3451 115.759 44.3347 115.801 44.3148C115.843 44.295 115.88 44.2661 115.91 44.2304C115.935 44.202 115.954 44.1689 115.967 44.133C115.979 44.0971 115.984 44.0592 115.981 44.0214C115.979 43.9836 115.969 43.9466 115.952 43.9126C115.935 43.8787 115.912 43.8483 115.884 43.8234L115.079 43.1953L115.963 42.5672C116.029 42.5261 116.076 42.461 116.094 42.3858C116.112 42.3106 116.1 42.2312 116.06 42.1647C116.039 42.1337 116.011 42.1074 115.978 42.0874C115.946 42.0674 115.91 42.0541 115.872 42.0483C115.835 42.0426 115.796 42.0444 115.76 42.0538C115.723 42.0631 115.688 42.0798 115.658 42.1028L114.415 42.9874C114.376 43.014 114.344 43.0488 114.32 43.0893C114.297 43.1298 114.282 43.1751 114.278 43.2219C114.274 43.2653 114.281 43.3089 114.298 43.349C114.315 43.3892 114.341 43.4245 114.375 43.4519L115.499 44.2879Z" fill="#A8A8A8"/>
<path d="M119.515 43.1908L118.608 43.8234C118.543 43.8652 118.497 43.9306 118.48 44.0058C118.463 44.0809 118.475 44.1599 118.515 44.2259C118.538 44.2634 118.571 44.2942 118.61 44.3151C118.649 44.3361 118.692 44.3465 118.736 44.3453C118.8 44.3459 118.862 44.3258 118.913 44.2878L120.161 43.4253C120.199 43.3981 120.231 43.3631 120.254 43.3227C120.278 43.2823 120.293 43.2374 120.298 43.1908C120.301 43.1471 120.294 43.1032 120.276 43.063C120.258 43.0229 120.231 42.9878 120.196 42.9608L119.099 42.0983C119.036 42.0536 118.958 42.0352 118.881 42.0467C118.804 42.0582 118.735 42.0989 118.688 42.1602C118.663 42.1886 118.643 42.2217 118.631 42.2576C118.619 42.2935 118.614 42.3314 118.616 42.3692C118.619 42.407 118.629 42.444 118.646 42.478C118.662 42.5119 118.686 42.5423 118.714 42.5672L119.515 43.1908Z" fill="#A8A8A8"/>
<path d="M116.799 44.3276C116.831 44.3343 116.864 44.3343 116.896 44.3276C116.958 44.3265 117.018 44.3075 117.069 44.2729C117.12 44.2384 117.16 44.1898 117.184 44.133L117.94 42.4123C117.957 42.379 117.966 42.3425 117.968 42.3052C117.969 42.268 117.963 42.2308 117.949 42.1962C117.935 42.1616 117.915 42.1302 117.888 42.1042C117.861 42.0782 117.829 42.0581 117.794 42.0452C117.72 42.0211 117.64 42.0254 117.569 42.0573C117.498 42.0891 117.441 42.1463 117.41 42.2177L116.653 43.9428C116.633 43.9769 116.621 44.015 116.618 44.0542C116.615 44.0935 116.621 44.133 116.635 44.1699C116.649 44.2067 116.671 44.24 116.699 44.2673C116.728 44.2946 116.762 44.3152 116.799 44.3276Z" fill="#A8A8A8"/>
<path opacity="0.5" d="M121.616 44.4427H123.142C123.246 44.4383 123.345 44.3973 123.422 44.3269C123.499 44.2565 123.549 44.1612 123.562 44.0579C123.567 44.0087 123.562 43.9591 123.546 43.9122C123.531 43.8653 123.505 43.8222 123.472 43.7859C123.438 43.7495 123.398 43.7207 123.352 43.7012C123.307 43.6818 123.258 43.6721 123.208 43.673H121.678C121.574 43.6784 121.476 43.7198 121.4 43.7901C121.324 43.8605 121.275 43.9552 121.262 44.0579C121.256 44.1071 121.261 44.1571 121.277 44.2043C121.292 44.2515 121.317 44.2948 121.351 44.3314C121.384 44.3679 121.425 44.3968 121.471 44.416C121.517 44.4352 121.566 44.4443 121.616 44.4427Z" fill="#A8A8A8"/>
<path opacity="0.5" d="M141.206 47.4902H143.29C143.393 47.4848 143.491 47.4434 143.567 47.3731C143.643 47.3027 143.692 47.208 143.706 47.1053C143.711 47.0561 143.706 47.0061 143.691 46.9589C143.676 46.9117 143.65 46.8683 143.617 46.8318C143.583 46.7953 143.542 46.7664 143.496 46.7472C143.451 46.728 143.401 46.7189 143.352 46.7205H141.286C141.182 46.7249 141.083 46.7658 141.006 46.8363C140.929 46.9067 140.879 47.002 140.866 47.1053C140.861 47.1534 140.866 47.2019 140.881 47.2479C140.896 47.2938 140.92 47.3362 140.952 47.3724C140.984 47.4085 141.023 47.4377 141.067 47.4579C141.111 47.4782 141.158 47.4892 141.206 47.4902Z" fill="#A8A8A8"/>
<path d="M118.86 47.1142C118.855 47.1634 118.861 47.213 118.876 47.2599C118.892 47.3068 118.917 47.3499 118.951 47.3862C118.984 47.4226 119.025 47.4514 119.07 47.4709C119.116 47.4903 119.165 47.5 119.214 47.4991H138.548C138.656 47.5 138.761 47.4614 138.842 47.3905C138.924 47.3196 138.976 47.2213 138.99 47.1142C138.995 47.0651 138.99 47.0154 138.974 46.9686C138.959 46.9217 138.933 46.8786 138.9 46.8423C138.866 46.8059 138.826 46.7771 138.78 46.7576C138.735 46.7382 138.686 46.7285 138.636 46.7294H119.276C119.173 46.7348 119.074 46.7762 118.998 46.8465C118.922 46.9168 118.874 47.0116 118.86 47.1142Z" fill="#A8A8A8"/>
<path opacity="0.5" d="M113.959 47.4903H116.914C117.018 47.4859 117.117 47.445 117.194 47.3745C117.271 47.3041 117.321 47.2088 117.334 47.1055C117.339 47.0563 117.334 47.0067 117.318 46.9598C117.303 46.9129 117.277 46.8699 117.244 46.8335C117.21 46.7971 117.17 46.7683 117.124 46.7488C117.079 46.7294 117.03 46.7198 116.98 46.7206H114.021C113.918 46.726 113.82 46.7674 113.744 46.8378C113.668 46.9081 113.619 47.0028 113.605 47.1055C113.6 47.1548 113.605 47.2047 113.62 47.2519C113.635 47.2991 113.66 47.3424 113.694 47.379C113.728 47.4155 113.769 47.4444 113.814 47.4636C113.86 47.4828 113.91 47.4919 113.959 47.4903Z" fill="#A8A8A8"/>
<path d="M133.789 49.9363C133.897 49.9372 134.001 49.8986 134.083 49.8277C134.164 49.7568 134.217 49.6586 134.231 49.5515C134.236 49.502 134.231 49.4519 134.215 49.4047C134.199 49.3575 134.173 49.3143 134.139 49.2778C134.105 49.2414 134.064 49.2126 134.018 49.1935C133.972 49.1743 133.923 49.1651 133.873 49.1667H126.176C126.072 49.171 125.973 49.212 125.896 49.2824C125.819 49.3528 125.77 49.4481 125.756 49.5515C125.751 49.6006 125.757 49.6503 125.772 49.6972C125.788 49.744 125.813 49.7871 125.847 49.8235C125.88 49.8598 125.921 49.8887 125.966 49.9081C126.012 49.9276 126.061 49.9372 126.11 49.9363H133.789Z" fill="#A8A8A8"/>
<path d="M119.006 49.9363H124.469C124.573 49.932 124.672 49.891 124.749 49.8206C124.826 49.7502 124.876 49.6549 124.889 49.5515C124.894 49.5024 124.889 49.4527 124.873 49.4058C124.858 49.359 124.832 49.3159 124.799 49.2795C124.765 49.2432 124.725 49.2143 124.679 49.1949C124.634 49.1754 124.585 49.1658 124.535 49.1667H119.073C118.968 49.171 118.869 49.212 118.792 49.2824C118.715 49.3528 118.666 49.4481 118.652 49.5515C118.647 49.6007 118.653 49.6503 118.668 49.6972C118.684 49.7441 118.709 49.7871 118.743 49.8235C118.776 49.8598 118.817 49.8887 118.862 49.9081C118.908 49.9276 118.957 49.9372 119.006 49.9363Z" fill="#A8A8A8"/>
<path opacity="0.5" d="M113.751 49.9363H116.657C116.762 49.932 116.861 49.891 116.938 49.8206C117.015 49.7502 117.064 49.6549 117.078 49.5515C117.083 49.5024 117.077 49.4527 117.062 49.4058C117.046 49.359 117.021 49.3159 116.987 49.2795C116.954 49.2432 116.913 49.2143 116.868 49.1949C116.822 49.1754 116.773 49.1658 116.724 49.1667H113.818C113.71 49.1658 113.605 49.2044 113.524 49.2753C113.442 49.3462 113.389 49.4444 113.375 49.5515C113.37 49.6026 113.376 49.6542 113.393 49.7028C113.41 49.7513 113.437 49.7955 113.473 49.8323C113.509 49.869 113.552 49.8974 113.601 49.9154C113.649 49.9334 113.7 49.9405 113.751 49.9363Z" fill="#A8A8A8"/>
<path d="M130.135 51.9932C130.14 51.944 130.135 51.8944 130.119 51.8475C130.103 51.8006 130.078 51.7576 130.045 51.7212C130.011 51.6848 129.97 51.656 129.925 51.6365C129.88 51.6171 129.831 51.6075 129.781 51.6083H118.825C118.721 51.6137 118.623 51.6551 118.547 51.7254C118.471 51.7958 118.422 51.8905 118.409 51.9932C118.404 52.0423 118.409 52.092 118.425 52.1388C118.441 52.1857 118.466 52.2288 118.499 52.2651C118.533 52.3015 118.574 52.3303 118.619 52.3498C118.664 52.3693 118.713 52.3789 118.763 52.378H129.715C129.819 52.3736 129.918 52.3326 129.995 52.2622C130.072 52.1918 130.122 52.0965 130.135 51.9932Z" fill="#A8A8A8"/>
<path opacity="0.5" d="M113.544 52.378H116.485C116.593 52.3789 116.698 52.3403 116.779 52.2694C116.861 52.1985 116.913 52.1002 116.927 51.9932C116.932 51.944 116.927 51.8944 116.911 51.8475C116.896 51.8006 116.87 51.7576 116.837 51.7212C116.804 51.6848 116.763 51.656 116.717 51.6365C116.672 51.6171 116.623 51.6075 116.574 51.6083H113.61C113.502 51.6074 113.397 51.646 113.316 51.7169C113.234 51.7878 113.182 51.8861 113.168 51.9932C113.162 52.0442 113.168 52.0959 113.185 52.1444C113.202 52.1929 113.229 52.2372 113.265 52.2739C113.301 52.3106 113.345 52.339 113.393 52.357C113.441 52.375 113.492 52.3822 113.544 52.378Z" fill="#A8A8A8"/>
<path d="M126.039 54.8195H137.243C137.347 54.814 137.446 54.7719 137.522 54.7007C137.598 54.6295 137.647 54.5337 137.659 54.4303C137.665 54.381 137.66 54.331 137.645 54.2838C137.629 54.2366 137.604 54.1933 137.57 54.1568C137.537 54.1202 137.496 54.0914 137.45 54.0722C137.404 54.053 137.355 54.0439 137.305 54.0455H126.106C126.001 54.0498 125.902 54.0908 125.825 54.1612C125.748 54.2316 125.699 54.3269 125.685 54.4303C125.68 54.4798 125.685 54.5299 125.7 54.5773C125.715 54.6248 125.74 54.6684 125.774 54.7052C125.807 54.7421 125.848 54.7713 125.894 54.7911C125.94 54.8108 125.989 54.8205 126.039 54.8195Z" fill="#A8A8A8"/>
<path d="M118.626 54.0455C118.523 54.0508 118.424 54.0923 118.348 54.1626C118.272 54.2329 118.223 54.3276 118.21 54.4303C118.204 54.4799 118.208 54.5304 118.223 54.5781C118.238 54.6258 118.263 54.6698 118.297 54.7068C118.331 54.7438 118.372 54.7731 118.418 54.7926C118.464 54.812 118.514 54.8212 118.564 54.8195H123.66C123.764 54.814 123.862 54.7719 123.938 54.7007C124.015 54.6295 124.063 54.5337 124.075 54.4303C124.08 54.3811 124.075 54.3315 124.059 54.2846C124.044 54.2377 124.018 54.1947 123.985 54.1583C123.952 54.122 123.911 54.0931 123.865 54.0736C123.82 54.0542 123.771 54.0446 123.722 54.0455H118.626Z" fill="#A8A8A8"/>
<path opacity="0.5" d="M113.34 54.8195H116.246C116.35 54.814 116.449 54.7719 116.525 54.7007C116.601 54.6295 116.649 54.5337 116.662 54.4303C116.667 54.3811 116.661 54.3315 116.646 54.2846C116.63 54.2377 116.605 54.1947 116.571 54.1583C116.538 54.122 116.497 54.0931 116.452 54.0736C116.406 54.0542 116.357 54.0446 116.308 54.0455H113.402C113.298 54.0508 113.2 54.0923 113.124 54.1626C113.048 54.2329 112.999 54.3276 112.986 54.4303C112.98 54.4799 112.984 54.5304 112.999 54.5781C113.014 54.6258 113.039 54.6698 113.073 54.7068C113.107 54.7438 113.148 54.7731 113.194 54.7926C113.24 54.812 113.29 54.8212 113.34 54.8195Z" fill="#A8A8A8"/>
<path d="M122.793 56.487H120.289C120.185 56.4913 120.086 56.5323 120.009 56.6027C119.932 56.6731 119.882 56.7684 119.869 56.8718C119.864 56.921 119.869 56.9706 119.885 57.0175C119.9 57.0644 119.926 57.1074 119.959 57.1438C119.993 57.1802 120.033 57.209 120.079 57.2285C120.124 57.2479 120.173 57.2575 120.223 57.2566H122.748C122.852 57.2523 122.952 57.2113 123.029 57.1409C123.105 57.0705 123.155 56.9752 123.168 56.8718C123.174 56.8207 123.168 56.7691 123.151 56.7206C123.134 56.672 123.107 56.6278 123.071 56.5911C123.035 56.5543 122.991 56.526 122.943 56.508C122.895 56.49 122.844 56.4828 122.793 56.487Z" fill="#A8A8A8"/>
<path d="M118.467 56.4871H113.212C113.108 56.4915 113.008 56.5324 112.931 56.6029C112.855 56.6733 112.805 56.7686 112.792 56.8719C112.787 56.9211 112.792 56.9707 112.808 57.0176C112.823 57.0645 112.849 57.1075 112.882 57.1439C112.915 57.1803 112.956 57.2091 113.002 57.2286C113.047 57.248 113.096 57.2576 113.145 57.2568H118.414C118.518 57.2524 118.617 57.2114 118.694 57.141C118.771 57.0706 118.82 56.9753 118.834 56.8719C118.839 56.8216 118.833 56.7708 118.817 56.723C118.8 56.6751 118.774 56.6314 118.739 56.5948C118.704 56.5582 118.662 56.5296 118.615 56.511C118.568 56.4925 118.517 56.4843 118.467 56.4871Z" fill="#A8A8A8"/>
<path d="M134.802 59.3136C134.797 59.3628 134.802 59.4124 134.818 59.4593C134.833 59.5062 134.859 59.5492 134.892 59.5856C134.925 59.6219 134.966 59.6508 135.012 59.6703C135.057 59.6897 135.106 59.6993 135.155 59.6984H155.777C155.881 59.6941 155.98 59.6531 156.057 59.5827C156.134 59.5123 156.183 59.417 156.197 59.3136C156.202 59.2641 156.198 59.214 156.182 59.1666C156.167 59.1192 156.142 59.0756 156.108 59.0387C156.075 59.0018 156.034 58.9726 155.988 58.9528C155.942 58.9331 155.893 58.9234 155.843 58.9244H135.222C135.117 58.9289 135.017 58.9705 134.94 59.0418C134.863 59.1131 134.814 59.2094 134.802 59.3136Z" fill="#A8A8A8"/>
<path opacity="0.5" d="M129.233 58.9244C129.124 58.9236 129.019 58.9628 128.937 59.0346C128.856 59.1064 128.803 59.2057 128.79 59.3136C128.785 59.3628 128.791 59.4124 128.806 59.4593C128.822 59.5062 128.847 59.5492 128.881 59.5856C128.914 59.6219 128.955 59.6508 129 59.6703C129.046 59.6897 129.095 59.6993 129.144 59.6984H133.05C133.158 59.6994 133.263 59.6607 133.344 59.5898C133.425 59.5189 133.478 59.4207 133.492 59.3136C133.497 59.2639 133.492 59.2137 133.476 59.1662C133.46 59.1188 133.434 59.0753 133.401 59.0385C133.367 59.0018 133.325 58.9726 133.279 58.9529C133.234 58.9332 133.184 58.9235 133.134 58.9244H129.233Z" fill="#A8A8A8"/>
<path opacity="0.5" d="M155.635 61.366H150.615C150.51 61.3704 150.411 61.4114 150.334 61.4818C150.257 61.5522 150.208 61.6475 150.194 61.7508C150.189 61.8 150.195 61.8496 150.21 61.8965C150.226 61.9434 150.251 61.9864 150.285 62.0228C150.318 62.0592 150.359 62.088 150.404 62.1075C150.45 62.1269 150.499 62.1365 150.548 62.1357H155.573C155.676 62.1303 155.775 62.0889 155.851 62.0186C155.927 61.9482 155.976 61.8535 155.989 61.7508C155.994 61.7017 155.988 61.652 155.973 61.6052C155.957 61.5583 155.932 61.5152 155.898 61.4789C155.865 61.4425 155.824 61.4137 155.779 61.3942C155.733 61.3747 155.684 61.3651 155.635 61.366Z" fill="#A8A8A8"/>
<path d="M148.469 61.7508C148.474 61.7017 148.469 61.652 148.453 61.6052C148.438 61.5583 148.412 61.5152 148.379 61.4789C148.346 61.4425 148.305 61.4137 148.259 61.3942C148.214 61.3747 148.165 61.3651 148.116 61.366H127.092C126.988 61.3704 126.888 61.4114 126.812 61.4818C126.735 61.5522 126.685 61.6475 126.672 61.7508C126.667 61.8 126.672 61.8496 126.688 61.8965C126.703 61.9434 126.729 61.9864 126.762 62.0228C126.796 62.0592 126.836 62.088 126.882 62.1075C126.927 62.1269 126.976 62.1365 127.026 62.1357H148.054C148.157 62.1303 148.255 62.0889 148.331 62.0186C148.407 61.9482 148.456 61.8535 148.469 61.7508Z" fill="#A8A8A8"/>
<path d="M155.432 63.8076H146.324C146.22 63.8119 146.121 63.8529 146.044 63.9233C145.967 63.9937 145.917 64.089 145.904 64.1924C145.899 64.2415 145.904 64.2912 145.92 64.3381C145.936 64.3849 145.961 64.428 145.994 64.4643C146.028 64.5007 146.069 64.5296 146.114 64.549C146.159 64.5685 146.208 64.5781 146.258 64.5772H155.365C155.469 64.5729 155.569 64.5319 155.646 64.4615C155.722 64.3911 155.772 64.2957 155.785 64.1924C155.79 64.1432 155.785 64.0936 155.769 64.0467C155.754 63.9998 155.728 63.9568 155.695 63.9204C155.662 63.884 155.621 63.8552 155.575 63.8357C155.53 63.8163 155.481 63.8067 155.432 63.8076Z" fill="#A8A8A8"/>
<path opacity="0.5" d="M141.963 63.8076C141.859 63.8119 141.759 63.8529 141.682 63.9233C141.606 63.9937 141.556 64.089 141.543 64.1924C141.538 64.2415 141.543 64.2912 141.559 64.3381C141.574 64.3849 141.6 64.428 141.633 64.4643C141.666 64.5007 141.707 64.5296 141.753 64.549C141.798 64.5685 141.847 64.5781 141.896 64.5772H144.174C144.278 64.5718 144.376 64.5304 144.452 64.4601C144.528 64.3898 144.577 64.295 144.59 64.1924C144.595 64.1432 144.59 64.0936 144.574 64.0467C144.559 63.9998 144.533 63.9568 144.5 63.9204C144.466 63.884 144.426 63.8552 144.38 63.8357C144.335 63.8163 144.286 63.8067 144.236 63.8076H141.963Z" fill="#A8A8A8"/>
<path d="M155.232 66.2446H137.119C137.016 66.25 136.918 66.2914 136.842 66.3617C136.766 66.4321 136.717 66.5268 136.703 66.6295C136.698 66.6786 136.704 66.7283 136.72 66.7751C136.735 66.822 136.76 66.8651 136.794 66.9014C136.827 66.9378 136.868 66.9666 136.913 66.9861C136.959 67.0055 137.008 67.0152 137.057 67.0143H155.157C155.261 67.0099 155.361 66.9689 155.438 66.8985C155.514 66.8281 155.564 66.7328 155.577 66.6295C155.582 66.5811 155.577 66.5322 155.562 66.4859C155.547 66.4396 155.522 66.397 155.49 66.3608C155.457 66.3246 155.418 66.2955 155.373 66.2755C155.329 66.2555 155.281 66.245 155.232 66.2446Z" fill="#A8A8A8"/>
<path d="M129.135 66.2447H122.815C122.71 66.2491 122.611 66.2901 122.534 66.3605C122.457 66.4309 122.408 66.5262 122.394 66.6295C122.389 66.6787 122.395 66.7283 122.41 66.7752C122.426 66.8221 122.451 66.8651 122.485 66.9015C122.518 66.9379 122.559 66.9667 122.604 66.9862C122.65 67.0056 122.699 67.0152 122.748 67.0144H129.065C129.173 67.0153 129.277 66.9767 129.359 66.9058C129.44 66.8349 129.493 66.7366 129.507 66.6295C129.512 66.5789 129.506 66.5276 129.49 66.4794C129.473 66.4313 129.446 66.3873 129.411 66.3506C129.375 66.314 129.332 66.2855 129.285 66.2672C129.237 66.2489 129.186 66.2412 129.135 66.2447Z" fill="#A8A8A8"/>
<path d="M152.578 118.01L150.199 144.77V144.863H103.48V144.77L108.532 87.8965L111.097 88.5688L123.611 91.8287L124.305 92.0101L125.159 92.2312L126.211 92.5055L126.866 92.678L135.248 94.8631H135.301C135.912 95.0223 136.509 95.2037 137.093 95.4071C141.744 97.0308 145.754 100.098 148.539 104.162C151.324 108.226 152.738 113.073 152.574 117.997L152.578 118.01Z" fill="#05F29B"/>
<path opacity="0.8" d="M152.578 118.01L150.199 144.77V144.863H103.48V144.77L108.532 87.8965L111.097 88.5688L123.611 91.8287L124.305 92.0101L125.159 92.2312L126.211 92.5055L126.866 92.678L135.248 94.8631H135.301C135.912 95.0223 136.509 95.2037 137.093 95.4071C141.744 97.0308 145.754 100.098 148.539 104.162C151.324 108.226 152.738 113.073 152.574 117.997L152.578 118.01Z" fill="#A8A8A8"/>
<path opacity="0.6" d="M126.875 92.678H110.744L110.819 91.8288L111.106 88.5688L123.62 91.8288L124.314 92.0101L125.168 92.2313L126.221 92.5055L126.875 92.678Z" fill="black"/>
<path opacity="0.5" d="M126.875 92.678H110.744L110.819 91.8287H123.62L124.314 92.0101L125.168 92.2313L126.221 92.5055L126.875 92.678Z" fill="black"/>
<path opacity="0.6" d="M125.168 92.2313L125.128 92.678H110.744L110.819 91.8287H123.62L124.314 92.0101L125.168 92.2313Z" fill="#A8A8A8"/>
<path d="M126.221 92.5054C126.203 92.5651 126.179 92.6229 126.15 92.6779C126.056 92.8588 125.916 93.0111 125.743 93.1185C125.57 93.226 125.371 93.2847 125.168 93.2883C124.974 93.2978 124.782 93.2432 124.622 93.1329C124.462 93.0225 124.343 92.8627 124.283 92.6779C124.238 92.5505 124.221 92.4145 124.234 92.2798C124.244 92.1876 124.264 92.0969 124.296 92.01L125.15 92.2312L126.221 92.5054Z" fill="#A8A8A8"/>
<path opacity="0.4" d="M131.427 98.9147H111C110.898 98.9173 110.797 98.8979 110.703 98.8579C110.609 98.8178 110.524 98.758 110.456 98.6824C110.387 98.6069 110.335 98.5174 110.304 98.4202C110.273 98.3229 110.263 98.22 110.275 98.1185C110.298 97.9004 110.401 97.6985 110.565 97.5522C110.728 97.4059 110.94 97.3256 111.159 97.3268H131.568C131.67 97.325 131.77 97.3447 131.864 97.3848C131.957 97.4249 132.041 97.4843 132.109 97.5592C132.178 97.634 132.23 97.7226 132.262 97.819C132.293 97.9155 132.304 98.0176 132.294 98.1185C132.272 98.3345 132.172 98.5349 132.012 98.6817C131.852 98.8285 131.644 98.9115 131.427 98.9147Z" fill="#05F29B"/>
<path opacity="0.4" d="M137.097 95.6593C137.074 95.8775 136.971 96.0794 136.808 96.2257C136.644 96.372 136.432 96.4523 136.213 96.4511H111.204C111.102 96.4529 111.001 96.4331 110.908 96.3931C110.815 96.353 110.731 96.2936 110.663 96.2187C110.594 96.1439 110.542 96.0553 110.51 95.9588C110.479 95.8624 110.468 95.7603 110.478 95.6593C110.5 95.4404 110.603 95.2375 110.767 95.0902C110.93 94.943 111.143 94.8621 111.363 94.8632H135.275H135.328C135.938 95.0224 136.536 95.2038 137.119 95.4072C137.125 95.4919 137.117 95.5769 137.097 95.6593Z" fill="#05F29B"/>
<path opacity="0.3" d="M150.853 108.447L149.712 121.301H108.2L109.801 103.289H147.912C149.11 104.874 150.099 106.608 150.853 108.447Z" fill="#05F29B"/>
<path opacity="0.5" d="M137.31 106.425H134.054C133.962 106.427 133.87 106.409 133.785 106.373C133.7 106.336 133.624 106.282 133.561 106.214C133.499 106.146 133.452 106.065 133.423 105.977C133.395 105.889 133.385 105.796 133.395 105.704C133.415 105.509 133.507 105.327 133.652 105.195C133.797 105.062 133.986 104.987 134.182 104.983H137.438C137.53 104.982 137.622 104.999 137.706 105.036C137.791 105.072 137.867 105.127 137.929 105.195C137.991 105.263 138.038 105.344 138.066 105.432C138.094 105.52 138.103 105.613 138.092 105.704C138.073 105.9 137.982 106.081 137.838 106.214C137.694 106.347 137.506 106.422 137.31 106.425Z" fill="#A8A8A8"/>
<path opacity="0.5" d="M146.307 108.739H133.846C133.754 108.741 133.662 108.723 133.578 108.686C133.493 108.65 133.417 108.596 133.355 108.527C133.293 108.459 133.246 108.378 133.218 108.29C133.19 108.202 133.181 108.11 133.192 108.018C133.212 107.824 133.303 107.643 133.447 107.511C133.592 107.379 133.779 107.305 133.975 107.301H146.435C146.527 107.3 146.618 107.317 146.703 107.354C146.787 107.39 146.863 107.444 146.926 107.511C146.988 107.579 147.035 107.659 147.064 107.747C147.093 107.834 147.103 107.926 147.094 108.018C147.073 108.214 146.982 108.395 146.837 108.528C146.692 108.661 146.503 108.736 146.307 108.739Z" fill="#A8A8A8"/>
<path opacity="0.3" d="M129.18 119.607H110.31L111.61 104.983H130.476L129.18 119.607Z" fill="#05F29B"/>
<path opacity="0.5" d="M110.598 116.382L116.158 112.295L119.072 114.604L125.234 110.194L129.644 114.361L129.18 119.607H110.31L110.598 116.382Z" fill="#A8A8A8"/>
<path opacity="0.5" d="M116.914 108.429C116.88 108.842 116.697 109.228 116.399 109.515C116.101 109.802 115.709 109.971 115.295 109.99C115.101 109.988 114.91 109.943 114.735 109.86C114.559 109.778 114.404 109.658 114.278 109.511C114.152 109.363 114.06 109.19 114.006 109.003C113.953 108.817 113.94 108.621 113.968 108.429C114.003 108.017 114.187 107.631 114.484 107.344C114.782 107.057 115.174 106.888 115.587 106.868C115.781 106.87 115.973 106.914 116.149 106.996C116.324 107.079 116.481 107.198 116.606 107.346C116.732 107.494 116.825 107.667 116.878 107.854C116.931 108.041 116.943 108.237 116.914 108.429Z" fill="#A8A8A8"/>
<path opacity="0.3" d="M147.908 141.652H106.391L107.992 123.636H149.509L147.908 141.652Z" fill="#05F29B"/>
<path opacity="0.5" d="M135.5 126.772H132.232C132.139 126.774 132.048 126.756 131.963 126.72C131.878 126.683 131.802 126.629 131.74 126.561C131.678 126.492 131.631 126.412 131.603 126.324C131.575 126.236 131.566 126.143 131.577 126.051C131.597 125.857 131.688 125.677 131.833 125.545C131.977 125.413 132.164 125.338 132.36 125.335H135.615C135.707 125.333 135.798 125.351 135.883 125.387C135.967 125.423 136.043 125.477 136.105 125.545C136.167 125.613 136.214 125.693 136.242 125.78C136.271 125.868 136.28 125.96 136.27 126.051C136.251 126.244 136.162 126.424 136.021 126.556C135.879 126.689 135.694 126.766 135.5 126.772Z" fill="#A8A8A8"/>
<path opacity="0.5" d="M144.497 129.09H132.041C131.949 129.092 131.857 129.074 131.772 129.037C131.687 129.001 131.611 128.947 131.549 128.879C131.486 128.81 131.439 128.73 131.411 128.642C131.382 128.554 131.372 128.461 131.382 128.369C131.403 128.173 131.494 127.992 131.639 127.859C131.784 127.726 131.973 127.651 132.17 127.648H144.617C144.709 127.646 144.801 127.664 144.886 127.701C144.971 127.737 145.047 127.791 145.109 127.859C145.172 127.928 145.219 128.008 145.247 128.096C145.276 128.184 145.286 128.277 145.276 128.369C145.255 128.563 145.165 128.743 145.022 128.876C144.879 129.009 144.692 129.085 144.497 129.09Z" fill="#A8A8A8"/>
<path opacity="0.3" d="M127.371 139.954H108.501L109.802 125.335H128.671L127.371 139.954Z" fill="#05F29B"/>
<path opacity="0.5" d="M108.789 136.729L114.349 132.642L117.268 134.951L123.425 130.541L127.835 134.712L127.371 139.954H108.501L108.789 136.729Z" fill="#A8A8A8"/>
<path opacity="0.5" d="M115.109 128.776C115.075 129.188 114.891 129.574 114.593 129.861C114.296 130.148 113.904 130.318 113.491 130.337C113.296 130.335 113.105 130.291 112.929 130.209C112.753 130.126 112.597 130.007 112.471 129.859C112.346 129.711 112.253 129.538 112.2 129.351C112.147 129.164 112.134 128.968 112.164 128.776C112.198 128.364 112.381 127.978 112.679 127.692C112.977 127.405 113.369 127.237 113.782 127.219C113.976 127.221 114.167 127.265 114.343 127.347C114.518 127.43 114.674 127.549 114.8 127.696C114.925 127.844 115.018 128.016 115.071 128.203C115.125 128.389 115.138 128.584 115.109 128.776Z" fill="#A8A8A8"/>
<path opacity="0.2" d="M143.732 99.5782C131.489 93.4653 112.115 105.496 111.549 105.704C109.598 106.43 107.329 105.457 105.277 103.993L106.869 85.7644L107.798 85.7069C107.798 85.7069 134.067 92.1648 143.732 99.5782Z" fill="black"/>
<path d="M79.8252 80.0541C79.8252 80.0541 82.6561 81.757 84.1909 82.4957C85.0756 82.9071 88.3134 82.3099 90.9408 83.9952C93.4753 85.6185 93.1922 87.2507 94.2626 88.6926C97.5049 93.0628 104.436 92.9213 104.436 92.9213C104.436 92.9213 133.939 87.3745 149.071 104.992C149.071 104.992 137.871 83.1371 79.8252 80.0541Z" fill="#05F29B"/>
<path opacity="0.4" d="M79.8252 80.0541C79.8252 80.0541 82.6561 81.757 84.1909 82.4957C85.0756 82.9071 88.3134 82.3099 90.9408 83.9952C93.4753 85.6185 93.1922 87.2507 94.2626 88.6926C97.5049 93.0628 104.436 92.9213 104.436 92.9213C104.436 92.9213 133.939 87.3745 149.071 104.992C149.071 104.992 137.871 83.1371 79.8252 80.0541Z" fill="#A8A8A8"/>
<path d="M64.5562 38.4094H44.0103C43.4496 38.4094 42.9118 38.6322 42.5153 39.0287C42.1188 39.4252 41.896 39.963 41.896 40.5237V51.6349C41.8972 52.1949 42.1204 52.7315 42.5168 53.1271C42.9132 53.5226 43.4503 53.7448 44.0103 53.7448H58.3018C58.8547 55.0717 60.4205 57.6903 64.4412 58.9023C64.4412 58.9023 62.0306 56.7216 62.1544 53.7448H64.5562C65.1162 53.7448 65.6533 53.5226 66.0497 53.1271C66.4461 52.7315 66.6693 52.1949 66.6705 51.6349V40.5237C66.6705 39.963 66.4478 39.4252 66.0513 39.0287C65.6547 38.6322 65.117 38.4094 64.5562 38.4094Z" fill="#05F29B"/>
<path opacity="0.6" d="M64.5562 38.4094H44.0103C43.4496 38.4094 42.9118 38.6322 42.5153 39.0287C42.1188 39.4252 41.896 39.963 41.896 40.5237V51.6349C41.8972 52.1949 42.1204 52.7315 42.5168 53.1271C42.9132 53.5226 43.4503 53.7448 44.0103 53.7448H58.3018C58.8547 55.0717 60.4205 57.6903 64.4412 58.9023C64.4412 58.9023 62.0306 56.7216 62.1544 53.7448H64.5562C65.1162 53.7448 65.6533 53.5226 66.0497 53.1271C66.4461 52.7315 66.6693 52.1949 66.6705 51.6349V40.5237C66.6705 39.963 66.4478 39.4252 66.0513 39.0287C65.6547 38.6322 65.117 38.4094 64.5562 38.4094Z" fill="white"/>
<g opacity="0.5">
<path d="M44.4175 42.1116C44.4175 41.2933 44.8598 40.7847 45.4437 40.7847C46.0275 40.7847 46.4743 41.2756 46.4743 42.1116C46.4743 42.9476 46.032 43.4386 45.4437 43.4386C44.8554 43.4386 44.4175 42.9344 44.4175 42.1116ZM46.1868 42.1116C46.1868 41.426 45.8771 41.0456 45.426 41.0456C44.9748 41.0456 44.6696 41.426 44.6696 42.1116C44.6696 42.7972 44.9792 43.1776 45.426 43.1776C45.8727 43.1776 46.2045 42.8017 46.2045 42.1116H46.1868Z" fill="black"/>
<path d="M47.5579 40.8245V43.3988H47.3058V41.0589H46.6865V40.8245H47.5579Z" fill="black"/>
<path d="M48.1904 42.1116C48.1904 41.2933 48.6328 40.7847 49.2166 40.7847C49.8005 40.7847 50.2472 41.2756 50.2472 42.1116C50.2472 42.9476 49.8049 43.4386 49.2166 43.4386C48.6283 43.4386 48.1904 42.9344 48.1904 42.1116ZM49.9597 42.1116C49.9597 41.426 49.6501 41.0456 49.2034 41.0456C48.7566 41.0456 48.447 41.426 48.447 42.1116C48.447 42.7972 48.7522 43.1776 49.2034 43.1776C49.6545 43.1776 49.9597 42.8017 49.9597 42.1116Z" fill="black"/>
<path d="M50.6055 42.1116C50.6055 41.2933 51.0478 40.7847 51.6317 40.7847C52.2155 40.7847 52.6623 41.2756 52.6623 42.1116C52.6623 42.9476 52.2199 43.4386 51.6317 43.4386C51.0434 43.4386 50.6055 42.9344 50.6055 42.1116ZM52.3748 42.1116C52.3748 41.426 52.0696 41.0456 51.6184 41.0456C51.1672 41.0456 50.862 41.426 50.862 42.1116C50.862 42.7972 51.1716 43.1776 51.6184 43.1776C52.0651 43.1776 52.388 42.8017 52.388 42.1116H52.3748Z" fill="black"/>
<path d="M53.746 40.8245V43.3988H53.4983V41.0589H52.8923V40.8245H53.746Z" fill="black"/>
<path d="M55.0729 40.8245V43.3988H54.8252V41.0589H54.2192V40.8245H55.0729Z" fill="black"/>
<path d="M56.4001 40.8245V43.3988H56.1524V41.0589H55.5464V40.8245H56.4001Z" fill="black"/>
<path d="M57.0369 42.1116C57.0369 41.2933 57.4792 40.7847 58.0631 40.7847C58.6469 40.7847 59.0937 41.2756 59.0937 42.1116C59.0937 42.9476 58.6513 43.4386 58.0631 43.4386C57.4748 43.4386 57.0369 42.9344 57.0369 42.1116ZM58.8062 42.1116C58.8062 41.426 58.4965 41.0456 58.0498 41.0456C57.603 41.0456 57.289 41.426 57.289 42.1116C57.289 42.7972 57.5986 43.1776 58.0498 43.1776C58.501 43.1776 58.8062 42.8017 58.8062 42.1116Z" fill="black"/>
<path d="M59.4475 42.1116C59.4475 41.2933 59.8898 40.7847 60.4737 40.7847C61.0576 40.7847 61.5043 41.2756 61.5043 42.1116C61.5043 42.9476 61.062 43.4386 60.4737 43.4386C59.8854 43.4386 59.4475 42.9344 59.4475 42.1116ZM61.2168 42.1116C61.2168 41.426 60.9072 41.0456 60.4604 41.0456C60.0137 41.0456 59.7041 41.426 59.7041 42.1116C59.7041 42.7972 60.0093 43.1776 60.4604 43.1776C60.9116 43.1776 61.2301 42.8017 61.2301 42.1116H61.2168Z" fill="black"/>
<path d="M62.588 40.8245V43.3988H62.3448V41.0589H61.7388V40.8245H62.588Z" fill="black"/>
<path d="M63.9149 40.8245V43.3988H63.6717V41.0589H63.0657V40.8245H63.9149Z" fill="black"/>
<path d="M45.1294 44.5532V47.1275H44.864V44.7877H44.2581V44.5532H45.1294Z" fill="black"/>
<path d="M45.7444 45.8404C45.7444 45.0177 46.1867 44.5134 46.7706 44.5134C47.3544 44.5134 47.7968 45 47.7968 45.8404C47.7968 46.6808 47.3544 47.1674 46.7706 47.1674C46.1867 47.1674 45.7444 46.6587 45.7444 45.8404ZM47.5137 45.8404C47.5137 45.1504 47.2041 44.7744 46.7573 44.7744C46.3106 44.7744 45.9965 45.1504 45.9965 45.8404C45.9965 46.5304 46.3061 46.9064 46.7573 46.9064C47.2085 46.9064 47.5269 46.526 47.5269 45.8404H47.5137Z" fill="black"/>
<path d="M48.1904 45.8404C48.1904 45.0177 48.6328 44.5134 49.2166 44.5134C49.8005 44.5134 50.2472 45 50.2472 45.8404C50.2472 46.6808 49.8049 47.1674 49.2166 47.1674C48.6283 47.1674 48.1904 46.6587 48.1904 45.8404ZM49.9597 45.8404C49.9597 45.1504 49.6501 44.7744 49.2034 44.7744C48.7566 44.7744 48.4426 45.1504 48.4426 45.8404C48.4426 46.5304 48.7522 46.9064 49.2034 46.9064C49.6545 46.9064 49.9597 46.526 49.9597 45.8404Z" fill="black"/>
<path d="M51.3177 44.5532V47.1275H51.0523V44.7877H50.4419V44.5532H51.3177Z" fill="black"/>
<path d="M52.6446 44.5532V47.1275H52.3792V44.7877H51.7732V44.5532H52.6446Z" fill="black"/>
<path d="M53.9715 44.5532V47.1275H53.7061V44.7877H53.1001V44.5532H53.9715Z" fill="black"/>
<path d="M54.582 45.8404C54.582 45.0177 55.0244 44.5134 55.6082 44.5134C56.1921 44.5134 56.6388 45 56.6388 45.8404C56.6388 46.6808 56.1965 47.1674 55.6082 47.1674C55.0199 47.1674 54.582 46.6587 54.582 45.8404ZM56.3513 45.8404C56.3513 45.1504 56.0417 44.7744 55.5905 44.7744C55.1394 44.7744 54.8342 45.1504 54.8342 45.8404C54.8342 46.5304 55.1438 46.9064 55.5905 46.9064C56.0373 46.9064 56.369 46.526 56.369 45.8404H56.3513Z" fill="black"/>
<path d="M57.0369 45.8404C57.0369 45.0177 57.4792 44.5134 58.0675 44.5134C58.6558 44.5134 59.0937 45 59.0937 45.8404C59.0937 46.6808 58.6513 47.1674 58.0675 47.1674C57.4836 47.1674 57.0369 46.6587 57.0369 45.8404ZM58.8062 45.8404C58.8062 45.1504 58.4965 44.7744 58.0498 44.7744C57.603 44.7744 57.289 45.1504 57.289 45.8404C57.289 46.5304 57.5986 46.9064 58.0498 46.9064C58.501 46.9064 58.8062 46.526 58.8062 45.8404Z" fill="black"/>
<path d="M60.1553 44.5532V47.1275H59.8899V44.7877H59.2839V44.5532H60.1553Z" fill="black"/>
<path d="M61.4822 44.5532V47.1275H61.2212V44.7877H60.6108V44.5532H61.4822Z" fill="black"/>
<path d="M62.0969 45.8404C62.0969 45.0177 62.5392 44.5134 63.1231 44.5134C63.707 44.5134 64.1537 45 64.1537 45.8404C64.1537 46.6808 63.7114 47.1674 63.1231 47.1674C62.5348 47.1674 62.0969 46.6587 62.0969 45.8404ZM63.8662 45.8404C63.8662 45.1504 63.561 44.7744 63.1098 44.7744C62.6587 44.7744 62.3535 45.1504 62.3535 45.8404C62.3535 46.5304 62.6631 46.9064 63.1098 46.9064C63.5566 46.9064 63.8795 46.526 63.8795 45.8404H63.8662Z" fill="black"/>
<path d="M44.4175 49.5648C44.4175 48.7465 44.8598 48.2378 45.4437 48.2378C46.0275 48.2378 46.4743 48.7288 46.4743 49.5648C46.4743 50.4008 46.032 50.8917 45.4437 50.8917C44.8554 50.8917 44.4175 50.3875 44.4175 49.5648ZM46.1868 49.5648C46.1868 48.8792 45.8771 48.4988 45.426 48.4988C44.9748 48.4988 44.6696 48.8792 44.6696 49.5648C44.6696 50.2504 44.9792 50.6352 45.426 50.6352C45.8727 50.6352 46.2045 50.2548 46.2045 49.5648H46.1868Z" fill="black"/>
<path d="M46.8633 49.5648C46.8633 48.7465 47.3056 48.2378 47.8895 48.2378C48.4733 48.2378 48.9157 48.7288 48.9157 49.5648C48.9157 50.4008 48.4733 50.8917 47.8895 50.8917C47.3056 50.8917 46.8633 50.3875 46.8633 49.5648ZM48.6326 49.5648C48.6326 48.8792 48.3229 48.4988 47.8762 48.4988C47.4295 48.4988 47.1154 48.8792 47.1154 49.5648C47.1154 50.2504 47.425 50.6352 47.8762 50.6352C48.3274 50.6352 48.6326 50.2548 48.6326 49.5648Z" fill="black"/>
<path d="M49.9908 48.2776V50.8519H49.7298V48.512H49.1194V48.2776H49.9908Z" fill="black"/>
<path d="M51.3177 48.2776V50.8519H51.0567V48.512H50.4463V48.2776H51.3177Z" fill="black"/>
<path d="M51.9324 49.5648C51.9324 48.7465 52.3747 48.2378 52.9586 48.2378C53.5424 48.2378 53.9892 48.7288 53.9892 49.5648C53.9892 50.4008 53.5469 50.8917 52.9586 50.8917C52.3703 50.8917 51.9324 50.3875 51.9324 49.5648ZM53.7017 49.5648C53.7017 48.8792 53.3965 48.4988 52.9453 48.4988C52.4941 48.4988 52.1889 48.8792 52.1889 49.5648C52.1889 50.2504 52.4985 50.6352 52.9453 50.6352C53.392 50.6352 53.7149 50.2548 53.7149 49.5648H53.7017Z" fill="black"/>
<path d="M54.3828 49.5648C54.3828 48.7465 54.8251 48.2378 55.409 48.2378C55.9929 48.2378 56.4396 48.7288 56.4396 49.5648C56.4396 50.4008 55.9973 50.8917 55.409 50.8917C54.8207 50.8917 54.3828 50.3875 54.3828 49.5648ZM56.1521 49.5648C56.1521 48.8792 55.8425 48.4988 55.3913 48.4988C54.9401 48.4988 54.6349 48.8792 54.6349 49.5648C54.6349 50.2504 54.9446 50.6352 55.3913 50.6352C55.8381 50.6352 56.1521 50.2548 56.1521 49.5648Z" fill="black"/>
<path d="M57.5057 48.2776V50.8519H57.2403V48.512H56.6343V48.2776H57.5057Z" fill="black"/>
<path d="M58.8328 48.2776V50.8519H58.5674V48.512H57.9614V48.2776H58.8328Z" fill="black"/>
<path d="M60.1597 48.2776V50.8519H59.8943V48.512H59.2883V48.2776H60.1597Z" fill="black"/>
<path d="M60.7744 49.5648C60.7744 48.7465 61.2167 48.2378 61.8006 48.2378C62.3845 48.2378 62.8312 48.7288 62.8312 49.5648C62.8312 50.4008 62.3889 50.8917 61.8006 50.8917C61.2123 50.8917 60.7744 50.3875 60.7744 49.5648ZM62.5437 49.5648C62.5437 48.8792 62.2341 48.4988 61.7873 48.4988C61.3406 48.4988 61.031 48.8792 61.031 49.5648C61.031 50.2504 61.3362 50.6352 61.7873 50.6352C62.2385 50.6352 62.557 50.2548 62.557 49.5648H62.5437Z" fill="black"/>
<path d="M63.9149 48.2776V50.8519H63.6717V48.512H63.0657V48.2776H63.9149Z" fill="black"/>
</g>
</svg>
