<svg width="24" height="24" viewBox="0 0 24 24" fill="none" xmlns="http://www.w3.org/2000/svg">
<path d="M0.922607 1.5L2.82948 17.8219L12.0001 22.4906V1.5H0.922607Z" fill="#0A212F"/>
<path d="M12 1.5V22.4906L12.0094 22.5L21.1838 17.8294L23.0775 1.5H12Z" fill="#06C07C"/>
<path d="M3.53247 4.14563L4.74935 16.3669L12 19.8694V4.14563H3.53247Z" fill="#0D2C40"/>
<path d="M12 4.14563V19.8694L12.0094 19.8788L19.2637 16.3613L20.4675 4.14563H12Z" fill="#05F29B"/>
<path d="M19.8225 10.2937L13.7137 7.39122L13.3706 7.22247L13.1606 7.64997L12 10.0143V12.8062L13.7156 9.41622L17.7469 11.2106L13.4175 13.155L13.2544 13.2431V15.2831L13.6875 15.0712L19.8337 12.1293C19.896 12.0906 19.9456 12.0344 19.9762 11.9677C20.0069 11.9011 20.0173 11.8269 20.0062 11.7543V10.6706C20.0166 10.5966 20.0047 10.5212 19.972 10.4541C19.9392 10.3869 19.8872 10.3311 19.8225 10.2937Z" fill="#06C07C"/>
<path d="M10.5 13.0106L6.41441 11.2106L10.7832 9.26627L11.1132 9.13502V7.08002L10.4757 7.35002L4.11378 10.2919C4.04293 10.326 3.98295 10.3791 3.94056 10.4453C3.89818 10.5116 3.87506 10.5883 3.87378 10.6669V11.7488C3.8735 11.8268 3.89515 11.9033 3.93626 11.9696C3.97737 12.0359 4.03628 12.0893 4.10628 12.1238L10.3763 15.0338L10.7513 15.2025L10.9782 14.7788L12 12.8063V10.0144L10.5 13.0106Z" fill="#558D6C"/>
</svg>
