<svg width="44" height="44" viewBox="0 0 44 44" fill="none" xmlns="http://www.w3.org/2000/svg">
<path d="M14.1744 27.2609L17.389 27.4985V30.2536C17.389 30.2536 11.3826 36.1896 2.63062 29.1614H5.61303L5.94356 26.4541C5.94356 26.4541 9.3472 29.9204 14.1744 27.2609Z" fill="#0D2C40"/>
<path d="M3.28844 14.5328C3.28844 14.5328 -3.24366 20.6354 2.1047 28.4487L5.09019 28.7341L5.3746 25.8371C5.3746 25.8371 2.63047 21.3249 6.17555 17.763L2.99635 17.5162L3.28844 14.5328Z" fill="#0D2C40"/>
<path d="M3.99866 14.1055C3.99866 14.1055 12.1465 8.8344 18.3404 15.1977L15.5947 15.008L15.3103 18.0932C15.3103 18.0932 12.1865 14.2953 6.98108 17.2401L3.80957 17.0982L3.99866 14.1055Z" fill="#0D2C40"/>
<path d="M16.0205 18.8552L16.2096 15.6728L19.0967 15.9582L27.8057 25.6936H24.8248L24.5404 28.4009L16.0205 18.8552Z" fill="#0D2C40"/>
<path d="M14.98 26.7397L26.0072 14.533L28.942 14.8183L28.7529 17.811L17.9147 29.9206L17.9609 26.786L14.98 26.7397Z" fill="#05F29B"/>
<path d="M26.4331 14.0933L29.4862 14.3432L29.2741 17.2649C29.2741 17.2649 33.7815 14.3787 37.0837 17.4423L40.3121 17.5843L40.6027 14.7397C40.6027 14.7397 35.5571 9.03199 26.4331 14.0933Z" fill="#05F29B"/>
<path d="M37.545 17.9051L40.7734 18.0948L41.0224 15.2333C41.0224 15.2333 48.0864 23.1299 40.4536 29.9206L37.3313 29.703L37.6157 26.4635C37.6157 26.4635 41.8403 21.7169 37.545 17.9051Z" fill="#05F29B"/>
<path d="M28.5637 26.4543L25.3031 26.1689L25.1201 29.0552C25.1201 29.0552 30.9066 35.7517 39.6386 30.4081L36.6562 30.1659L36.9406 27.0668C36.9406 27.0668 33.1419 30.1227 28.5637 26.4543Z" fill="#05F29B"/>
<path d="M32.6901 21.4655V22.5454C32.6808 22.5874 32.6761 22.6303 32.6762 22.6734C32.6761 22.717 32.6808 22.7604 32.6901 22.803V24.5431H31.8845V21.4578L32.6901 21.4655Z" fill="#0D2C40"/>
<path d="M33.3987 21.4653C33.1333 21.4998 32.8855 21.6169 32.6899 21.8001C32.5551 21.905 32.4435 22.037 32.3623 22.1876C32.281 22.3382 32.2319 22.5041 32.218 22.6747C32.2299 22.8531 32.2779 23.0272 32.359 23.1863C32.4401 23.3454 32.5527 23.4863 32.6899 23.6003C32.8612 23.7642 33.0829 23.8649 33.3187 23.8857C34.0674 23.9042 34.4363 23.2579 34.4363 22.6763C34.4363 22.0947 33.9782 21.4314 33.3987 21.4653ZM33.1542 23.21C33.0428 23.2051 32.9365 23.1622 32.8526 23.0885C32.7688 23.0147 32.7125 22.9145 32.693 22.8043C32.6837 22.7618 32.6791 22.7183 32.6792 22.6747C32.6791 22.6317 32.6837 22.5887 32.693 22.5467C32.7125 22.4365 32.7688 22.3363 32.8526 22.2626C32.9365 22.1888 33.0428 22.1459 33.1542 22.141C33.2869 22.1534 33.4103 22.2151 33.5 22.3139C33.5898 22.4128 33.6396 22.5418 33.6396 22.6755C33.6396 22.8093 33.5898 22.9382 33.5 23.0371C33.4103 23.1359 33.2869 23.1976 33.1542 23.21ZM36.0382 22.3863C35.9214 22.3493 35.4894 22.2814 35.4894 22.1179C35.4894 22.0253 35.6216 22.0145 35.6862 22.0176C35.8707 22.0176 36.1474 22.2382 36.3011 22.1965C36.438 22.161 36.5579 21.8062 36.6086 21.6859C36.2203 21.4635 35.768 21.3808 35.3265 21.4514C35.2174 21.4723 35.1141 21.5166 35.0237 21.5814C34.9333 21.6462 34.858 21.7298 34.803 21.8265C34.7479 21.9233 34.7143 22.0309 34.7047 22.1419C34.695 22.2529 34.7094 22.3647 34.7469 22.4696C34.9421 22.9771 35.5417 22.7781 35.8445 23.0866C35.9691 23.2162 35.7123 23.2748 35.6278 23.2717C35.3678 23.233 35.1192 23.1383 34.8991 22.9941C34.8238 23.102 34.5916 23.3597 34.6193 23.4939C34.647 23.6281 34.9529 23.7284 35.0805 23.7685C35.5079 23.9073 36.1674 23.9597 36.4887 23.5695C36.8899 23.1005 36.5394 22.5498 36.0382 22.3863ZM29.7829 20.6107C29.4484 20.6107 29.1214 20.7102 28.8434 20.8967C28.5653 21.0831 28.3485 21.3482 28.2205 21.6582C28.0925 21.9683 28.059 22.3095 28.1243 22.6386C28.1895 22.9678 28.3506 23.2702 28.5871 23.5075C28.8236 23.7448 29.1249 23.9064 29.4529 23.9719C29.781 24.0373 30.121 24.0037 30.43 23.8753C30.739 23.7469 31.0031 23.5294 31.1889 23.2503C31.3747 22.9713 31.4739 22.6432 31.4739 22.3076C31.4739 21.8576 31.2958 21.426 30.9786 21.1077C30.6615 20.7895 30.2314 20.6107 29.7829 20.6107ZM29.7829 23.173C29.6114 23.1727 29.444 23.1214 29.3016 23.0256C29.1592 22.9298 29.0483 22.7939 28.9829 22.6349C28.9175 22.4758 28.9006 22.301 28.9342 22.1323C28.9678 21.9636 29.0505 21.8087 29.1718 21.6872C29.2932 21.5657 29.4477 21.483 29.6158 21.4495C29.784 21.4161 29.9582 21.4334 30.1166 21.4993C30.2749 21.5652 30.4102 21.6767 30.5054 21.8198C30.6006 21.9628 30.6514 22.131 30.6514 22.303C30.6515 22.4175 30.6289 22.5309 30.5852 22.6366C30.5414 22.7424 30.4772 22.8384 30.3964 22.9193C30.3156 23.0001 30.2196 23.0641 30.1141 23.1077C30.0085 23.1512 29.8954 23.1734 29.7813 23.173H29.7829Z" fill="#0D2C40"/>
<path d="M13.7669 21.4269H12.803L13.8223 24.1018H14.2619V22.9618L13.7669 21.4269ZM14.7585 21.4315H15.7224L14.7016 24.1064H14.2619V22.9664L14.7585 21.4315ZM9.08729 21.0505C8.76358 20.8249 8.38793 20.6858 7.99579 20.6463C7.47617 20.597 6.91966 20.6602 6.43848 20.6602V24.0987H6.46154C6.55378 24.1095 6.64602 24.1188 6.73979 24.1249C7.10929 24.1557 7.48081 24.1526 7.84974 24.1157C8.55538 24.037 9.00889 23.8072 9.28714 23.5079C9.5337 23.2294 9.67276 22.8715 9.67916 22.499V22.4173V22.3741C9.67301 21.8851 9.53312 21.393 9.08729 21.0505ZM8.30326 23.1516C8.0127 23.3151 7.65911 23.275 7.33935 23.275V21.484C7.6791 21.484 8.06189 21.4392 8.36014 21.649C8.85516 21.9992 8.83671 22.8492 8.29864 23.1516H8.30326ZM12.3802 23.42C12.3018 23.3536 12.2019 23.241 12.0958 23.2225C11.9267 23.1994 11.7161 23.4277 11.5286 23.4462C11.2365 23.4755 11.0259 23.2734 10.9136 23.0297H12.6908C12.6908 22.5361 12.6493 22.0162 12.2296 21.6768C11.4502 21.0382 10.1711 21.5102 10.0281 22.5175C9.8744 23.5789 10.7061 24.2638 11.7192 24.1311C11.9704 24.0955 12.2062 23.9884 12.3987 23.8226C12.4679 23.7609 12.5693 23.676 12.5186 23.5758C12.4824 23.5158 12.4355 23.463 12.3802 23.42ZM11.813 22.5453H10.906C10.9255 22.439 10.9816 22.3429 11.0645 22.2737C11.1473 22.2045 11.2517 22.1667 11.3595 22.1667C11.4672 22.1667 11.5716 22.2045 11.6544 22.2737C11.7373 22.3429 11.7934 22.439 11.813 22.5453Z" fill="#05F29B"/>
</svg>
