<svg width="44" height="44" viewBox="0 0 44 44" fill="none" xmlns="http://www.w3.org/2000/svg">
<path d="M14.1744 27.2609L17.389 27.4985V30.2536C17.389 30.2536 11.3826 36.1896 2.63062 29.1614H5.61303L5.94356 26.4541C5.94356 26.4541 9.3472 29.9204 14.1744 27.2609Z" fill="#0D2C40"/>
<path d="M3.28844 14.5328C3.28844 14.5328 -3.24366 20.6354 2.1047 28.4487L5.09019 28.7341L5.3746 25.8371C5.3746 25.8371 2.63047 21.3249 6.17555 17.763L2.99635 17.5162L3.28844 14.5328Z" fill="#0D2C40"/>
<path d="M3.99866 14.1055C3.99866 14.1055 12.1465 8.8344 18.3404 15.1977L15.5947 15.008L15.3103 18.0932C15.3103 18.0932 12.1865 14.2953 6.98108 17.2401L3.80957 17.0982L3.99866 14.1055Z" fill="#0D2C40"/>
<path d="M16.0205 18.8552L16.2096 15.6728L19.0967 15.9582L27.8057 25.6936H24.8248L24.5404 28.4009L16.0205 18.8552Z" fill="#0D2C40"/>
<path d="M14.98 26.7397L26.0072 14.533L28.942 14.8183L28.7529 17.811L17.9147 29.9206L17.9609 26.786L14.98 26.7397Z" fill="#05F29B"/>
<path d="M26.4331 14.0933L29.4862 14.3432L29.2741 17.2649C29.2741 17.2649 33.7815 14.3787 37.0837 17.4423L40.3121 17.5843L40.6027 14.7397C40.6027 14.7397 35.5571 9.03199 26.4331 14.0933Z" fill="#05F29B"/>
<path d="M37.545 17.9051L40.7734 18.0948L41.0224 15.2333C41.0224 15.2333 48.0864 23.1299 40.4536 29.9206L37.3313 29.703L37.6157 26.4635C37.6157 26.4635 41.8403 21.7169 37.545 17.9051Z" fill="#05F29B"/>
<path d="M28.5637 26.4543L25.3031 26.1689L25.1201 29.0552C25.1201 29.0552 30.9066 35.7517 39.6386 30.4081L36.6562 30.1659L36.9406 27.0668C36.9406 27.0668 33.1419 30.1227 28.5637 26.4543Z" fill="#05F29B"/>
</svg>
