<svg width="341" height="463" viewBox="0 0 341 463" fill="none" xmlns="http://www.w3.org/2000/svg">
<g filter="url(#filter0_d_1117_389)">
<path fill-rule="evenodd" clip-rule="evenodd" d="M44.1896 279.365L58.6669 272.81L75.0496 275.422L104.474 265.385L137.845 262.159L213.919 263.234L292.948 268.58L328.029 279.365L337 298.362L319.058 301.946L320.134 308.757L315.829 315.567L276.715 319.151L207.819 323.095L167.629 315.925L120.263 316.284L97.6559 307.681L78.6381 310.907L76.1261 305.172L16.5592 306.965L4 301.946L18.7122 289.401L24.8123 282.949L45.9836 284.741L44.1896 279.365Z" fill="#206957"/>
<path fill-rule="evenodd" clip-rule="evenodd" d="M4 301.946L16.2007 310.191L71.7329 311.068L78.2791 316.643L95.8619 313.775L118.469 322.019L167.629 322.736L206.025 329.905L315.47 320.944L323.005 309.832V303.739L337 298.362L319.058 301.946L320.134 308.757L315.829 315.567L276.715 319.151L207.819 323.095L167.629 315.925L120.263 316.284L97.6559 307.681L78.6381 310.907L76.1261 305.172L16.5592 306.965L4 301.946Z" fill="#271914"/>
<path fill-rule="evenodd" clip-rule="evenodd" d="M71.7329 311.068L16.2007 310.191L54.9548 322.019L71.7329 311.068Z" fill="#574036"/>
<path fill-rule="evenodd" clip-rule="evenodd" d="M71.733 311.068L54.9548 322.019L69.667 329.547L71.733 311.068Z" fill="#412B1C"/>
<path fill-rule="evenodd" clip-rule="evenodd" d="M71.7329 311.068L69.667 329.547L78.2791 316.643L71.7329 311.068Z" fill="#4A4028"/>
<path fill-rule="evenodd" clip-rule="evenodd" d="M78.2791 316.643L69.667 329.547L86.5322 341.016L78.2791 316.643Z" fill="#4A4224"/>
<path fill-rule="evenodd" clip-rule="evenodd" d="M86.5322 341.016L95.8618 313.775L78.2791 316.643L86.5322 341.016Z" fill="#544E38"/>
<path fill-rule="evenodd" clip-rule="evenodd" d="M102.68 332.056L95.8621 313.775L118.469 322.019L102.68 332.056Z" fill="#4D4B1B"/>
<path fill-rule="evenodd" clip-rule="evenodd" d="M102.68 332.056L86.5322 341.016L95.8619 313.775L102.68 332.056Z" fill="#5E5B57"/>
<path fill-rule="evenodd" clip-rule="evenodd" d="M86.5322 341.016L102.68 332.056L104.115 357.864L86.5322 341.016Z" fill="#463F46"/>
<path fill-rule="evenodd" clip-rule="evenodd" d="M102.68 332.056L104.115 357.864L118.469 322.019L102.68 332.056Z" fill="#60575D"/>
<path fill-rule="evenodd" clip-rule="evenodd" d="M167.629 322.736L118.469 322.019L134.975 341.016L167.629 322.736Z" fill="#3C2F25"/>
<path fill-rule="evenodd" clip-rule="evenodd" d="M118.469 322.019L134.975 341.016L137.846 405.178L118.469 322.019Z" fill="#736753"/>
<path fill-rule="evenodd" clip-rule="evenodd" d="M137.845 405.178L118.469 322.019L104.115 357.864L137.845 405.178Z" fill="#807467"/>
<path fill-rule="evenodd" clip-rule="evenodd" d="M137.845 405.178L104.115 357.864L138.563 443.174L137.845 405.178Z" fill="#887A6A"/>
<path fill-rule="evenodd" clip-rule="evenodd" d="M137.845 405.178L138.563 443.174L154.711 455L137.845 405.178Z" fill="#6D5F48"/>
<path fill-rule="evenodd" clip-rule="evenodd" d="M137.845 405.178L154.711 455L160.811 405.178H137.845Z" fill="#60523F"/>
<path fill-rule="evenodd" clip-rule="evenodd" d="M160.811 405.178L134.975 341.016L179.829 376.144L160.811 405.178Z" fill="#5C4D3E"/>
<path fill-rule="evenodd" clip-rule="evenodd" d="M160.811 405.178L134.975 341.016L137.846 405.178H160.811Z" fill="#5C4E3B"/>
<path fill-rule="evenodd" clip-rule="evenodd" d="M160.811 405.178L154.711 455L169.064 442.097L160.811 405.178Z" fill="#3F3533"/>
<path fill-rule="evenodd" clip-rule="evenodd" d="M160.812 405.178L174.982 405.84L169.065 442.097L160.812 405.178Z" fill="#3E362E"/>
<path fill-rule="evenodd" clip-rule="evenodd" d="M178.036 432.78L169.064 442.097L190.236 441.738L178.036 432.78Z" fill="#1D1713"/>
<path fill-rule="evenodd" clip-rule="evenodd" d="M169.064 442.097L178.036 432.78L179.829 376.144L169.064 442.097Z" fill="#332727"/>
<path fill-rule="evenodd" clip-rule="evenodd" d="M190.236 441.738L178.036 432.78L212.843 423.459L190.236 441.738Z" fill="#211D1D"/>
<path fill-rule="evenodd" clip-rule="evenodd" d="M220.378 387.614L242.985 374.352L212.843 423.459L220.378 387.614Z" fill="#5D6358"/>
<path fill-rule="evenodd" clip-rule="evenodd" d="M178.036 432.78L179.829 376.144L198.13 367.183L178.036 432.78Z" fill="#281D1B"/>
<path fill-rule="evenodd" clip-rule="evenodd" d="M178.036 432.78L198.13 367.183L220.378 387.614L178.036 432.78Z" fill="#29211D"/>
<path fill-rule="evenodd" clip-rule="evenodd" d="M220.188 387.817L242.985 374.352L198.13 367.183L220.188 387.817Z" fill="#2D231C"/>
<path fill-rule="evenodd" clip-rule="evenodd" d="M179.829 376.144L167.629 322.736L134.975 341.016L179.829 376.144Z" fill="#443A2F"/>
<path fill-rule="evenodd" clip-rule="evenodd" d="M179.829 376.144L167.629 322.736L180.03 325.051L179.829 376.144Z" fill="#403629"/>
<path fill-rule="evenodd" clip-rule="evenodd" d="M180.03 325.051L179.83 376.144L198.131 367.183L180.03 325.051Z" fill="#3C322B"/>
<path fill-rule="evenodd" clip-rule="evenodd" d="M180.029 325.051L198.13 367.183L206.024 329.905L180.029 325.051Z" fill="#392F26"/>
<path fill-rule="evenodd" clip-rule="evenodd" d="M206.024 329.905L198.13 367.183L232.019 353.555L206.024 329.905Z" fill="#392D28"/>
<path fill-rule="evenodd" clip-rule="evenodd" d="M198.13 367.183L232.019 353.555L242.985 374.352L198.13 367.183Z" fill="#332722"/>
<path fill-rule="evenodd" clip-rule="evenodd" d="M232.02 353.555L242.985 374.352L253.032 349.978L232.02 353.555Z" fill="#33261E"/>
<path fill-rule="evenodd" clip-rule="evenodd" d="M206.024 329.905L232.019 353.555L249.092 326.378L206.024 329.905Z" fill="#302720"/>
<path fill-rule="evenodd" clip-rule="evenodd" d="M232.02 353.555L249.092 326.378L253.032 349.978L232.02 353.555Z" fill="#3C332C"/>
<path fill-rule="evenodd" clip-rule="evenodd" d="M242.985 374.352L253.033 349.978L266.31 364.316L242.985 374.352Z" fill="#4E4A47"/>
<path fill-rule="evenodd" clip-rule="evenodd" d="M253.032 349.978L266.309 364.316L264.874 346.752L253.032 349.978Z" fill="#413D3A"/>
<path fill-rule="evenodd" clip-rule="evenodd" d="M264.874 346.752L266.309 364.316L282.456 345.676L264.874 346.752Z" fill="#524A43"/>
<path fill-rule="evenodd" clip-rule="evenodd" d="M264.874 346.752L282.456 345.676L273.485 338.866L264.874 346.752Z" fill="#63595B"/>
<path fill-rule="evenodd" clip-rule="evenodd" d="M253.032 349.978L264.874 346.752L249.173 326.861L253.032 349.978Z" fill="#3C322B"/>
<path fill-rule="evenodd" clip-rule="evenodd" d="M264.874 346.752L273.486 338.866L249.042 326.46L264.874 346.752Z" fill="#3F352F"/>
<path fill-rule="evenodd" clip-rule="evenodd" d="M248.91 326.394L273.485 338.866L293.108 322.775L248.91 326.394Z" fill="#362D23"/>
<path fill-rule="evenodd" clip-rule="evenodd" d="M273.486 338.866L282.457 345.676L293.108 322.775L273.486 338.866Z" fill="#59514E"/>
<path fill-rule="evenodd" clip-rule="evenodd" d="M293.108 322.775L282.457 345.676L315.47 320.944L293.108 322.775Z" fill="#4E4A47"/>
<path fill-rule="evenodd" clip-rule="evenodd" d="M323.005 303.739L337 298.362L323.005 309.832V303.739Z" fill="#362D23"/>
<path fill-rule="evenodd" clip-rule="evenodd" d="M323.005 309.832L337 298.362L323.723 322.736L323.005 309.832Z" fill="#413D3A"/>
<path fill-rule="evenodd" clip-rule="evenodd" d="M323.005 309.832L323.723 322.736L315.47 320.944L323.005 309.832Z" fill="#302720"/>
<path fill-rule="evenodd" clip-rule="evenodd" d="M323.785 322.769L282.558 345.6L315.47 320.944L323.785 322.769Z" fill="#332727"/>
<path fill-rule="evenodd" clip-rule="evenodd" d="M193.388 271.709L203.711 278.635L191.252 277.961L193.388 271.709Z" fill="#8D9A95"/>
<path fill-rule="evenodd" clip-rule="evenodd" d="M191.252 277.961L203.711 278.636L201.691 286.1L191.252 277.961Z" fill="#7A8681"/>
<path fill-rule="evenodd" clip-rule="evenodd" d="M206.337 279.866L203.711 278.636L204.788 274.256L206.337 279.866Z" fill="#919493"/>
<path fill-rule="evenodd" clip-rule="evenodd" d="M203.711 278.635L204.788 274.256L193.388 271.709L203.711 278.635Z" fill="#9FA3A0"/>
<path fill-rule="evenodd" clip-rule="evenodd" d="M191.932 270.655L193.388 271.709L197.711 269.61L191.932 270.655Z" fill="#BEB4BE"/>
<path fill-rule="evenodd" clip-rule="evenodd" d="M191.932 270.655L193.388 271.709L189.125 273.1L191.932 270.655Z" fill="#58585E"/>
<path fill-rule="evenodd" clip-rule="evenodd" d="M193.388 271.709L197.711 269.609L204.788 274.256L193.388 271.709Z" fill="#908F8F"/>
<path fill-rule="evenodd" clip-rule="evenodd" d="M192.475 280.347L188.728 280.227L190.044 286.797L192.475 280.347Z" fill="#8C9B93"/>
<path fill-rule="evenodd" clip-rule="evenodd" d="M191.251 277.961L187.968 286.671L201.69 286.1L191.251 277.961Z" fill="#75837F"/>
<path fill-rule="evenodd" clip-rule="evenodd" d="M188.76 274.932L188.337 264.78L183.099 269.569L188.76 274.932Z" fill="#64726B"/>
<path fill-rule="evenodd" clip-rule="evenodd" d="M188.76 274.932L183.099 269.569L182.331 272.905L188.76 274.932Z" fill="#5E7164"/>
<path fill-rule="evenodd" clip-rule="evenodd" d="M188.76 274.932L182.331 272.905L179.9 274.93L188.76 274.932Z" fill="#686467"/>
<path fill-rule="evenodd" clip-rule="evenodd" d="M188.76 274.932L179.9 274.93L179.887 276.787L188.76 274.932Z" fill="#6E6E6F"/>
<path fill-rule="evenodd" clip-rule="evenodd" d="M188.76 274.932L179.887 276.787L187.307 278.696L188.76 274.932Z" fill="#6C7884"/>
<path fill-rule="evenodd" clip-rule="evenodd" d="M187.307 278.696L179.887 276.787L180.926 278.713L187.307 278.696Z" fill="#838A89"/>
<path fill-rule="evenodd" clip-rule="evenodd" d="M201.691 286.1L206.78 288.059L203.711 278.635L201.691 286.1Z" fill="#636D6C"/>
<path fill-rule="evenodd" clip-rule="evenodd" d="M203.711 278.635L206.337 279.866L206.78 288.059L203.711 278.635Z" fill="#838A89"/>
<path fill-rule="evenodd" clip-rule="evenodd" d="M193.388 271.709L189.125 273.1L191.252 277.961L193.388 271.709Z" fill="#8D9A95"/>
<path fill-rule="evenodd" clip-rule="evenodd" d="M192.475 280.347L190.9 276.747L188.728 280.227L192.475 280.347Z" fill="#919894"/>
<path fill-rule="evenodd" clip-rule="evenodd" d="M178.036 289.043H141.257L149.612 285.353L158.346 281.18L162.903 275.489L168.855 180.679L147.944 179.634L127.289 170.498L130.17 167.102L151.081 174.412L170.947 173.368L174.083 155.613L177.219 156.658L178.036 289.043Z" fill="#473C29"/>
<path d="M161 287.5H174.5L175.5 281L176 247.5" stroke="#363226"/>
<path d="M175 227.5V169" stroke="#363226"/>
<path d="M157.5 284L163 282L166.5 277.5L170 204" stroke="#363226"/>
<path fill-rule="evenodd" clip-rule="evenodd" d="M177.219 156.658L178.035 289.043H209.994L201.26 285.353L193.854 282.507L189.297 269.23L187.675 241.254L208.586 209.922L215.573 176.99L213.29 176.544L203.358 208.877L184.538 227.677L181.401 154.569L177.219 156.658Z" fill="#363226"/>
<path d="M179 163V214" stroke="#322A1F"/>
<path d="M197 287.5L189 284L185.5 273L184 248" stroke="#322A1F"/>
<path d="M212 187L206 210L186.5 235" stroke="#322A1F"/>
<path fill-rule="evenodd" clip-rule="evenodd" d="M184.538 227.677L184.121 217.948L200.222 204.7L210.677 176.501L213.29 176.544L203.358 208.877L184.538 227.677Z" fill="#483B21"/>
<path fill-rule="evenodd" clip-rule="evenodd" d="M151.081 174.412L130.17 167.102L129.657 165.156L151.081 170.235L171.791 168.589L170.947 173.368L151.081 174.412Z" fill="#342C21"/>
<path fill-rule="evenodd" clip-rule="evenodd" d="M129.447 168.145L137.599 169.281L151.058 121.939L146.319 130.082L129.447 168.145Z" fill="#46CCAC"/>
<path fill-rule="evenodd" clip-rule="evenodd" d="M129.447 168.145L137.599 169.281L106.319 182.916L129.447 168.145Z" fill="#0D6F4B"/>
<path fill-rule="evenodd" clip-rule="evenodd" d="M145.874 131.084L129.446 168.145L101.2 148.829L145.874 131.084Z" fill="#0D7B53"/>
<path fill-rule="evenodd" clip-rule="evenodd" d="M145.875 131.084L151.058 121.939L128.025 97.5117L145.875 131.084Z" fill="#46CCAC"/>
<path fill-rule="evenodd" clip-rule="evenodd" d="M145.874 131.084L128.025 97.5117L117.599 128.283L145.874 131.084Z" fill="#41AD7D"/>
<path fill-rule="evenodd" clip-rule="evenodd" d="M117.599 128.283L128.025 97.5116L105.277 111.809L117.599 128.283Z" fill="#73C52C"/>
<path fill-rule="evenodd" clip-rule="evenodd" d="M117.599 128.283L105.276 111.809L79.1155 119.762L117.599 128.283Z" fill="#3EB07D"/>
<path fill-rule="evenodd" clip-rule="evenodd" d="M117.599 128.283L145.874 131.084L101.2 148.829L117.599 128.283Z" fill="#27936B"/>
<path fill-rule="evenodd" clip-rule="evenodd" d="M117.599 128.283L101.2 148.829L79.1155 119.762L117.599 128.283Z" fill="#1D805B"/>
<path fill-rule="evenodd" clip-rule="evenodd" d="M101.2 148.829L79.1158 119.762L59.7791 166.157L101.2 148.829Z" fill="#3EB07D"/>
<path fill-rule="evenodd" clip-rule="evenodd" d="M101.2 148.829L59.7791 166.157L88.4045 177.329L101.2 148.829Z" fill="#179969"/>
<path fill-rule="evenodd" clip-rule="evenodd" d="M101.2 148.829L88.4043 177.329L106.319 182.916L101.2 148.829Z" fill="#179164"/>
<path fill-rule="evenodd" clip-rule="evenodd" d="M101.2 148.829L106.318 182.916L129.446 168.145L101.2 148.829Z" fill="#179164"/>
<path fill-rule="evenodd" clip-rule="evenodd" d="M105.277 111.809L128.025 97.5116L100.253 107.169L105.277 111.809Z" fill="#379A6E"/>
<path fill-rule="evenodd" clip-rule="evenodd" d="M105.277 111.809L100.252 107.169L75.2288 116.543L105.277 111.809Z" fill="#179164"/>
<path fill-rule="evenodd" clip-rule="evenodd" d="M105.277 111.809L75.2288 116.543L79.1155 119.762L105.277 111.809Z" fill="#1ED491"/>
<path fill-rule="evenodd" clip-rule="evenodd" d="M79.1158 119.762L75.229 116.543L59.7791 166.157L79.1158 119.762Z" fill="#37FBB3"/>
<path fill-rule="evenodd" clip-rule="evenodd" d="M88.4045 177.329L59.7791 166.157L82.0537 180.643L88.4045 177.329Z" fill="#05F29B"/>
<path fill-rule="evenodd" clip-rule="evenodd" d="M88.4042 177.329L82.0535 180.643L106.319 182.916L88.4042 177.329Z" fill="#3EB07D"/>
<path fill-rule="evenodd" clip-rule="evenodd" d="M257.063 171.775L255.694 180.639L201.952 179.838L211.956 177.445L257.063 171.775Z" fill="#46CCAC"/>
<path fill-rule="evenodd" clip-rule="evenodd" d="M257.062 171.775L255.694 180.639L279.767 152.268L257.062 171.775Z" fill="#27936B"/>
<path fill-rule="evenodd" clip-rule="evenodd" d="M213.144 177.296L257.062 171.775L245.719 136.234L213.144 177.296Z" fill="#27936B"/>
<path fill-rule="evenodd" clip-rule="evenodd" d="M213.144 177.296L201.952 179.838L183.625 148.135L213.144 177.296Z" fill="#46CCAC"/>
<path fill-rule="evenodd" clip-rule="evenodd" d="M213.144 177.296L183.625 148.135L219.083 146.905L213.144 177.296Z" fill="#41AD7D"/>
<path fill-rule="evenodd" clip-rule="evenodd" d="M219.083 146.905L183.625 148.135L205.715 128.877L219.083 146.905Z" fill="#0D6E4A"/>
<path fill-rule="evenodd" clip-rule="evenodd" d="M219.083 146.905L205.715 128.877L222.241 104.066L219.083 146.905Z" fill="#0D7B53"/>
<path fill-rule="evenodd" clip-rule="evenodd" d="M219.083 146.905L213.144 177.296L245.719 136.234L219.083 146.905Z" fill="#71DEB6"/>
<path fill-rule="evenodd" clip-rule="evenodd" d="M219.083 146.905L245.718 136.234L222.241 104.066L219.083 146.905Z" fill="#208D65"/>
<path fill-rule="evenodd" clip-rule="evenodd" d="M245.719 136.234L222.241 104.066L276.836 98.4368L245.719 136.234Z" fill="#379A6E"/>
<path fill-rule="evenodd" clip-rule="evenodd" d="M245.718 136.234L276.835 98.4368L279.543 131.819L245.718 136.234Z" fill="#05F29B"/>
<path fill-rule="evenodd" clip-rule="evenodd" d="M245.718 136.234L279.543 131.819L279.767 152.268L245.718 136.234Z" fill="#26B380"/>
<path fill-rule="evenodd" clip-rule="evenodd" d="M245.718 136.234L279.767 152.268L257.062 171.775L245.718 136.234Z" fill="#179164"/>
<path fill-rule="evenodd" clip-rule="evenodd" d="M205.715 128.877L183.625 148.135L202.438 122.178L205.715 128.877Z" fill="#379A6E"/>
<path fill-rule="evenodd" clip-rule="evenodd" d="M205.715 128.877L202.438 122.178L220.092 98.9998L205.715 128.877Z" fill="#179164"/>
<path fill-rule="evenodd" clip-rule="evenodd" d="M205.715 128.877L220.092 98.9998L222.241 104.066L205.715 128.877Z" fill="#1ED491"/>
<path fill-rule="evenodd" clip-rule="evenodd" d="M222.24 104.066L220.092 98.9997L276.835 98.4367L222.24 104.066Z" fill="#37FBB3"/>
<path fill-rule="evenodd" clip-rule="evenodd" d="M279.543 131.819L276.835 98.4367L285.002 126.229L279.543 131.819Z" fill="#0D7B53"/>
<path fill-rule="evenodd" clip-rule="evenodd" d="M279.543 131.819L285.002 126.229L279.768 152.268L279.543 131.819Z" fill="#13BC7E"/>
<path fill-rule="evenodd" clip-rule="evenodd" d="M193.948 143.08L141.671 154.569L190.811 161.88L193.948 143.08Z" fill="#379A6E"/>
<path fill-rule="evenodd" clip-rule="evenodd" d="M233.679 103.393L214.859 145.169L243.088 107.571L233.679 103.393Z" fill="#0D6F4B"/>
<path fill-rule="evenodd" clip-rule="evenodd" d="M241.223 72.6797L243.088 107.571L254.589 85.6384L241.223 72.6797Z" fill="#179164"/>
<path fill-rule="evenodd" clip-rule="evenodd" d="M241.223 72.6797L243.088 107.571L233.679 103.393L241.223 72.6797Z" fill="#3C9876"/>
<path fill-rule="evenodd" clip-rule="evenodd" d="M219.042 51.1735L254.59 85.6384L219.042 26.1079V51.1735Z" fill="#179969"/>
<path fill-rule="evenodd" clip-rule="evenodd" d="M233.679 103.393L241.224 72.6798L209.631 63.7064L233.679 103.393Z" fill="#26B380"/>
<path fill-rule="evenodd" clip-rule="evenodd" d="M210.243 63.8894L241.224 72.6797L219.042 51.1735L210.243 63.8894Z" fill="#179164"/>
<path fill-rule="evenodd" clip-rule="evenodd" d="M219.042 51.1736V26.108L210.243 63.8895L219.042 51.1736Z" fill="#05F29B"/>
<path fill-rule="evenodd" clip-rule="evenodd" d="M211.723 25.0625L219.042 26.108L214.859 13.5757L211.723 25.0625Z" fill="#379A6E"/>
<path fill-rule="evenodd" clip-rule="evenodd" d="M211.723 25.0625L214.859 13.5757L201.267 -3.24249e-05L211.723 25.0625Z" fill="#05F29B"/>
<path fill-rule="evenodd" clip-rule="evenodd" d="M219.042 26.108L211.723 25.0625L210.243 63.8895L219.042 26.108Z" fill="#18A873"/>
<path fill-rule="evenodd" clip-rule="evenodd" d="M211.723 25.0626L201.267 2.28882e-05L163.627 39.6853L211.723 25.0626Z" fill="#37FBB3"/>
<path fill-rule="evenodd" clip-rule="evenodd" d="M163.627 39.6853L201.267 2.28882e-05L175.128 4.17793L163.627 39.6853Z" fill="#69FDC7"/>
<path fill-rule="evenodd" clip-rule="evenodd" d="M163.627 39.6853L175.128 4.17794L147.944 28.197L163.627 39.6853Z" fill="#29976F"/>
<path fill-rule="evenodd" clip-rule="evenodd" d="M163.627 39.6852L147.944 28.1969L117.624 46.9956L163.627 39.6852Z" fill="#208D65"/>
<path fill-rule="evenodd" clip-rule="evenodd" d="M147.944 28.1969L175.128 4.17783L151.081 16.7066L147.944 28.1969Z" fill="#26E39E"/>
<path fill-rule="evenodd" clip-rule="evenodd" d="M147.944 28.1969L151.081 16.7066L119.715 20.8845L147.944 28.1969Z" fill="#16E89B"/>
<path fill-rule="evenodd" clip-rule="evenodd" d="M147.944 28.1969L119.715 20.8845L117.624 46.9956L147.944 28.1969Z" fill="#52F1B7"/>
<path fill-rule="evenodd" clip-rule="evenodd" d="M117.624 46.9956L119.715 20.8845L108.213 29.2409L117.624 46.9956Z" fill="#10D98F"/>
<path fill-rule="evenodd" clip-rule="evenodd" d="M108.213 29.2409L110.305 73.1062L117.624 46.9957L108.213 29.2409Z" fill="#2AEDA5"/>
<path fill-rule="evenodd" clip-rule="evenodd" d="M117.624 46.9957L110.305 73.1062L120.76 91.9054L117.624 46.9957Z" fill="#15C383"/>
<path fill-rule="evenodd" clip-rule="evenodd" d="M120.76 91.9054L110.305 73.1062L104.031 87.7275L120.76 91.9054Z" fill="#69FDC7"/>
<path fill-rule="evenodd" clip-rule="evenodd" d="M120.76 91.9054L104.031 87.7275L106.123 123.237L120.76 91.9054Z" fill="#37FBB3"/>
<path fill-rule="evenodd" clip-rule="evenodd" d="M141.671 125.326L106.123 123.237L108.214 135.77L141.671 125.326Z" fill="#179164"/>
<path fill-rule="evenodd" clip-rule="evenodd" d="M141.671 125.326L108.213 135.77L125.988 148.302L141.671 125.326Z" fill="#08BB79"/>
<path fill-rule="evenodd" clip-rule="evenodd" d="M141.671 125.326L125.988 148.302L141.671 154.569V125.326Z" fill="#3CB086"/>
<path fill-rule="evenodd" clip-rule="evenodd" d="M106.123 123.237L120.76 91.9054L141.671 125.326L106.123 123.237Z" fill="#64EEBC"/>
<path fill-rule="evenodd" clip-rule="evenodd" d="M141.671 154.569V125.326L193.948 143.08L141.671 154.569Z" fill="#179164"/>
<path fill-rule="evenodd" clip-rule="evenodd" d="M214.859 145.169L193.263 143.231L233.679 103.393L214.859 145.169Z" fill="#179164"/>
<path fill-rule="evenodd" clip-rule="evenodd" d="M193.948 143.08L233.679 103.393L169.148 134.657L193.948 143.08Z" fill="#179969"/>
<path fill-rule="evenodd" clip-rule="evenodd" d="M169.148 134.657L233.679 103.393L210.242 63.8895L169.148 134.657Z" fill="#3EB07D"/>
<path fill-rule="evenodd" clip-rule="evenodd" d="M169.148 134.657L210.242 63.8895L141.671 125.326L169.148 134.657Z" fill="#379A6E"/>
<path fill-rule="evenodd" clip-rule="evenodd" d="M180.096 90.8989L141.671 125.326L142.717 87.7275L180.096 90.8989Z" fill="#0D7B53"/>
<path fill-rule="evenodd" clip-rule="evenodd" d="M180.097 90.8989L142.717 87.7275L169.901 62.6619L180.097 90.8989Z" fill="#71DEB6"/>
<path fill-rule="evenodd" clip-rule="evenodd" d="M180.097 90.8989L169.901 62.6619L210.243 63.8895L180.097 90.8989Z" fill="#208D65"/>
<path fill-rule="evenodd" clip-rule="evenodd" d="M210.243 63.8895L211.723 25.0625L169.901 62.6619L210.243 63.8895Z" fill="#13BC7E"/>
<path fill-rule="evenodd" clip-rule="evenodd" d="M169.901 62.6618L211.723 25.0625L163.627 39.6852L169.901 62.6618Z" fill="#30EEA8"/>
<path fill-rule="evenodd" clip-rule="evenodd" d="M169.9 62.6618L163.627 39.6852L117.624 46.9956L169.9 62.6618Z" fill="#3EB07D"/>
<path fill-rule="evenodd" clip-rule="evenodd" d="M169.901 62.6618L142.717 87.7274L119.007 66.7988L169.901 62.6618Z" fill="#05F29B"/>
<path fill-rule="evenodd" clip-rule="evenodd" d="M119.007 66.7988L169.9 62.6619L117.624 46.9957L119.007 66.7988Z" fill="#1CE098"/>
<path fill-rule="evenodd" clip-rule="evenodd" d="M120.76 91.9054L119.007 66.7989L142.717 87.7275L120.76 91.9054Z" fill="#52B78A"/>
<path fill-rule="evenodd" clip-rule="evenodd" d="M142.716 87.7275L120.76 91.9054L141.671 125.326L142.716 87.7275Z" fill="#27936B"/>
<path fill-rule="evenodd" clip-rule="evenodd" d="M193.606 143.156L214.859 145.169L190.812 161.88L193.606 143.156Z" fill="#157B56"/>
<path fill-rule="evenodd" clip-rule="evenodd" d="M179.829 376.144L160.812 405.178L174.982 405.84L179.829 376.144Z" fill="#574C45"/>
<path fill-rule="evenodd" clip-rule="evenodd" d="M220.188 387.817L178.036 432.78L212.843 423.459L220.357 387.718L220.188 387.817Z" fill="#2C2421"/>
</g>
<defs>
<filter id="filter0_d_1117_389" x="0" y="-6.10352e-05" width="341" height="463" filterUnits="userSpaceOnUse" color-interpolation-filters="sRGB">
<feFlood flood-opacity="0" result="BackgroundImageFix"/>
<feColorMatrix in="SourceAlpha" type="matrix" values="0 0 0 0 0 0 0 0 0 0 0 0 0 0 0 0 0 0 127 0" result="hardAlpha"/>
<feOffset dy="4"/>
<feGaussianBlur stdDeviation="2"/>
<feComposite in2="hardAlpha" operator="out"/>
<feColorMatrix type="matrix" values="0 0 0 0 0 0 0 0 0 0 0 0 0 0 0 0 0 0 0.25 0"/>
<feBlend mode="normal" in2="BackgroundImageFix" result="effect1_dropShadow_1117_389"/>
<feBlend mode="normal" in="SourceGraphic" in2="effect1_dropShadow_1117_389" result="shape"/>
</filter>
</defs>
</svg>
