<svg width="24" height="24" viewBox="0 0 24 24" fill="none" xmlns="http://www.w3.org/2000/svg">
<g clip-path="url(#clip0_1128_70)">
<path d="M9.375 0.75C8.32162 0.75 7.41562 1.37212 6.9975 2.26762C6.91537 2.25975 6.834 2.25 6.75 2.25C5.30025 2.25 4.125 3.42525 4.125 4.875V5.03325C3.53737 5.2905 3.11437 5.84063 3.0255 6.49838L3 6.48375C1.9155 6.80663 1.125 7.81087 1.125 9C1.125 9.50513 1.27012 9.97538 1.51762 10.3759C1.04175 10.9069 0.75 11.6059 0.75 12.375C0.75 13.254 1.1295 14.0434 1.73212 14.592C1.58287 14.9486 1.5 15.3394 1.5 15.75C1.5 17.28 2.64525 18.5422 4.125 18.7267V18.726V18.75H4.26675C4.5345 19.5079 5.18812 20.0824 5.99962 20.2189L6.00525 20.1499C6.00412 20.1836 6 20.2162 6 20.25C6 21.9068 7.34325 23.25 9 23.25C10.6568 23.25 12 21.9068 12 20.25V3.375C12 1.92525 10.8247 0.75 9.375 0.75ZM4.125 14.2331V14.25C4.12125 14.2601 4.122 14.2519 4.125 14.2331Z" fill="#05F29B"/>
<path d="M14.625 10.5H13.125V9.75H14.625C14.8316 9.75 15 9.58162 15 9.375V6.75H15.75V9.375C15.75 9.99525 15.2453 10.5 14.625 10.5Z" fill="#179164"/>
<path d="M15.375 6C14.7547 6 14.25 5.49525 14.25 4.875C14.25 4.25475 14.7547 3.75 15.375 3.75C15.9953 3.75 16.5 4.25475 16.5 4.875C16.5 5.49525 15.9953 6 15.375 6ZM15.375 4.5C15.1684 4.5 15 4.66838 15 4.875C15 5.08162 15.1684 5.25 15.375 5.25C15.5816 5.25 15.75 5.08162 15.75 4.875C15.75 4.66838 15.5816 4.5 15.375 4.5Z" fill="#179164"/>
<path d="M15.75 17.25H15V14.625C15 14.4184 14.8316 14.25 14.625 14.25H13.125V13.5H14.625C15.2453 13.5 15.75 14.0047 15.75 14.625V17.25Z" fill="#179164"/>
<path d="M15.375 20.25C14.7547 20.25 14.25 19.7453 14.25 19.125C14.25 18.5047 14.7547 18 15.375 18C15.9953 18 16.5 18.5047 16.5 19.125C16.5 19.7453 15.9953 20.25 15.375 20.25ZM15.375 18.75C15.1684 18.75 15 18.9184 15 19.125C15 19.3316 15.1684 19.5 15.375 19.5C15.5816 19.5 15.75 19.3316 15.75 19.125C15.75 18.9184 15.5816 18.75 15.375 18.75Z" fill="#179164"/>
<path d="M16.875 12.375H13.125V11.625H16.875C17.4953 11.625 18 11.1203 18 10.5V9.375H18.75V10.5C18.75 11.5339 17.9089 12.375 16.875 12.375Z" fill="#179164"/>
<path d="M18.375 8.625C17.7547 8.625 17.25 8.12025 17.25 7.5C17.25 6.87975 17.7547 6.375 18.375 6.375C18.9953 6.375 19.5 6.87975 19.5 7.5C19.5 8.12025 18.9953 8.625 18.375 8.625ZM18.375 7.125C18.1684 7.125 18 7.29338 18 7.5C18 7.70662 18.1684 7.875 18.375 7.875C18.5816 7.875 18.75 7.70662 18.75 7.5C18.75 7.29338 18.5816 7.125 18.375 7.125Z" fill="#179164"/>
<path d="M18.75 13.5H18V17.25H18.75V13.5Z" fill="#179164"/>
<path d="M20.625 8.25H19.875V14.25H20.625V8.25Z" fill="#179164"/>
<path d="M20.625 15H19.875V15.75H20.625V15Z" fill="#179164"/>
<path d="M13.7933 0.512625C13.2495 0.429 12.6983 0.585375 12.2805 0.943125C12.0671 1.12575 11.9014 1.3515 11.7896 1.60162C11.2425 0.8595 10.3654 0.375 9.375 0.375C8.2665 0.375 7.299 0.980625 6.77963 1.87725C6.76988 1.87688 6.75975 1.875 6.75 1.875C5.12025 1.875 3.79275 3.18187 3.75375 4.80225C3.23363 5.103 2.84588 5.60475 2.6955 6.20138C1.54275 6.63788 0.75 7.75425 0.75 9C0.75 9.46313 0.85875 9.9195 1.06575 10.3346C0.618375 10.9211 0.375 11.6359 0.375 12.375C0.375 13.2397 0.709125 14.0666 1.29787 14.6906C1.18725 15.024 1.125 15.3799 1.125 15.75C1.125 17.4165 2.3475 18.8303 3.98288 19.0823C4.29225 19.7696 4.88925 20.3014 5.6385 20.5181C5.77613 22.254 7.22962 23.625 9 23.625C10.119 23.625 11.1097 23.0753 11.724 22.2341C11.8309 22.5499 12.021 22.8349 12.2801 23.0569C12.624 23.3513 13.0579 23.5099 13.5037 23.5099C13.5997 23.5099 13.6965 23.5024 13.7929 23.4874C19.4902 22.6054 23.625 17.7739 23.625 12C23.625 6.22612 19.4903 1.39462 13.7933 0.512625ZM9 22.875C7.5525 22.875 6.375 21.6975 6.375 20.25C6.375 18.8025 7.5525 17.625 9 17.625V16.875C7.3155 16.875 5.919 18.1174 5.66887 19.7329C4.97437 19.452 4.5 18.7793 4.5 18C4.5 16.9661 5.34113 16.125 6.375 16.125V15.375C4.9275 15.375 3.75 16.5525 3.75 18C3.75 18.0907 3.75562 18.18 3.76462 18.2685C2.66362 17.9479 1.875 16.9305 1.875 15.75C1.875 14.3025 3.0525 13.125 4.5 13.125V12.375C3.3015 12.375 2.24962 13.005 1.65075 13.9489C1.31287 13.4981 1.125 12.9469 1.125 12.375C1.125 11.7307 1.3635 11.1098 1.797 10.626L1.98412 10.4171L1.83675 10.1786C1.61662 9.82237 1.5 9.41475 1.5 9C1.5 8.18288 1.95563 7.44075 2.64675 7.047C2.793 8.14762 3.73537 9 4.875 9V8.25C4.04775 8.25 3.375 7.57725 3.375 6.75C3.375 5.92275 4.04775 5.25 4.875 5.25C5.70225 5.25 6.375 5.92275 6.375 6.75H7.125C7.125 5.50912 6.11588 4.5 4.875 4.5C4.75725 4.5 4.6425 4.512 4.52925 4.52925C4.68225 3.54412 5.47462 2.76938 6.46875 2.6445C6.40987 2.87888 6.375 3.12263 6.375 3.375C6.375 5.02912 7.72088 6.375 9.375 6.375V5.625C8.13412 5.625 7.125 4.61588 7.125 3.375C7.125 2.13412 8.13412 1.125 9.375 1.125C10.6159 1.125 11.625 2.13412 11.625 3.375V20.25C11.625 21.6975 10.4475 22.875 9 22.875ZM13.6781 22.7464C13.3515 22.7981 13.0196 22.7025 12.7684 22.4876C12.5182 22.2731 12.375 21.9615 12.375 21.633V2.367C12.375 2.03812 12.5182 1.7265 12.7684 1.51237C12.975 1.33537 13.2364 1.24012 13.5045 1.24012C13.5623 1.24012 13.6204 1.24462 13.6785 1.25362C18.9214 2.0655 22.875 6.6855 22.875 12C22.875 17.3145 18.9214 21.9345 13.6781 22.7464Z" fill="#010326"/>
<path d="M10.125 3H9.375V3.75H10.125V3Z" fill="#010326"/>
<path d="M8.25 11.625H7.5V12.375H8.25V11.625Z" fill="#010326"/>
<path d="M10.5 19.875H9.75V20.625H10.5V19.875Z" fill="#010326"/>
<path d="M4.125 14.25H3.375V15H4.125V14.25Z" fill="#010326"/>
<path d="M10.875 9H10.125V9.75H10.875V9Z" fill="#010326"/>
<path d="M3.75 9.75H3V10.5H3.75V9.75Z" fill="#010326"/>
</g>
<defs>
<clipPath id="clip0_1128_70">
<rect width="24" height="24" fill="white"/>
</clipPath>
</defs>
</svg>
