<svg width="37" height="39" viewBox="0 0 37 39" fill="none" xmlns="http://www.w3.org/2000/svg">
<path d="M36.8794 21.056C36.3541 25.3719 34.9963 29.417 31.9534 32.8822C29.8056 35.3311 27.1546 37.1253 23.6854 37.7739C23.0428 37.8972 22.3821 37.9356 21.679 38.0184C22.1709 37.2535 22.6195 36.4615 23.0226 35.6463C23.1445 35.4185 23.2446 35.1797 23.3217 34.9331C24.6168 31.0557 24.2168 26.7054 22.8893 22.8099C23.2449 22.7775 23.5985 22.7149 23.95 22.6482C25.6291 22.3269 28.1669 21.545 29.452 20.2963C30.4496 19.369 31.1059 18.1326 31.3149 16.7866C31.3354 16.7271 31.3322 16.6619 31.3058 16.6047C31.2795 16.5475 31.2321 16.5026 31.1735 16.4795C30.0354 15.8573 28.7608 15.5268 27.4638 15.5178C26.009 15.4996 23.6732 16.0997 22.3781 16.7462C21.8366 17.015 21.3032 17.312 20.7616 17.5747L19.8706 15.5541C18.5896 12.9901 18.333 10.1714 18.8442 7.35076C19.1573 4.67759 20.3394 2.09737 22.4811 0.224333C22.6962 0.0616964 22.9643 -0.0146925 23.2328 0.0101568C25.9544 0.375873 28.2336 1.54778 30.1975 3.23089C33.491 6.05964 35.3519 9.59153 36.2915 13.5356C36.8774 16.0047 37.1866 18.5142 36.8794 21.056Z" fill="#05F29B"/>
<path d="M15.3162 0C14.7848 1.21232 14.2272 2.29735 13.815 3.43491C12.4309 7.60731 12.4309 11.7191 13.7342 15.9622C14.5666 18.2171 15.6476 20.4074 16.6255 22.6098C17.8096 25.291 18.4986 28.041 18.1571 30.9505C17.8459 33.6237 16.6619 35.921 14.5201 37.8001C14.3053 37.9616 14.0381 38.0372 13.7705 38.0123C11.0489 37.6466 8.76971 36.4767 6.80575 34.7916C3.51026 31.9628 1.65137 28.433 0.711821 24.4868C0.121825 22.0117 -0.187313 19.5022 0.121828 16.9624C0.647167 12.6445 2.00294 8.60141 5.04788 5.13417C7.19773 2.6873 9.84666 0.891058 13.3139 0.242467C13.9524 0.123255 14.6151 0.0848624 15.3162 0Z" fill="#010326"/>
</svg>
