<svg width="233" height="53" viewBox="0 0 233 53" fill="none" xmlns="http://www.w3.org/2000/svg">
<g id="phrase" clip-path="url(#clip0_1119_611)">
<g id="blue-letter">
<mask id="path-1-inside-1_1119_611" fill="white">
<path d="M11.2479 19L7.81586 14.08C7.67186 14.096 7.45586 14.104 7.16786 14.104H3.37586V19H0.255859V2.20005H7.16786C8.62386 2.20005 9.88786 2.44005 10.9599 2.92005C12.0479 3.40005 12.8799 4.08805 13.4559 4.98405C14.0319 5.88005 14.3199 6.94405 14.3199 8.17605C14.3199 9.44005 14.0079 10.528 13.3839 11.44C12.7759 12.352 11.8959 13.032 10.7439 13.48L14.6079 19H11.2479ZM11.1759 8.17605C11.1759 7.10405 10.8239 6.28005 10.1199 5.70405C9.41586 5.12805 8.38386 4.84005 7.02386 4.84005H3.37586V11.536H7.02386C8.38386 11.536 9.41586 11.248 10.1199 10.672C10.8239 10.08 11.1759 9.24805 11.1759 8.17605ZM23.2826 19.168C21.9866 19.168 20.8186 18.888 19.7786 18.328C18.7386 17.768 17.9226 16.992 17.3306 16C16.7546 14.992 16.4666 13.856 16.4666 12.592C16.4666 11.328 16.7546 10.2 17.3306 9.20805C17.9226 8.21605 18.7386 7.44005 19.7786 6.88005C20.8186 6.32005 21.9866 6.04005 23.2826 6.04005C24.5946 6.04005 25.7706 6.32005 26.8106 6.88005C27.8506 7.44005 28.6586 8.21605 29.2346 9.20805C29.8266 10.2 30.1226 11.328 30.1226 12.592C30.1226 13.856 29.8266 14.992 29.2346 16C28.6586 16.992 27.8506 17.768 26.8106 18.328C25.7706 18.888 24.5946 19.168 23.2826 19.168ZM23.2826 16.6C24.3866 16.6 25.2986 16.232 26.0186 15.496C26.7386 14.76 27.0986 13.792 27.0986 12.592C27.0986 11.392 26.7386 10.424 26.0186 9.68805C25.2986 8.95205 24.3866 8.58405 23.2826 8.58405C22.1786 8.58405 21.2666 8.95205 20.5466 9.68805C19.8426 10.424 19.4906 11.392 19.4906 12.592C19.4906 13.792 19.8426 14.76 20.5466 15.496C21.2666 16.232 22.1786 16.6 23.2826 16.6ZM38.7513 19.168C37.4553 19.168 36.2873 18.888 35.2473 18.328C34.2073 17.768 33.3913 16.992 32.7993 16C32.2233 14.992 31.9353 13.856 31.9353 12.592C31.9353 11.328 32.2233 10.2 32.7993 9.20805C33.3913 8.21605 34.2073 7.44005 35.2473 6.88005C36.2873 6.32005 37.4553 6.04005 38.7513 6.04005C40.0633 6.04005 41.2393 6.32005 42.2793 6.88005C43.3193 7.44005 44.1273 8.21605 44.7033 9.20805C45.2953 10.2 45.5913 11.328 45.5913 12.592C45.5913 13.856 45.2953 14.992 44.7033 16C44.1273 16.992 43.3193 17.768 42.2793 18.328C41.2393 18.888 40.0633 19.168 38.7513 19.168ZM38.7513 16.6C39.8553 16.6 40.7673 16.232 41.4873 15.496C42.2073 14.76 42.5673 13.792 42.5673 12.592C42.5673 11.392 42.2073 10.424 41.4873 9.68805C40.7673 8.95205 39.8553 8.58405 38.7513 8.58405C37.6473 8.58405 36.7353 8.95205 36.0153 9.68805C35.3113 10.424 34.9593 11.392 34.9593 12.592C34.9593 13.792 35.3113 14.76 36.0153 15.496C36.7353 16.232 37.6473 16.6 38.7513 16.6ZM56.1641 18.304C55.8121 18.592 55.3801 18.808 54.8681 18.952C54.3721 19.096 53.8441 19.168 53.2841 19.168C51.8761 19.168 50.7881 18.8 50.0201 18.064C49.2521 17.328 48.8681 16.256 48.8681 14.848V8.68005H46.7561V6.28005H48.8681V3.35205H51.8681V6.28005H55.3001V8.68005H51.8681V14.776C51.8681 15.4 52.0201 15.88 52.3241 16.216C52.6281 16.536 53.0681 16.696 53.6441 16.696C54.3161 16.696 54.8761 16.52 55.3241 16.168L56.1641 18.304ZM58.632 6.18405H61.632V19H58.632V6.18405ZM60.144 4.07205C59.6 4.07205 59.144 3.90405 58.776 3.56805C58.408 3.21605 58.224 2.78405 58.224 2.27205C58.224 1.76005 58.408 1.33605 58.776 1.00004C59.144 0.648045 59.6 0.472046 60.144 0.472046C60.688 0.472046 61.144 0.640045 61.512 0.976045C61.88 1.29605 62.064 1.70405 62.064 2.20005C62.064 2.72805 61.88 3.17605 61.512 3.54405C61.16 3.89605 60.704 4.07205 60.144 4.07205ZM72.8415 6.04005C74.4575 6.04005 75.7535 6.51205 76.7295 7.45605C77.7055 8.40005 78.1935 9.80005 78.1935 11.656V19H75.1935V12.04C75.1935 10.92 74.9295 10.08 74.4015 9.52005C73.8735 8.94405 73.1215 8.65605 72.1455 8.65605C71.0415 8.65605 70.1695 8.99205 69.5295 9.66405C68.8895 10.32 68.5695 11.272 68.5695 12.52V19H65.5695V6.18405H68.4255V7.84005C68.9215 7.24805 69.5455 6.80005 70.2975 6.49605C71.0495 6.19205 71.8975 6.04005 72.8415 6.04005ZM94.8363 6.18405V17.056C94.8363 21.568 92.5323 23.824 87.9243 23.824C86.6923 23.824 85.5243 23.664 84.4203 23.344C83.3163 23.04 82.4043 22.592 81.6843 22L83.0283 19.744C83.5883 20.208 84.2923 20.576 85.1403 20.848C86.0043 21.136 86.8763 21.28 87.7563 21.28C89.1643 21.28 90.1963 20.96 90.8523 20.32C91.5083 19.68 91.8363 18.704 91.8363 17.392V16.72C91.3243 17.28 90.7003 17.704 89.9643 17.992C89.2283 18.28 88.4203 18.424 87.5403 18.424C86.3243 18.424 85.2203 18.168 84.2283 17.656C83.2523 17.128 82.4763 16.392 81.9003 15.448C81.3403 14.504 81.0603 13.424 81.0603 12.208C81.0603 10.992 81.3403 9.92005 81.9003 8.99205C82.4763 8.04805 83.2523 7.32005 84.2283 6.80805C85.2203 6.29605 86.3243 6.04005 87.5403 6.04005C88.4683 6.04005 89.3083 6.19205 90.0603 6.49605C90.8283 6.80005 91.4683 7.26405 91.9803 7.88805V6.18405H94.8363ZM87.9963 15.88C89.1323 15.88 90.0603 15.544 90.7803 14.872C91.5163 14.184 91.8843 13.296 91.8843 12.208C91.8843 11.136 91.5163 10.264 90.7803 9.59205C90.0603 8.92005 89.1323 8.58405 87.9963 8.58405C86.8443 8.58405 85.9003 8.92005 85.1643 9.59205C84.4443 10.264 84.0843 11.136 84.0843 12.208C84.0843 13.296 84.4443 14.184 85.1643 14.872C85.9003 15.544 86.8443 15.88 87.9963 15.88ZM151.049 6.04005C152.297 6.04005 153.409 6.31205 154.385 6.85605C155.377 7.40005 156.153 8.16805 156.713 9.16005C157.273 10.152 157.553 11.296 157.553 12.592C157.553 13.888 157.273 15.04 156.713 16.048C156.153 17.04 155.377 17.808 154.385 18.352C153.409 18.896 152.297 19.168 151.049 19.168C149.321 19.168 147.953 18.592 146.945 17.44V23.656H143.945V6.18405H146.801V7.86405C147.297 7.25605 147.905 6.80005 148.625 6.49605C149.361 6.19205 150.169 6.04005 151.049 6.04005ZM150.713 16.6C151.817 16.6 152.721 16.232 153.425 15.496C154.145 14.76 154.505 13.792 154.505 12.592C154.505 11.392 154.145 10.424 153.425 9.68805C152.721 8.95205 151.817 8.58405 150.713 8.58405C149.993 8.58405 149.345 8.75205 148.769 9.08805C148.193 9.40805 147.737 9.87205 147.401 10.48C147.065 11.088 146.897 11.792 146.897 12.592C146.897 13.392 147.065 14.096 147.401 14.704C147.737 15.312 148.193 15.784 148.769 16.12C149.345 16.44 149.993 16.6 150.713 16.6ZM172.446 12.664C172.446 12.872 172.43 13.168 172.398 13.552H162.342C162.518 14.496 162.974 15.248 163.71 15.808C164.462 16.352 165.39 16.624 166.494 16.624C167.902 16.624 169.062 16.16 169.974 15.232L171.582 17.08C171.006 17.768 170.278 18.288 169.398 18.64C168.518 18.992 167.526 19.168 166.422 19.168C165.014 19.168 163.774 18.888 162.702 18.328C161.63 17.768 160.798 16.992 160.206 16C159.63 14.992 159.342 13.856 159.342 12.592C159.342 11.344 159.622 10.224 160.182 9.23205C160.758 8.22405 161.55 7.44005 162.558 6.88005C163.566 6.32005 164.702 6.04005 165.966 6.04005C167.214 6.04005 168.326 6.32005 169.302 6.88005C170.294 7.42405 171.062 8.20005 171.606 9.20805C172.166 10.2 172.446 11.352 172.446 12.664ZM165.966 8.44005C165.006 8.44005 164.19 8.72805 163.518 9.30405C162.862 9.86405 162.462 10.616 162.318 11.56H169.59C169.462 10.632 169.07 9.88005 168.414 9.30405C167.758 8.72805 166.942 8.44005 165.966 8.44005ZM181.087 19.168C179.791 19.168 178.623 18.888 177.583 18.328C176.543 17.768 175.727 16.992 175.135 16C174.559 14.992 174.271 13.856 174.271 12.592C174.271 11.328 174.559 10.2 175.135 9.20805C175.727 8.21605 176.543 7.44005 177.583 6.88005C178.623 6.32005 179.791 6.04005 181.087 6.04005C182.399 6.04005 183.575 6.32005 184.615 6.88005C185.655 7.44005 186.463 8.21605 187.039 9.20805C187.631 10.2 187.927 11.328 187.927 12.592C187.927 13.856 187.631 14.992 187.039 16C186.463 16.992 185.655 17.768 184.615 18.328C183.575 18.888 182.399 19.168 181.087 19.168ZM181.087 16.6C182.191 16.6 183.103 16.232 183.823 15.496C184.543 14.76 184.903 13.792 184.903 12.592C184.903 11.392 184.543 10.424 183.823 9.68805C183.103 8.95205 182.191 8.58405 181.087 8.58405C179.983 8.58405 179.071 8.95205 178.351 9.68805C177.647 10.424 177.295 11.392 177.295 12.592C177.295 13.792 177.647 14.76 178.351 15.496C179.071 16.232 179.983 16.6 181.087 16.6ZM197.9 6.04005C199.148 6.04005 200.26 6.31205 201.236 6.85605C202.228 7.40005 203.004 8.16805 203.564 9.16005C204.124 10.152 204.404 11.296 204.404 12.592C204.404 13.888 204.124 15.04 203.564 16.048C203.004 17.04 202.228 17.808 201.236 18.352C200.26 18.896 199.148 19.168 197.9 19.168C196.172 19.168 194.804 18.592 193.796 17.44V23.656H190.796V6.18405H193.652V7.86405C194.148 7.25605 194.756 6.80005 195.476 6.49605C196.212 6.19205 197.02 6.04005 197.9 6.04005ZM197.564 16.6C198.668 16.6 199.572 16.232 200.276 15.496C200.996 14.76 201.356 13.792 201.356 12.592C201.356 11.392 200.996 10.424 200.276 9.68805C199.572 8.95205 198.668 8.58405 197.564 8.58405C196.844 8.58405 196.196 8.75205 195.62 9.08805C195.044 9.40805 194.588 9.87205 194.252 10.48C193.916 11.088 193.748 11.792 193.748 12.592C193.748 13.392 193.916 14.096 194.252 14.704C194.588 15.312 195.044 15.784 195.62 16.12C196.196 16.44 196.844 16.6 197.564 16.6ZM207.249 1.19205H210.249V19H207.249V1.19205ZM226.235 12.664C226.235 12.872 226.219 13.168 226.187 13.552H216.131C216.307 14.496 216.763 15.248 217.499 15.808C218.251 16.352 219.179 16.624 220.283 16.624C221.691 16.624 222.851 16.16 223.763 15.232L225.371 17.08C224.795 17.768 224.067 18.288 223.187 18.64C222.307 18.992 221.315 19.168 220.211 19.168C218.803 19.168 217.563 18.888 216.491 18.328C215.419 17.768 214.587 16.992 213.995 16C213.419 14.992 213.131 13.856 213.131 12.592C213.131 11.344 213.411 10.224 213.971 9.23205C214.547 8.22405 215.339 7.44005 216.347 6.88005C217.355 6.32005 218.491 6.04005 219.755 6.04005C221.003 6.04005 222.115 6.32005 223.091 6.88005C224.083 7.42405 224.851 8.20005 225.395 9.20805C225.955 10.2 226.235 11.352 226.235 12.664ZM219.755 8.44005C218.795 8.44005 217.979 8.72805 217.307 9.30405C216.651 9.86405 216.251 10.616 216.107 11.56H223.379C223.251 10.632 222.859 9.88005 222.203 9.30405C221.547 8.72805 220.731 8.44005 219.755 8.44005ZM230.076 19.168C229.532 19.168 229.068 18.984 228.684 18.616C228.3 18.232 228.108 17.752 228.108 17.176C228.108 16.584 228.292 16.104 228.66 15.736C229.044 15.368 229.516 15.184 230.076 15.184C230.636 15.184 231.1 15.368 231.468 15.736C231.852 16.104 232.044 16.584 232.044 17.176C232.044 17.752 231.852 18.232 231.468 18.616C231.084 18.984 230.62 19.168 230.076 19.168ZM11.2479 48L7.81586 43.08C7.67186 43.096 7.45586 43.104 7.16786 43.104H3.37586V48H0.255859V31.2H7.16786C8.62386 31.2 9.88786 31.44 10.9599 31.92C12.0479 32.4 12.8799 33.088 13.4559 33.984C14.0319 34.88 14.3199 35.944 14.3199 37.176C14.3199 38.44 14.0079 39.528 13.3839 40.44C12.7759 41.352 11.8959 42.032 10.7439 42.48L14.6079 48H11.2479ZM11.1759 37.176C11.1759 36.104 10.8239 35.28 10.1199 34.704C9.41586 34.128 8.38386 33.84 7.02386 33.84H3.37586V40.536H7.02386C8.38386 40.536 9.41586 40.248 10.1199 39.672C10.8239 39.08 11.1759 38.248 11.1759 37.176ZM23.2826 48.168C21.9866 48.168 20.8186 47.888 19.7786 47.328C18.7386 46.768 17.9226 45.992 17.3306 45C16.7546 43.992 16.4666 42.856 16.4666 41.592C16.4666 40.328 16.7546 39.2 17.3306 38.208C17.9226 37.216 18.7386 36.44 19.7786 35.88C20.8186 35.32 21.9866 35.04 23.2826 35.04C24.5946 35.04 25.7706 35.32 26.8106 35.88C27.8506 36.44 28.6586 37.216 29.2346 38.208C29.8266 39.2 30.1226 40.328 30.1226 41.592C30.1226 42.856 29.8266 43.992 29.2346 45C28.6586 45.992 27.8506 46.768 26.8106 47.328C25.7706 47.888 24.5946 48.168 23.2826 48.168ZM23.2826 45.6C24.3866 45.6 25.2986 45.232 26.0186 44.496C26.7386 43.76 27.0986 42.792 27.0986 41.592C27.0986 40.392 26.7386 39.424 26.0186 38.688C25.2986 37.952 24.3866 37.584 23.2826 37.584C22.1786 37.584 21.2666 37.952 20.5466 38.688C19.8426 39.424 19.4906 40.392 19.4906 41.592C19.4906 42.792 19.8426 43.76 20.5466 44.496C21.2666 45.232 22.1786 45.6 23.2826 45.6ZM38.7513 48.168C37.4553 48.168 36.2873 47.888 35.2473 47.328C34.2073 46.768 33.3913 45.992 32.7993 45C32.2233 43.992 31.9353 42.856 31.9353 41.592C31.9353 40.328 32.2233 39.2 32.7993 38.208C33.3913 37.216 34.2073 36.44 35.2473 35.88C36.2873 35.32 37.4553 35.04 38.7513 35.04C40.0633 35.04 41.2393 35.32 42.2793 35.88C43.3193 36.44 44.1273 37.216 44.7033 38.208C45.2953 39.2 45.5913 40.328 45.5913 41.592C45.5913 42.856 45.2953 43.992 44.7033 45C44.1273 45.992 43.3193 46.768 42.2793 47.328C41.2393 47.888 40.0633 48.168 38.7513 48.168ZM38.7513 45.6C39.8553 45.6 40.7673 45.232 41.4873 44.496C42.2073 43.76 42.5673 42.792 42.5673 41.592C42.5673 40.392 42.2073 39.424 41.4873 38.688C40.7673 37.952 39.8553 37.584 38.7513 37.584C37.6473 37.584 36.7353 37.952 36.0153 38.688C35.3113 39.424 34.9593 40.392 34.9593 41.592C34.9593 42.792 35.3113 43.76 36.0153 44.496C36.7353 45.232 37.6473 45.6 38.7513 45.6ZM56.1641 47.304C55.8121 47.592 55.3801 47.808 54.8681 47.952C54.3721 48.096 53.8441 48.168 53.2841 48.168C51.8761 48.168 50.7881 47.8 50.0201 47.064C49.2521 46.328 48.8681 45.256 48.8681 43.848V37.68H46.7561V35.28H48.8681V32.352H51.8681V35.28H55.3001V37.68H51.8681V43.776C51.8681 44.4 52.0201 44.88 52.3241 45.216C52.6281 45.536 53.0681 45.696 53.6441 45.696C54.3161 45.696 54.8761 45.52 55.3241 45.168L56.1641 47.304ZM58.632 35.184H61.632V48H58.632V35.184ZM60.144 33.072C59.6 33.072 59.144 32.904 58.776 32.568C58.408 32.216 58.224 31.784 58.224 31.272C58.224 30.76 58.408 30.336 58.776 30C59.144 29.648 59.6 29.472 60.144 29.472C60.688 29.472 61.144 29.64 61.512 29.976C61.88 30.296 62.064 30.704 62.064 31.2C62.064 31.728 61.88 32.176 61.512 32.544C61.16 32.896 60.704 33.072 60.144 33.072ZM72.8415 35.04C74.4575 35.04 75.7535 35.512 76.7295 36.456C77.7055 37.4 78.1935 38.8 78.1935 40.656V48H75.1935V41.04C75.1935 39.92 74.9295 39.08 74.4015 38.52C73.8735 37.944 73.1215 37.656 72.1455 37.656C71.0415 37.656 70.1695 37.992 69.5295 38.664C68.8895 39.32 68.5695 40.272 68.5695 41.52V48H65.5695V35.184H68.4255V36.84C68.9215 36.248 69.5455 35.8 70.2975 35.496C71.0495 35.192 71.8975 35.04 72.8415 35.04ZM94.8363 35.184V46.056C94.8363 50.568 92.5323 52.824 87.9243 52.824C86.6923 52.824 85.5243 52.664 84.4203 52.344C83.3163 52.04 82.4043 51.592 81.6843 51L83.0283 48.744C83.5883 49.208 84.2923 49.576 85.1403 49.848C86.0043 50.136 86.8763 50.28 87.7563 50.28C89.1643 50.28 90.1963 49.96 90.8523 49.32C91.5083 48.68 91.8363 47.704 91.8363 46.392V45.72C91.3243 46.28 90.7003 46.704 89.9643 46.992C89.2283 47.28 88.4203 47.424 87.5403 47.424C86.3243 47.424 85.2203 47.168 84.2283 46.656C83.2523 46.128 82.4763 45.392 81.9003 44.448C81.3403 43.504 81.0603 42.424 81.0603 41.208C81.0603 39.992 81.3403 38.92 81.9003 37.992C82.4763 37.048 83.2523 36.32 84.2283 35.808C85.2203 35.296 86.3243 35.04 87.5403 35.04C88.4683 35.04 89.3083 35.192 90.0603 35.496C90.8283 35.8 91.4683 36.264 91.9803 36.888V35.184H94.8363ZM87.9963 44.88C89.1323 44.88 90.0603 44.544 90.7803 43.872C91.5163 43.184 91.8843 42.296 91.8843 41.208C91.8843 40.136 91.5163 39.264 90.7803 38.592C90.0603 37.92 89.1323 37.584 87.9963 37.584C86.8443 37.584 85.9003 37.92 85.1643 38.592C84.4443 39.264 84.0843 40.136 84.0843 41.208C84.0843 42.296 84.4443 43.184 85.1643 43.872C85.9003 44.544 86.8443 44.88 87.9963 44.88ZM153.369 35.04C154.617 35.04 155.729 35.312 156.705 35.856C157.697 36.4 158.473 37.168 159.033 38.16C159.593 39.152 159.873 40.296 159.873 41.592C159.873 42.888 159.593 44.04 159.033 45.048C158.473 46.04 157.697 46.808 156.705 47.352C155.729 47.896 154.617 48.168 153.369 48.168C151.641 48.168 150.273 47.592 149.265 46.44V52.656H146.265V35.184H149.121V36.864C149.617 36.256 150.225 35.8 150.945 35.496C151.681 35.192 152.489 35.04 153.369 35.04ZM153.033 45.6C154.137 45.6 155.041 45.232 155.745 44.496C156.465 43.76 156.825 42.792 156.825 41.592C156.825 40.392 156.465 39.424 155.745 38.688C155.041 37.952 154.137 37.584 153.033 37.584C152.313 37.584 151.665 37.752 151.089 38.088C150.513 38.408 150.057 38.872 149.721 39.48C149.385 40.088 149.217 40.792 149.217 41.592C149.217 42.392 149.385 43.096 149.721 43.704C150.057 44.312 150.513 44.784 151.089 45.12C151.665 45.44 152.313 45.6 153.033 45.6ZM174.766 41.664C174.766 41.872 174.75 42.168 174.718 42.552H164.662C164.838 43.496 165.294 44.248 166.03 44.808C166.782 45.352 167.71 45.624 168.814 45.624C170.222 45.624 171.382 45.16 172.294 44.232L173.902 46.08C173.326 46.768 172.598 47.288 171.718 47.64C170.838 47.992 169.846 48.168 168.742 48.168C167.334 48.168 166.094 47.888 165.022 47.328C163.95 46.768 163.118 45.992 162.526 45C161.95 43.992 161.662 42.856 161.662 41.592C161.662 40.344 161.942 39.224 162.502 38.232C163.078 37.224 163.87 36.44 164.878 35.88C165.886 35.32 167.022 35.04 168.286 35.04C169.534 35.04 170.646 35.32 171.622 35.88C172.614 36.424 173.382 37.2 173.926 38.208C174.486 39.2 174.766 40.352 174.766 41.664ZM168.286 37.44C167.326 37.44 166.51 37.728 165.838 38.304C165.182 38.864 164.782 39.616 164.638 40.56H171.91C171.782 39.632 171.39 38.88 170.734 38.304C170.078 37.728 169.262 37.44 168.286 37.44ZM183.408 48.168C182.112 48.168 180.944 47.888 179.904 47.328C178.864 46.768 178.048 45.992 177.456 45C176.88 43.992 176.592 42.856 176.592 41.592C176.592 40.328 176.88 39.2 177.456 38.208C178.048 37.216 178.864 36.44 179.904 35.88C180.944 35.32 182.112 35.04 183.408 35.04C184.72 35.04 185.896 35.32 186.936 35.88C187.976 36.44 188.784 37.216 189.36 38.208C189.952 39.2 190.248 40.328 190.248 41.592C190.248 42.856 189.952 43.992 189.36 45C188.784 45.992 187.976 46.768 186.936 47.328C185.896 47.888 184.72 48.168 183.408 48.168ZM183.408 45.6C184.512 45.6 185.424 45.232 186.144 44.496C186.864 43.76 187.224 42.792 187.224 41.592C187.224 40.392 186.864 39.424 186.144 38.688C185.424 37.952 184.512 37.584 183.408 37.584C182.304 37.584 181.392 37.952 180.672 38.688C179.968 39.424 179.616 40.392 179.616 41.592C179.616 42.792 179.968 43.76 180.672 44.496C181.392 45.232 182.304 45.6 183.408 45.6ZM200.22 35.04C201.468 35.04 202.58 35.312 203.556 35.856C204.548 36.4 205.324 37.168 205.884 38.16C206.444 39.152 206.724 40.296 206.724 41.592C206.724 42.888 206.444 44.04 205.884 45.048C205.324 46.04 204.548 46.808 203.556 47.352C202.58 47.896 201.468 48.168 200.22 48.168C198.492 48.168 197.124 47.592 196.116 46.44V52.656H193.116V35.184H195.972V36.864C196.468 36.256 197.076 35.8 197.796 35.496C198.532 35.192 199.34 35.04 200.22 35.04ZM199.884 45.6C200.988 45.6 201.892 45.232 202.596 44.496C203.316 43.76 203.676 42.792 203.676 41.592C203.676 40.392 203.316 39.424 202.596 38.688C201.892 37.952 200.988 37.584 199.884 37.584C199.164 37.584 198.516 37.752 197.94 38.088C197.364 38.408 196.908 38.872 196.572 39.48C196.236 40.088 196.068 40.792 196.068 41.592C196.068 42.392 196.236 43.096 196.572 43.704C196.908 44.312 197.364 44.784 197.94 45.12C198.516 45.44 199.164 45.6 199.884 45.6ZM209.57 30.192H212.57V48H209.57V30.192ZM228.555 41.664C228.555 41.872 228.539 42.168 228.507 42.552H218.451C218.627 43.496 219.083 44.248 219.819 44.808C220.571 45.352 221.499 45.624 222.603 45.624C224.011 45.624 225.171 45.16 226.083 44.232L227.691 46.08C227.115 46.768 226.387 47.288 225.507 47.64C224.627 47.992 223.635 48.168 222.531 48.168C221.123 48.168 219.883 47.888 218.811 47.328C217.739 46.768 216.907 45.992 216.315 45C215.739 43.992 215.451 42.856 215.451 41.592C215.451 40.344 215.731 39.224 216.291 38.232C216.867 37.224 217.659 36.44 218.667 35.88C219.675 35.32 220.811 35.04 222.075 35.04C223.323 35.04 224.435 35.32 225.411 35.88C226.403 36.424 227.171 37.2 227.715 38.208C228.275 39.2 228.555 40.352 228.555 41.664ZM222.075 37.44C221.115 37.44 220.299 37.728 219.627 38.304C218.971 38.864 218.571 39.616 218.427 40.56H225.699C225.571 39.632 225.179 38.88 224.523 38.304C223.867 37.728 223.051 37.44 222.075 37.44Z"/>
</mask>
<path d="M11.2479 19L7.81586 14.08C7.67186 14.096 7.45586 14.104 7.16786 14.104H3.37586V19H0.255859V2.20005H7.16786C8.62386 2.20005 9.88786 2.44005 10.9599 2.92005C12.0479 3.40005 12.8799 4.08805 13.4559 4.98405C14.0319 5.88005 14.3199 6.94405 14.3199 8.17605C14.3199 9.44005 14.0079 10.528 13.3839 11.44C12.7759 12.352 11.8959 13.032 10.7439 13.48L14.6079 19H11.2479ZM11.1759 8.17605C11.1759 7.10405 10.8239 6.28005 10.1199 5.70405C9.41586 5.12805 8.38386 4.84005 7.02386 4.84005H3.37586V11.536H7.02386C8.38386 11.536 9.41586 11.248 10.1199 10.672C10.8239 10.08 11.1759 9.24805 11.1759 8.17605ZM23.2826 19.168C21.9866 19.168 20.8186 18.888 19.7786 18.328C18.7386 17.768 17.9226 16.992 17.3306 16C16.7546 14.992 16.4666 13.856 16.4666 12.592C16.4666 11.328 16.7546 10.2 17.3306 9.20805C17.9226 8.21605 18.7386 7.44005 19.7786 6.88005C20.8186 6.32005 21.9866 6.04005 23.2826 6.04005C24.5946 6.04005 25.7706 6.32005 26.8106 6.88005C27.8506 7.44005 28.6586 8.21605 29.2346 9.20805C29.8266 10.2 30.1226 11.328 30.1226 12.592C30.1226 13.856 29.8266 14.992 29.2346 16C28.6586 16.992 27.8506 17.768 26.8106 18.328C25.7706 18.888 24.5946 19.168 23.2826 19.168ZM23.2826 16.6C24.3866 16.6 25.2986 16.232 26.0186 15.496C26.7386 14.76 27.0986 13.792 27.0986 12.592C27.0986 11.392 26.7386 10.424 26.0186 9.68805C25.2986 8.95205 24.3866 8.58405 23.2826 8.58405C22.1786 8.58405 21.2666 8.95205 20.5466 9.68805C19.8426 10.424 19.4906 11.392 19.4906 12.592C19.4906 13.792 19.8426 14.76 20.5466 15.496C21.2666 16.232 22.1786 16.6 23.2826 16.6ZM38.7513 19.168C37.4553 19.168 36.2873 18.888 35.2473 18.328C34.2073 17.768 33.3913 16.992 32.7993 16C32.2233 14.992 31.9353 13.856 31.9353 12.592C31.9353 11.328 32.2233 10.2 32.7993 9.20805C33.3913 8.21605 34.2073 7.44005 35.2473 6.88005C36.2873 6.32005 37.4553 6.04005 38.7513 6.04005C40.0633 6.04005 41.2393 6.32005 42.2793 6.88005C43.3193 7.44005 44.1273 8.21605 44.7033 9.20805C45.2953 10.2 45.5913 11.328 45.5913 12.592C45.5913 13.856 45.2953 14.992 44.7033 16C44.1273 16.992 43.3193 17.768 42.2793 18.328C41.2393 18.888 40.0633 19.168 38.7513 19.168ZM38.7513 16.6C39.8553 16.6 40.7673 16.232 41.4873 15.496C42.2073 14.76 42.5673 13.792 42.5673 12.592C42.5673 11.392 42.2073 10.424 41.4873 9.68805C40.7673 8.95205 39.8553 8.58405 38.7513 8.58405C37.6473 8.58405 36.7353 8.95205 36.0153 9.68805C35.3113 10.424 34.9593 11.392 34.9593 12.592C34.9593 13.792 35.3113 14.76 36.0153 15.496C36.7353 16.232 37.6473 16.6 38.7513 16.6ZM56.1641 18.304C55.8121 18.592 55.3801 18.808 54.8681 18.952C54.3721 19.096 53.8441 19.168 53.2841 19.168C51.8761 19.168 50.7881 18.8 50.0201 18.064C49.2521 17.328 48.8681 16.256 48.8681 14.848V8.68005H46.7561V6.28005H48.8681V3.35205H51.8681V6.28005H55.3001V8.68005H51.8681V14.776C51.8681 15.4 52.0201 15.88 52.3241 16.216C52.6281 16.536 53.0681 16.696 53.6441 16.696C54.3161 16.696 54.8761 16.52 55.3241 16.168L56.1641 18.304ZM58.632 6.18405H61.632V19H58.632V6.18405ZM60.144 4.07205C59.6 4.07205 59.144 3.90405 58.776 3.56805C58.408 3.21605 58.224 2.78405 58.224 2.27205C58.224 1.76005 58.408 1.33605 58.776 1.00004C59.144 0.648045 59.6 0.472046 60.144 0.472046C60.688 0.472046 61.144 0.640045 61.512 0.976045C61.88 1.29605 62.064 1.70405 62.064 2.20005C62.064 2.72805 61.88 3.17605 61.512 3.54405C61.16 3.89605 60.704 4.07205 60.144 4.07205ZM72.8415 6.04005C74.4575 6.04005 75.7535 6.51205 76.7295 7.45605C77.7055 8.40005 78.1935 9.80005 78.1935 11.656V19H75.1935V12.04C75.1935 10.92 74.9295 10.08 74.4015 9.52005C73.8735 8.94405 73.1215 8.65605 72.1455 8.65605C71.0415 8.65605 70.1695 8.99205 69.5295 9.66405C68.8895 10.32 68.5695 11.272 68.5695 12.52V19H65.5695V6.18405H68.4255V7.84005C68.9215 7.24805 69.5455 6.80005 70.2975 6.49605C71.0495 6.19205 71.8975 6.04005 72.8415 6.04005ZM94.8363 6.18405V17.056C94.8363 21.568 92.5323 23.824 87.9243 23.824C86.6923 23.824 85.5243 23.664 84.4203 23.344C83.3163 23.04 82.4043 22.592 81.6843 22L83.0283 19.744C83.5883 20.208 84.2923 20.576 85.1403 20.848C86.0043 21.136 86.8763 21.28 87.7563 21.28C89.1643 21.28 90.1963 20.96 90.8523 20.32C91.5083 19.68 91.8363 18.704 91.8363 17.392V16.72C91.3243 17.28 90.7003 17.704 89.9643 17.992C89.2283 18.28 88.4203 18.424 87.5403 18.424C86.3243 18.424 85.2203 18.168 84.2283 17.656C83.2523 17.128 82.4763 16.392 81.9003 15.448C81.3403 14.504 81.0603 13.424 81.0603 12.208C81.0603 10.992 81.3403 9.92005 81.9003 8.99205C82.4763 8.04805 83.2523 7.32005 84.2283 6.80805C85.2203 6.29605 86.3243 6.04005 87.5403 6.04005C88.4683 6.04005 89.3083 6.19205 90.0603 6.49605C90.8283 6.80005 91.4683 7.26405 91.9803 7.88805V6.18405H94.8363ZM87.9963 15.88C89.1323 15.88 90.0603 15.544 90.7803 14.872C91.5163 14.184 91.8843 13.296 91.8843 12.208C91.8843 11.136 91.5163 10.264 90.7803 9.59205C90.0603 8.92005 89.1323 8.58405 87.9963 8.58405C86.8443 8.58405 85.9003 8.92005 85.1643 9.59205C84.4443 10.264 84.0843 11.136 84.0843 12.208C84.0843 13.296 84.4443 14.184 85.1643 14.872C85.9003 15.544 86.8443 15.88 87.9963 15.88ZM151.049 6.04005C152.297 6.04005 153.409 6.31205 154.385 6.85605C155.377 7.40005 156.153 8.16805 156.713 9.16005C157.273 10.152 157.553 11.296 157.553 12.592C157.553 13.888 157.273 15.04 156.713 16.048C156.153 17.04 155.377 17.808 154.385 18.352C153.409 18.896 152.297 19.168 151.049 19.168C149.321 19.168 147.953 18.592 146.945 17.44V23.656H143.945V6.18405H146.801V7.86405C147.297 7.25605 147.905 6.80005 148.625 6.49605C149.361 6.19205 150.169 6.04005 151.049 6.04005ZM150.713 16.6C151.817 16.6 152.721 16.232 153.425 15.496C154.145 14.76 154.505 13.792 154.505 12.592C154.505 11.392 154.145 10.424 153.425 9.68805C152.721 8.95205 151.817 8.58405 150.713 8.58405C149.993 8.58405 149.345 8.75205 148.769 9.08805C148.193 9.40805 147.737 9.87205 147.401 10.48C147.065 11.088 146.897 11.792 146.897 12.592C146.897 13.392 147.065 14.096 147.401 14.704C147.737 15.312 148.193 15.784 148.769 16.12C149.345 16.44 149.993 16.6 150.713 16.6ZM172.446 12.664C172.446 12.872 172.43 13.168 172.398 13.552H162.342C162.518 14.496 162.974 15.248 163.71 15.808C164.462 16.352 165.39 16.624 166.494 16.624C167.902 16.624 169.062 16.16 169.974 15.232L171.582 17.08C171.006 17.768 170.278 18.288 169.398 18.64C168.518 18.992 167.526 19.168 166.422 19.168C165.014 19.168 163.774 18.888 162.702 18.328C161.63 17.768 160.798 16.992 160.206 16C159.63 14.992 159.342 13.856 159.342 12.592C159.342 11.344 159.622 10.224 160.182 9.23205C160.758 8.22405 161.55 7.44005 162.558 6.88005C163.566 6.32005 164.702 6.04005 165.966 6.04005C167.214 6.04005 168.326 6.32005 169.302 6.88005C170.294 7.42405 171.062 8.20005 171.606 9.20805C172.166 10.2 172.446 11.352 172.446 12.664ZM165.966 8.44005C165.006 8.44005 164.19 8.72805 163.518 9.30405C162.862 9.86405 162.462 10.616 162.318 11.56H169.59C169.462 10.632 169.07 9.88005 168.414 9.30405C167.758 8.72805 166.942 8.44005 165.966 8.44005ZM181.087 19.168C179.791 19.168 178.623 18.888 177.583 18.328C176.543 17.768 175.727 16.992 175.135 16C174.559 14.992 174.271 13.856 174.271 12.592C174.271 11.328 174.559 10.2 175.135 9.20805C175.727 8.21605 176.543 7.44005 177.583 6.88005C178.623 6.32005 179.791 6.04005 181.087 6.04005C182.399 6.04005 183.575 6.32005 184.615 6.88005C185.655 7.44005 186.463 8.21605 187.039 9.20805C187.631 10.2 187.927 11.328 187.927 12.592C187.927 13.856 187.631 14.992 187.039 16C186.463 16.992 185.655 17.768 184.615 18.328C183.575 18.888 182.399 19.168 181.087 19.168ZM181.087 16.6C182.191 16.6 183.103 16.232 183.823 15.496C184.543 14.76 184.903 13.792 184.903 12.592C184.903 11.392 184.543 10.424 183.823 9.68805C183.103 8.95205 182.191 8.58405 181.087 8.58405C179.983 8.58405 179.071 8.95205 178.351 9.68805C177.647 10.424 177.295 11.392 177.295 12.592C177.295 13.792 177.647 14.76 178.351 15.496C179.071 16.232 179.983 16.6 181.087 16.6ZM197.9 6.04005C199.148 6.04005 200.26 6.31205 201.236 6.85605C202.228 7.40005 203.004 8.16805 203.564 9.16005C204.124 10.152 204.404 11.296 204.404 12.592C204.404 13.888 204.124 15.04 203.564 16.048C203.004 17.04 202.228 17.808 201.236 18.352C200.26 18.896 199.148 19.168 197.9 19.168C196.172 19.168 194.804 18.592 193.796 17.44V23.656H190.796V6.18405H193.652V7.86405C194.148 7.25605 194.756 6.80005 195.476 6.49605C196.212 6.19205 197.02 6.04005 197.9 6.04005ZM197.564 16.6C198.668 16.6 199.572 16.232 200.276 15.496C200.996 14.76 201.356 13.792 201.356 12.592C201.356 11.392 200.996 10.424 200.276 9.68805C199.572 8.95205 198.668 8.58405 197.564 8.58405C196.844 8.58405 196.196 8.75205 195.62 9.08805C195.044 9.40805 194.588 9.87205 194.252 10.48C193.916 11.088 193.748 11.792 193.748 12.592C193.748 13.392 193.916 14.096 194.252 14.704C194.588 15.312 195.044 15.784 195.62 16.12C196.196 16.44 196.844 16.6 197.564 16.6ZM207.249 1.19205H210.249V19H207.249V1.19205ZM226.235 12.664C226.235 12.872 226.219 13.168 226.187 13.552H216.131C216.307 14.496 216.763 15.248 217.499 15.808C218.251 16.352 219.179 16.624 220.283 16.624C221.691 16.624 222.851 16.16 223.763 15.232L225.371 17.08C224.795 17.768 224.067 18.288 223.187 18.64C222.307 18.992 221.315 19.168 220.211 19.168C218.803 19.168 217.563 18.888 216.491 18.328C215.419 17.768 214.587 16.992 213.995 16C213.419 14.992 213.131 13.856 213.131 12.592C213.131 11.344 213.411 10.224 213.971 9.23205C214.547 8.22405 215.339 7.44005 216.347 6.88005C217.355 6.32005 218.491 6.04005 219.755 6.04005C221.003 6.04005 222.115 6.32005 223.091 6.88005C224.083 7.42405 224.851 8.20005 225.395 9.20805C225.955 10.2 226.235 11.352 226.235 12.664ZM219.755 8.44005C218.795 8.44005 217.979 8.72805 217.307 9.30405C216.651 9.86405 216.251 10.616 216.107 11.56H223.379C223.251 10.632 222.859 9.88005 222.203 9.30405C221.547 8.72805 220.731 8.44005 219.755 8.44005ZM230.076 19.168C229.532 19.168 229.068 18.984 228.684 18.616C228.3 18.232 228.108 17.752 228.108 17.176C228.108 16.584 228.292 16.104 228.66 15.736C229.044 15.368 229.516 15.184 230.076 15.184C230.636 15.184 231.1 15.368 231.468 15.736C231.852 16.104 232.044 16.584 232.044 17.176C232.044 17.752 231.852 18.232 231.468 18.616C231.084 18.984 230.62 19.168 230.076 19.168ZM11.2479 48L7.81586 43.08C7.67186 43.096 7.45586 43.104 7.16786 43.104H3.37586V48H0.255859V31.2H7.16786C8.62386 31.2 9.88786 31.44 10.9599 31.92C12.0479 32.4 12.8799 33.088 13.4559 33.984C14.0319 34.88 14.3199 35.944 14.3199 37.176C14.3199 38.44 14.0079 39.528 13.3839 40.44C12.7759 41.352 11.8959 42.032 10.7439 42.48L14.6079 48H11.2479ZM11.1759 37.176C11.1759 36.104 10.8239 35.28 10.1199 34.704C9.41586 34.128 8.38386 33.84 7.02386 33.84H3.37586V40.536H7.02386C8.38386 40.536 9.41586 40.248 10.1199 39.672C10.8239 39.08 11.1759 38.248 11.1759 37.176ZM23.2826 48.168C21.9866 48.168 20.8186 47.888 19.7786 47.328C18.7386 46.768 17.9226 45.992 17.3306 45C16.7546 43.992 16.4666 42.856 16.4666 41.592C16.4666 40.328 16.7546 39.2 17.3306 38.208C17.9226 37.216 18.7386 36.44 19.7786 35.88C20.8186 35.32 21.9866 35.04 23.2826 35.04C24.5946 35.04 25.7706 35.32 26.8106 35.88C27.8506 36.44 28.6586 37.216 29.2346 38.208C29.8266 39.2 30.1226 40.328 30.1226 41.592C30.1226 42.856 29.8266 43.992 29.2346 45C28.6586 45.992 27.8506 46.768 26.8106 47.328C25.7706 47.888 24.5946 48.168 23.2826 48.168ZM23.2826 45.6C24.3866 45.6 25.2986 45.232 26.0186 44.496C26.7386 43.76 27.0986 42.792 27.0986 41.592C27.0986 40.392 26.7386 39.424 26.0186 38.688C25.2986 37.952 24.3866 37.584 23.2826 37.584C22.1786 37.584 21.2666 37.952 20.5466 38.688C19.8426 39.424 19.4906 40.392 19.4906 41.592C19.4906 42.792 19.8426 43.76 20.5466 44.496C21.2666 45.232 22.1786 45.6 23.2826 45.6ZM38.7513 48.168C37.4553 48.168 36.2873 47.888 35.2473 47.328C34.2073 46.768 33.3913 45.992 32.7993 45C32.2233 43.992 31.9353 42.856 31.9353 41.592C31.9353 40.328 32.2233 39.2 32.7993 38.208C33.3913 37.216 34.2073 36.44 35.2473 35.88C36.2873 35.32 37.4553 35.04 38.7513 35.04C40.0633 35.04 41.2393 35.32 42.2793 35.88C43.3193 36.44 44.1273 37.216 44.7033 38.208C45.2953 39.2 45.5913 40.328 45.5913 41.592C45.5913 42.856 45.2953 43.992 44.7033 45C44.1273 45.992 43.3193 46.768 42.2793 47.328C41.2393 47.888 40.0633 48.168 38.7513 48.168ZM38.7513 45.6C39.8553 45.6 40.7673 45.232 41.4873 44.496C42.2073 43.76 42.5673 42.792 42.5673 41.592C42.5673 40.392 42.2073 39.424 41.4873 38.688C40.7673 37.952 39.8553 37.584 38.7513 37.584C37.6473 37.584 36.7353 37.952 36.0153 38.688C35.3113 39.424 34.9593 40.392 34.9593 41.592C34.9593 42.792 35.3113 43.76 36.0153 44.496C36.7353 45.232 37.6473 45.6 38.7513 45.6ZM56.1641 47.304C55.8121 47.592 55.3801 47.808 54.8681 47.952C54.3721 48.096 53.8441 48.168 53.2841 48.168C51.8761 48.168 50.7881 47.8 50.0201 47.064C49.2521 46.328 48.8681 45.256 48.8681 43.848V37.68H46.7561V35.28H48.8681V32.352H51.8681V35.28H55.3001V37.68H51.8681V43.776C51.8681 44.4 52.0201 44.88 52.3241 45.216C52.6281 45.536 53.0681 45.696 53.6441 45.696C54.3161 45.696 54.8761 45.52 55.3241 45.168L56.1641 47.304ZM58.632 35.184H61.632V48H58.632V35.184ZM60.144 33.072C59.6 33.072 59.144 32.904 58.776 32.568C58.408 32.216 58.224 31.784 58.224 31.272C58.224 30.76 58.408 30.336 58.776 30C59.144 29.648 59.6 29.472 60.144 29.472C60.688 29.472 61.144 29.64 61.512 29.976C61.88 30.296 62.064 30.704 62.064 31.2C62.064 31.728 61.88 32.176 61.512 32.544C61.16 32.896 60.704 33.072 60.144 33.072ZM72.8415 35.04C74.4575 35.04 75.7535 35.512 76.7295 36.456C77.7055 37.4 78.1935 38.8 78.1935 40.656V48H75.1935V41.04C75.1935 39.92 74.9295 39.08 74.4015 38.52C73.8735 37.944 73.1215 37.656 72.1455 37.656C71.0415 37.656 70.1695 37.992 69.5295 38.664C68.8895 39.32 68.5695 40.272 68.5695 41.52V48H65.5695V35.184H68.4255V36.84C68.9215 36.248 69.5455 35.8 70.2975 35.496C71.0495 35.192 71.8975 35.04 72.8415 35.04ZM94.8363 35.184V46.056C94.8363 50.568 92.5323 52.824 87.9243 52.824C86.6923 52.824 85.5243 52.664 84.4203 52.344C83.3163 52.04 82.4043 51.592 81.6843 51L83.0283 48.744C83.5883 49.208 84.2923 49.576 85.1403 49.848C86.0043 50.136 86.8763 50.28 87.7563 50.28C89.1643 50.28 90.1963 49.96 90.8523 49.32C91.5083 48.68 91.8363 47.704 91.8363 46.392V45.72C91.3243 46.28 90.7003 46.704 89.9643 46.992C89.2283 47.28 88.4203 47.424 87.5403 47.424C86.3243 47.424 85.2203 47.168 84.2283 46.656C83.2523 46.128 82.4763 45.392 81.9003 44.448C81.3403 43.504 81.0603 42.424 81.0603 41.208C81.0603 39.992 81.3403 38.92 81.9003 37.992C82.4763 37.048 83.2523 36.32 84.2283 35.808C85.2203 35.296 86.3243 35.04 87.5403 35.04C88.4683 35.04 89.3083 35.192 90.0603 35.496C90.8283 35.8 91.4683 36.264 91.9803 36.888V35.184H94.8363ZM87.9963 44.88C89.1323 44.88 90.0603 44.544 90.7803 43.872C91.5163 43.184 91.8843 42.296 91.8843 41.208C91.8843 40.136 91.5163 39.264 90.7803 38.592C90.0603 37.92 89.1323 37.584 87.9963 37.584C86.8443 37.584 85.9003 37.92 85.1643 38.592C84.4443 39.264 84.0843 40.136 84.0843 41.208C84.0843 42.296 84.4443 43.184 85.1643 43.872C85.9003 44.544 86.8443 44.88 87.9963 44.88ZM153.369 35.04C154.617 35.04 155.729 35.312 156.705 35.856C157.697 36.4 158.473 37.168 159.033 38.16C159.593 39.152 159.873 40.296 159.873 41.592C159.873 42.888 159.593 44.04 159.033 45.048C158.473 46.04 157.697 46.808 156.705 47.352C155.729 47.896 154.617 48.168 153.369 48.168C151.641 48.168 150.273 47.592 149.265 46.44V52.656H146.265V35.184H149.121V36.864C149.617 36.256 150.225 35.8 150.945 35.496C151.681 35.192 152.489 35.04 153.369 35.04ZM153.033 45.6C154.137 45.6 155.041 45.232 155.745 44.496C156.465 43.76 156.825 42.792 156.825 41.592C156.825 40.392 156.465 39.424 155.745 38.688C155.041 37.952 154.137 37.584 153.033 37.584C152.313 37.584 151.665 37.752 151.089 38.088C150.513 38.408 150.057 38.872 149.721 39.48C149.385 40.088 149.217 40.792 149.217 41.592C149.217 42.392 149.385 43.096 149.721 43.704C150.057 44.312 150.513 44.784 151.089 45.12C151.665 45.44 152.313 45.6 153.033 45.6ZM174.766 41.664C174.766 41.872 174.75 42.168 174.718 42.552H164.662C164.838 43.496 165.294 44.248 166.03 44.808C166.782 45.352 167.71 45.624 168.814 45.624C170.222 45.624 171.382 45.16 172.294 44.232L173.902 46.08C173.326 46.768 172.598 47.288 171.718 47.64C170.838 47.992 169.846 48.168 168.742 48.168C167.334 48.168 166.094 47.888 165.022 47.328C163.95 46.768 163.118 45.992 162.526 45C161.95 43.992 161.662 42.856 161.662 41.592C161.662 40.344 161.942 39.224 162.502 38.232C163.078 37.224 163.87 36.44 164.878 35.88C165.886 35.32 167.022 35.04 168.286 35.04C169.534 35.04 170.646 35.32 171.622 35.88C172.614 36.424 173.382 37.2 173.926 38.208C174.486 39.2 174.766 40.352 174.766 41.664ZM168.286 37.44C167.326 37.44 166.51 37.728 165.838 38.304C165.182 38.864 164.782 39.616 164.638 40.56H171.91C171.782 39.632 171.39 38.88 170.734 38.304C170.078 37.728 169.262 37.44 168.286 37.44ZM183.408 48.168C182.112 48.168 180.944 47.888 179.904 47.328C178.864 46.768 178.048 45.992 177.456 45C176.88 43.992 176.592 42.856 176.592 41.592C176.592 40.328 176.88 39.2 177.456 38.208C178.048 37.216 178.864 36.44 179.904 35.88C180.944 35.32 182.112 35.04 183.408 35.04C184.72 35.04 185.896 35.32 186.936 35.88C187.976 36.44 188.784 37.216 189.36 38.208C189.952 39.2 190.248 40.328 190.248 41.592C190.248 42.856 189.952 43.992 189.36 45C188.784 45.992 187.976 46.768 186.936 47.328C185.896 47.888 184.72 48.168 183.408 48.168ZM183.408 45.6C184.512 45.6 185.424 45.232 186.144 44.496C186.864 43.76 187.224 42.792 187.224 41.592C187.224 40.392 186.864 39.424 186.144 38.688C185.424 37.952 184.512 37.584 183.408 37.584C182.304 37.584 181.392 37.952 180.672 38.688C179.968 39.424 179.616 40.392 179.616 41.592C179.616 42.792 179.968 43.76 180.672 44.496C181.392 45.232 182.304 45.6 183.408 45.6ZM200.22 35.04C201.468 35.04 202.58 35.312 203.556 35.856C204.548 36.4 205.324 37.168 205.884 38.16C206.444 39.152 206.724 40.296 206.724 41.592C206.724 42.888 206.444 44.04 205.884 45.048C205.324 46.04 204.548 46.808 203.556 47.352C202.58 47.896 201.468 48.168 200.22 48.168C198.492 48.168 197.124 47.592 196.116 46.44V52.656H193.116V35.184H195.972V36.864C196.468 36.256 197.076 35.8 197.796 35.496C198.532 35.192 199.34 35.04 200.22 35.04ZM199.884 45.6C200.988 45.6 201.892 45.232 202.596 44.496C203.316 43.76 203.676 42.792 203.676 41.592C203.676 40.392 203.316 39.424 202.596 38.688C201.892 37.952 200.988 37.584 199.884 37.584C199.164 37.584 198.516 37.752 197.94 38.088C197.364 38.408 196.908 38.872 196.572 39.48C196.236 40.088 196.068 40.792 196.068 41.592C196.068 42.392 196.236 43.096 196.572 43.704C196.908 44.312 197.364 44.784 197.94 45.12C198.516 45.44 199.164 45.6 199.884 45.6ZM209.57 30.192H212.57V48H209.57V30.192ZM228.555 41.664C228.555 41.872 228.539 42.168 228.507 42.552H218.451C218.627 43.496 219.083 44.248 219.819 44.808C220.571 45.352 221.499 45.624 222.603 45.624C224.011 45.624 225.171 45.16 226.083 44.232L227.691 46.08C227.115 46.768 226.387 47.288 225.507 47.64C224.627 47.992 223.635 48.168 222.531 48.168C221.123 48.168 219.883 47.888 218.811 47.328C217.739 46.768 216.907 45.992 216.315 45C215.739 43.992 215.451 42.856 215.451 41.592C215.451 40.344 215.731 39.224 216.291 38.232C216.867 37.224 217.659 36.44 218.667 35.88C219.675 35.32 220.811 35.04 222.075 35.04C223.323 35.04 224.435 35.32 225.411 35.88C226.403 36.424 227.171 37.2 227.715 38.208C228.275 39.2 228.555 40.352 228.555 41.664ZM222.075 37.44C221.115 37.44 220.299 37.728 219.627 38.304C218.971 38.864 218.571 39.616 218.427 40.56H225.699C225.571 39.632 225.179 38.88 224.523 38.304C223.867 37.728 223.051 37.44 222.075 37.44Z" fill="#010326" stroke="#010326" stroke-width="2" mask="url(#path-1-inside-1_1119_611)"/>
</g>
<path id="green-letter" d="M116.693 9.45911L116.693 9.45913L116.696 9.46427C117.237 10.3716 117.513 11.4095 117.513 12.592C117.513 13.7745 117.237 14.8218 116.694 15.7468L116.693 15.749C116.164 16.6586 115.425 17.3702 114.464 17.8878C113.505 18.4044 112.412 18.668 111.173 18.668C109.952 18.668 108.866 18.4049 107.906 17.8878C106.945 17.3704 106.197 16.6585 105.653 15.7479C105.125 14.823 104.857 13.7752 104.857 12.592C104.857 11.4081 105.126 10.3692 105.652 9.4617C106.196 8.55032 106.945 7.83797 107.906 7.32027C108.866 6.80322 109.952 6.54004 111.173 6.54004C112.412 6.54004 113.505 6.8037 114.464 7.32027C115.425 7.83785 116.164 8.54946 116.693 9.45911ZM108.08 9.33839L108.08 9.33837L108.076 9.34243C107.267 10.1878 106.881 11.2878 106.881 12.592C106.881 13.8963 107.267 14.9963 108.076 15.8417L108.076 15.8417L108.08 15.8457C108.901 16.6853 109.945 17.1 111.173 17.1C112.401 17.1 113.445 16.6853 114.266 15.8457C115.093 15.0008 115.489 13.8995 115.489 12.592C115.489 11.2846 115.093 10.1832 114.266 9.33839C113.445 8.49879 112.401 8.08404 111.173 8.08404C109.945 8.08404 108.901 8.49879 108.08 9.33839ZM123.382 12.52V18.5H121.382V6.68404H123.238V7.84004V9.21536L124.121 8.16115C124.562 7.63515 125.117 7.23448 125.797 6.95959C126.481 6.68327 127.264 6.54004 128.154 6.54004C129.667 6.54004 130.829 6.97841 131.694 7.81543C132.541 8.63477 133.006 9.88437 133.006 11.656V18.5H131.006V12.04C131.006 10.8516 130.727 9.8671 130.08 9.17966C129.435 8.47742 128.535 8.15604 127.458 8.15604C126.246 8.15604 125.234 8.52878 124.482 9.317C123.723 10.0959 123.382 11.191 123.382 12.52ZM108.225 35.28V35.78H108.725H111.753V37.18H108.821H108.321V37.68V47.5H106.321V37.68V37.18H105.821H104.209V35.78H105.821H106.321V35.28V34.464C106.321 33.1897 106.688 32.2504 107.371 31.5811L107.371 31.5812L107.375 31.5776C108.056 30.8962 109.042 30.524 110.405 30.524C111.296 30.524 111.986 30.6711 112.504 30.9337L112.013 32.2519C111.575 32.0508 111.11 31.948 110.621 31.948C109.9 31.948 109.271 32.1461 108.831 32.6258C108.397 33.0975 108.225 33.757 108.225 34.512V35.28ZM125.365 38.4591L125.365 38.4591L125.368 38.4643C125.909 39.3716 126.185 40.4095 126.185 41.592C126.185 42.7745 125.909 43.8218 125.366 44.7468L125.365 44.749C124.836 45.6586 124.097 46.3702 123.136 46.8878C122.177 47.4044 121.084 47.668 119.845 47.668C118.624 47.668 117.538 47.4049 116.578 46.8878C115.617 46.3704 114.869 45.6585 114.325 44.7478C113.797 43.823 113.529 42.7752 113.529 41.592C113.529 40.4081 113.798 39.3693 114.324 38.4617C114.868 37.5504 115.617 36.838 116.578 36.3203C117.538 35.8032 118.624 35.54 119.845 35.54C121.084 35.54 122.177 35.8037 123.136 36.3203C124.097 36.8378 124.836 37.5495 125.365 38.4591ZM116.752 38.3384L116.752 38.3384L116.748 38.3424C115.939 39.1878 115.553 40.2878 115.553 41.592C115.553 42.8963 115.939 43.9963 116.748 44.8416L116.748 44.8417L116.752 44.8457C117.573 45.6853 118.617 46.1 119.845 46.1C121.073 46.1 122.117 45.6853 122.938 44.8457C123.765 44.0008 124.161 42.8995 124.161 41.592C124.161 40.2846 123.765 39.1832 122.938 38.3384C122.117 37.4988 121.073 37.084 119.845 37.084C118.617 37.084 117.573 37.4988 116.752 38.3384ZM131.91 37.056V38.7584L132.831 37.3264C133.51 36.2701 134.68 35.6487 136.47 35.553V37.3297C136.403 37.326 136.338 37.324 136.274 37.324C135.004 37.324 133.949 37.7015 133.178 38.5089C132.403 39.3038 132.054 40.4231 132.054 41.784V47.5H130.054V35.684H131.91V37.056Z" fill="#05F29B" stroke="#05F29B"/>
</g>
<defs>
<clipPath id="clip0_1119_611">
<rect width="233" height="53" fill="white"/>
</clipPath>
</defs>
</svg>
