<svg width="280" height="158" viewBox="0 0 280 158" fill="none" xmlns="http://www.w3.org/2000/svg">
<rect width="280" height="158" fill="#A4A4A4"/>
<g id="logo_varia&#195;&#167;&#195;&#163;o_4">
<g id="blue_vector">
<mask id="path-1-inside-1_6_3" fill="white">
<path fill-rule="evenodd" clip-rule="evenodd" d="M131.092 2.89879C131.528 1.95646 131.971 0.995677 132.408 0C131.824 0.0706897 131.25 0.128274 130.687 0.184907C129.585 0.295551 128.52 0.402562 127.481 0.59657C118.95 2.19238 112.433 6.61191 107.143 12.6322C99.6512 21.1631 96.3155 31.1108 95.0229 41.7347C94.2623 47.9837 95.0229 54.1581 96.4745 60.248C98.7862 69.9571 103.36 78.6421 111.468 85.602C116.3 89.7481 121.908 92.6266 128.605 93.5264C129.263 93.5877 129.92 93.4016 130.449 93.0044C135.719 88.381 138.632 82.7286 139.397 76.1514C140.237 68.9927 138.542 62.2266 135.629 55.6296C134.953 54.1079 134.258 52.5886 133.561 51.0674L133.561 51.0671L133.561 51.0668L133.561 51.0663C131.777 47.1709 129.988 43.2635 128.515 39.2738C125.308 28.8339 125.308 18.7172 128.714 8.45133C129.389 6.58672 130.224 4.77949 131.092 2.89879ZM2.98282 136.524L0 143.19C3.3855 145.815 9.50526 147.615 15.5554 147.6C26.4825 147.6 31.782 142.136 31.782 135.743C31.782 127.527 24.1631 125.784 17.8437 124.339C13.3657 123.315 9.54006 122.44 9.54006 119.517C9.54006 117.135 11.5634 115.147 16.8082 115.147C20.5394 115.21 24.1909 116.237 27.4072 118.13L30.1414 111.408C26.5869 109.171 21.6702 108.023 16.8629 108.023C5.99051 108.023 0.745705 113.452 0.745705 119.954C0.745705 128.264 8.352 130.03 14.6674 131.497C19.1502 132.538 22.9826 133.428 22.9826 136.4C22.9826 138.751 20.8549 140.501 15.6051 140.501C11.0941 140.471 6.69631 139.085 2.98282 136.524ZM56.2212 145.542C54.4762 146.8 51.906 147.396 49.2612 147.396C42.3013 147.396 38.2795 143.847 38.2795 136.852V124.776H33.7456V118.219H38.2795V111.07H46.8054V118.224H54.1232V124.781H46.8253V136.747C46.8253 139.263 48.1924 140.63 50.4842 140.63C51.7189 140.646 52.9257 140.263 53.9244 139.536L56.2212 145.542ZM87.0392 147.361V130.185C87.0392 121.282 81.859 117.13 72.9155 117.115C68.1977 117.115 63.4649 118.368 60.2435 120.665L63.3009 126.631C65.4137 124.935 68.6351 123.896 71.7522 123.896C76.3408 123.896 78.5232 126.029 78.5232 129.688H71.7522C62.7888 129.688 59.1299 133.297 59.1299 138.487C59.1299 143.568 63.2263 147.391 70.1116 147.391C74.4168 147.391 77.4792 145.974 79.0601 143.295V147.361H87.0392ZM78.5132 134.689V137.672C77.5339 140.352 75.0731 141.659 72.2344 141.679C69.2267 141.679 67.4221 140.262 67.4221 138.129C67.4221 136.181 68.6898 134.689 72.6669 134.689H78.5132ZM125.393 117.563V142.042C125.393 152.979 119.492 158 108.893 158C103.32 158 97.9109 156.633 94.4757 153.953L97.8562 147.858C100.367 149.882 104.468 151.194 108.236 151.194C114.247 151.194 116.872 148.46 116.872 143.16V141.893C114.63 144.354 111.403 145.557 107.58 145.557C99.4371 145.557 92.8799 139.929 92.8799 131.348C92.8799 122.768 99.4371 117.145 107.58 117.145C111.677 117.145 115.067 118.507 117.309 121.351V117.578L125.393 117.563ZM116.976 131.334C116.976 127.018 113.755 124.12 109.275 124.12C104.796 124.12 101.515 127.018 101.515 131.334C101.515 135.649 104.796 138.547 109.275 138.547C113.755 138.547 116.976 135.649 116.976 131.334ZM139.71 134.669H161.947C161.964 134.444 161.986 134.202 162.008 133.955C162.059 133.402 162.111 132.826 162.111 132.372C162.111 122.922 155.444 117.13 146.809 117.13C137.851 117.13 131.129 123.518 131.129 132.263C131.129 141.008 137.741 147.396 147.903 147.396C153.202 147.396 157.299 145.76 160.033 142.643L155.499 137.727C153.476 139.64 151.239 140.57 148.122 140.57C143.642 140.57 140.525 138.328 139.71 134.669ZM154.057 129.698H139.576L139.596 129.693C140.197 125.924 143.016 123.578 146.844 123.578C150.672 123.578 153.456 125.984 154.057 129.698Z"/>
</mask>
<path fill-rule="evenodd" clip-rule="evenodd" d="M131.092 2.89879C131.528 1.95646 131.971 0.995677 132.408 0C131.824 0.0706897 131.25 0.128274 130.687 0.184907C129.585 0.295551 128.52 0.402562 127.481 0.59657C118.95 2.19238 112.433 6.61191 107.143 12.6322C99.6512 21.1631 96.3155 31.1108 95.0229 41.7347C94.2623 47.9837 95.0229 54.1581 96.4745 60.248C98.7862 69.9571 103.36 78.6421 111.468 85.602C116.3 89.7481 121.908 92.6266 128.605 93.5264C129.263 93.5877 129.92 93.4016 130.449 93.0044C135.719 88.381 138.632 82.7286 139.397 76.1514C140.237 68.9927 138.542 62.2266 135.629 55.6296C134.953 54.1079 134.258 52.5886 133.561 51.0674L133.561 51.0671L133.561 51.0668L133.561 51.0663C131.777 47.1709 129.988 43.2635 128.515 39.2738C125.308 28.8339 125.308 18.7172 128.714 8.45133C129.389 6.58672 130.224 4.77949 131.092 2.89879ZM2.98282 136.524L0 143.19C3.3855 145.815 9.50526 147.615 15.5554 147.6C26.4825 147.6 31.782 142.136 31.782 135.743C31.782 127.527 24.1631 125.784 17.8437 124.339C13.3657 123.315 9.54006 122.44 9.54006 119.517C9.54006 117.135 11.5634 115.147 16.8082 115.147C20.5394 115.21 24.1909 116.237 27.4072 118.13L30.1414 111.408C26.5869 109.171 21.6702 108.023 16.8629 108.023C5.99051 108.023 0.745705 113.452 0.745705 119.954C0.745705 128.264 8.352 130.03 14.6674 131.497C19.1502 132.538 22.9826 133.428 22.9826 136.4C22.9826 138.751 20.8549 140.501 15.6051 140.501C11.0941 140.471 6.69631 139.085 2.98282 136.524ZM56.2212 145.542C54.4762 146.8 51.906 147.396 49.2612 147.396C42.3013 147.396 38.2795 143.847 38.2795 136.852V124.776H33.7456V118.219H38.2795V111.07H46.8054V118.224H54.1232V124.781H46.8253V136.747C46.8253 139.263 48.1924 140.63 50.4842 140.63C51.7189 140.646 52.9257 140.263 53.9244 139.536L56.2212 145.542ZM87.0392 147.361V130.185C87.0392 121.282 81.859 117.13 72.9155 117.115C68.1977 117.115 63.4649 118.368 60.2435 120.665L63.3009 126.631C65.4137 124.935 68.6351 123.896 71.7522 123.896C76.3408 123.896 78.5232 126.029 78.5232 129.688H71.7522C62.7888 129.688 59.1299 133.297 59.1299 138.487C59.1299 143.568 63.2263 147.391 70.1116 147.391C74.4168 147.391 77.4792 145.974 79.0601 143.295V147.361H87.0392ZM78.5132 134.689V137.672C77.5339 140.352 75.0731 141.659 72.2344 141.679C69.2267 141.679 67.4221 140.262 67.4221 138.129C67.4221 136.181 68.6898 134.689 72.6669 134.689H78.5132ZM125.393 117.563V142.042C125.393 152.979 119.492 158 108.893 158C103.32 158 97.9109 156.633 94.4757 153.953L97.8562 147.858C100.367 149.882 104.468 151.194 108.236 151.194C114.247 151.194 116.872 148.46 116.872 143.16V141.893C114.63 144.354 111.403 145.557 107.58 145.557C99.4371 145.557 92.8799 139.929 92.8799 131.348C92.8799 122.768 99.4371 117.145 107.58 117.145C111.677 117.145 115.067 118.507 117.309 121.351V117.578L125.393 117.563ZM116.976 131.334C116.976 127.018 113.755 124.12 109.275 124.12C104.796 124.12 101.515 127.018 101.515 131.334C101.515 135.649 104.796 138.547 109.275 138.547C113.755 138.547 116.976 135.649 116.976 131.334ZM139.71 134.669H161.947C161.964 134.444 161.986 134.202 162.008 133.955C162.059 133.402 162.111 132.826 162.111 132.372C162.111 122.922 155.444 117.13 146.809 117.13C137.851 117.13 131.129 123.518 131.129 132.263C131.129 141.008 137.741 147.396 147.903 147.396C153.202 147.396 157.299 145.76 160.033 142.643L155.499 137.727C153.476 139.64 151.239 140.57 148.122 140.57C143.642 140.57 140.525 138.328 139.71 134.669ZM154.057 129.698H139.576L139.596 129.693C140.197 125.924 143.016 123.578 146.844 123.578C150.672 123.578 153.456 125.984 154.057 129.698Z" fill="#010326"/>
<path d="M132.408 0L133.323 0.401454L134.027 -1.20329L132.287 -0.992754L132.408 0ZM131.092 2.89879L130.184 2.47957L130.184 2.47958L131.092 2.89879ZM130.687 0.184907L130.787 1.1799L130.787 1.1799L130.687 0.184907ZM127.481 0.59657L127.297 -0.386442L127.297 -0.38638L127.481 0.59657ZM107.143 12.6322L106.392 11.9722L106.392 11.9724L107.143 12.6322ZM95.0229 41.7347L96.0156 41.8555L96.0156 41.8554L95.0229 41.7347ZM96.4745 60.248L97.4473 60.0164L97.4473 60.0162L96.4745 60.248ZM111.468 85.602L110.817 86.3608L110.817 86.3609L111.468 85.602ZM128.605 93.5264L128.471 94.5175L128.492 94.5202L128.512 94.5221L128.605 93.5264ZM130.449 93.0044L131.05 93.8038L131.08 93.781L131.108 93.7561L130.449 93.0044ZM139.397 76.1514L138.404 76.0349L138.404 76.0358L139.397 76.1514ZM135.629 55.6296L136.544 55.2256L136.543 55.2238L135.629 55.6296ZM133.561 51.0674L132.637 51.4498L132.644 51.4669L132.652 51.4838L133.561 51.0674ZM133.561 51.0671L134.485 50.6847L134.48 50.6732L133.561 51.0671ZM133.561 51.0668L134.48 50.6729L134.476 50.6629L134.471 50.653L133.561 51.0668ZM133.561 51.0663L134.471 50.6525L134.47 50.65L133.561 51.0663ZM128.515 39.2738L127.559 39.5674L127.567 39.594L127.577 39.6202L128.515 39.2738ZM128.714 8.45133L127.774 8.11066L127.769 8.12351L127.765 8.13648L128.714 8.45133ZM0 143.19L-0.912798 142.782L-1.23371 143.499L-0.612734 143.981L0 143.19ZM2.98282 136.524L3.5506 135.701L2.561 135.018L2.07002 136.115L2.98282 136.524ZM15.5554 147.6L15.5554 146.6L15.553 146.6L15.5554 147.6ZM17.8437 124.339L17.6208 125.314L17.6208 125.314L17.8437 124.339ZM16.8082 115.147L16.825 114.147L16.8166 114.147H16.8082V115.147ZM27.4072 118.13L26.9 118.992L27.8974 119.578L28.3335 118.507L27.4072 118.13ZM30.1414 111.408L31.0677 111.785L31.3836 111.009L30.6741 110.562L30.1414 111.408ZM14.6674 131.497L14.8936 130.523L14.8936 130.523L14.6674 131.497ZM15.6051 140.501L15.5985 141.501H15.6051V140.501ZM56.2212 145.542L56.8059 146.353L57.43 145.903L57.1552 145.185L56.2212 145.542ZM38.2795 124.776H39.2795V123.776H38.2795V124.776ZM33.7456 124.776H32.7456V125.776H33.7456V124.776ZM33.7456 118.219V117.219H32.7456V118.219H33.7456ZM38.2795 118.219V119.219H39.2795V118.219H38.2795ZM38.2795 111.07V110.07H37.2795V111.07H38.2795ZM46.8054 111.07H47.8054V110.07H46.8054V111.07ZM46.8054 118.224H45.8054V119.224H46.8054V118.224ZM54.1232 118.224H55.1232V117.224H54.1232V118.224ZM54.1232 124.781V125.781H55.1232V124.781H54.1232ZM46.8253 124.781V123.781H45.8253V124.781H46.8253ZM50.4842 140.63L50.4973 139.63H50.4842V140.63ZM53.9244 139.536L54.8584 139.179L54.3921 137.96L53.3363 138.728L53.9244 139.536ZM87.0392 147.361V148.361H88.0392V147.361H87.0392ZM72.9155 117.115L72.9172 116.115H72.9155V117.115ZM60.2435 120.665L59.6629 119.851L58.9595 120.352L59.3535 121.121L60.2435 120.665ZM63.3009 126.631L62.4109 127.087L62.9702 128.178L63.9267 127.411L63.3009 126.631ZM78.5232 129.688V130.688H79.5232V129.688H78.5232ZM79.0601 143.295H80.0601V139.632L78.1988 142.787L79.0601 143.295ZM79.0601 147.361H78.0601V148.361H79.0601V147.361ZM78.5132 137.672L79.4525 138.015L79.5132 137.849V137.672H78.5132ZM78.5132 134.689H79.5132V133.689H78.5132V134.689ZM72.2344 141.679V142.679L72.2414 142.679L72.2344 141.679ZM125.393 117.563H126.393V116.561L125.391 116.563L125.393 117.563ZM94.4757 153.953L93.6012 153.468L93.1865 154.216L93.8606 154.742L94.4757 153.953ZM97.8562 147.858L98.4837 147.08L97.5583 146.334L96.9817 147.373L97.8562 147.858ZM116.872 141.893H117.872V139.31L116.133 141.219L116.872 141.893ZM117.309 121.351L116.524 121.97L118.309 124.234V121.351H117.309ZM117.309 117.578L117.307 116.578L116.309 116.58V117.578H117.309ZM161.947 134.669V135.669H162.875L162.944 134.744L161.947 134.669ZM139.71 134.669V133.669H138.463L138.734 134.887L139.71 134.669ZM162.008 133.955L161.012 133.865L161.012 133.865L162.008 133.955ZM160.033 142.643L160.785 143.303L161.378 142.626L160.768 141.965L160.033 142.643ZM155.499 137.727L156.234 137.049L155.548 136.304L154.812 137L155.499 137.727ZM139.576 129.698L139.335 128.727L139.576 130.698V129.698ZM154.057 129.698V130.698H155.232L155.044 129.538L154.057 129.698ZM139.596 129.693L139.837 130.663L140.479 130.504L140.583 129.85L139.596 129.693ZM131.492 -0.401454C131.06 0.583891 130.62 1.53599 130.184 2.47957L132 3.31802C132.435 2.37692 132.882 1.40746 133.323 0.401454L131.492 -0.401454ZM130.787 1.1799C131.349 1.12341 131.932 1.06486 132.528 0.992754L132.287 -0.992754C131.715 -0.923481 131.152 -0.866866 130.587 -0.810085L130.787 1.1799ZM127.665 1.57958C128.655 1.39467 129.677 1.29133 130.787 1.1799L130.587 -0.810085C129.493 -0.700224 128.385 -0.589545 127.297 -0.386442L127.665 1.57958ZM107.894 13.2923C113.068 7.40419 119.397 3.12621 127.665 1.57952L127.297 -0.38638C118.504 1.25855 111.798 5.81962 106.392 11.9722L107.894 13.2923ZM96.0156 41.8554C97.2917 31.3663 100.573 21.6288 107.894 13.2921L106.392 11.9724C98.7294 20.6974 95.3392 30.8554 94.0302 41.6139L96.0156 41.8554ZM97.4473 60.0162C96.0119 53.9943 95.2742 47.9465 96.0156 41.8555L94.0302 41.6138C93.2504 48.0209 94.0339 54.3219 95.5018 60.4799L97.4473 60.0162ZM112.12 84.8432C104.198 78.0434 99.7189 69.557 97.4473 60.0164L95.5017 60.4797C97.8535 70.3573 102.522 79.2408 110.817 86.3608L112.12 84.8432ZM128.738 92.5353C122.262 91.6651 116.829 88.8841 112.119 84.8431L110.817 86.3609C115.772 90.6121 121.554 93.588 128.471 94.5175L128.738 92.5353ZM129.848 92.2049C129.518 92.4528 129.108 92.5689 128.697 92.5307L128.512 94.5221C129.418 94.6064 130.322 94.3503 131.05 93.8038L129.848 92.2049ZM138.404 76.0358C137.667 82.3643 134.875 87.791 129.789 92.2527L131.108 93.7561C136.562 88.971 139.596 83.0928 140.391 76.2671L138.404 76.0358ZM134.714 56.0336C137.585 62.5333 139.216 69.1137 138.404 76.0349L140.391 76.268C141.259 68.8717 139.5 61.9199 136.544 55.2256L134.714 56.0336ZM132.652 51.4838C133.349 53.0058 134.042 54.5199 134.715 56.0354L136.543 55.2238C135.865 53.696 135.166 52.1714 134.47 50.6511L132.652 51.4838ZM132.637 51.4495L132.637 51.4498L134.485 50.6851L134.485 50.6848L132.637 51.4495ZM132.642 51.4607L132.642 51.461L134.48 50.6732L134.48 50.6729L132.642 51.4607ZM132.65 51.4801L132.651 51.4806L134.471 50.653L134.471 50.6525L132.65 51.4801ZM127.577 39.6202C129.065 43.6514 130.871 47.5932 132.651 51.4826L134.47 50.65C132.683 46.7486 130.911 42.8756 129.453 38.9275L127.577 39.6202ZM127.765 8.13648C124.291 18.6078 124.294 28.9375 127.559 39.5674L129.471 38.9802C126.323 28.7304 126.326 18.8266 129.663 8.76618L127.765 8.13648ZM130.184 2.47958C129.319 4.35331 128.466 6.19926 127.774 8.11066L129.654 8.792C130.313 6.97418 131.129 5.20566 132 3.31801L130.184 2.47958ZM0.912798 143.599L3.89562 136.932L2.07002 136.115L-0.912798 142.782L0.912798 143.599ZM15.553 146.6C9.65066 146.615 3.77106 144.849 0.612734 142.4L-0.612734 143.981C2.99995 146.782 9.35986 148.615 15.5579 148.6L15.553 146.6ZM30.782 135.743C30.782 138.644 29.5888 141.319 27.1395 143.29C24.6741 145.274 20.8608 146.6 15.5554 146.6V148.6C21.1771 148.6 25.4771 147.195 28.3932 144.848C31.3254 142.489 32.782 139.236 32.782 135.743H30.782ZM17.6208 125.314C20.8198 126.046 24.1327 126.813 26.662 128.356C27.907 129.115 28.9263 130.043 29.6376 131.217C30.3457 132.385 30.782 133.851 30.782 135.743H32.782C32.782 133.527 32.2659 131.694 31.348 130.18C30.4332 128.671 29.1528 127.532 27.7033 126.648C24.8433 124.904 21.187 124.078 18.0666 123.364L17.6208 125.314ZM8.54006 119.517C8.54006 121.555 9.93148 122.768 11.5875 123.545C13.2227 124.314 15.4199 124.811 17.6208 125.314L18.0666 123.364C15.7894 122.844 13.8348 122.391 12.4378 121.735C11.0614 121.089 10.5401 120.402 10.5401 119.517H8.54006ZM16.8082 114.147C14.0817 114.147 12.0359 114.66 10.6426 115.614C9.20262 116.599 8.54006 118.004 8.54006 119.517H10.5401C10.5401 118.649 10.8892 117.868 11.7721 117.264C12.7017 116.628 14.2899 116.147 16.8082 116.147V114.147ZM27.9143 117.268C24.5492 115.288 20.7289 114.213 16.825 114.147L16.7914 116.147C20.35 116.207 23.8325 117.187 26.9 118.992L27.9143 117.268ZM29.2151 111.032L26.4809 117.753L28.3335 118.507L31.0677 111.785L29.2151 111.032ZM16.8629 109.023C21.5358 109.023 26.2541 110.143 29.6088 112.255L30.6741 110.562C26.9197 108.199 21.8046 107.023 16.8629 107.023V109.023ZM1.74571 119.954C1.74571 116.99 2.93156 114.298 5.35782 112.326C7.8009 110.341 11.5843 109.023 16.8629 109.023V107.023C11.2691 107.023 6.99391 108.419 4.09649 110.774C1.18225 113.142 -0.254295 116.415 -0.254295 119.954H1.74571ZM14.8936 130.523C11.6965 129.78 8.38905 129.002 5.86411 127.441C4.62133 126.673 3.60256 125.733 2.89105 124.544C2.18238 123.359 1.74571 121.872 1.74571 119.954H-0.254295C-0.254295 122.191 0.259816 124.041 1.17469 125.571C2.08671 127.095 3.36423 128.247 4.81244 129.142C7.66951 130.909 11.3229 131.747 14.4412 132.471L14.8936 130.523ZM23.9826 136.4C23.9826 134.345 22.6003 133.115 20.9365 132.321C19.2979 131.54 17.0966 131.034 14.8936 130.523L14.4412 132.471C16.7211 133 18.6773 133.46 20.0757 134.127C21.4488 134.781 21.9826 135.482 21.9826 136.4H23.9826ZM15.6051 141.501C18.3149 141.501 20.3732 141.054 21.7868 140.184C23.2604 139.276 23.9826 137.934 23.9826 136.4H21.9826C21.9826 137.216 21.6411 137.925 20.7383 138.48C19.7756 139.073 18.1452 139.501 15.6051 139.501V141.501ZM2.41504 137.347C6.29361 140.022 10.8869 141.469 15.5985 141.501L15.6118 139.501C11.3013 139.472 7.09901 138.148 3.5506 135.701L2.41504 137.347ZM49.2612 148.396C52.0232 148.396 54.8283 147.778 56.8059 146.353L55.6364 144.731C54.1241 145.821 51.7889 146.396 49.2612 146.396V148.396ZM37.2795 136.852C37.2795 140.541 38.3448 143.474 40.4757 145.476C42.5962 147.468 45.6225 148.396 49.2612 148.396V146.396C45.9401 146.396 43.4755 145.55 41.8451 144.018C40.2251 142.496 39.2795 140.158 39.2795 136.852H37.2795ZM37.2795 124.776V136.852H39.2795V124.776H37.2795ZM33.7456 125.776H38.2795V123.776H33.7456V125.776ZM32.7456 118.219V124.776H34.7456V118.219H32.7456ZM38.2795 117.219H33.7456V119.219H38.2795V117.219ZM37.2795 111.07V118.219H39.2795V111.07H37.2795ZM46.8054 110.07H38.2795V112.07H46.8054V110.07ZM47.8054 118.224V111.07H45.8054V118.224H47.8054ZM54.1232 117.224H46.8054V119.224H54.1232V117.224ZM55.1232 124.781V118.224H53.1232V124.781H55.1232ZM46.8253 125.781H54.1232V123.781H46.8253V125.781ZM47.8253 136.747V124.781H45.8253V136.747H47.8253ZM50.4842 139.63C49.5382 139.63 48.9122 139.353 48.5176 138.941C48.1175 138.523 47.8253 137.83 47.8253 136.747H45.8253C45.8253 138.18 46.2166 139.429 47.073 140.324C47.935 141.224 49.1384 141.63 50.4842 141.63V139.63ZM53.3363 138.728C52.5121 139.327 51.5162 139.644 50.4973 139.63L50.4711 141.63C51.9216 141.649 53.3393 141.198 54.5125 140.345L53.3363 138.728ZM57.1552 145.185L54.8584 139.179L52.9904 139.894L55.2871 145.899L57.1552 145.185ZM86.0392 130.185V147.361H88.0392V130.185H86.0392ZM72.9138 118.115C77.2491 118.123 80.5026 119.134 82.6654 121.063C84.8074 122.974 86.0392 125.93 86.0392 130.185H88.0392C88.0392 125.537 86.6808 121.965 83.9968 119.571C81.3337 117.195 77.5254 116.123 72.9172 116.115L72.9138 118.115ZM60.824 121.479C63.8328 119.334 68.3456 118.115 72.9155 118.115V116.115C68.0498 116.115 63.097 117.402 59.6629 119.851L60.824 121.479ZM64.1908 126.175L61.1334 120.209L59.3535 121.121L62.4109 127.087L64.1908 126.175ZM71.7522 122.896C68.4448 122.896 64.9924 123.991 62.6751 125.851L63.9267 127.411C65.835 125.88 68.8255 124.896 71.7522 124.896V122.896ZM79.5232 129.688C79.5232 127.656 78.9105 125.901 77.5212 124.671C76.1527 123.46 74.1843 122.896 71.7522 122.896V124.896C73.9087 124.896 75.3258 125.399 76.1957 126.169C77.0447 126.92 77.5232 128.061 77.5232 129.688H79.5232ZM71.7522 130.688H78.5232V128.688H71.7522V130.688ZM60.1299 138.487C60.1299 136.15 60.939 134.268 62.6859 132.937C64.4769 131.572 67.3813 130.688 71.7522 130.688V128.688C67.1597 128.688 63.7529 129.609 61.4736 131.346C59.1502 133.117 58.1299 135.634 58.1299 138.487H60.1299ZM70.1116 146.391C66.8492 146.391 64.3496 145.486 62.6838 144.08C61.0299 142.684 60.1299 140.741 60.1299 138.487H58.1299C58.1299 141.315 59.278 143.823 61.3938 145.609C63.4975 147.384 66.4887 148.391 70.1116 148.391V146.391ZM78.1988 142.787C76.8614 145.053 74.2093 146.391 70.1116 146.391V148.391C74.6244 148.391 78.097 146.895 79.9214 143.803L78.1988 142.787ZM80.0601 147.361V143.295H78.0601V147.361H80.0601ZM87.0392 146.361H79.0601V148.361H87.0392V146.361ZM79.5132 137.672V134.689H77.5132V137.672H79.5132ZM72.2414 142.679C75.3829 142.657 78.2942 141.185 79.4525 138.015L77.574 137.329C76.7736 139.519 74.7633 140.661 72.2274 140.679L72.2414 142.679ZM66.4221 138.129C66.4221 139.51 67.0211 140.694 68.1001 141.504C69.1508 142.292 70.587 142.679 72.2344 142.679V140.679C70.8742 140.679 69.9042 140.357 69.3007 139.904C68.7254 139.472 68.4221 138.881 68.4221 138.129H66.4221ZM72.6669 133.689C70.5829 133.689 69.0145 134.075 67.9494 134.881C66.8304 135.729 66.4221 136.919 66.4221 138.129H68.4221C68.4221 137.392 68.6477 136.861 69.1568 136.476C69.7198 136.049 70.7739 135.689 72.6669 135.689V133.689ZM78.5132 133.689H72.6669V135.689H78.5132V133.689ZM126.393 142.042V117.563H124.393V142.042H126.393ZM108.893 159C114.333 159 118.747 157.712 121.801 154.852C124.867 151.981 126.393 147.685 126.393 142.042H124.393C124.393 147.336 122.968 151.019 120.434 153.392C117.887 155.777 114.051 157 108.893 157V159ZM93.8606 154.742C97.5367 157.609 103.197 159 108.893 159V157C103.443 157 98.2852 155.657 95.0907 153.165L93.8606 154.742ZM96.9817 147.373L93.6012 153.468L95.3502 154.438L98.7307 148.343L96.9817 147.373ZM108.236 150.194C104.654 150.194 100.786 148.936 98.4837 147.08L97.2287 148.637C99.9472 150.828 104.282 152.194 108.236 152.194V150.194ZM115.872 143.16C115.872 145.658 115.254 147.354 114.117 148.442C112.97 149.538 111.111 150.194 108.236 150.194V152.194C111.372 152.194 113.831 151.483 115.499 149.887C117.177 148.283 117.872 145.962 117.872 143.16H115.872ZM115.872 141.893V143.16H117.872V141.893H115.872ZM107.58 146.557C111.615 146.557 115.137 145.281 117.611 142.566L116.133 141.219C114.122 143.426 111.191 144.557 107.58 144.557V146.557ZM91.8799 131.348C91.8799 140.545 98.9512 146.557 107.58 146.557V144.557C99.9231 144.557 93.8799 139.313 93.8799 131.348H91.8799ZM107.58 116.145C98.9516 116.145 91.8799 122.151 91.8799 131.348H93.8799C93.8799 123.385 99.9226 118.145 107.58 118.145V116.145ZM118.094 120.732C115.619 117.592 111.905 116.145 107.58 116.145V118.145C111.449 118.145 114.515 119.422 116.524 121.97L118.094 120.732ZM116.309 117.578V121.351H118.309V117.578H116.309ZM125.391 116.563L117.307 116.578L117.311 118.578L125.394 118.563L125.391 116.563ZM109.275 125.12C111.299 125.12 112.971 125.773 114.126 126.842C115.275 127.906 115.976 129.438 115.976 131.334H117.976C117.976 128.914 117.067 126.839 115.485 125.375C113.91 123.917 111.731 123.12 109.275 123.12V125.12ZM102.515 131.334C102.515 129.444 103.227 127.912 104.391 126.846C105.563 125.773 107.251 125.12 109.275 125.12V123.12C106.821 123.12 104.629 123.916 103.04 125.371C101.444 126.833 100.515 128.908 100.515 131.334H102.515ZM109.275 137.547C107.251 137.547 105.563 136.894 104.391 135.821C103.227 134.755 102.515 133.224 102.515 131.334H100.515C100.515 133.759 101.444 135.834 103.04 137.296C104.629 138.751 106.821 139.547 109.275 139.547V137.547ZM115.976 131.334C115.976 133.229 115.275 134.761 114.126 135.825C112.971 136.895 111.299 137.547 109.275 137.547V139.547C111.731 139.547 113.91 138.75 115.485 137.292C117.067 135.828 117.976 133.753 117.976 131.334H115.976ZM161.947 133.669H139.71V135.669H161.947V133.669ZM161.012 133.865C160.99 134.109 160.967 134.36 160.95 134.594L162.944 134.744C162.96 134.528 162.982 134.294 163.004 134.046L161.012 133.865ZM161.111 132.372C161.111 132.771 161.064 133.296 161.012 133.865L163.004 134.046C163.053 133.508 163.111 132.882 163.111 132.372H161.111ZM146.809 118.13C150.902 118.13 154.47 119.5 157.007 121.93C159.537 124.353 161.111 127.893 161.111 132.372H163.111C163.111 127.401 161.351 123.32 158.39 120.485C155.435 117.656 151.351 116.13 146.809 116.13V118.13ZM132.129 132.263C132.129 124.108 138.365 118.13 146.809 118.13V116.13C137.337 116.13 130.129 122.929 130.129 132.263H132.129ZM147.903 146.396C143.033 146.396 139.094 144.868 136.383 142.373C133.677 139.883 132.129 136.372 132.129 132.263H130.129C130.129 136.899 131.888 140.954 135.028 143.844C138.164 146.73 142.612 148.396 147.903 148.396V146.396ZM159.281 141.984C156.783 144.832 152.992 146.396 147.903 146.396V148.396C153.413 148.396 157.815 146.688 160.785 143.303L159.281 141.984ZM154.764 138.404L159.298 143.321L160.768 141.965L156.234 137.049L154.764 138.404ZM148.122 141.57C151.487 141.57 153.972 140.547 156.186 138.453L154.812 137C152.979 138.734 150.99 139.57 148.122 139.57V141.57ZM138.734 134.887C139.673 139.1 143.282 141.57 148.122 141.57V139.57C144.003 139.57 141.378 137.556 140.686 134.452L138.734 134.887ZM139.576 130.698H154.057V128.698H139.576V130.698ZM139.355 128.722L139.335 128.727L139.817 130.668L139.837 130.663L139.355 128.722ZM146.844 122.578C144.722 122.578 142.825 123.231 141.366 124.457C139.907 125.684 138.943 127.437 138.608 129.535L140.583 129.85C140.85 128.181 141.596 126.876 142.653 125.988C143.712 125.098 145.138 124.578 146.844 124.578V122.578ZM155.044 129.538C154.365 125.342 151.164 122.578 146.844 122.578V124.578C150.179 124.578 152.547 126.627 153.07 129.858L155.044 129.538Z" fill="#010326" mask="url(#path-1-inside-1_6_3)"/>
</g>
<g id="green_vector">
<mask id="path-3-inside-2_6_3" fill="white">
<path fill-rule="evenodd" clip-rule="evenodd" d="M185.462 51.8068C184.169 62.4256 180.829 72.3783 173.342 80.9042C168.057 86.9295 161.535 91.3441 152.999 92.9399C151.919 93.147 150.818 93.2567 149.678 93.3704L149.678 93.3705C149.148 93.4232 148.611 93.4768 148.062 93.5414C149.273 91.6594 150.376 89.7109 151.368 87.705C151.668 87.1445 151.914 86.5569 152.104 85.9501C155.291 76.4101 154.306 65.7067 151.04 56.1219C151.915 56.0424 152.785 55.8883 153.65 55.7242C157.781 54.9338 164.025 53.0099 167.187 49.9376C169.642 47.6559 171.256 44.6139 171.771 41.3023C171.821 41.1557 171.813 40.9954 171.748 40.8546C171.684 40.7138 171.567 40.6035 171.423 40.5466C168.623 39.0157 165.487 38.2026 162.295 38.1803C158.716 38.1355 152.969 39.612 149.782 41.2029C149.173 41.5052 148.568 41.8221 147.963 42.1389L147.963 42.1389L147.963 42.139L147.963 42.139L147.963 42.1391L147.963 42.1391C147.245 42.5149 146.528 42.8905 145.805 43.2411L143.613 38.2697C140.461 31.9611 139.83 25.026 141.087 18.086C141.858 11.5089 144.766 5.16042 150.036 0.55196C150.565 0.151805 151.225 -0.0361435 151.885 0.0249962C158.582 0.924814 164.189 3.80821 169.022 7.94936C177.125 14.9093 181.704 23.5992 184.015 33.3033C185.457 39.3784 186.218 45.5528 185.462 51.8068ZM177.517 112.209H164.095V108.729H195.022V112.209H181.599V146.964H177.557L177.517 112.209ZM214.181 121.774V118C208.877 118 205.218 120.019 203.393 123.847V118.219H199.68V146.964H203.577V132.318C203.577 125.542 207.241 121.719 213.252 121.719C213.382 121.719 213.525 121.732 213.674 121.745C213.838 121.759 214.01 121.774 214.181 121.774ZM247.813 133.794H223.771C224.209 139.805 228.802 143.792 235.081 143.792C238.561 143.792 241.693 142.534 243.88 140.024L246.068 142.509C243.498 145.572 239.511 147.212 234.972 147.212C226.023 147.212 219.894 141.087 219.894 132.567C219.894 124.046 225.859 117.976 233.938 117.976C242.016 117.976 247.858 123.941 247.858 132.567C247.863 132.766 247.85 132.974 247.837 133.191C247.825 133.386 247.813 133.587 247.813 133.794ZM223.771 130.896H244.154C243.657 125.269 239.565 121.336 233.938 121.336C228.31 121.336 224.263 125.269 223.771 130.896ZM255.584 133.794H279.625C279.625 133.596 279.637 133.403 279.647 133.215C279.661 132.99 279.673 132.773 279.665 132.567C279.665 123.941 273.819 117.976 265.745 117.976C257.672 117.976 251.706 124.046 251.706 132.567C251.706 141.087 257.836 147.212 266.784 147.212C271.318 147.212 275.31 145.572 277.875 142.509L275.693 140.024C273.506 142.534 270.374 143.792 266.894 143.792C260.61 143.792 256.021 139.805 255.584 133.794ZM275.966 130.896H255.584C256.076 125.269 260.118 121.336 265.745 121.336C271.373 121.336 275.469 125.269 275.966 130.896Z"/>
</mask>
<path fill-rule="evenodd" clip-rule="evenodd" d="M185.462 51.8068C184.169 62.4256 180.829 72.3783 173.342 80.9042C168.057 86.9295 161.535 91.3441 152.999 92.9399C151.919 93.147 150.818 93.2567 149.678 93.3704L149.678 93.3705C149.148 93.4232 148.611 93.4768 148.062 93.5414C149.273 91.6594 150.376 89.7109 151.368 87.705C151.668 87.1445 151.914 86.5569 152.104 85.9501C155.291 76.4101 154.306 65.7067 151.04 56.1219C151.915 56.0424 152.785 55.8883 153.65 55.7242C157.781 54.9338 164.025 53.0099 167.187 49.9376C169.642 47.6559 171.256 44.6139 171.771 41.3023C171.821 41.1557 171.813 40.9954 171.748 40.8546C171.684 40.7138 171.567 40.6035 171.423 40.5466C168.623 39.0157 165.487 38.2026 162.295 38.1803C158.716 38.1355 152.969 39.612 149.782 41.2029C149.173 41.5052 148.568 41.8221 147.963 42.1389L147.963 42.1389L147.963 42.139L147.963 42.139L147.963 42.1391L147.963 42.1391C147.245 42.5149 146.528 42.8905 145.805 43.2411L143.613 38.2697C140.461 31.9611 139.83 25.026 141.087 18.086C141.858 11.5089 144.766 5.16042 150.036 0.55196C150.565 0.151805 151.225 -0.0361435 151.885 0.0249962C158.582 0.924814 164.189 3.80821 169.022 7.94936C177.125 14.9093 181.704 23.5992 184.015 33.3033C185.457 39.3784 186.218 45.5528 185.462 51.8068ZM177.517 112.209H164.095V108.729H195.022V112.209H181.599V146.964H177.557L177.517 112.209ZM214.181 121.774V118C208.877 118 205.218 120.019 203.393 123.847V118.219H199.68V146.964H203.577V132.318C203.577 125.542 207.241 121.719 213.252 121.719C213.382 121.719 213.525 121.732 213.674 121.745C213.838 121.759 214.01 121.774 214.181 121.774ZM247.813 133.794H223.771C224.209 139.805 228.802 143.792 235.081 143.792C238.561 143.792 241.693 142.534 243.88 140.024L246.068 142.509C243.498 145.572 239.511 147.212 234.972 147.212C226.023 147.212 219.894 141.087 219.894 132.567C219.894 124.046 225.859 117.976 233.938 117.976C242.016 117.976 247.858 123.941 247.858 132.567C247.863 132.766 247.85 132.974 247.837 133.191C247.825 133.386 247.813 133.587 247.813 133.794ZM223.771 130.896H244.154C243.657 125.269 239.565 121.336 233.938 121.336C228.31 121.336 224.263 125.269 223.771 130.896ZM255.584 133.794H279.625C279.625 133.596 279.637 133.403 279.647 133.215C279.661 132.99 279.673 132.773 279.665 132.567C279.665 123.941 273.819 117.976 265.745 117.976C257.672 117.976 251.706 124.046 251.706 132.567C251.706 141.087 257.836 147.212 266.784 147.212C271.318 147.212 275.31 145.572 277.875 142.509L275.693 140.024C273.506 142.534 270.374 143.792 266.894 143.792C260.61 143.792 256.021 139.805 255.584 133.794ZM275.966 130.896H255.584C256.076 125.269 260.118 121.336 265.745 121.336C271.373 121.336 275.469 125.269 275.966 130.896Z" fill="#05F29B"/>
<path d="M173.342 80.9042L172.59 80.2444L172.59 80.2448L173.342 80.9042ZM185.462 51.8068L186.455 51.9276L186.455 51.9267L185.462 51.8068ZM152.999 92.9399L152.815 91.9569L152.81 91.9578L152.999 92.9399ZM149.678 93.3704L149.755 94.3675L149.766 94.3666L149.777 94.3655L149.678 93.3704ZM149.678 93.3705L149.601 92.3734L149.59 92.3743L149.578 92.3754L149.678 93.3705ZM148.062 93.5414L147.221 93.0005L146.075 94.7824L148.179 94.5346L148.062 93.5414ZM151.368 87.705L150.486 87.2335L150.479 87.2475L150.472 87.2618L151.368 87.705ZM152.104 85.9501L151.156 85.6333L151.152 85.6425L151.15 85.6518L152.104 85.9501ZM151.04 56.1219L150.95 55.126L149.684 55.2411L150.094 56.4445L151.04 56.1219ZM153.65 55.7242L153.836 56.7067L153.838 56.7064L153.65 55.7242ZM167.187 49.9376L166.506 49.2051L166.498 49.2127L166.49 49.2204L167.187 49.9376ZM171.771 41.3023L170.825 40.9763L170.796 41.0607L170.783 41.1488L171.771 41.3023ZM171.423 40.5466L170.943 41.4241L170.998 41.454L171.056 41.4769L171.423 40.5466ZM162.295 38.1803L162.283 39.1802L162.288 39.1802L162.295 38.1803ZM149.782 41.2029L150.227 42.0986L150.229 42.0976L149.782 41.2029ZM147.963 42.1389L148.4 43.0387L148.414 43.0319L148.427 43.0247L147.963 42.1389ZM147.963 42.139L147.527 41.2391L147.515 41.2451L147.963 42.139ZM147.963 42.1391L147.515 41.2452L147.493 41.256L147.472 41.2678L147.963 42.1391ZM147.963 42.1391L148.427 43.025L148.44 43.0179L148.454 43.0104L147.963 42.1391ZM145.805 43.2411L144.89 43.6446L145.309 44.5934L146.242 44.1408L145.805 43.2411ZM143.613 38.2697L144.528 37.8662L144.518 37.8443L144.507 37.8228L143.613 38.2697ZM141.087 18.086L142.071 18.2643L142.077 18.2335L142.081 18.2024L141.087 18.086ZM150.036 0.55196L149.433 -0.245653L149.404 -0.224203L149.378 -0.200792L150.036 0.55196ZM151.885 0.0249962L152.018 -0.966096L151.998 -0.968846L151.977 -0.970748L151.885 0.0249962ZM169.022 7.94936L169.673 7.19076L169.672 7.19005L169.022 7.94936ZM184.015 33.3033L184.988 33.0724L184.988 33.0716L184.015 33.3033ZM164.095 112.209H163.095V113.209H164.095V112.209ZM177.517 112.209L178.517 112.208L178.516 111.209H177.517V112.209ZM164.095 108.729V107.729H163.095V108.729H164.095ZM195.022 108.729H196.022V107.729H195.022V108.729ZM195.022 112.209V113.209H196.022V112.209H195.022ZM181.599 112.209V111.209H180.599V112.209H181.599ZM181.599 146.964V147.964H182.599V146.964H181.599ZM177.557 146.964L176.557 146.965L176.558 147.964H177.557V146.964ZM214.181 118H215.181V117H214.181V118ZM214.181 121.774V122.774H215.181V121.774H214.181ZM203.393 123.847H202.393L204.296 124.277L203.393 123.847ZM203.393 118.219H204.393V117.219H203.393V118.219ZM199.68 118.219V117.219H198.68V118.219H199.68ZM199.68 146.964H198.68V147.964H199.68V146.964ZM203.577 146.964V147.964H204.577V146.964H203.577ZM213.674 121.745L213.588 122.741L213.588 122.741L213.674 121.745ZM223.771 133.794V132.794H222.696L222.774 133.867L223.771 133.794ZM247.813 133.794V134.794H248.813V133.794H247.813ZM243.88 140.024L244.631 139.363L243.877 138.506L243.126 139.367L243.88 140.024ZM246.068 142.509L246.834 143.152L247.386 142.494L246.819 141.849L246.068 142.509ZM247.858 132.567H246.858V132.58L246.858 132.593L247.858 132.567ZM247.837 133.191L248.835 133.252L248.835 133.252L247.837 133.191ZM244.154 130.896V131.896H245.246L245.15 130.808L244.154 130.896ZM223.771 130.896L222.775 130.809L222.68 131.896H223.771V130.896ZM279.625 133.794V134.794H280.625V133.794H279.625ZM255.584 133.794V132.794H254.508L254.586 133.867L255.584 133.794ZM279.647 133.215L278.649 133.157L278.649 133.157L279.647 133.215ZM279.665 132.567H278.665V132.586L278.666 132.606L279.665 132.567ZM277.875 142.509L278.642 143.151L279.193 142.494L278.627 141.849L277.875 142.509ZM275.693 140.024L276.444 139.364L275.69 138.505L274.939 139.367L275.693 140.024ZM255.584 130.896L254.588 130.809L254.492 131.896H255.584V130.896ZM275.966 130.896V131.896H277.059L276.962 130.808L275.966 130.896ZM174.093 81.5641C181.75 72.8441 185.146 62.6812 186.455 51.9276L184.469 51.6859C183.193 62.17 179.907 71.9125 172.59 80.2444L174.093 81.5641ZM153.183 93.9229C161.981 92.2781 168.692 87.7223 174.094 81.5636L172.59 80.2448C167.422 86.1367 161.089 90.4101 152.815 91.9569L153.183 93.9229ZM149.777 94.3655C150.91 94.2526 152.056 94.1391 153.187 93.922L152.81 91.9578C151.783 92.155 150.727 92.2609 149.579 92.3754L149.777 94.3655ZM149.754 94.3675L149.755 94.3675L149.601 92.3734L149.601 92.3734L149.754 94.3675ZM148.179 94.5346C148.717 94.4712 149.246 94.4184 149.777 94.3655L149.578 92.3754C149.051 92.428 148.504 92.4825 147.945 92.5483L148.179 94.5346ZM150.472 87.2618C149.497 89.234 148.411 91.15 147.221 93.0005L148.903 94.0823C150.134 92.1688 151.256 90.1877 152.265 88.1483L150.472 87.2618ZM151.15 85.6518C150.979 86.1987 150.757 86.7282 150.486 87.2335L152.25 88.1766C152.579 87.5607 152.85 86.9151 153.058 86.2485L151.15 85.6518ZM150.094 56.4445C153.312 65.8897 154.253 76.3597 151.156 85.6333L153.052 86.267C156.328 76.4604 155.3 65.5237 151.987 55.7994L150.094 56.4445ZM153.464 54.7417C152.602 54.9052 151.773 55.0512 150.95 55.126L151.131 57.1178C152.057 57.0336 152.968 56.8714 153.836 56.7067L153.464 54.7417ZM166.49 49.2204C165.05 50.62 162.843 51.8101 160.419 52.7549C158.013 53.6928 155.479 54.3561 153.462 54.742L153.838 56.7064C155.952 56.3018 158.606 55.608 161.145 54.6183C163.667 53.6354 166.163 52.3274 167.884 50.6547L166.49 49.2204ZM170.783 41.1488C170.303 44.2384 168.796 47.0764 166.506 49.2051L167.868 50.67C170.487 48.2353 172.21 44.9894 172.759 41.4557L170.783 41.1488ZM170.84 41.2729C170.797 41.1796 170.792 41.0734 170.825 40.9763L172.716 41.6282C172.851 41.2381 172.829 40.8111 172.657 40.4363L170.84 41.2729ZM171.056 41.4769C170.96 41.4393 170.883 41.3662 170.84 41.2729L172.657 40.4363C172.484 40.0614 172.173 39.7677 171.79 39.6164L171.056 41.4769ZM162.288 39.1802C165.314 39.2015 168.288 39.9724 170.943 41.4241L171.902 39.6692C168.957 38.059 165.659 37.2038 162.302 37.1803L162.288 39.1802ZM150.229 42.0976C151.736 41.3454 153.894 40.6004 156.131 40.0492C158.372 39.497 160.612 39.1593 162.283 39.1802L162.308 37.1803C160.4 37.1565 157.976 37.5347 155.652 38.1073C153.324 38.6808 151.016 39.4695 149.336 40.3082L150.229 42.0976ZM148.427 43.0247C149.034 42.7071 149.629 42.3953 150.227 42.0986L149.338 40.3071C148.717 40.6151 148.102 40.9371 147.499 41.253L148.427 43.0247ZM148.399 43.0387L148.4 43.0387L147.527 41.2391L147.527 41.2391L148.399 43.0387ZM148.399 43.0388L148.399 43.0387L147.527 41.2391L147.527 41.2391L148.399 43.0388ZM148.399 43.0388L148.399 43.0388L147.527 41.2391L147.527 41.2392L148.399 43.0388ZM148.411 43.033L148.411 43.0329L147.515 41.2451L147.515 41.2452L148.411 43.033ZM148.454 43.0104L148.454 43.0103L147.472 41.2678L147.472 41.2679L148.454 43.0104ZM146.242 44.1408C146.981 43.7823 147.712 43.3996 148.427 43.025L147.499 41.2533C146.779 41.6303 146.076 41.9986 145.369 42.3414L146.242 44.1408ZM142.698 38.6732L144.89 43.6446L146.72 42.8376L144.528 37.8662L142.698 38.6732ZM140.104 17.9077C138.814 25.0227 139.454 32.1832 142.718 38.7167L144.507 37.8228C141.468 31.739 140.845 25.0293 142.071 18.2643L140.104 17.9077ZM149.378 -0.200792C143.897 4.59246 140.89 11.1807 140.094 17.9696L142.081 18.2024C142.826 11.837 145.636 5.72838 150.694 1.30471L149.378 -0.200792ZM151.977 -0.970748C151.068 -1.05488 150.161 -0.796258 149.433 -0.245653L150.639 1.34957C150.969 1.09987 151.381 0.982589 151.793 1.02074L151.977 -0.970748ZM169.672 7.19005C164.718 2.94449 158.936 -0.0365617 152.018 -0.966096L151.752 1.01609C158.227 1.88619 163.661 4.67193 168.371 8.70867L169.672 7.19005ZM184.988 33.0716C182.636 23.1989 177.963 14.3106 169.673 7.19076L168.37 8.70796C176.287 15.5079 180.771 23.9996 183.042 33.5351L184.988 33.0716ZM186.455 51.9267C187.229 45.5155 186.446 39.2151 184.988 33.0724L183.042 33.5343C184.468 39.5416 185.206 45.5901 184.469 51.6868L186.455 51.9267ZM164.095 113.209H177.517V111.209H164.095V113.209ZM163.095 108.729V112.209H165.095V108.729H163.095ZM195.022 107.729H164.095V109.729H195.022V107.729ZM196.022 112.209V108.729H194.022V112.209H196.022ZM181.599 113.209H195.022V111.209H181.599V113.209ZM182.599 146.964V112.209H180.599V146.964H182.599ZM177.557 147.964H181.599V145.964H177.557V147.964ZM176.517 112.21L176.557 146.965L178.557 146.962L178.517 112.208L176.517 112.21ZM213.181 118V121.774H215.181V118H213.181ZM204.296 124.277C205.913 120.884 209.156 119 214.181 119V117C208.598 117 204.522 119.154 202.491 123.417L204.296 124.277ZM202.393 118.219V123.847H204.393V118.219H202.393ZM199.68 119.219H203.393V117.219H199.68V119.219ZM200.68 146.964V118.219H198.68V146.964H200.68ZM203.577 145.964H199.68V147.964H203.577V145.964ZM202.577 132.318V146.964H204.577V132.318H202.577ZM213.252 120.719C210.028 120.719 207.32 121.751 205.426 123.799C203.542 125.836 202.577 128.756 202.577 132.318H204.577C204.577 129.104 205.445 126.724 206.895 125.157C208.335 123.599 210.464 122.719 213.252 122.719V120.719ZM213.761 120.748C213.623 120.736 213.434 120.719 213.252 120.719V122.719C213.33 122.719 213.427 122.727 213.588 122.741L213.761 120.748ZM214.181 120.774C214.06 120.774 213.932 120.763 213.761 120.748L213.588 122.741C213.744 122.754 213.959 122.774 214.181 122.774V120.774ZM223.771 134.794H247.813V132.794H223.771V134.794ZM235.081 142.792C229.275 142.792 225.164 139.16 224.769 133.722L222.774 133.867C223.253 140.45 228.33 144.792 235.081 144.792V142.792ZM243.126 139.367C241.155 141.629 238.315 142.792 235.081 142.792V144.792C238.807 144.792 242.231 143.439 244.634 140.681L243.126 139.367ZM246.819 141.849L244.631 139.363L243.13 140.684L245.317 143.17L246.819 141.849ZM234.972 148.212C239.748 148.212 244.039 146.482 246.834 143.152L245.302 141.866C242.956 144.661 239.273 146.212 234.972 146.212V148.212ZM218.894 132.567C218.894 137.074 220.519 141 223.377 143.799C226.234 146.597 230.264 148.212 234.972 148.212V146.212C230.731 146.212 227.221 144.765 224.777 142.37C222.333 139.977 220.894 136.58 220.894 132.567H218.894ZM233.938 116.976C225.277 116.976 218.894 123.524 218.894 132.567H220.894C220.894 124.567 226.441 118.976 233.938 118.976V116.976ZM248.858 132.567C248.858 128.024 247.316 124.119 244.648 121.344C241.978 118.566 238.232 116.976 233.938 116.976V118.976C237.722 118.976 240.936 120.368 243.206 122.73C245.478 125.093 246.858 128.484 246.858 132.567H248.858ZM248.835 133.252C248.848 133.044 248.864 132.791 248.857 132.54L246.858 132.593C246.862 132.74 246.852 132.904 246.839 133.13L248.835 133.252ZM248.813 133.794C248.813 133.623 248.823 133.451 248.835 133.252L246.839 133.13C246.827 133.321 246.813 133.552 246.813 133.794H248.813ZM244.154 129.896H223.771V131.896H244.154V129.896ZM233.938 122.336C239.021 122.336 242.704 125.846 243.158 130.984L245.15 130.808C244.61 124.691 240.11 120.336 233.938 120.336V122.336ZM224.767 130.983C225.217 125.84 228.86 122.336 233.938 122.336V120.336C227.76 120.336 223.31 124.697 222.775 130.809L224.767 130.983ZM279.625 132.794H255.584V134.794H279.625V132.794ZM278.649 133.157C278.638 133.34 278.625 133.562 278.625 133.794H280.625C280.625 133.63 280.635 133.465 280.646 133.273L278.649 133.157ZM278.666 132.606C278.672 132.755 278.663 132.921 278.649 133.157L280.646 133.273C280.658 133.058 280.675 132.791 280.664 132.527L278.666 132.606ZM265.745 118.976C269.527 118.976 272.741 120.368 275.012 122.73C277.285 125.093 278.665 128.484 278.665 132.567H280.665C280.665 128.024 279.122 124.119 276.454 121.343C273.783 118.566 270.037 116.976 265.745 116.976V118.976ZM252.706 132.567C252.706 124.567 258.254 118.976 265.745 118.976V116.976C257.089 116.976 250.706 123.524 250.706 132.567H252.706ZM266.784 146.212C262.543 146.212 259.034 144.765 256.589 142.37C254.145 139.977 252.706 136.58 252.706 132.567H250.706C250.706 137.074 252.332 141 255.19 143.799C258.047 146.597 262.077 148.212 266.784 148.212V146.212ZM277.109 141.867C274.768 144.661 271.081 146.212 266.784 146.212V148.212C271.555 148.212 275.852 146.482 278.642 143.151L277.109 141.867ZM274.941 140.683L277.124 143.169L278.627 141.849L276.444 139.364L274.941 140.683ZM266.894 144.792C270.62 144.792 274.043 143.439 276.447 140.681L274.939 139.367C272.968 141.629 270.127 142.792 266.894 142.792V144.792ZM254.586 133.867C255.065 140.45 260.137 144.792 266.894 144.792V142.792C261.083 142.792 256.977 139.16 256.581 133.722L254.586 133.867ZM255.584 131.896H275.966V129.896H255.584V131.896ZM265.745 120.336C259.567 120.336 255.122 124.698 254.588 130.809L256.58 130.983C257.03 125.84 260.668 122.336 265.745 122.336V120.336ZM276.962 130.808C276.422 124.691 271.917 120.336 265.745 120.336V122.336C270.829 122.336 274.516 125.847 274.97 130.984L276.962 130.808Z" fill="#05F29B" mask="url(#path-3-inside-2_6_3)"/>
</g>
</g>
</svg>
