<svg width="38" height="39" viewBox="0 0 38 39" fill="none" xmlns="http://www.w3.org/2000/svg">
<path d="M37.876 21.5996C37.3365 26.0269 35.942 30.1765 32.8168 33.7312C30.6109 36.2433 27.8883 38.0839 24.3253 38.7492C23.6654 38.8756 22.9868 38.915 22.2647 39C22.7699 38.2153 23.2306 37.4029 23.6447 36.5666C23.7698 36.3329 23.8726 36.0879 23.9518 35.835C25.2819 31.8574 24.8711 27.3949 23.5077 23.3988C23.8729 23.3656 24.2361 23.3013 24.5971 23.2329C26.3216 22.9034 28.928 22.1013 30.2478 20.8203C31.2724 19.869 31.9464 18.6008 32.161 17.22C32.1821 17.1589 32.1788 17.0921 32.1517 17.0334C32.1247 16.9747 32.076 16.9287 32.0158 16.905C30.8469 16.2667 29.5379 15.9277 28.2058 15.9184C26.7117 15.8997 24.3129 16.5153 22.9827 17.1786C22.4266 17.4543 21.8787 17.7589 21.3226 18.0284L20.4074 15.9557C19.0918 13.3254 18.8283 10.434 19.3533 7.54052C19.6749 4.79834 20.8889 2.1515 23.0885 0.230104C23.3094 0.063268 23.5847 -0.0150931 23.8605 0.0103977C26.6557 0.385557 28.9965 1.58772 31.0135 3.31428C34.396 6.21607 36.3072 9.83915 37.2721 13.8851C37.8739 16.4179 38.1914 18.9922 37.876 21.5996Z" fill="#05F29B"/>
<path d="M15.7302 0C15.1844 1.24362 14.6117 2.35666 14.1884 3.52359C12.7669 7.80372 12.7669 12.0217 14.1054 16.3743C14.9603 18.6875 16.0705 20.9343 17.0749 23.1935C18.2909 25.944 18.9985 28.7649 18.6478 31.7496C18.3283 34.4918 17.1122 36.8485 14.9126 38.7761C14.692 38.9417 14.4175 39.0193 14.1427 38.9937C11.3475 38.6186 9.00673 37.4185 6.98969 35.6898C3.60513 32.7881 1.696 29.1671 0.731059 25.1191C0.125118 22.58 -0.192376 20.0057 0.125121 17.4003C0.664658 12.971 2.05707 8.82348 5.18431 5.26673C7.39227 2.75669 10.1128 0.914064 13.6737 0.248727C14.3295 0.126437 15.0101 0.0870534 15.7302 0Z" fill="#010326"/>
</svg>
