<svg width="280" height="50" viewBox="0 0 280 50" fill="none" xmlns="http://www.w3.org/2000/svg">
<path d="M0.619612 35.0069L3.19698 29.2465C6.88531 31.651 11.1906 32.9485 15.6018 32.978H15.6051C18.2724 32.978 20.2238 32.5357 21.5247 31.7349C22.8555 30.9156 23.4826 29.7318 23.4826 28.3766C23.4826 27.3314 23.0688 26.4981 22.3717 25.8351C21.6912 25.1879 20.7484 24.7086 19.6808 24.3157C18.6086 23.9211 17.3677 23.5986 16.0628 23.2872C15.6382 23.1859 15.2076 23.0859 14.7724 22.9848C13.8595 22.7729 12.927 22.5563 11.9896 22.3134C9.21978 21.5958 6.52792 20.6756 4.53036 19.096C2.56247 17.5399 1.24571 15.3265 1.24571 11.9313C1.24571 8.82378 2.49424 5.98608 5.04249 3.91521C7.59915 1.83752 11.5055 0.5 16.8629 0.5C21.4419 0.5 26.0931 1.55864 29.5182 3.59059L27.1592 9.38949C23.9928 7.63597 20.4415 6.68495 16.8166 6.62405V6.62398H16.8082C14.1338 6.62398 12.2023 7.12916 10.925 8.00328C9.62426 8.89338 9.04006 10.1419 9.04006 11.4938C9.04006 12.5282 9.45627 13.3512 10.1541 14.0042C10.835 14.6414 11.7779 15.1127 12.8452 15.4991C14.2469 16.0065 15.9763 16.4023 17.776 16.8141C18.6895 17.0231 19.6211 17.2363 20.5372 17.4704C23.3079 18.1782 26.0008 19.087 27.9989 20.6476C29.967 22.1847 31.282 24.3698 31.282 27.7204C31.282 30.7691 30.023 33.5887 27.4529 35.6566C24.8748 37.731 20.9399 39.0771 15.5554 39.0771H15.5542C9.76391 39.0913 3.9516 37.4183 0.619612 35.0069Z" fill="#010326" stroke="#010326"/>
<path d="M50.481 33.1071C51.6067 33.1213 52.7109 32.8298 53.6782 32.2694L55.6126 37.3273C53.9918 38.3584 51.6851 38.8732 49.2612 38.8732C45.8607 38.8732 43.2557 38.0063 41.5027 36.3596C39.755 34.7179 38.7795 32.2305 38.7795 28.8289V16.7534V16.2534H38.2795H34.2456V10.6962H38.2795H38.7795V10.1962V3.54736H46.3054V10.2012V10.7012H46.8054H53.6232V16.2584H46.8253H46.3253V16.7584V28.7245C46.3253 30.0698 46.6919 31.1796 47.4342 31.9549C48.1786 32.7325 49.2366 33.1065 50.481 33.1071Z" fill="#010326" stroke="#010326"/>
<path d="M86.5392 22.1623V38.8384H79.5601V35.2718V33.4403L78.6295 35.0177C77.1703 37.4909 74.3131 38.8682 70.1116 38.8682C66.7591 38.8682 64.1366 37.938 62.3613 36.4395C60.592 34.9461 59.6299 32.8614 59.6299 30.4645C59.6299 27.9984 60.4918 25.9574 62.3829 24.5162C64.2959 23.0582 67.3259 22.1651 71.7522 22.1651H78.5232H79.0232V21.6651C79.0232 19.7344 78.444 18.1329 77.1898 17.0228C75.946 15.9219 74.1154 15.3735 71.7522 15.3735C68.7674 15.3735 65.675 16.2947 63.4749 17.851L60.8887 12.8047C63.9938 10.7378 68.4446 9.5926 72.9151 9.59253C77.3184 9.59994 80.7104 10.6262 82.9983 12.6672C85.2758 14.6989 86.5392 17.8085 86.5392 22.1623ZM79.0132 26.6663V26.1663H78.5132H72.6669C70.6306 26.1663 69.1908 26.5455 68.2513 27.257C67.2847 27.989 66.9221 29.0139 66.9221 30.1065C66.9221 31.3301 67.4472 32.3656 68.4002 33.081C69.3391 33.7857 70.6588 34.1561 72.2344 34.1561L72.2379 34.1561C75.228 34.1351 77.914 32.7452 78.9829 29.8208L78.5132 29.6492H79.0132V26.6663Z" fill="#010326" stroke="#010326"/>
<path d="M95.1239 45.7925L98.0131 40.5835C100.645 42.4827 104.599 43.6713 108.236 43.6713C111.307 43.6713 113.616 42.9738 115.154 41.503C116.696 40.0278 117.372 37.8633 117.372 35.1375V33.8698V32.5786L116.502 33.5331C114.376 35.8668 111.297 37.0337 107.58 37.0337C99.6801 37.0337 93.3799 31.5979 93.3799 23.3255C93.3799 15.0533 99.6798 9.62231 107.58 9.62231C111.563 9.62231 114.791 10.942 116.917 13.6377L117.809 14.7698V13.3281V10.0539L124.893 10.0408V34.0189C124.893 39.4003 123.443 43.2366 120.775 45.7344C118.102 48.238 114.122 49.4771 108.893 49.4771C103.567 49.4771 98.4533 48.2113 95.1239 45.7925ZM117.476 23.3106C117.476 21.0222 116.619 19.083 115.145 17.7188C113.675 16.3578 111.623 15.5972 109.275 15.5972C106.928 15.5972 104.862 16.3575 103.378 17.717C101.89 19.0799 101.015 21.0192 101.015 23.3106C101.015 25.602 101.89 27.5413 103.378 28.9043C104.862 30.2637 106.928 31.0241 109.275 31.0241C111.623 31.0241 113.675 30.2635 115.145 28.9024C116.619 27.5383 117.476 25.5991 117.476 23.3106Z" fill="#010326" stroke="#010326"/>
<path d="M148.122 33.0472C151.173 33.0472 153.445 32.1818 155.468 30.4078L159.355 34.6226C156.741 37.3918 152.901 38.8729 147.903 38.8729C142.927 38.8729 138.861 37.3102 136.044 34.7178C133.23 32.1276 131.629 28.4806 131.629 24.24C131.629 15.7902 138.108 9.60718 146.809 9.60718C151.015 9.60718 154.711 11.0163 157.352 13.5455C159.991 16.0716 161.611 19.7472 161.611 24.3494C161.611 24.7803 161.562 25.3156 161.513 25.8567C161.504 25.9532 161.495 26.0499 161.487 26.1462H139.71H139.086L139.222 26.7549C140.099 30.6912 143.462 33.0472 148.122 33.0472ZM139.512 21.6565L139.576 22.1748H154.057H154.645L154.551 21.5948C153.91 17.64 150.918 15.055 146.844 15.055C144.826 15.055 143.046 15.6749 141.688 16.8166C140.329 17.9588 139.42 19.5997 139.102 21.591L139.512 21.6565Z" fill="#010326" stroke="#010326"/>
<path d="M178.017 4.1852L178.017 3.68577H177.517H164.595V1.20581H194.522V3.68577H181.599H181.099V4.18577V38.4406H178.057L178.017 4.1852Z" fill="#05F29B" stroke="#05F29B"/>
<path d="M213.681 13.2203C213.545 13.2085 213.394 13.1961 213.252 13.1961C210.137 13.1961 207.574 14.1897 205.793 16.1151C204.017 18.0354 203.077 20.8203 203.077 24.2951V38.4407H200.18V10.6963H202.893V15.8239L203.845 16.039C205.509 12.5464 208.793 10.6066 213.681 10.4838V13.2203Z" fill="#05F29B" stroke="#05F29B"/>
<path d="M247.33 25.2715H223.771H223.234L223.273 25.8078C223.731 32.1044 228.566 36.269 235.081 36.269C238.487 36.269 241.603 35.1024 243.873 32.7488L245.403 34.488C242.939 37.2106 239.227 38.6893 234.972 38.6893C230.614 38.6893 226.975 37.1999 224.427 34.7046C221.879 32.2096 220.394 28.6805 220.394 24.5436C220.394 16.2836 226.15 10.4526 233.938 10.4526C237.849 10.4526 241.196 11.8946 243.567 14.3601C245.938 16.8267 247.358 20.3458 247.358 24.5436H247.357L247.358 24.5567C247.362 24.7207 247.352 24.8973 247.34 25.105L247.338 25.1409C247.335 25.1834 247.332 25.227 247.33 25.2715ZM223.273 22.8297L223.226 23.3732H223.771H244.154H244.7L244.652 22.8292C244.133 16.9569 239.838 12.8133 233.938 12.8133C228.035 12.8133 223.787 16.9598 223.273 22.8297Z" fill="#05F29B" stroke="#05F29B"/>
<path d="M279.142 25.2715H255.584H255.046L255.085 25.8078C255.543 32.1043 260.373 36.269 266.894 36.269C270.3 36.269 273.415 35.1026 275.685 32.7492L277.211 34.4879C274.752 37.2104 271.035 38.6893 266.784 38.6893C262.427 38.6893 258.787 37.1999 256.239 34.7046C253.692 32.2096 252.206 28.6805 252.206 24.5436C252.206 16.2835 257.963 10.4526 265.745 10.4526C269.654 10.4526 273.001 11.8945 275.372 14.3602C277.744 16.8268 279.165 20.3459 279.165 24.5436V24.5535L279.165 24.5633C279.172 24.7248 279.163 24.8999 279.152 25.1065C279.15 25.1254 279.149 25.1446 279.148 25.1641C279.146 25.1992 279.144 25.235 279.142 25.2715ZM275.966 23.3732H276.512L276.464 22.8292C275.946 16.9566 271.645 12.8133 265.745 12.8133C259.842 12.8133 255.599 16.9601 255.086 22.8297L255.584 22.8732V23.3732H275.966Z" fill="#05F29B" stroke="#05F29B"/>
</svg>
