<svg width="92" height="94" viewBox="0 0 92 94" fill="none" xmlns="http://www.w3.org/2000/svg">
<rect width="92" height="94" fill="#A4A4A4"/>
<g id="logo">
<path id="blue-vector" d="M36.8733 0.594655C36.5592 1.29387 36.2416 1.98186 35.9271 2.6631C35.0531 4.55616 34.2033 6.39698 33.5206 8.28099L33.5204 8.28093L33.5161 8.2939C30.0767 18.6625 30.0782 28.8857 33.3139 39.4206L33.318 39.4339L33.3228 39.447C34.8028 43.4561 36.6044 47.3905 38.3911 51.2927C39.0858 52.8099 39.7783 54.3222 40.4487 55.8321C43.3403 62.3803 45.0038 69.0534 44.1776 76.0932L44.1775 76.0936C43.4271 82.5402 40.579 88.0753 35.4109 92.6154C34.9868 92.9286 34.4627 93.076 33.9373 93.0294C27.356 92.1428 21.839 89.3139 17.0707 85.2226C9.05565 78.3428 4.52941 69.757 2.23778 60.1322L2.23775 60.1321C0.794229 54.0762 0.0450844 47.9651 0.796086 41.7951L0.29975 41.7347L0.79609 41.795C2.08045 31.2386 5.38899 21.396 12.7956 12.9623L36.8733 0.594655ZM36.8733 0.594655C36.5722 0.626568 36.2762 0.656259 35.9845 0.685527C34.8974 0.794573 33.869 0.897745 32.8496 1.08808C24.4502 2.65934 18.027 7.00805 12.7956 12.9622L36.8733 0.594655Z" fill="#010326" stroke="#010326"/>
<path id="green-vector" d="M67.5771 37.6803C70.8416 37.7034 74.0497 38.533 76.916 40.0951C77.1648 40.2027 77.3657 40.3984 77.4795 40.6454C77.5911 40.8878 77.6107 41.1619 77.5358 41.4168C76.9982 44.8229 75.3339 47.9509 72.8086 50.2999C71.1575 51.9026 68.7358 53.1798 66.2406 54.1524C63.7348 55.1292 61.1109 55.8154 59.0209 56.2153L59.0201 56.2155C58.3548 56.3416 57.6755 56.4642 56.9882 56.5513C60.1189 66.0535 61.0202 76.6286 57.8566 86.104C57.6586 86.7365 57.4019 87.3491 57.0898 87.9337C56.2443 89.643 55.3183 91.311 54.3148 92.9321C54.5231 92.9107 54.729 92.8902 54.9327 92.8699C56.0604 92.7576 57.1241 92.6517 58.1815 92.4489L58.1838 92.4484C66.5886 90.8771 73.0166 86.5331 78.2427 80.5745L78.2429 80.5743C85.6445 72.1455 88.958 62.2981 90.2424 51.7468C90.9885 45.5714 90.2393 39.46 88.8056 33.4188M67.5771 37.6803C67.5775 37.6803 67.578 37.6803 67.5784 37.6803L67.5722 38.1803L67.5757 37.6803C67.5761 37.6803 67.5766 37.6803 67.5771 37.6803ZM67.5771 37.6803C65.7283 37.6574 63.3514 38.0254 61.0488 38.5927C58.7438 39.1607 56.4729 39.9384 54.8363 40.7553M54.8363 40.7553C54.222 41.0602 53.6122 41.3796 53.0084 41.6958C52.9518 41.7254 52.8953 41.755 52.8388 41.7846C52.3333 42.0492 51.8316 42.3108 51.3291 42.562M54.8363 40.7553C54.8362 40.7554 54.836 40.7554 54.8359 40.7555L55.0592 41.2029M54.8363 40.7553C54.8365 40.7552 54.8368 40.7551 54.837 40.755L55.0592 41.2029M51.3291 42.562L49.3473 38.068L49.3424 38.057L49.337 38.0463C46.2414 31.85 45.6144 25.0277 46.8563 18.1752L46.8591 18.1597L46.8609 18.1442C47.6184 11.6788 50.4728 5.45567 55.6279 0.940596M51.3291 42.562L51.5311 43.02M51.3291 42.562C51.1796 42.6367 51.03 42.7106 50.8803 42.7833L48.8898 38.2697C45.7379 31.9611 45.1066 25.026 46.3643 18.086L51.5311 43.02M55.6279 0.940596C56.0527 0.624611 56.5788 0.47558 57.1063 0.521985M55.6279 0.940596C55.6234 0.943967 55.6189 0.947358 55.6144 0.950767L55.3128 0.55196L55.6419 0.928337C55.6373 0.932422 55.6326 0.936508 55.6279 0.940596ZM57.1063 0.521985C63.6873 1.40856 69.2042 4.24219 73.9729 8.32881M57.1063 0.521985C57.1027 0.521504 57.0991 0.521023 57.0955 0.520542L57.1621 0.0249962L57.1161 0.522868C57.1128 0.522566 57.1095 0.522272 57.1063 0.521985ZM73.9729 8.32881C81.9828 15.2086 86.514 23.7992 88.8056 33.4188M73.9729 8.32881C73.9728 8.32876 73.9727 8.32871 73.9727 8.32866L74.2985 7.94936L73.9731 8.32902C73.973 8.32895 73.9729 8.32888 73.9729 8.32881ZM88.8056 33.4188L89.2921 33.3033L88.8057 33.4192C88.8057 33.4191 88.8056 33.4189 88.8056 33.4188ZM51.5311 43.02C52.1025 42.7347 52.671 42.4369 53.2399 42.139C53.8447 41.8222 54.4499 41.5053 55.0592 41.2029M51.5311 43.02L55.0592 41.2029" fill="#05F29B" stroke="#05F29B"/>
</g>
</svg>
