<svg width="130" height="73" viewBox="0 0 130 73" fill="none" xmlns="http://www.w3.org/2000/svg">
<path d="M86.2096 23.9361C85.6088 28.8422 84.0559 33.4406 80.5757 37.3798C78.1192 40.1637 75.0874 42.2033 71.1196 42.9406C70.3847 43.0807 69.6291 43.1244 68.8249 43.2185C69.3875 42.349 69.9006 41.4487 70.3616 40.522C70.501 40.263 70.6155 39.9915 70.7036 39.7112C72.1849 35.3034 71.7273 30.3582 70.2091 25.9298C70.6158 25.893 71.0202 25.8218 71.4223 25.746C73.3426 25.3808 76.2451 24.4919 77.7148 23.0724C78.8559 22.0183 79.6064 20.6128 79.8455 19.0827C79.8689 19.015 79.8652 18.9409 79.8351 18.8759C79.805 18.8108 79.7507 18.7599 79.6837 18.7336C78.3821 18.0263 76.9244 17.6506 75.4409 17.6403C73.7771 17.6196 71.1057 18.3018 69.6244 19.0368C69.0051 19.3423 68.3951 19.6799 67.7757 19.9785L66.7566 17.6816C65.2915 14.7669 64.9981 11.5627 65.5827 8.35622C65.9409 5.31742 67.2928 2.38428 69.7423 0.25505C69.9883 0.0701689 70.2949 -0.0166683 70.6019 0.0115798C73.7147 0.427318 76.3214 1.75952 78.5675 3.67284C82.3343 6.88849 84.4626 10.9035 85.5372 15.387C86.2073 18.1938 86.5609 21.0466 86.2096 23.9361Z" fill="#0C0C0C"/>
<path d="M61.5482 0C60.9404 1.37814 60.3026 2.61157 59.8312 3.90473C58.2482 8.64782 58.2482 13.322 59.7387 18.1455C60.6908 20.7088 61.9271 23.1987 63.0456 25.7023C64.3998 28.7503 65.1878 31.8764 64.7973 35.1839C64.4414 38.2227 63.0872 40.8343 60.6377 42.9704C60.392 43.1539 60.0863 43.2399 59.7803 43.2116C56.6676 42.7958 54.0609 41.4659 51.8147 39.5503C48.0457 36.3346 45.9197 32.322 44.8451 27.8361C44.1703 25.0224 43.8168 22.1697 44.1703 19.2825C44.7712 14.374 46.3218 9.77789 49.8043 5.83641C52.263 3.05487 55.2926 1.01294 59.2581 0.275631C59.9883 0.140114 60.7463 0.0964697 61.5482 0Z" fill="#0C0C0C"/>
<path d="M0 66.1579L1.38653 63.0778C3.1127 64.2612 5.15696 64.9014 7.25386 64.9153C9.69415 64.9153 10.6832 64.1068 10.6832 63.0204C10.6832 59.7128 0.346632 61.9868 0.346632 55.4222C0.346632 52.4179 2.78461 49.9097 7.83851 49.9097C10.0731 49.9097 12.3586 50.4403 14.0109 51.4739L12.7399 54.5793C11.2448 53.7049 9.54751 53.2301 7.81309 53.2011C5.37511 53.2011 4.43458 54.1199 4.43458 55.2201C4.43458 58.4771 14.7735 56.2307 14.7735 62.7172C14.7735 65.671 12.3101 68.1953 7.23075 68.1953C4.41841 68.2022 1.57371 67.3707 0 66.1579Z" fill="#0C0C0C"/>
<path d="M26.1338 67.2441C25.3226 67.8252 24.1279 68.1008 22.8985 68.1008C19.6633 68.1008 17.7938 66.4608 17.7938 63.2291V57.6499H15.6863V54.6203H17.7938V51.3174H21.757V54.6226H25.1586V57.6522H21.7662V63.1809C21.7662 64.3431 22.4017 64.9747 23.467 64.9747C24.041 64.9822 24.6019 64.805 25.0661 64.4694L26.1338 67.2441Z" fill="#0C0C0C"/>
<path d="M40.4589 60.1489V68.0847H36.7499V66.2058C36.0151 67.4439 34.5916 68.0985 32.5903 68.0985C29.3898 68.0985 27.4856 66.3322 27.4856 63.9847C27.4856 61.5868 29.1864 59.9192 33.3529 59.9192H36.5003C36.5003 58.2287 35.4859 57.2433 33.3529 57.2433C31.904 57.2433 30.4066 57.7234 29.4244 58.5066L28.0032 55.7503C29.5007 54.6892 31.7006 54.1104 33.8937 54.1104C38.0509 54.1172 40.4589 56.0352 40.4589 60.1489ZM36.4957 63.608V62.2299H33.7781C31.9294 62.2299 31.3401 62.919 31.3401 63.8193C31.3401 64.8047 32.179 65.4593 33.5771 65.4593C34.8966 65.4501 36.0405 64.8461 36.4957 63.608Z" fill="#0C0C0C"/>
<path d="M58.2875 54.317V65.6269C58.2875 70.6801 55.5445 72.9999 50.6177 72.9999C48.0272 72.9999 45.5129 72.3683 43.9161 71.1303L45.4875 68.3143C46.6545 69.2491 48.561 69.8555 50.3126 69.8555C53.1065 69.8555 54.3266 68.5922 54.3266 66.1437V65.558C53.2844 66.695 51.7847 67.2508 50.0076 67.2508C46.2224 67.2508 43.1743 64.6507 43.1743 60.6863C43.1743 56.7218 46.2224 54.124 50.0076 54.124C51.9117 54.124 53.4878 54.7534 54.53 56.0672V54.3239L58.2875 54.317ZM54.3752 60.6794C54.3752 58.6857 52.8777 57.3466 50.7956 57.3466C48.7135 57.3466 47.1883 58.6857 47.1883 60.6794C47.1883 62.6731 48.7135 64.0122 50.7956 64.0122C52.8777 64.0122 54.3752 62.6731 54.3752 60.6794Z" fill="#0C0C0C"/>
<path d="M75.279 62.2206H64.9424C65.3214 63.9112 66.7703 64.9471 68.8524 64.9471C70.3014 64.9471 71.3413 64.5175 72.2818 63.6332L74.3893 65.9049C73.1183 67.345 71.2142 68.1007 68.7508 68.1007C64.0273 68.1007 60.9539 65.1492 60.9539 61.1089C60.9539 57.0687 64.0782 54.1172 68.2424 54.1172C72.2564 54.1172 75.3553 56.7931 75.3553 61.1595C75.3553 61.4627 75.3044 61.883 75.279 62.2206ZM64.88 59.9237H71.6116C71.332 58.208 70.0379 57.0963 68.2585 57.0963C66.4792 57.0963 65.1689 58.1804 64.8893 59.9215L64.88 59.9237Z" fill="#0C0C0C"/>
<path d="M82.5167 51.8432H76.2773V50.2354H90.6533V51.8432H84.414V67.9008H82.5352L82.5167 51.8432Z" fill="#0C0C0C"/>
<path d="M99.5597 54.5195V56.2629C99.4072 56.2629 99.2546 56.2376 99.1275 56.2376C96.3337 56.2376 94.6306 58.0039 94.6306 61.1346V67.9013H92.8188V54.6206H94.5451V57.2207C95.3932 55.4521 97.094 54.5195 99.5597 54.5195Z" fill="#0C0C0C"/>
<path d="M115.193 61.8165H104.017C104.221 64.5935 106.356 66.4356 109.275 66.4356C110.892 66.4356 112.348 65.8545 113.365 64.6946L114.382 65.843C113.187 67.2579 111.334 68.0159 109.224 68.0159C105.064 68.0159 102.215 65.1861 102.215 61.2492C102.215 57.3123 104.988 54.5078 108.743 54.5078C112.498 54.5078 115.214 57.2641 115.214 61.2492C115.218 61.4238 115.193 61.6144 115.193 61.8165ZM104.017 60.4774H113.492C113.261 57.8774 111.359 56.0605 108.743 56.0605C106.127 56.0605 104.246 57.8774 104.017 60.4774Z" fill="#0C0C0C"/>
<path d="M129.98 61.8165H118.805C119.008 64.5935 121.141 66.4356 124.062 66.4356C125.68 66.4356 127.136 65.8545 128.152 64.6946L129.167 65.843C127.974 67.2579 126.119 68.0159 124.011 68.0159C119.852 68.0159 117.002 65.1861 117.002 61.2492C117.002 57.3123 119.775 54.5078 123.528 54.5078C127.281 54.5078 129.999 57.2641 129.999 61.2492C130.006 61.4238 129.98 61.6144 129.98 61.8165ZM118.805 60.4774H128.28C128.048 57.8774 126.144 56.0605 123.528 56.0605C120.912 56.0605 119.034 57.8774 118.805 60.4774Z" fill="#0C0C0C"/>
</svg>
