<svg width="160" height="40" viewBox="0 0 160 40" fill="none" xmlns="http://www.w3.org/2000/svg">
<path d="M37.6422 22.0968C37.1052 26.522 35.7185 30.6701 32.6138 34.2247C30.4226 36.735 27.7191 38.5671 24.1782 39.2412C23.5219 39.3674 22.847 39.4067 22.131 39.4935C22.6334 38.7055 23.0909 37.8894 23.5013 37.0493C23.6268 36.8159 23.7295 36.5707 23.8079 36.3173C25.1287 32.3409 24.7214 27.8785 23.3655 23.8834C23.7297 23.8483 24.0897 23.7862 24.4477 23.718C26.1616 23.3871 28.7519 22.5848 30.0625 21.3048C31.0808 20.3536 31.7505 19.0854 31.9636 17.7047C31.9845 17.6438 31.9812 17.5771 31.9544 17.5185C31.9275 17.46 31.8793 17.4141 31.8196 17.3904C30.6579 16.7529 29.3574 16.414 28.0339 16.4041C26.5484 16.3855 24.1659 17.0017 22.845 17.6634C22.2915 17.9405 21.7463 18.2444 21.1887 18.5133C20.887 17.824 20.5838 17.1347 20.2793 16.4454C18.9708 13.8172 18.7095 10.9243 19.2342 8.03348C19.5531 5.29153 20.7587 2.65711 22.9479 0.725748C23.1666 0.558569 23.4396 0.479645 23.7132 0.504488C26.4908 0.880834 28.8157 2.08225 30.8197 3.81302C34.1815 6.70799 36.0806 10.335 37.0393 14.3776C37.6401 16.9169 37.9549 19.4913 37.6422 22.0968Z" fill="#05F29B"/>
<path d="M15.6385 0.502563C15.0954 1.74326 14.5255 2.85783 14.1057 4.01788C12.6923 8.2983 12.6923 12.496 14.0234 16.8695C14.8711 19.1834 15.976 21.4187 16.9718 23.6933C18.1815 26.4415 18.8831 29.262 18.5375 32.2459C18.2186 34.9878 17.0109 37.3431 14.8217 39.2765C14.6023 39.4421 14.3297 39.5202 14.0564 39.4957C11.2788 39.1194 8.95182 37.92 6.94786 36.1872C3.58598 33.2922 1.68901 29.6673 0.730238 25.6226C0.121232 23.0792 -0.187387 20.5068 0.121231 17.9013C0.656168 13.4741 2.04083 9.32601 5.14759 5.77141C7.33877 3.26105 10.0423 1.42895 13.5831 0.75484C14.2456 0.628702 14.9225 0.589413 15.6385 0.502563Z" fill="#010326"/>
<path d="M43.5493 26.2759L44.8011 23.4967C46.3473 24.5632 48.1783 25.1396 50.056 25.151C52.2393 25.151 53.1276 24.4231 53.1276 23.4429C53.1276 20.459 43.8674 22.5103 43.8674 16.588C43.8674 13.8771 46.0528 11.6252 50.5807 11.6252C52.5822 11.6252 54.6293 12.1029 56.1082 13.0376L54.9701 15.8395C53.6318 15.0465 52.1108 14.6147 50.5559 14.5864C48.3725 14.5864 47.5318 15.4135 47.5318 16.4081C47.5318 19.3465 56.7899 17.318 56.7899 23.172C56.7899 25.8375 54.5838 28.1142 50.0333 28.1142C47.5091 28.1204 44.9601 27.3697 43.5493 26.2759Z" fill="#010326"/>
<path d="M66.9589 27.2561C66.2318 27.7793 65.1619 28.0295 64.0671 28.0295C61.1752 28.0295 59.4959 26.5489 59.4959 23.6332V18.6001H57.6079V15.8623H59.4979V12.8846H63.0467V15.8623H66.0934V18.5939H63.0467V23.5815C63.0467 24.6299 63.6147 25.1986 64.5711 25.1986C65.0847 25.2049 65.5866 25.0454 66.0026 24.7437L66.9589 27.2561Z" fill="#010326"/>
<path d="M79.7898 20.856V28.0148H76.4683V26.3213C75.8073 27.4379 74.5349 28.0293 72.7378 28.0293C69.8707 28.0293 68.1646 26.435 68.1646 24.3176C68.1646 22.1525 69.689 20.6513 73.4195 20.6513H76.2411C76.2411 19.1252 75.3302 18.2361 73.4195 18.2361C72.1223 18.2361 70.7796 18.6682 69.8935 19.3754L68.619 16.894C69.9616 15.9387 71.9405 15.4135 73.8966 15.4135C77.6292 15.4114 79.7898 17.1422 79.7898 20.856ZM76.2411 23.9764V22.7233H73.8057C72.1532 22.7233 71.6224 23.3436 71.6224 24.1583C71.6224 25.0454 72.3722 25.6389 73.624 25.6389C74.8076 25.6389 75.83 25.0909 76.2411 23.9764V23.9764Z" fill="#010326"/>
<path d="M95.7596 15.5934V25.7982C95.7596 30.3474 93.3036 32.4483 88.8894 32.4483C86.5697 32.4483 84.3161 31.8776 82.8826 30.763L84.2934 28.2113C85.3406 29.055 87.0468 29.6009 88.6167 29.6009C91.1182 29.6009 92.2109 28.4615 92.2109 26.2531V25.7299C91.2772 26.7535 89.9387 27.256 88.342 27.256C84.9523 27.256 82.2236 24.909 82.2236 21.3337C82.2236 17.7584 84.9523 15.4114 88.342 15.4114C90.0502 15.4114 91.459 15.9822 92.3926 17.165V15.5934H95.7596ZM92.2481 21.3337C92.2481 19.5347 90.9054 18.3271 89.0402 18.3271C87.1749 18.3271 85.8095 19.5347 85.8095 21.3337C85.8095 23.1327 87.1832 24.3403 89.0484 24.3403C90.9137 24.3403 92.2481 23.1327 92.2481 21.3337Z" fill="#010326"/>
<path d="M110.979 22.7233H101.721C102.062 24.2494 103.359 25.182 105.233 25.182C106.528 25.182 107.461 24.7953 108.304 23.9992L110.192 26.0484C109.054 27.347 107.348 28.0294 105.142 28.0294C100.909 28.0294 98.1558 25.3639 98.1558 21.7204C98.1558 18.0769 100.955 15.4114 104.685 15.4114C108.281 15.4114 111.056 17.8267 111.056 21.7659C111.045 22.0388 111.002 22.4276 110.979 22.7233ZM101.684 20.6555H107.713C107.463 19.1067 106.303 18.1038 104.71 18.1038C103.117 18.1038 101.926 19.0798 101.674 20.6513L101.684 20.6555Z" fill="#010326"/>
<path d="M117.463 13.3622H111.871V11.9044H124.748V13.3622H119.146V27.837H117.463V13.3622Z" fill="#05F29B"/>
<path d="M132.734 15.7775V17.347C132.598 17.347 132.461 17.3242 132.348 17.3242C129.844 17.3242 128.32 18.9185 128.32 21.7432V27.8557H126.705V15.8622H128.252V18.2072C128.997 16.6191 130.522 15.7775 132.734 15.7775Z" fill="#05F29B"/>
<path d="M146.733 22.3594H136.723C136.905 24.8635 138.815 26.5261 141.432 26.5261C142.878 26.5261 144.184 26.0029 145.095 24.9545L146.006 26.0029C144.936 27.2788 143.275 27.9612 141.387 27.9612C137.654 27.9612 135.107 25.4094 135.107 21.8569C135.107 18.3044 137.586 15.7775 140.953 15.7775C144.32 15.7775 146.755 18.2589 146.755 21.8569C146.755 21.9934 146.733 22.1754 146.733 22.3594ZM136.723 21.1518H145.208C145.002 18.8048 143.298 17.165 140.953 17.165C138.609 17.165 136.927 18.8048 136.723 21.1518V21.1518Z" fill="#05F29B"/>
<path d="M159.977 22.3594H149.967C150.149 24.8635 152.06 26.5261 154.677 26.5261C156.123 26.5261 157.428 26.0029 158.339 24.9545L159.248 26.0029C158.18 27.2788 156.519 27.9612 154.632 27.9612C150.899 27.9612 148.352 25.4094 148.352 21.8569C148.352 18.3044 150.831 15.7775 154.2 15.7775C157.569 15.7775 160 18.2589 160 21.859C160 21.9934 159.977 22.1754 159.977 22.3594ZM149.967 21.1518H158.453C158.246 18.8048 156.542 17.165 154.2 17.165C151.857 17.165 150.172 18.8048 149.967 21.1518V21.1518Z" fill="#05F29B"/>
</svg>
