<svg width="161" height="40" viewBox="0 0 161 40" fill="none" xmlns="http://www.w3.org/2000/svg">
<path d="M38.0264 22.1077C37.4839 26.5557 36.083 30.7252 32.9465 34.2982C30.7329 36.8215 28.0017 38.6631 24.4246 39.3407C23.7615 39.4675 23.0797 39.507 22.3564 39.5943C22.8639 38.8022 23.3261 37.9819 23.7407 37.1375C23.8675 36.9028 23.9712 36.6564 24.0504 36.4017C25.3848 32.4047 24.9733 27.9192 23.6035 23.9035C23.9714 23.8682 24.3352 23.8058 24.6968 23.7372C26.4282 23.4047 29.0451 22.5982 30.3691 21.3116C31.3978 20.3555 32.0744 19.0807 32.2897 17.6929C32.3108 17.6316 32.3075 17.5646 32.2803 17.5057C32.2532 17.4469 32.2045 17.4007 32.1442 17.377C30.9706 16.7361 29.6568 16.3955 28.3197 16.3855C26.819 16.3668 24.4121 16.9862 23.0777 17.6513C22.5185 17.9298 21.9677 18.2354 21.4045 18.5056C21.0996 17.8127 20.7934 17.1199 20.4858 16.4271C19.1638 13.7853 18.8998 10.8774 19.4299 7.97164C19.752 5.21552 20.97 2.56748 23.1816 0.626145C23.4025 0.458103 23.6783 0.37877 23.9548 0.403742C26.7608 0.782033 29.1095 1.98965 31.134 3.72938C34.5303 6.63931 36.4488 10.285 37.4174 14.3485C38.0243 16.901 38.3423 19.4887 38.0264 22.1077Z" fill="#05F29B"/>
<path d="M15.7987 0.401794C15.25 1.64891 14.6742 2.76923 14.2502 3.93528C12.8222 8.23782 12.8222 12.4572 14.167 16.8533C15.0234 19.1792 16.1396 21.426 17.1456 23.7124C18.3677 26.4748 19.0765 29.3099 18.7273 32.3092C18.4051 35.0653 17.1851 37.4327 14.9735 39.3762C14.7518 39.5426 14.4764 39.621 14.2003 39.5965C11.3943 39.2182 9.04349 38.0126 7.01901 36.2708C3.6227 33.3609 1.70631 29.7173 0.737716 25.6517C0.122474 23.0951 -0.189306 20.5094 0.122472 17.8905C0.662888 13.4404 2.06173 9.27085 5.2003 5.69787C7.41392 3.17454 10.1451 1.33297 13.7222 0.655374C14.3915 0.528584 15.0754 0.489092 15.7987 0.401794Z" fill="#010326"/>
<path d="M43.8213 26.3083L45.0809 23.5148C46.6368 24.5868 48.4792 25.1662 50.3686 25.1776C52.5656 25.1776 53.4594 24.4459 53.4594 23.4607C53.4594 20.4614 44.1414 22.5233 44.1414 16.5704C44.1414 13.8455 46.3405 11.582 50.8966 11.582C52.9107 11.582 54.9705 12.0621 56.4587 13.0016L55.3134 15.818C53.9668 15.0209 52.4363 14.5869 50.8716 14.5584C48.6746 14.5584 47.8287 15.3898 47.8287 16.3896C47.8287 19.3432 57.1446 17.3041 57.1446 23.1884C57.1446 25.8676 54.9248 28.1561 50.3458 28.1561C47.8058 28.1623 45.2409 27.4078 43.8213 26.3083Z" fill="#010326"/>
<path d="M67.3772 27.2936C66.6456 27.8195 65.5689 28.071 64.4673 28.071C61.5574 28.071 59.8675 26.5828 59.8675 23.6521V18.5929H57.9678V15.841H59.8696V12.8479H63.4405V15.841H66.5063V18.5867H63.4405V23.6001C63.4405 24.6539 64.0121 25.2255 64.9745 25.2255C65.4913 25.2318 65.9964 25.0715 66.4149 24.7682L67.3772 27.2936Z" fill="#010326"/>
<path d="M80.289 20.8604V28.0563H76.9467V26.354C76.2816 27.4764 75.0012 28.0708 73.1929 28.0708C70.3079 28.0708 68.5911 26.4683 68.5911 24.3399C68.5911 22.1637 70.125 20.6547 73.8788 20.6547H76.7181C76.7181 19.1207 75.8014 18.227 73.8788 18.227C72.5735 18.227 71.2225 18.6614 70.3308 19.3722L69.0483 16.878C70.3994 15.9177 72.3906 15.3898 74.359 15.3898C78.1148 15.3877 80.289 17.1274 80.289 20.8604ZM76.7181 23.9969V22.7373H74.2675C72.6047 22.7373 72.0705 23.3609 72.0705 24.1798C72.0705 25.0715 72.825 25.6681 74.0846 25.6681C75.2756 25.6681 76.3045 25.1173 76.7181 23.9969Z" fill="#010326"/>
<path d="M96.3579 15.5707V25.8282C96.3579 30.4009 93.8865 32.5127 89.4447 32.5127C87.1105 32.5127 84.8428 31.939 83.4004 30.8187L84.82 28.2538C85.8738 29.1018 87.5907 29.6506 89.1703 29.6506C91.6874 29.6506 92.787 28.5053 92.787 26.2854V25.7596C91.8475 26.7884 90.5006 27.2935 88.8939 27.2935C85.483 27.2935 82.7373 24.9344 82.7373 21.3406C82.7373 17.7469 85.483 15.3878 88.8939 15.3878C90.6128 15.3878 92.0304 15.9614 92.9699 17.1503V15.5707H96.3579ZM92.8244 21.3406C92.8244 19.5323 91.4733 18.3185 89.5964 18.3185C87.7195 18.3185 86.3456 19.5323 86.3456 21.3406C86.3456 23.149 87.7278 24.3628 89.6047 24.3628C91.4817 24.3628 92.8244 23.149 92.8244 21.3406Z" fill="#010326"/>
<path d="M111.673 22.7374H102.357C102.7 24.2714 104.005 25.2088 105.89 25.2088C107.194 25.2088 108.133 24.8201 108.981 24.0199L110.881 26.0797C109.736 27.385 108.019 28.0709 105.799 28.0709C101.54 28.0709 98.7693 25.3917 98.7693 21.7293C98.7693 18.067 101.586 15.3878 105.34 15.3878C108.958 15.3878 111.75 17.8155 111.75 21.775C111.739 22.0494 111.696 22.4402 111.673 22.7374ZM102.319 20.6589H108.387C108.135 19.1021 106.967 18.094 105.364 18.094C103.762 18.094 102.563 19.0751 102.309 20.6547L102.319 20.6589Z" fill="#010326"/>
<path d="M118.197 13.3279H112.571V11.8625H125.528V13.3279H119.891V27.8776H118.197V13.3279Z" fill="#05F29B"/>
<path d="M133.564 15.7557V17.3333C133.427 17.3333 133.289 17.3104 133.175 17.3104C130.656 17.3104 129.122 18.913 129.122 21.7522V27.8963H127.497V15.8409H129.053V18.1979C129.804 16.6016 131.338 15.7557 133.564 15.7557Z" fill="#05F29B"/>
<path d="M147.65 22.3716H137.577C137.76 24.8887 139.683 26.5598 142.316 26.5598C143.771 26.5598 145.085 26.034 146.001 24.9802L146.918 26.034C145.841 27.3164 144.17 28.0023 142.27 28.0023C138.514 28.0023 135.952 25.4374 135.952 21.8665C135.952 18.2956 138.446 15.7557 141.834 15.7557C145.222 15.7557 147.672 18.2499 147.672 21.8665C147.672 22.0037 147.65 22.1866 147.65 22.3716ZM137.577 21.1578H146.116C145.908 18.7986 144.193 17.1504 141.834 17.1504C139.475 17.1504 137.783 18.7986 137.577 21.1578Z" fill="#05F29B"/>
<path d="M160.977 22.3716H150.905C151.088 24.8887 153.01 26.5598 155.644 26.5598C157.099 26.5598 158.412 26.034 159.329 24.9802L160.243 26.034C159.169 27.3164 157.498 28.0023 155.598 28.0023C151.842 28.0023 149.279 25.4374 149.279 21.8665C149.279 18.2956 151.774 15.7557 155.164 15.7557C158.554 15.7557 161 18.2499 161 21.8686C161 22.0037 160.977 22.1866 160.977 22.3716ZM150.905 21.1578H159.443C159.235 18.7986 157.521 17.1504 155.164 17.1504C152.807 17.1504 151.11 18.7986 150.905 21.1578Z" fill="#05F29B"/>
</svg>
