<svg width="224" height="166" viewBox="0 0 224 166" fill="none" xmlns="http://www.w3.org/2000/svg">
<path d="M223.5 145.878H0.5V145.99H223.5V145.878Z" fill="#EBEBEB"/>
<path d="M201.155 153.047H186.384V153.159H201.155V153.047Z" fill="#EBEBEB"/>
<path d="M148.224 154.259H144.348V154.371H148.224V154.259Z" fill="#EBEBEB"/>
<path d="M185.938 148.913H177.379V149.024H185.938V148.913Z" fill="#EBEBEB"/>
<path d="M43.1602 149.661H23.8975V149.773H43.1602V149.661Z" fill="#EBEBEB"/>
<path d="M49.9567 149.661H47.1335V149.773H49.9567V149.661Z" fill="#EBEBEB"/>
<path d="M100.917 151.541H59.1357V151.653H100.917V151.541Z" fill="#EBEBEB"/>
<path d="M106.202 126.006H20.0839C19.4093 126.005 18.7627 125.736 18.2861 125.259C17.8094 124.782 17.5417 124.136 17.5417 123.462V2.5219C17.5476 1.85178 17.8179 1.21104 18.2939 0.738846C18.7699 0.266653 19.4132 0.00114795 20.0839 0H106.202C106.878 0 107.525 0.268047 108.003 0.745174C108.48 1.2223 108.749 1.86942 108.749 2.54418V123.462C108.749 124.137 108.48 124.784 108.003 125.261C107.525 125.738 106.878 126.006 106.202 126.006ZM20.0839 0.0891136C19.4389 0.0902939 18.8206 0.347125 18.3649 0.803234C17.9092 1.25934 17.6532 1.87746 17.6532 2.5219V123.462C17.6532 124.106 17.9092 124.724 18.3649 125.181C18.8206 125.637 19.4389 125.894 20.0839 125.895H106.202C106.848 125.894 107.466 125.637 107.923 125.181C108.379 124.725 108.636 124.107 108.637 123.462V2.5219C108.636 1.87705 108.379 1.25894 107.923 0.802962C107.466 0.34698 106.848 0.0902914 106.202 0.0891136H20.0839Z" fill="#EBEBEB"/>
<path d="M202.677 126.006H116.554C115.879 126.005 115.232 125.736 114.755 125.26C114.277 124.783 114.009 124.136 114.007 123.462V2.5219C114.014 1.85138 114.286 1.21064 114.762 0.738567C115.239 0.266497 115.883 0.00113543 116.554 0H202.677C203.347 0.00231895 203.989 0.268342 204.464 0.74041C204.939 1.21248 205.208 1.85255 205.214 2.5219V123.462C205.214 124.135 204.947 124.781 204.472 125.258C203.996 125.735 203.35 126.004 202.677 126.006ZM116.554 0.0891136C115.908 0.0902914 115.29 0.34698 114.833 0.802962C114.377 1.25894 114.12 1.87705 114.119 2.5219V123.462C114.12 124.107 114.377 124.725 114.833 125.181C115.29 125.637 115.908 125.894 116.554 125.895H202.677C203.322 125.894 203.941 125.637 204.397 125.181C204.854 124.725 205.111 124.107 205.112 123.462V2.5219C205.111 1.87705 204.854 1.25894 204.397 0.802962C203.941 0.34698 203.322 0.0902914 202.677 0.0891136H116.554Z" fill="#EBEBEB"/>
<path d="M72.1544 21.1154H40.377V128.813H72.1544V21.1154Z" fill="#FAFAFA"/>
<path d="M67.4223 21.1154H65.567L54.4839 128.813H56.3392L67.4223 21.1154Z" fill="#F5F5F5"/>
<path d="M71.5923 21.5341H40.1716V22.4831H71.5923V21.5341Z" fill="#E0E0E0"/>
<path d="M71.5923 127.873H40.1716V129.905H71.5923V127.873Z" fill="#EBEBEB"/>
<path d="M71.0703 129.816H41.3801V129.905H71.0703V129.816Z" fill="#EBEBEB"/>
<path d="M41.3804 21.5343H71.0706V129.816H72.8501V20.202H39.6008V129.816H41.3804V21.5343Z" fill="#EBEBEB"/>
<path d="M107.518 21.1154H75.7402V128.813H107.518V21.1154Z" fill="#FAFAFA"/>
<path d="M98.705 21.1154H88.5719L77.4888 128.813H87.6174L98.705 21.1154Z" fill="#F5F5F5"/>
<path d="M107.848 21.5341H75.5352V22.4831H107.848V21.5341Z" fill="#E0E0E0"/>
<path d="M107.848 127.873H75.5352V129.905H107.848V127.873Z" fill="#EBEBEB"/>
<path d="M106.434 129.816H76.7437V129.905H106.434V129.816Z" fill="#EBEBEB"/>
<path d="M76.7439 21.5343H106.434V129.816H108.209V20.202H74.9644V129.816H76.7439V21.5343Z" fill="#EBEBEB"/>
<path d="M141.984 21.1154H111.099V128.813H141.984V21.1154Z" fill="#FAFAFA"/>
<path d="M128.6 21.1154H126.745L115.662 128.813H117.517L128.6 21.1154Z" fill="#F5F5F5"/>
<path d="M142.319 21.5341H110.898V22.4831H142.319V21.5341Z" fill="#E0E0E0"/>
<path d="M142.319 127.873H110.898V129.905H142.319V127.873Z" fill="#EBEBEB"/>
<path d="M141.797 129.816H112.107V129.905H141.797V129.816Z" fill="#EBEBEB"/>
<path d="M112.107 21.5343H141.793V129.816H143.572V20.202H110.328V129.816H112.107V21.5343Z" fill="#EBEBEB"/>
<path d="M178.24 21.1154H146.462V128.813H178.24V21.1154Z" fill="#FAFAFA"/>
<path d="M175.131 21.1154H165.003L153.915 128.813H164.048L175.131 21.1154Z" fill="#F5F5F5"/>
<path d="M177.683 21.5341H146.262V22.4831H177.683V21.5341Z" fill="#E0E0E0"/>
<path d="M177.683 127.873H146.262V129.905H177.683V127.873Z" fill="#EBEBEB"/>
<path d="M147.466 21.5343H177.156V129.816H178.936V20.202H145.691V129.816H147.466V21.5343Z" fill="#EBEBEB"/>
<path d="M177.156 129.816H147.466V129.905H177.156V129.816Z" fill="#EBEBEB"/>
<path d="M62.3199 104.035H48.5251V127.868H62.3199V104.035Z" fill="#EBEBEB"/>
<path d="M59.6751 100.702V106.682H58.5868H52.2626H51.1743V100.702H59.6751Z" fill="#EBEBEB"/>
<path d="M59.6711 106.682H61.4373V104.917H59.6711V106.682Z" fill="#FAFAFA"/>
<path d="M56.2546 106.682H58.0208V104.917H56.2546V106.682Z" fill="#FAFAFA"/>
<path d="M52.8339 106.682H54.6001V104.917H52.8339V106.682Z" fill="#FAFAFA"/>
<path d="M49.4128 106.682H51.179V104.917H49.4128V106.682Z" fill="#F0F0F0"/>
<path d="M59.6711 109.89H61.4373V108.125H59.6711V109.89Z" fill="#F0F0F0"/>
<path d="M56.2546 109.89H58.0208V108.125H56.2546V109.89Z" fill="#F0F0F0"/>
<path d="M52.8339 109.89H54.6001V108.125H52.8339V109.89Z" fill="#FAFAFA"/>
<path d="M49.4128 109.89H51.179V108.125H49.4128V109.89Z" fill="#FAFAFA"/>
<path d="M59.6711 113.094H61.4373V111.329H59.6711V113.094Z" fill="#F0F0F0"/>
<path d="M56.2546 113.094H58.0208V111.329H56.2546V113.094Z" fill="#FAFAFA"/>
<path d="M52.8339 113.094H54.6001V111.329H52.8339V113.094Z" fill="#FAFAFA"/>
<path d="M56.2546 103.91H58.0208V102.146H56.2546V103.91Z" fill="#FAFAFA"/>
<path d="M52.8339 103.91H54.6001V102.146H52.8339V103.91Z" fill="#F0F0F0"/>
<path d="M49.4128 113.094H51.179V111.329H49.4128V113.094Z" fill="#F0F0F0"/>
<path d="M59.6711 116.302H61.4373V114.537H59.6711V116.302Z" fill="#FAFAFA"/>
<path d="M56.2546 116.302H58.0208V114.537H56.2546V116.302Z" fill="#F0F0F0"/>
<path d="M52.8339 116.302H54.6001V114.537H52.8339V116.302Z" fill="#F0F0F0"/>
<path d="M49.4128 116.302H51.179V114.537H49.4128V116.302Z" fill="#FAFAFA"/>
<path d="M59.6711 119.505H61.4373V117.741H59.6711V119.505Z" fill="#F0F0F0"/>
<path d="M56.2546 119.505H58.0208V117.741H56.2546V119.505Z" fill="#FAFAFA"/>
<path d="M52.8339 119.505H54.6001V117.741H52.8339V119.505Z" fill="#FAFAFA"/>
<path d="M49.4128 119.505H51.179V117.741H49.4128V119.505Z" fill="#F0F0F0"/>
<path d="M59.6711 122.709H61.4373V120.945H59.6711V122.709Z" fill="#F0F0F0"/>
<path d="M56.2546 122.709H58.0208V120.945H56.2546V122.709Z" fill="#FAFAFA"/>
<path d="M52.8339 122.709H54.6001V120.945H52.8339V122.709Z" fill="#F0F0F0"/>
<path d="M49.4128 122.709H51.179V120.945H49.4128V122.709Z" fill="#FAFAFA"/>
<path d="M59.6711 125.917H61.4373V124.153H59.6711V125.917Z" fill="#FAFAFA"/>
<path d="M56.2546 125.917H58.0208V124.153H56.2546V125.917Z" fill="#FAFAFA"/>
<path d="M52.8339 125.917H54.6001V124.153H52.8339V125.917Z" fill="#F0F0F0"/>
<path d="M49.4128 125.917H51.179V124.153H49.4128V125.917Z" fill="#F0F0F0"/>
<path d="M140.098 104.035H126.303V127.868H140.098V104.035Z" fill="#EBEBEB"/>
<path d="M137.453 100.702V106.682H136.365H130.041H128.953V100.702H137.453Z" fill="#EBEBEB"/>
<path d="M137.449 106.682H139.215V104.917H137.449V106.682Z" fill="#FAFAFA"/>
<path d="M134.028 106.682H135.794V104.917H134.028V106.682Z" fill="#FAFAFA"/>
<path d="M130.607 106.682H132.373V104.917H130.607V106.682Z" fill="#FAFAFA"/>
<path d="M127.191 106.682H128.957V104.917H127.191V106.682Z" fill="#F0F0F0"/>
<path d="M137.449 109.89H139.215V108.125H137.449V109.89Z" fill="#F0F0F0"/>
<path d="M134.028 109.89H135.794V108.125H134.028V109.89Z" fill="#F0F0F0"/>
<path d="M130.607 109.89H132.373V108.125H130.607V109.89Z" fill="#FAFAFA"/>
<path d="M127.191 109.89H128.957V108.125H127.191V109.89Z" fill="#FAFAFA"/>
<path d="M137.449 113.094H139.215V111.329H137.449V113.094Z" fill="#F0F0F0"/>
<path d="M134.028 113.094H135.794V111.329H134.028V113.094Z" fill="#FAFAFA"/>
<path d="M130.607 113.094H132.373V111.329H130.607V113.094Z" fill="#FAFAFA"/>
<path d="M134.028 103.91H135.794V102.146H134.028V103.91Z" fill="#FAFAFA"/>
<path d="M130.607 103.91H132.373V102.146H130.607V103.91Z" fill="#F0F0F0"/>
<path d="M127.191 113.094H128.957V111.329H127.191V113.094Z" fill="#F0F0F0"/>
<path d="M137.449 116.302H139.215V114.537H137.449V116.302Z" fill="#FAFAFA"/>
<path d="M134.028 116.302H135.794V114.537H134.028V116.302Z" fill="#F0F0F0"/>
<path d="M130.607 116.302H132.373V114.537H130.607V116.302Z" fill="#F0F0F0"/>
<path d="M127.191 116.302H128.957V114.537H127.191V116.302Z" fill="#FAFAFA"/>
<path d="M137.449 119.505H139.215V117.741H137.449V119.505Z" fill="#F0F0F0"/>
<path d="M134.028 119.505H135.794V117.741H134.028V119.505Z" fill="#FAFAFA"/>
<path d="M130.607 119.505H132.373V117.741H130.607V119.505Z" fill="#FAFAFA"/>
<path d="M127.191 119.505H128.957V117.741H127.191V119.505Z" fill="#F0F0F0"/>
<path d="M137.449 122.709H139.215V120.945H137.449V122.709Z" fill="#F0F0F0"/>
<path d="M134.028 122.709H135.794V120.945H134.028V122.709Z" fill="#FAFAFA"/>
<path d="M130.607 122.709H132.373V120.945H130.607V122.709Z" fill="#F0F0F0"/>
<path d="M127.191 122.709H128.957V120.945H127.191V122.709Z" fill="#FAFAFA"/>
<path d="M137.449 125.917H139.215V124.153H137.449V125.917Z" fill="#FAFAFA"/>
<path d="M134.028 125.917H135.794V124.153H134.028V125.917Z" fill="#FAFAFA"/>
<path d="M130.607 125.917H132.373V124.153H130.607V125.917Z" fill="#F0F0F0"/>
<path d="M127.191 125.917H128.957V124.153H127.191V125.917Z" fill="#F0F0F0"/>
<path d="M162.014 112.715H149.656V127.864H162.014V112.715Z" fill="#F0F0F0"/>
<path d="M150.73 114.395H153.607H154.397H155.186V115.976H154.397H153.607H150.73V114.395Z" fill="#E6E6E6"/>
<path d="M150.73 117.46H153.607H154.397H155.186V119.038H154.397H153.607H150.73V117.46Z" fill="#FAFAFA"/>
<path d="M150.73 120.521H153.607H154.397H155.186V122.098H154.397H153.607H150.73V120.521Z" fill="#E6E6E6"/>
<path d="M150.73 123.582H153.607H154.829H155.186V125.164H154.829H153.607H150.73V123.582Z" fill="#FAFAFA"/>
<path d="M156.48 114.395H159.357H160.146H160.936V115.976H160.146H159.357H156.48V114.395Z" fill="#FAFAFA"/>
<path d="M156.48 117.46H159.357H160.472H160.936V119.038H160.472H159.357H156.48V117.46Z" fill="#FAFAFA"/>
<path d="M156.48 120.521H159.357H160.146H160.936V122.098H160.146H159.357H156.48V120.521Z" fill="#E6E6E6"/>
<path d="M156.48 123.582H159.357H160.146H160.936V125.164H160.146H159.357H156.48V123.582Z" fill="#FAFAFA"/>
<path d="M103.075 118.454H91.8452V127.869H103.075V118.454Z" fill="#F0F0F0"/>
<path d="M100.917 121.065H102.353V119.63H100.917V121.065Z" fill="#FAFAFA"/>
<path d="M98.1298 121.065H99.5659V119.63H98.1298V121.065Z" fill="#FAFAFA"/>
<path d="M95.351 121.065H96.7871V119.63H95.351V121.065Z" fill="#FAFAFA"/>
<path d="M92.5634 121.065H93.9995V119.63H92.5634V121.065Z" fill="#FAFAFA"/>
<path d="M100.917 123.671H102.353V122.237H100.917V123.671Z" fill="#FAFAFA"/>
<path d="M98.1298 123.671H99.5659V122.237H98.1298V123.671Z" fill="#FAFAFA"/>
<path d="M95.351 123.671H96.7871V122.237H95.351V123.671Z" fill="#FAFAFA"/>
<path d="M92.5634 123.671H93.9995V122.237H92.5634V123.671Z" fill="#E6E6E6"/>
<path d="M100.917 126.282H102.353V124.848H100.917V126.282Z" fill="#E6E6E6"/>
<path d="M98.1298 126.282H99.5659V124.848H98.1298V126.282Z" fill="#E6E6E6"/>
<path d="M95.351 126.282H96.7871V124.848H95.351V126.282Z" fill="#FAFAFA"/>
<path d="M92.5634 126.282H93.9995V124.848H92.5634V126.282Z" fill="#E6E6E6"/>
<path d="M125.126 118.454H113.896V127.869H125.126V118.454Z" fill="#F0F0F0"/>
<path d="M122.972 121.065H124.408V119.63H122.972V121.065Z" fill="#FAFAFA"/>
<path d="M120.184 121.065H121.62V119.63H120.184V121.065Z" fill="#FAFAFA"/>
<path d="M117.401 121.065H118.837V119.63H117.401V121.065Z" fill="#FAFAFA"/>
<path d="M114.618 121.065H116.054V119.63H114.618V121.065Z" fill="#FAFAFA"/>
<path d="M122.972 123.671H124.408V122.237H122.972V123.671Z" fill="#FAFAFA"/>
<path d="M120.184 123.671H121.62V122.237H120.184V123.671Z" fill="#FAFAFA"/>
<path d="M117.401 123.671H118.837V122.237H117.401V123.671Z" fill="#FAFAFA"/>
<path d="M114.618 123.671H116.054V122.237H114.618V123.671Z" fill="#E6E6E6"/>
<path d="M122.972 126.282H124.408V124.848H122.972V126.282Z" fill="#E6E6E6"/>
<path d="M120.184 126.282H121.62V124.848H120.184V126.282Z" fill="#E6E6E6"/>
<path d="M117.401 126.282H118.837V124.848H117.401V126.282Z" fill="#FAFAFA"/>
<path d="M114.618 126.282H116.054V124.848H114.618V126.282Z" fill="#E6E6E6"/>
<path d="M90.3245 111.49H79.0942V127.864H90.3245V111.49Z" fill="#F0F0F0"/>
<path d="M89.6064 112.211H85.3828V116.257H89.6064V112.211Z" fill="#FAFAFA"/>
<path d="M84.0361 112.211H79.8125V116.257H84.0361V112.211Z" fill="#FAFAFA"/>
<path d="M89.6064 117.429H85.3828V121.475H89.6064V117.429Z" fill="#FAFAFA"/>
<path d="M84.0361 117.429H79.8125V121.475H84.0361V117.429Z" fill="#FAFAFA"/>
<path d="M89.6064 122.646H85.3828V126.692H89.6064V122.646Z" fill="#FAFAFA"/>
<path d="M84.0361 122.646H79.8125V126.692H84.0361V122.646Z" fill="#FAFAFA"/>
<path d="M175.122 111.49H163.892V127.864H175.122V111.49Z" fill="#F0F0F0"/>
<path d="M174.404 112.211H170.181V116.257H174.404V112.211Z" fill="#FAFAFA"/>
<path d="M168.834 112.211H164.61V116.257H168.834V112.211Z" fill="#FAFAFA"/>
<path d="M174.404 117.429H170.181V121.475H174.404V117.429Z" fill="#FAFAFA"/>
<path d="M168.834 117.429H164.61V121.475H168.834V117.429Z" fill="#FAFAFA"/>
<path d="M174.404 122.646H170.181V126.692H174.404V122.646Z" fill="#FAFAFA"/>
<path d="M168.834 122.646H164.61V126.692H168.834V122.646Z" fill="#FAFAFA"/>
<path d="M34.5078 133.715C34.5078 133.715 32.251 128.813 34.8289 123.939C37.4068 119.064 38.1605 117.946 36.5148 116.948C34.8691 115.95 34.1153 120.833 34.1153 120.833C33.2999 118.63 33.2155 116.222 33.8745 113.967C35.0162 110.456 35.7343 104.735 34.1733 104.124C32.6123 103.514 33.8745 111.254 32.5186 113.9C31.8233 112.046 31.3735 110.109 31.1806 108.139C30.9933 105.319 31.2877 100.814 30.0523 99.6733C28.8168 98.5326 28.0274 99.3168 29.2405 105.541C29.9696 109.26 30.3726 113.035 30.4447 116.823C30.4447 116.823 27.7687 108.66 25.9847 108.42C24.2007 108.179 24.2007 110.826 25.7261 113.12C27.2514 115.415 30.2262 119.505 30.7123 121.64C30.7123 121.64 27.7732 115.495 25.124 117.38C22.4747 119.265 27.4298 122.976 29.633 124.313C31.8363 125.65 33.3705 134.058 33.3705 134.058L34.5078 133.715Z" fill="#E0E0E0"/>
<path d="M32.7236 135.733C32.7236 135.733 34.9224 130.778 32.2776 125.966C29.6329 121.154 28.8791 120.018 30.4936 119.002C32.1082 117.986 32.9377 122.847 32.9377 122.847C32.9377 122.847 34.2757 119.47 33.0983 115.976C31.9208 112.483 31.1225 106.775 32.679 106.138C34.2356 105.501 33.0626 113.267 34.463 115.887C35.1319 114.019 35.5547 112.072 35.7208 110.095C35.8724 107.274 35.5245 102.774 36.7466 101.602C37.9686 100.431 38.7669 101.215 37.6386 107.457C36.9548 111.186 36.5967 114.966 36.5682 118.757C36.5682 118.757 39.1505 110.554 40.9479 110.291C42.7453 110.028 42.772 112.67 41.2601 114.987C39.7481 117.304 36.8268 121.457 36.3541 123.578C36.3541 123.578 39.2219 117.389 41.8889 119.233C44.556 121.078 39.6589 124.861 37.4646 126.233C35.2703 127.606 33.8431 136.036 33.8431 136.036L32.7236 135.733Z" fill="#EBEBEB"/>
<path d="M42.8702 132.204H24.7002L26.172 145.192H41.3984L42.8702 132.204Z" fill="#EBEBEB"/>
<path d="M179.052 131.277C179.119 130.832 180.622 120.454 177.607 116.868C177.306 116.49 176.925 116.184 176.492 115.971C176.058 115.757 175.583 115.642 175.1 115.633C169.008 115.491 168.174 120.383 168.169 120.432L168.887 120.543C168.914 120.365 169.637 116.23 175.082 116.36C175.462 116.365 175.836 116.455 176.177 116.624C176.517 116.793 176.815 117.036 177.049 117.335C179.859 120.673 178.347 131.068 178.334 131.17L179.052 131.277Z" fill="#EBEBEB"/>
<path d="M179.422 130.805L180.144 130.783C180.144 130.685 179.904 121.212 184.578 119.256C189.154 117.34 191.214 121.279 191.299 121.448L191.95 121.123C191.923 121.074 189.51 116.404 184.297 118.587C179.163 120.748 179.409 130.395 179.422 130.805Z" fill="#EBEBEB"/>
<path d="M179.399 131.549C179.399 131.397 179.444 116.4 182.365 112.033C185.175 107.827 189.702 109.805 189.894 109.894L190.193 109.235C190.139 109.208 184.916 106.905 181.763 111.632C178.717 116.195 178.672 130.921 178.672 131.549H179.399Z" fill="#EBEBEB"/>
<path d="M174.226 115.994C174.226 115.994 176.902 116.974 176.099 119.287C175.296 121.599 166.894 125.404 166.894 125.404C166.894 125.404 163.375 122.183 166.608 116.939C169.842 111.694 174.155 114.341 174.226 115.994Z" fill="#E0E0E0"/>
<path d="M182.499 111.244C182.499 111.244 180.608 111.044 180.76 109.908C180.911 108.771 188.101 105.8 192.356 110.585C192.356 110.585 189.639 115.246 185.715 115.303C181.79 115.361 182.499 111.244 182.499 111.244Z" fill="#E0E0E0"/>
<path d="M184.435 118.922C184.435 118.922 183.132 117.87 184.537 117.358C185.942 116.845 192.846 116.992 192.918 123.818C192.918 123.818 184.89 125.155 183.886 122.553C182.883 119.951 184.435 118.922 184.435 118.922Z" fill="#E0E0E0"/>
<path d="M172.799 145.192H185.274L186.616 131.549H171.452L172.799 145.192Z" fill="#EBEBEB"/>
<path d="M170.787 133.051H187.285V130.039H170.787V133.051Z" fill="#E0E0E0"/>
<path d="M112 166C159.759 166 198.475 163.742 198.475 160.956C198.475 158.171 159.759 155.912 112 155.912C64.2415 155.912 25.5254 158.171 25.5254 160.956C25.5254 163.742 64.2415 166 112 166Z" fill="#F5F5F5"/>
<path d="M158.875 47.3013H55.4875V123.208H158.875V47.3013Z" fill="#05F29B"/>
<path opacity="0.7" d="M158.875 47.3013H55.4875V123.208H158.875V47.3013Z" fill="white"/>
<path d="M158.875 47.3013H55.4875V51.9485H158.875V47.3013Z" fill="#05F29B"/>
<path opacity="0.7" d="M156.015 50.8792C156.708 50.8792 157.269 50.3186 157.269 49.6272C157.269 48.9357 156.708 48.3751 156.015 48.3751C155.323 48.3751 154.762 48.9357 154.762 49.6272C154.762 50.3186 155.323 50.8792 156.015 50.8792Z" fill="white"/>
<path opacity="0.7" d="M152.358 50.8792C153.05 50.8792 153.611 50.3186 153.611 49.6272C153.611 48.9357 153.05 48.3751 152.358 48.3751C151.666 48.3751 151.105 48.9357 151.105 49.6272C151.105 50.3186 151.666 50.8792 152.358 50.8792Z" fill="white"/>
<path opacity="0.7" d="M148.702 50.8792C149.394 50.8792 149.955 50.3186 149.955 49.6272C149.955 48.9357 149.394 48.3751 148.702 48.3751C148.009 48.3751 147.448 48.9357 147.448 49.6272C147.448 50.3186 148.009 50.8792 148.702 50.8792Z" fill="white"/>
<path opacity="0.1" d="M88.1347 53.3431H56.3572V121.225H88.1347V53.3431Z" fill="black"/>
<path opacity="0.1" d="M89.0218 121.23L158.223 121.23V53.3476L89.0218 53.3476L89.0218 121.23Z" fill="black"/>
<path opacity="0.2" d="M144.625 58.4583H102.942V88.1374H144.625V58.4583Z" fill="black"/>
<path d="M142.868 56.2617H101.185V85.9409H142.868V56.2617Z" fill="#05F29B"/>
<path opacity="0.5" d="M142.872 56.2617H101.185V85.9409H142.872V56.2617Z" fill="white"/>
<path opacity="0.7" d="M142.252 61.7109H101.8V85.3215H142.252V61.7109Z" fill="white"/>
<path d="M142.868 56.2617H101.185V60.909H142.868V56.2617Z" fill="#05F29B"/>
<path opacity="0.7" d="M140.014 59.8395C140.706 59.8395 141.267 59.279 141.267 58.5875C141.267 57.896 140.706 57.3354 140.014 57.3354C139.321 57.3354 138.76 57.896 138.76 58.5875C138.76 59.279 139.321 59.8395 140.014 59.8395Z" fill="white"/>
<path opacity="0.7" d="M136.356 59.8395C137.048 59.8395 137.61 59.279 137.61 58.5875C137.61 57.896 137.048 57.3354 136.356 57.3354C135.664 57.3354 135.103 57.896 135.103 58.5875C135.103 59.279 135.664 59.8395 136.356 59.8395Z" fill="white"/>
<path opacity="0.7" d="M133.947 58.5874C133.947 58.835 133.874 59.0771 133.736 59.283C133.599 59.4889 133.403 59.6494 133.174 59.7441C132.945 59.8389 132.693 59.8637 132.45 59.8154C132.207 59.767 131.983 59.6478 131.808 59.4727C131.633 59.2976 131.513 59.0745 131.465 58.8316C131.417 58.5888 131.441 58.337 131.536 58.1082C131.631 57.8795 131.792 57.6839 131.998 57.5463C132.204 57.4088 132.446 57.3353 132.694 57.3353C132.859 57.3347 133.022 57.3667 133.174 57.4294C133.327 57.4922 133.465 57.5844 133.582 57.7007C133.698 57.8171 133.79 57.9554 133.853 58.1075C133.916 58.2597 133.948 58.4228 133.947 58.5874Z" fill="white"/>
<path opacity="0.2" d="M101.8 79.4399L113.289 72.547L121.67 77.1185L134.505 69.0226L142.252 74.7927V85.3214H101.8V79.4399Z" fill="#05F29B"/>
<path d="M113.521 67.989C113.521 68.6058 113.338 69.2088 112.995 69.7218C112.652 70.2347 112.164 70.6344 111.594 70.8705C111.023 71.1066 110.395 71.1683 109.79 71.048C109.184 70.9276 108.628 70.6306 108.191 70.1944C107.755 69.7582 107.457 69.2025 107.337 68.5974C107.216 67.9924 107.278 67.3653 107.515 66.7954C107.751 66.2255 108.151 65.7384 108.664 65.3956C109.178 65.0529 109.781 64.87 110.399 64.87C111.227 64.87 112.021 65.1986 112.606 65.7835C113.192 66.3684 113.521 67.1618 113.521 67.989Z" fill="white"/>
<path opacity="0.2" d="M105.609 82.1981H101.185V85.9409H105.609V82.1981Z" fill="black"/>
<path opacity="0.2" d="M150.557 102.137H108.874V123.092H150.557V102.137Z" fill="black"/>
<path d="M152.706 103.18H111.023V132.859H152.706V103.18Z" fill="#05F29B"/>
<path opacity="0.5" d="M152.706 103.18H111.023V132.859H152.706V103.18Z" fill="white"/>
<path opacity="0.7" d="M152.091 108.629H111.639V132.239H152.091V108.629Z" fill="white"/>
<path d="M129.715 111.94L126.508 121.599H124.604L122.213 114.47L119.782 121.599H117.865L114.676 111.94H116.54L118.944 119.278L121.446 111.94H123.101L125.545 119.323L128.02 111.94H129.715Z" fill="#263238"/>
<path d="M152.706 103.18H111.023V107.827H152.706V103.18Z" fill="#05F29B"/>
<path opacity="0.7" d="M151.105 105.505C151.105 105.753 151.032 105.995 150.894 106.201C150.756 106.407 150.561 106.567 150.331 106.662C150.102 106.757 149.851 106.782 149.607 106.733C149.364 106.685 149.141 106.566 148.966 106.391C148.79 106.216 148.671 105.993 148.623 105.75C148.574 105.507 148.599 105.255 148.694 105.026C148.789 104.798 148.95 104.602 149.156 104.464C149.362 104.327 149.604 104.253 149.852 104.253C150.184 104.253 150.503 104.385 150.738 104.62C150.973 104.855 151.105 105.173 151.105 105.505Z" fill="white"/>
<path opacity="0.7" d="M147.444 105.505C147.444 105.753 147.37 105.995 147.232 106.201C147.095 106.407 146.899 106.567 146.67 106.662C146.441 106.757 146.189 106.782 145.946 106.733C145.703 106.685 145.479 106.566 145.304 106.391C145.129 106.216 145.009 105.993 144.961 105.75C144.913 105.507 144.938 105.255 145.032 105.026C145.127 104.798 145.288 104.602 145.494 104.464C145.7 104.327 145.942 104.253 146.19 104.253C146.523 104.253 146.841 104.385 147.076 104.62C147.311 104.855 147.444 105.173 147.444 105.505Z" fill="white"/>
<path opacity="0.7" d="M143.787 105.505C143.787 105.753 143.713 105.995 143.576 106.201C143.438 106.407 143.242 106.567 143.013 106.662C142.784 106.757 142.532 106.782 142.289 106.733C142.046 106.685 141.823 106.566 141.647 106.391C141.472 106.216 141.353 105.993 141.304 105.75C141.256 105.507 141.281 105.255 141.376 105.026C141.471 104.798 141.631 104.602 141.837 104.464C142.043 104.327 142.286 104.253 142.534 104.253C142.866 104.253 143.185 104.385 143.42 104.62C143.655 104.855 143.787 105.173 143.787 105.505Z" fill="white"/>
<path d="M149.072 112.162H131.62V112.608H149.072V112.162Z" fill="#263238"/>
<path d="M149.072 114.457H131.62V114.903H149.072V114.457Z" fill="#263238"/>
<path d="M149.072 116.752H131.62V117.197H149.072V116.752Z" fill="#263238"/>
<path d="M149.072 119.046H131.62V119.492H149.072V119.046Z" fill="#263238"/>
<path d="M149.072 121.345H131.62V121.791H149.072V121.345Z" fill="#263238"/>
<path d="M149.067 123.64H114.658V124.086H149.067V123.64Z" fill="#263238"/>
<path d="M149.067 125.935H114.658V126.38H149.067V125.935Z" fill="#263238"/>
<path d="M149.067 128.229H114.658V128.675H149.067V128.229Z" fill="#263238"/>
<path opacity="0.2" d="M103.205 86.3864H61.5217V116.066H103.205V86.3864Z" fill="black"/>
<path d="M104.993 83.2629H63.3103V112.942H104.993V83.2629Z" fill="#05F29B"/>
<path opacity="0.5" d="M104.993 83.2629H63.3103V112.942H104.993V83.2629Z" fill="white"/>
<path opacity="0.7" d="M104.378 88.7122H63.9258V112.323H104.378V88.7122Z" fill="white"/>
<path d="M79.5045 97.9176L73.0732 100.319L79.5045 102.721V104.655L70.9146 101.326V99.3123L79.5045 95.9839V97.9176Z" fill="#263238"/>
<path d="M86.2836 91.1584H88.3619L82.2205 108.718H80.1377L86.2836 91.1584Z" fill="#263238"/>
<path d="M97.407 99.3123V101.326L88.8081 104.655V102.721L95.2394 100.319L88.8081 97.9176V95.9839L97.407 99.3123Z" fill="#263238"/>
<path d="M104.993 83.2629H63.3103V87.9102H104.993V83.2629Z" fill="#05F29B"/>
<path opacity="0.7" d="M103.388 85.5888C103.388 85.8367 103.314 86.0789 103.176 86.2849C103.038 86.4909 102.842 86.6514 102.613 86.746C102.384 86.8406 102.132 86.8652 101.888 86.8165C101.645 86.7678 101.422 86.6481 101.247 86.4726C101.072 86.297 100.953 86.0735 100.905 85.8304C100.857 85.5872 100.882 85.3353 100.978 85.1066C101.074 84.8779 101.235 84.6827 101.442 84.5456C101.648 84.4086 101.891 84.3359 102.139 84.3368C102.303 84.3368 102.466 84.3692 102.618 84.4322C102.77 84.4952 102.908 84.5875 103.024 84.7038C103.14 84.8201 103.232 84.9582 103.294 85.11C103.357 85.2619 103.388 85.4246 103.388 85.5888Z" fill="white"/>
<path opacity="0.7" d="M99.7302 85.5888C99.7302 85.8365 99.6567 86.0785 99.5189 86.2844C99.3812 86.4903 99.1855 86.6508 98.9565 86.7456C98.7275 86.8403 98.4755 86.8651 98.2324 86.8168C97.9893 86.7685 97.766 86.6493 97.5907 86.4742C97.4154 86.2991 97.2961 86.076 97.2477 85.8331C97.1994 85.5902 97.2242 85.3385 97.319 85.1097C97.4139 84.8809 97.5745 84.6854 97.7806 84.5478C97.9867 84.4102 98.229 84.3368 98.4769 84.3368C98.8093 84.3368 99.1281 84.4687 99.3631 84.7035C99.5981 84.9383 99.7302 85.2568 99.7302 85.5888Z" fill="white"/>
<path opacity="0.7" d="M96.0729 85.5888C96.0729 85.8365 95.9994 86.0785 95.8617 86.2844C95.724 86.4903 95.5283 86.6508 95.2993 86.7456C95.0703 86.8403 94.8183 86.8651 94.5752 86.8168C94.3321 86.7685 94.1087 86.6493 93.9335 86.4742C93.7582 86.2991 93.6388 86.076 93.5905 85.8331C93.5421 85.5902 93.5669 85.3385 93.6618 85.1097C93.7567 84.8809 93.9173 84.6854 94.1234 84.5478C94.3295 84.4102 94.5718 84.3368 94.8197 84.3368C95.152 84.3368 95.4708 84.4687 95.7059 84.7035C95.9409 84.9383 96.0729 85.2568 96.0729 85.5888Z" fill="white"/>
</svg>
