<svg width="242" height="182" viewBox="0 0 242 182" fill="none" xmlns="http://www.w3.org/2000/svg">
<path d="M242 159.302H0V159.423H242V159.302Z" fill="#EBEBEB"/>
<path d="M217.752 167.09H201.722V167.211H217.752V167.09Z" fill="#EBEBEB"/>
<path d="M160.31 168.406H156.104V168.527H160.31V168.406Z" fill="#EBEBEB"/>
<path d="M201.238 162.598H191.95V162.719H201.238V162.598Z" fill="#EBEBEB"/>
<path d="M46.2948 163.411H25.3909V163.532H46.2948V163.411Z" fill="#EBEBEB"/>
<path d="M53.6707 163.411H50.6069V163.532H53.6707V163.411Z" fill="#EBEBEB"/>
<path d="M108.973 165.454H63.6316V165.575H108.973V165.454Z" fill="#EBEBEB"/>
<path d="M114.708 137.716H21.2525C20.5203 137.714 19.8186 137.423 19.3014 136.905C18.7842 136.386 18.4937 135.684 18.4937 134.952V3.58002C18.5 2.85209 18.7933 2.15608 19.3099 1.64315C19.8264 1.13023 20.5245 0.841823 21.2525 0.840576H114.708C115.441 0.840576 116.144 1.13174 116.662 1.65003C117.18 2.16831 117.472 2.87125 117.472 3.60422V134.952C117.472 135.685 117.18 136.388 116.662 136.906C116.144 137.425 115.441 137.716 114.708 137.716ZM21.2525 0.937377C20.5524 0.938659 19.8815 1.21764 19.387 1.7131C18.8924 2.20855 18.6147 2.87998 18.6147 3.58002V134.952C18.6147 135.652 18.8924 136.324 19.387 136.819C19.8815 137.315 20.5524 137.593 21.2525 137.595H114.708C115.409 137.594 116.08 137.315 116.575 136.819C117.071 136.324 117.349 135.653 117.351 134.952V3.58002C117.349 2.87954 117.071 2.20811 116.575 1.7128C116.08 1.21749 115.409 0.938656 114.708 0.937377H21.2525Z" fill="#EBEBEB"/>
<path d="M219.402 137.716H125.942C125.209 137.714 124.507 137.423 123.989 136.905C123.471 136.387 123.18 135.685 123.178 134.952V3.58002C123.186 2.85165 123.48 2.15564 123.998 1.64285C124.515 1.13006 125.213 0.84181 125.942 0.840576H219.402C220.129 0.843095 220.826 1.13206 221.342 1.64485C221.857 2.15764 222.15 2.85293 222.156 3.58002V134.952C222.156 135.683 221.866 136.385 221.35 136.903C220.834 137.421 220.134 137.713 219.402 137.716ZM125.942 0.937377C125.241 0.938656 124.57 1.21749 124.075 1.7128C123.579 2.20811 123.301 2.87954 123.299 3.58002V134.952C123.301 135.653 123.579 136.324 124.075 136.819C124.57 137.315 125.241 137.594 125.942 137.595H219.402C220.103 137.594 220.774 137.315 221.269 136.819C221.765 136.324 222.044 135.653 222.045 134.952V3.58002C222.044 2.87954 221.765 2.20811 221.269 1.7128C220.774 1.21749 220.103 0.938656 219.402 0.937377H125.942Z" fill="#EBEBEB"/>
<path d="M77.7594 23.7773H43.2744V140.765H77.7594V23.7773Z" fill="#FAFAFA"/>
<path d="M72.6243 23.7773H70.6109L58.5835 140.765H60.5969L72.6243 23.7773Z" fill="#F5F5F5"/>
<path d="M77.1496 24.2322H43.0518V25.2631H77.1496V24.2322Z" fill="#E0E0E0"/>
<path d="M77.1496 139.744H43.0518V141.951H77.1496V139.744Z" fill="#EBEBEB"/>
<path d="M76.5832 141.854H44.3633V141.951H76.5832V141.854Z" fill="#EBEBEB"/>
<path d="M44.3635 24.2323H76.5834V141.854H78.5146V22.7852H42.4324V141.854H44.3635V24.2323Z" fill="#EBEBEB"/>
<path d="M116.136 23.7773H81.6509V140.765H116.136V23.7773Z" fill="#FAFAFA"/>
<path d="M106.572 23.7773H95.5757L83.5483 140.765H94.54L106.572 23.7773Z" fill="#F5F5F5"/>
<path d="M116.494 24.2322H81.4282V25.2631H116.494V24.2322Z" fill="#E0E0E0"/>
<path d="M116.494 139.744H81.4282V141.951H116.494V139.744Z" fill="#EBEBEB"/>
<path d="M114.96 141.854H82.7397V141.951H114.96V141.854Z" fill="#EBEBEB"/>
<path d="M82.7402 24.2323H114.96V141.854H116.886V22.7852H80.8091V141.854H82.7402V24.2323Z" fill="#EBEBEB"/>
<path d="M153.539 23.7773H120.022V140.765H153.539V23.7773Z" fill="#FAFAFA"/>
<path d="M139.014 23.7773H137.001L124.974 140.765H126.987L139.014 23.7773Z" fill="#F5F5F5"/>
<path d="M153.902 24.2322H119.805V25.2631H153.902V24.2322Z" fill="#E0E0E0"/>
<path d="M153.902 139.744H119.805V141.951H153.902V139.744Z" fill="#EBEBEB"/>
<path d="M153.336 141.854H121.116V141.951H153.336V141.854Z" fill="#EBEBEB"/>
<path d="M121.116 24.2323H153.331V141.854H155.262V22.7852H119.185V141.854H121.116V24.2323Z" fill="#EBEBEB"/>
<path d="M192.883 23.7773H158.398V140.765H192.883V23.7773Z" fill="#FAFAFA"/>
<path d="M189.51 23.7773H178.519L166.486 140.765H177.483L189.51 23.7773Z" fill="#F5F5F5"/>
<path d="M192.279 24.2322H158.181V25.2631H192.279V24.2322Z" fill="#E0E0E0"/>
<path d="M192.279 139.744H158.181V141.951H192.279V139.744Z" fill="#EBEBEB"/>
<path d="M159.488 24.2323H191.708V141.854H193.639V22.7852H157.562V141.854H159.488V24.2323Z" fill="#EBEBEB"/>
<path d="M191.708 141.854H159.488V141.951H191.708V141.854Z" fill="#EBEBEB"/>
<path d="M67.0871 113.85H52.1169V139.739H67.0871V113.85Z" fill="#EBEBEB"/>
<path d="M64.217 110.229V116.725H63.036H56.1729H54.9919V110.229H64.217Z" fill="#EBEBEB"/>
<path d="M64.2125 116.725H66.1292V114.808H64.2125V116.725Z" fill="#FAFAFA"/>
<path d="M60.505 116.725H62.4216V114.808H60.505V116.725Z" fill="#FAFAFA"/>
<path d="M56.7928 116.725H58.7095V114.808H56.7928V116.725Z" fill="#FAFAFA"/>
<path d="M53.0802 116.725H54.9968V114.808H53.0802V116.725Z" fill="#F0F0F0"/>
<path d="M64.2125 120.209H66.1292V118.293H64.2125V120.209Z" fill="#F0F0F0"/>
<path d="M60.505 120.209H62.4216V118.293H60.505V120.209Z" fill="#F0F0F0"/>
<path d="M56.7928 120.209H58.7095V118.293H56.7928V120.209Z" fill="#FAFAFA"/>
<path d="M53.0802 120.209H54.9968V118.293H53.0802V120.209Z" fill="#FAFAFA"/>
<path d="M64.2125 123.689H66.1292V121.773H64.2125V123.689Z" fill="#F0F0F0"/>
<path d="M60.505 123.689H62.4216V121.773H60.505V123.689Z" fill="#FAFAFA"/>
<path d="M56.7928 123.689H58.7095V121.773H56.7928V123.689Z" fill="#FAFAFA"/>
<path d="M60.505 113.714H62.4216V111.797H60.505V113.714Z" fill="#FAFAFA"/>
<path d="M56.7928 113.714H58.7095V111.797H56.7928V113.714Z" fill="#F0F0F0"/>
<path d="M53.0802 123.689H54.9968V121.773H53.0802V123.689Z" fill="#F0F0F0"/>
<path d="M64.2125 127.174H66.1292V125.258H64.2125V127.174Z" fill="#FAFAFA"/>
<path d="M60.505 127.174H62.4216V125.258H60.505V127.174Z" fill="#F0F0F0"/>
<path d="M56.7928 127.174H58.7095V125.258H56.7928V127.174Z" fill="#F0F0F0"/>
<path d="M53.0802 127.174H54.9968V125.258H53.0802V127.174Z" fill="#FAFAFA"/>
<path d="M64.2125 130.654H66.1292V128.738H64.2125V130.654Z" fill="#F0F0F0"/>
<path d="M60.505 130.654H62.4216V128.738H60.505V130.654Z" fill="#FAFAFA"/>
<path d="M56.7928 130.654H58.7095V128.738H56.7928V130.654Z" fill="#FAFAFA"/>
<path d="M53.0802 130.654H54.9968V128.738H53.0802V130.654Z" fill="#F0F0F0"/>
<path d="M64.2125 134.134H66.1292V132.218H64.2125V134.134Z" fill="#F0F0F0"/>
<path d="M60.505 134.134H62.4216V132.218H60.505V134.134Z" fill="#FAFAFA"/>
<path d="M56.7928 134.134H58.7095V132.218H56.7928V134.134Z" fill="#F0F0F0"/>
<path d="M53.0802 134.134H54.9968V132.218H53.0802V134.134Z" fill="#FAFAFA"/>
<path d="M64.2125 137.619H66.1292V135.702H64.2125V137.619Z" fill="#FAFAFA"/>
<path d="M60.505 137.619H62.4216V135.702H60.505V137.619Z" fill="#FAFAFA"/>
<path d="M56.7928 137.619H58.7095V135.702H56.7928V137.619Z" fill="#F0F0F0"/>
<path d="M53.0802 137.619H54.9968V135.702H53.0802V137.619Z" fill="#F0F0F0"/>
<path d="M151.492 113.85H136.522V139.739H151.492V113.85Z" fill="#EBEBEB"/>
<path d="M148.622 110.229V116.725H147.441H140.578H139.397V110.229H148.622Z" fill="#EBEBEB"/>
<path d="M148.617 116.725H150.534V114.808H148.617V116.725Z" fill="#FAFAFA"/>
<path d="M144.905 116.725H146.821V114.808H144.905V116.725Z" fill="#FAFAFA"/>
<path d="M141.192 116.725H143.109V114.808H141.192V116.725Z" fill="#FAFAFA"/>
<path d="M137.485 116.725H139.402V114.808H137.485V116.725Z" fill="#F0F0F0"/>
<path d="M148.617 120.209H150.534V118.293H148.617V120.209Z" fill="#F0F0F0"/>
<path d="M144.905 120.209H146.821V118.293H144.905V120.209Z" fill="#F0F0F0"/>
<path d="M141.192 120.209H143.109V118.293H141.192V120.209Z" fill="#FAFAFA"/>
<path d="M137.485 120.209H139.402V118.293H137.485V120.209Z" fill="#FAFAFA"/>
<path d="M148.617 123.689H150.534V121.773H148.617V123.689Z" fill="#F0F0F0"/>
<path d="M144.905 123.689H146.821V121.773H144.905V123.689Z" fill="#FAFAFA"/>
<path d="M141.192 123.689H143.109V121.773H141.192V123.689Z" fill="#FAFAFA"/>
<path d="M144.905 113.714H146.821V111.797H144.905V113.714Z" fill="#FAFAFA"/>
<path d="M141.192 113.714H143.109V111.797H141.192V113.714Z" fill="#F0F0F0"/>
<path d="M137.485 123.689H139.402V121.773H137.485V123.689Z" fill="#F0F0F0"/>
<path d="M148.617 127.174H150.534V125.258H148.617V127.174Z" fill="#FAFAFA"/>
<path d="M144.905 127.174H146.821V125.258H144.905V127.174Z" fill="#F0F0F0"/>
<path d="M141.192 127.174H143.109V125.258H141.192V127.174Z" fill="#F0F0F0"/>
<path d="M137.485 127.174H139.402V125.258H137.485V127.174Z" fill="#FAFAFA"/>
<path d="M148.617 130.654H150.534V128.738H148.617V130.654Z" fill="#F0F0F0"/>
<path d="M144.905 130.654H146.821V128.738H144.905V130.654Z" fill="#FAFAFA"/>
<path d="M141.192 130.654H143.109V128.738H141.192V130.654Z" fill="#FAFAFA"/>
<path d="M137.485 130.654H139.402V128.738H137.485V130.654Z" fill="#F0F0F0"/>
<path d="M148.617 134.134H150.534V132.218H148.617V134.134Z" fill="#F0F0F0"/>
<path d="M144.905 134.134H146.821V132.218H144.905V134.134Z" fill="#FAFAFA"/>
<path d="M141.192 134.134H143.109V132.218H141.192V134.134Z" fill="#F0F0F0"/>
<path d="M137.485 134.134H139.402V132.218H137.485V134.134Z" fill="#FAFAFA"/>
<path d="M148.617 137.619H150.534V135.702H148.617V137.619Z" fill="#FAFAFA"/>
<path d="M144.905 137.619H146.821V135.702H144.905V137.619Z" fill="#FAFAFA"/>
<path d="M141.192 137.619H143.109V135.702H141.192V137.619Z" fill="#F0F0F0"/>
<path d="M137.485 137.619H139.402V135.702H137.485V137.619Z" fill="#F0F0F0"/>
<path d="M175.276 123.278H161.864V139.734H175.276V123.278Z" fill="#F0F0F0"/>
<path d="M163.03 125.103H166.152H167.009H167.865V126.821H167.009H166.152H163.03V125.103Z" fill="#E6E6E6"/>
<path d="M163.03 128.433H166.152H167.009H167.865V130.146H167.009H166.152H163.03V128.433Z" fill="#FAFAFA"/>
<path d="M163.03 131.758H166.152H167.009H167.865V133.471H167.009H166.152H163.03V131.758Z" fill="#E6E6E6"/>
<path d="M163.03 135.083H166.152H167.478H167.865V136.801H167.478H166.152H163.03V135.083Z" fill="#FAFAFA"/>
<path d="M169.27 125.103H172.391H173.248H174.105V126.821H173.248H172.391H169.27V125.103Z" fill="#FAFAFA"/>
<path d="M169.27 128.433H172.391H173.601H174.105V130.146H173.601H172.391H169.27V128.433Z" fill="#FAFAFA"/>
<path d="M169.27 131.758H172.391H173.248H174.105V133.471H173.248H172.391H169.27V131.758Z" fill="#E6E6E6"/>
<path d="M169.27 135.083H172.391H173.248H174.105V136.801H173.248H172.391H169.27V135.083Z" fill="#FAFAFA"/>
<path d="M111.315 129.512H99.1279V139.739H111.315V129.512Z" fill="#F0F0F0"/>
<path d="M108.973 132.348H110.531V130.79H108.973V132.348Z" fill="#FAFAFA"/>
<path d="M105.948 132.348H107.506V130.79H105.948V132.348Z" fill="#FAFAFA"/>
<path d="M102.932 132.348H104.491V130.79H102.932V132.348Z" fill="#FAFAFA"/>
<path d="M99.9073 132.348H101.466V130.79H99.9073V132.348Z" fill="#FAFAFA"/>
<path d="M108.973 135.18H110.531V133.621H108.973V135.18Z" fill="#FAFAFA"/>
<path d="M105.948 135.18H107.506V133.621H105.948V135.18Z" fill="#FAFAFA"/>
<path d="M102.932 135.18H104.491V133.621H102.932V135.18Z" fill="#FAFAFA"/>
<path d="M99.9073 135.18H101.466V133.621H99.9073V135.18Z" fill="#E6E6E6"/>
<path d="M108.973 138.016H110.531V136.457H108.973V138.016Z" fill="#E6E6E6"/>
<path d="M105.948 138.016H107.506V136.457H105.948V138.016Z" fill="#E6E6E6"/>
<path d="M102.932 138.016H104.491V136.457H102.932V138.016Z" fill="#FAFAFA"/>
<path d="M99.9073 138.016H101.466V136.457H99.9073V138.016Z" fill="#E6E6E6"/>
<path d="M135.244 129.512H123.057V139.739H135.244V129.512Z" fill="#F0F0F0"/>
<path d="M132.907 132.348H134.465V130.79H132.907V132.348Z" fill="#FAFAFA"/>
<path d="M129.881 132.348H131.44V130.79H129.881V132.348Z" fill="#FAFAFA"/>
<path d="M126.861 132.348H128.42V130.79H126.861V132.348Z" fill="#FAFAFA"/>
<path d="M123.841 132.348H125.399V130.79H123.841V132.348Z" fill="#FAFAFA"/>
<path d="M132.907 135.18H134.465V133.621H132.907V135.18Z" fill="#FAFAFA"/>
<path d="M129.881 135.18H131.44V133.621H129.881V135.18Z" fill="#FAFAFA"/>
<path d="M126.861 135.18H128.42V133.621H126.861V135.18Z" fill="#FAFAFA"/>
<path d="M123.841 135.18H125.399V133.621H123.841V135.18Z" fill="#E6E6E6"/>
<path d="M132.907 138.016H134.465V136.457H132.907V138.016Z" fill="#E6E6E6"/>
<path d="M129.881 138.016H131.44V136.457H129.881V138.016Z" fill="#E6E6E6"/>
<path d="M126.861 138.016H128.42V136.457H126.861V138.016Z" fill="#FAFAFA"/>
<path d="M123.841 138.016H125.399V136.457H123.841V138.016Z" fill="#E6E6E6"/>
<path d="M97.4776 121.947H85.2905V139.734H97.4776V121.947Z" fill="#F0F0F0"/>
<path d="M96.6982 122.731H92.1147V127.126H96.6982V122.731Z" fill="#FAFAFA"/>
<path d="M90.6533 122.731H86.0698V127.126H90.6533V122.731Z" fill="#FAFAFA"/>
<path d="M96.6982 128.399H92.1147V132.793H96.6982V128.399Z" fill="#FAFAFA"/>
<path d="M90.6533 128.399H86.0698V132.793H90.6533V128.399Z" fill="#FAFAFA"/>
<path d="M96.6982 134.066H92.1147V138.461H96.6982V134.066Z" fill="#FAFAFA"/>
<path d="M90.6533 134.066H86.0698V138.461H90.6533V134.066Z" fill="#FAFAFA"/>
<path d="M189.501 121.947H177.313V139.734H189.501V121.947Z" fill="#F0F0F0"/>
<path d="M188.721 122.731H184.138V127.126H188.721V122.731Z" fill="#FAFAFA"/>
<path d="M182.676 122.731H178.093V127.126H182.676V122.731Z" fill="#FAFAFA"/>
<path d="M188.721 128.399H184.138V132.793H188.721V128.399Z" fill="#FAFAFA"/>
<path d="M182.676 128.399H178.093V132.793H182.676V128.399Z" fill="#FAFAFA"/>
<path d="M188.721 134.066H184.138V138.461H188.721V134.066Z" fill="#FAFAFA"/>
<path d="M182.676 134.066H178.093V138.461H182.676V134.066Z" fill="#FAFAFA"/>
<path d="M36.9053 146.089C36.9053 146.089 34.4562 140.765 37.2537 135.47C40.0513 130.175 40.8692 128.96 39.0833 127.876C37.2973 126.792 36.4793 132.097 36.4793 132.097C35.5945 129.703 35.5029 127.088 36.218 124.638C37.457 120.824 38.2363 114.61 36.5423 113.947C34.8483 113.284 36.218 121.691 34.7466 124.566C33.9921 122.552 33.5039 120.448 33.2946 118.307C33.0913 115.244 33.4108 110.351 32.0701 109.111C30.7294 107.872 29.8727 108.724 31.1892 115.486C31.9805 119.525 32.4177 123.625 32.496 127.741C32.496 127.741 29.592 118.874 27.656 118.612C25.72 118.351 25.72 121.226 27.3753 123.719C29.0306 126.211 32.2589 130.654 32.7864 132.973C32.7864 132.973 29.5969 126.298 26.7219 128.346C23.8469 130.393 29.2242 134.425 31.6151 135.877C34.0061 137.329 35.6711 146.462 35.6711 146.462L36.9053 146.089Z" fill="#E0E0E0"/>
<path d="M34.9691 148.281C34.9691 148.281 37.3552 142.899 34.4851 137.672C31.615 132.445 30.797 131.211 32.5491 130.107C34.3012 129.004 35.2014 134.284 35.2014 134.284C35.2014 134.284 36.6534 130.615 35.3756 126.821C34.0979 123.026 33.2315 116.826 34.9207 116.134C36.6098 115.442 35.3369 123.878 36.8567 126.724C37.5826 124.695 38.0414 122.58 38.2216 120.432C38.3861 117.368 38.0086 112.48 39.3348 111.207C40.6609 109.934 41.5273 110.786 40.3028 117.567C39.5607 121.617 39.1721 125.724 39.1412 129.841C39.1412 129.841 41.9435 120.931 43.894 120.645C45.8446 120.359 45.8736 123.23 44.2328 125.746C42.5921 128.263 39.4219 132.774 38.9088 135.078C38.9088 135.078 42.021 128.355 44.9153 130.359C47.8096 132.363 42.4953 136.472 40.114 137.963C37.7327 139.453 36.1839 148.611 36.1839 148.611L34.9691 148.281Z" fill="#EBEBEB"/>
<path d="M45.9801 144.448H26.262L27.8592 158.557H44.3829L45.9801 144.448Z" fill="#EBEBEB"/>
<path d="M193.765 143.442C193.837 142.958 195.468 131.685 192.197 127.789C191.87 127.379 191.456 127.046 190.986 126.815C190.516 126.583 190.001 126.458 189.476 126.448C182.865 126.293 181.96 131.608 181.955 131.661L182.734 131.782C182.763 131.588 183.547 127.097 189.457 127.237C189.869 127.243 190.275 127.341 190.645 127.525C191.014 127.708 191.338 127.972 191.592 128.297C194.641 131.922 193 143.214 192.985 143.325L193.765 143.442Z" fill="#EBEBEB"/>
<path d="M194.166 142.929L194.951 142.904C194.951 142.798 194.689 132.508 199.762 130.383C204.727 128.302 206.963 132.581 207.055 132.765L207.762 132.411C207.733 132.358 205.115 127.286 199.457 129.657C193.886 132.005 194.152 142.483 194.166 142.929Z" fill="#EBEBEB"/>
<path d="M194.142 143.737C194.142 143.572 194.19 127.281 197.361 122.538C200.41 117.969 205.322 120.118 205.53 120.214L205.855 119.498C205.797 119.469 200.129 116.967 196.707 122.102C193.401 127.058 193.353 143.054 193.353 143.737H194.142Z" fill="#EBEBEB"/>
<path d="M188.528 126.84C188.528 126.84 191.432 127.905 190.56 130.417C189.689 132.929 180.571 137.062 180.571 137.062C180.571 137.062 176.752 133.563 180.261 127.866C183.77 122.17 188.45 125.045 188.528 126.84Z" fill="#E0E0E0"/>
<path d="M197.506 121.681C197.506 121.681 195.454 121.463 195.618 120.229C195.783 118.995 203.585 115.766 208.202 120.964C208.202 120.964 205.255 126.027 200.996 126.09C196.736 126.153 197.506 121.681 197.506 121.681Z" fill="#E0E0E0"/>
<path d="M199.606 130.02C199.606 130.02 198.193 128.878 199.718 128.321C201.242 127.765 208.735 127.924 208.812 135.339C208.812 135.339 200.1 136.791 199.011 133.965C197.922 131.138 199.606 130.02 199.606 130.02Z" fill="#E0E0E0"/>
<path d="M186.979 158.557H200.517L201.974 143.737H185.518L186.979 158.557Z" fill="#EBEBEB"/>
<path d="M184.796 145.368H202.699V142.096H184.796V145.368Z" fill="#E0E0E0"/>
<path d="M121 181.16C172.828 181.16 214.843 178.707 214.843 175.681C214.843 172.655 172.828 170.202 121 170.202C69.1723 170.202 27.1575 172.655 27.1575 175.681C27.1575 178.707 69.1723 181.16 121 181.16Z" fill="#F5F5F5"/>
<path d="M171.869 52.222H59.6726V134.676H171.869V52.222Z" fill="#05F29B"/>
<path opacity="0.7" d="M171.869 52.222H59.6726V134.676H171.869V52.222Z" fill="white"/>
<path d="M171.869 52.222H59.6726V57.2702H171.869V52.222Z" fill="#05F29B"/>
<path opacity="0.7" d="M168.766 56.1085C169.517 56.1085 170.126 55.4996 170.126 54.7485C170.126 53.9973 169.517 53.3884 168.766 53.3884C168.015 53.3884 167.406 53.9973 167.406 54.7485C167.406 55.4996 168.015 56.1085 168.766 56.1085Z" fill="white"/>
<path opacity="0.7" d="M164.797 56.1085C165.548 56.1085 166.157 55.4996 166.157 54.7485C166.157 53.9973 165.548 53.3884 164.797 53.3884C164.046 53.3884 163.437 53.9973 163.437 54.7485C163.437 55.4996 164.046 56.1085 164.797 56.1085Z" fill="white"/>
<path opacity="0.7" d="M160.829 56.1085C161.58 56.1085 162.189 55.4996 162.189 54.7485C162.189 53.9973 161.58 53.3884 160.829 53.3884C160.078 53.3884 159.469 53.9973 159.469 54.7485C159.469 55.4996 160.078 56.1085 160.829 56.1085Z" fill="white"/>
<path opacity="0.1" d="M95.1012 58.785H60.6162V132.522H95.1012V58.785Z" fill="black"/>
<path opacity="0.1" d="M96.0642 132.527H171.162V58.7899L96.0642 58.7899L96.0642 132.527Z" fill="black"/>
<path opacity="0.2" d="M156.405 64.3413H111.17V96.5805H156.405V64.3413Z" fill="black"/>
<path d="M154.498 61.9553H109.263V94.1946H154.498V61.9553Z" fill="#05F29B"/>
<path opacity="0.5" d="M154.503 61.9553H109.263V94.1946H154.503V61.9553Z" fill="white"/>
<path opacity="0.7" d="M153.83 67.8746H109.931V93.5218H153.83V67.8746Z" fill="white"/>
<path d="M154.498 61.9553H109.263V67.0034H154.498V61.9553Z" fill="#05F29B"/>
<path opacity="0.7" d="M151.4 65.8418C152.151 65.8418 152.76 65.2329 152.76 64.4818C152.76 63.7306 152.151 63.1217 151.4 63.1217C150.649 63.1217 150.04 63.7306 150.04 64.4818C150.04 65.2329 150.649 65.8418 151.4 65.8418Z" fill="white"/>
<path opacity="0.7" d="M147.431 65.8418C148.182 65.8418 148.791 65.2329 148.791 64.4818C148.791 63.7306 148.182 63.1217 147.431 63.1217C146.68 63.1217 146.071 63.7306 146.071 64.4818C146.071 65.2329 146.68 65.8418 147.431 65.8418Z" fill="white"/>
<path opacity="0.7" d="M144.817 64.4816C144.817 64.7506 144.737 65.0136 144.588 65.2372C144.439 65.4609 144.226 65.6352 143.978 65.7381C143.729 65.8411 143.456 65.868 143.192 65.8155C142.928 65.7631 142.686 65.6335 142.496 65.4433C142.305 65.2531 142.176 65.0108 142.123 64.747C142.071 64.4831 142.098 64.2097 142.201 63.9612C142.304 63.7127 142.478 63.5002 142.702 63.3508C142.925 63.2014 143.188 63.1216 143.457 63.1216C143.636 63.121 143.813 63.1557 143.978 63.2238C144.144 63.2919 144.294 63.3921 144.42 63.5185C144.547 63.6449 144.647 63.7951 144.715 63.9604C144.783 64.1257 144.818 64.3029 144.817 64.4816Z" fill="white"/>
<path opacity="0.2" d="M109.931 87.1329L122.399 79.6455L131.493 84.6113L145.423 75.817L153.83 82.0848V93.5217H109.931V87.1329Z" fill="#05F29B"/>
<path d="M122.651 74.6942C122.651 75.3642 122.452 76.0193 122.08 76.5764C121.707 77.1336 121.178 77.5678 120.559 77.8243C119.94 78.0807 119.259 78.1478 118.602 78.0171C117.944 77.8863 117.341 77.5637 116.867 77.0898C116.393 76.616 116.07 76.0123 115.94 75.3551C115.809 74.6979 115.876 74.0167 116.132 73.3976C116.389 72.7785 116.823 72.2494 117.38 71.8771C117.937 71.5049 118.592 71.3062 119.263 71.3062C120.161 71.3062 121.023 71.6631 121.658 72.2985C122.294 72.9339 122.651 73.7956 122.651 74.6942Z" fill="white"/>
<path opacity="0.2" d="M114.064 90.129H109.263V94.1946H114.064V90.129Z" fill="black"/>
<path opacity="0.2" d="M162.842 111.788H117.607V134.55H162.842V111.788Z" fill="black"/>
<path d="M165.175 112.92H119.94V145.16H165.175V112.92Z" fill="#05F29B"/>
<path opacity="0.5" d="M165.175 112.92H119.94V145.16H165.175V112.92Z" fill="white"/>
<path opacity="0.7" d="M164.507 118.84H120.608V144.487H164.507V118.84Z" fill="white"/>
<path d="M140.224 122.436L136.744 132.929H134.678L132.083 125.185L129.446 132.929H127.364L123.904 122.436H125.927L128.536 130.407L131.251 122.436H133.047L135.699 130.456L138.385 122.436H140.224Z" fill="#263238"/>
<path d="M165.175 112.92H119.94V117.969H165.175V112.92Z" fill="#05F29B"/>
<path opacity="0.7" d="M163.437 115.447C163.437 115.716 163.357 115.979 163.208 116.202C163.058 116.426 162.846 116.6 162.597 116.703C162.349 116.806 162.075 116.833 161.812 116.781C161.548 116.728 161.305 116.599 161.115 116.409C160.925 116.218 160.795 115.976 160.743 115.712C160.69 115.448 160.717 115.175 160.82 114.926C160.923 114.678 161.098 114.465 161.321 114.316C161.545 114.167 161.808 114.087 162.077 114.087C162.438 114.087 162.783 114.23 163.039 114.485C163.294 114.74 163.437 115.086 163.437 115.447Z" fill="white"/>
<path opacity="0.7" d="M159.463 115.447C159.463 115.716 159.383 115.979 159.234 116.202C159.085 116.426 158.872 116.6 158.624 116.703C158.375 116.806 158.102 116.833 157.838 116.781C157.574 116.728 157.332 116.599 157.142 116.409C156.951 116.218 156.822 115.976 156.769 115.712C156.717 115.448 156.744 115.175 156.847 114.926C156.95 114.678 157.124 114.465 157.348 114.316C157.571 114.167 157.834 114.087 158.103 114.087C158.464 114.087 158.81 114.23 159.065 114.485C159.32 114.74 159.463 115.086 159.463 115.447Z" fill="white"/>
<path opacity="0.7" d="M155.495 115.447C155.495 115.716 155.415 115.979 155.266 116.202C155.116 116.426 154.904 116.6 154.655 116.703C154.407 116.806 154.133 116.833 153.87 116.781C153.606 116.728 153.363 116.599 153.173 116.409C152.983 116.218 152.854 115.976 152.801 115.712C152.749 115.448 152.775 115.175 152.878 114.926C152.981 114.678 153.156 114.465 153.379 114.316C153.603 114.167 153.866 114.087 154.135 114.087C154.496 114.087 154.842 114.23 155.097 114.485C155.352 114.74 155.495 115.086 155.495 115.447Z" fill="white"/>
<path d="M161.23 122.678H142.291V123.162H161.23V122.678Z" fill="#263238"/>
<path d="M161.23 125.171H142.291V125.655H161.23V125.171Z" fill="#263238"/>
<path d="M161.23 127.663H142.291V128.147H161.23V127.663Z" fill="#263238"/>
<path d="M161.23 130.156H142.291V130.64H161.23V130.156Z" fill="#263238"/>
<path d="M161.23 132.653H142.291V133.137H161.23V132.653Z" fill="#263238"/>
<path d="M161.225 135.146H123.884V135.63H161.225V135.146Z" fill="#263238"/>
<path d="M161.225 137.638H123.884V138.122H161.225V137.638Z" fill="#263238"/>
<path d="M161.225 140.131H123.884V140.615H161.225V140.131Z" fill="#263238"/>
<path opacity="0.2" d="M111.456 94.6785H66.2209V126.918H111.456V94.6785Z" fill="black"/>
<path d="M113.397 91.2856H68.1619V123.525H113.397V91.2856Z" fill="#05F29B"/>
<path opacity="0.5" d="M113.397 91.2856H68.1619V123.525H113.397V91.2856Z" fill="white"/>
<path opacity="0.7" d="M112.729 97.205H68.8298V122.852H112.729V97.205Z" fill="white"/>
<path d="M85.7359 107.204L78.7566 109.813L85.7359 112.422V114.523L76.4141 110.907V108.719L85.7359 105.104V107.204Z" fill="#263238"/>
<path d="M93.0924 99.8622H95.3478L88.6831 118.937H86.4229L93.0924 99.8622Z" fill="#263238"/>
<path d="M105.164 108.719V110.907L95.832 114.523V112.422L102.811 109.813L95.832 107.204V105.104L105.164 108.719Z" fill="#263238"/>
<path d="M113.397 91.2856H68.1619V96.3338H113.397V91.2856Z" fill="#05F29B"/>
<path opacity="0.7" d="M111.654 93.8122C111.654 94.0814 111.574 94.3445 111.425 94.5683C111.275 94.7921 111.062 94.9664 110.813 95.0692C110.565 95.172 110.291 95.1986 110.027 95.1457C109.763 95.0929 109.521 94.9629 109.331 94.7722C109.141 94.5815 109.012 94.3387 108.96 94.0745C108.908 93.8104 108.935 93.5368 109.039 93.2884C109.143 93.0399 109.318 92.8279 109.542 92.679C109.766 92.5302 110.03 92.4512 110.299 92.4522C110.477 92.4522 110.654 92.4874 110.819 92.5558C110.983 92.6242 111.133 92.7244 111.259 92.8508C111.385 92.9772 111.485 93.1271 111.552 93.2921C111.62 93.4571 111.655 93.6338 111.654 93.8122Z" fill="white"/>
<path opacity="0.7" d="M107.685 93.8122C107.685 94.0812 107.605 94.3441 107.456 94.5678C107.306 94.7914 107.094 94.9658 106.845 95.0687C106.597 95.1716 106.323 95.1986 106.06 95.1461C105.796 95.0936 105.553 94.9641 105.363 94.7739C105.173 94.5837 105.043 94.3413 104.991 94.0775C104.939 93.8137 104.965 93.5402 105.068 93.2917C105.171 93.0432 105.346 92.8308 105.569 92.6814C105.793 92.5319 106.056 92.4521 106.325 92.4521C106.686 92.4521 107.032 92.5954 107.287 92.8505C107.542 93.1056 107.685 93.4515 107.685 93.8122Z" fill="white"/>
<path opacity="0.7" d="M103.716 93.8122C103.716 94.0812 103.636 94.3441 103.487 94.5678C103.338 94.7914 103.125 94.9658 102.877 95.0687C102.628 95.1716 102.355 95.1986 102.091 95.1461C101.827 95.0936 101.585 94.9641 101.394 94.7739C101.204 94.5837 101.075 94.3413 101.022 94.0775C100.97 93.8137 100.997 93.5402 101.1 93.2917C101.203 93.0432 101.377 92.8308 101.601 92.6814C101.824 92.5319 102.087 92.4521 102.356 92.4521C102.717 92.4521 103.063 92.5954 103.318 92.8505C103.573 93.1056 103.716 93.4515 103.716 93.8122Z" fill="white"/>
</svg>
