<svg width="65" height="170" viewBox="0 0 65 170" fill="none" xmlns="http://www.w3.org/2000/svg">
<g opacity="0.5" clip-path="url(#clip0_882_197)">
<path d="M44.0254 170L65 170L54.5127 159.51L44.0254 170Z" fill="#6320EE"/>
<path d="M44.0254 134.451L65 134.451L54.5127 123.96L44.0254 134.451Z" fill="#6320EE"/>
<path d="M44.0254 98.8862L65 98.8862L54.5127 88.3958L44.0254 98.8862Z" fill="#6320EE"/>
<path d="M44.0254 63.3369L65 63.3369L54.5127 52.8465L44.0254 63.3369Z" fill="#6320EE"/>
<path d="M44.0254 27.7876L65 27.7876L54.5127 17.282L44.0254 27.7876Z" fill="#6320EE"/>
<path d="M0.000507355 152.718L20.9751 152.718L10.4878 142.228L0.000507355 152.718Z" fill="#6320EE"/>
<path d="M0.000507355 117.154L20.9751 117.154L10.4878 106.663L0.000507355 117.154Z" fill="#6320EE"/>
<path d="M0.000507355 81.6042L20.9751 81.6042L10.4878 71.1138L0.000507355 81.6042Z" fill="#6320EE"/>
<path d="M0.000507355 46.0549L20.9751 46.0549L10.4878 35.5645L0.000507355 46.0549Z" fill="#6320EE"/>
<path d="M0.000507355 10.4905L20.9751 10.4905L10.4878 2.3805e-05L0.000507355 10.4905Z" fill="#6320EE"/>
</g>
<defs>
<clipPath id="clip0_882_197">
<rect width="65" height="170" fill="white" transform="translate(65 170) rotate(180)"/>
</clipPath>
</defs>
</svg>
